<svg xmlns="http://www.w3.org/2000/svg" xmlns:xlink="http://www.w3.org/1999/xlink" viewBox="0 0 72 72">
	<g stroke-width="3" stroke-linejoin="round">
    <path fill="#e6e6e6" d="M63,72H9c-4.9,0-9-4.05-9-9L0,9c0-4.95,4.05-9,9-9l54,0c4.95,0,9,4.05,9,9v54C72,67.95,67.95,72,63,72z"/>
    <polygon id="picker" fill="#000" points="48,32 24,56 16,56 16,48 32,32" style="fill: rgb(204, 102, 204);"></polygon>
		<path fill="#333" stroke="#333" d="M48,16c0,0,0-4,4-4s8,4,8,8s-4,4-4,4"></path>
		<circle fill="#333" stroke="#333" cx="60" cy="12" r="8"></circle>
		<polygon fill="none" stroke="#333" points="32,32 16,48 16,56 24,56 48,32 56,24 48,16"></polygon>
		<path id="motionPath" fill="none" d="M0,0,v96"></path>
		<path id="drop" fill="#000" stroke="#333" d="M14.9,67.2c-1.1,0-2.2-0.6-3.2-1.9c-0.8-1-1.1-1.9-0.9-3c0.4-2.5,3.2-4.6,4.3-5.4c2.4,1.6,3.8,3.3,4.1,5.1
			c0.3,1.9-0.8,3.3-0.8,3.3C18.4,65.3,16.8,67.2,14.9,67.2L14.9,67.2z" style="fill: rgb(204, 102, 204);"></path>
		<animateMotion xlink:href="#drop" dur="3s" repeatCount="indefinite">
			<mpath xlink:href="#motionPath"></mpath>
		</animateMotion>
</g>
</svg>
