<svg xmlns="http://www.w3.org/2000/svg" viewBox="0 0 216 216">
<style type="text/css">
	.st0{fill:#B3B3E6;stroke:#19194D;stroke-width:6;stroke-linejoin:round;}
</style>
	<path class="st0" d="M191.1,60v96L160,78L191.1,60z M160,78l31.2,78L108,168L160,78z M191.1,60L160,78l-52-66L191.1,60z M191.1,156
		L108,204v-36L191.1,156z M108,12l52,66H56L108,12z M160,78l-52,90L56,78H160z M108,168v36l-83.1-48L108,168z M108,12L56,78L24.9,60
		L108,12z M56,78l52,90l-83.1-12L56,78z M56,78l-31.2,78V60L56,78z"/>
</svg>