<?xml version="1.0" encoding="utf-8"?>
<!-- Generator: Adobe Illustrator 26.2.1, SVG Export Plug-In . SVG Version: 6.00 Build 0)  -->
<svg version="1.1" xmlns="http://www.w3.org/2000/svg" xmlns:xlink="http://www.w3.org/1999/xlink" x="0px" y="0px"
	 viewBox="0 0 1000 1000" style="enable-background:new 0 0 1000 1000;" xml:space="preserve">
<style type="text/css">
	.st0{fill:#FFFFFF;}
	.st1{filter:url(#Adobe_OpacityMaskFilter);}
	.st2{fill:url(#SVGID_00000088115629448591836340000000383544472775810983_);}
	.st3{mask:url(#SVGID_1_);fill:#E4E3EA;}
	.st4{fill:#E4E3EA;}
	.st5{filter:url(#Adobe_OpacityMaskFilter_00000055692668431744768000000017463815545842998171_);}
	.st6{mask:url(#SVGID_00000128456537190541845600000017885070104105368199_);fill:#E4E3EA;}
	.st7{filter:url(#Adobe_OpacityMaskFilter_00000178905953944085026550000018231046879013536134_);}
	.st8{fill:url(#SVGID_00000176724522805459630900000015894027979045609095_);}
	.st9{mask:url(#SVGID_00000002381344883233192740000004521140400659157682_);fill:#E4E3EA;}
	.st10{fill:#CBCBDB;}
	.st11{filter:url(#Adobe_OpacityMaskFilter_00000062900666324586531160000016575138691810587313_);}
	.st12{mask:url(#SVGID_00000098941749116364966760000008260939860982845322_);fill:#FFFFFF;}
	.st13{fill:#CDCDCD;}
	.st14{fill:#ACACAC;}
	.st15{clip-path:url(#SVGID_00000123403003676871379020000014722071041266341790_);}
	.st16{fill:#1D1C4E;}
	.st17{clip-path:url(#SVGID_00000150061878275442227710000011807892291833979013_);}
	.st18{filter:url(#Adobe_OpacityMaskFilter_00000018956357981171015630000001516120800197556156_);}
	.st19{fill:url(#SVGID_00000097468777199038530350000004693767065912452000_);}
	.st20{mask:url(#SVGID_00000121995630182866800770000014714726184184081598_);fill:#CBCBDB;}
	.st21{fill:none;stroke:#1D1C4E;stroke-width:6;stroke-miterlimit:10;}
	.st22{fill:#292963;}
	.st23{fill:#373777;}
</style>
<g id="Layer_2">
</g>
<g id="Layer_3">
</g>
<g id="Layer_4">
	<path class="st0" d="M713.8,498.3c-2,18-18.2,33.5-20,59c-1.8,25.5-11.8,31.7-11.8,31.7s-14.2,19.1-24.6,62.2
		c-10.4,43.1-41.2,73.6-41.2,73.6l-12.7,80.3L486.2,912.5L335.5,793.9l-6.5-63.4l-4.7-45.4c0,0-4-8.6-14.4-33.1
		c-10.4-24.4-12.1-65.6-12.1-65.6s-0.9,0-2.3-0.4c-1.5-0.3-3.7-0.9-6.2-2.1c-5-2.3-9.1-12.3-15.9-30.8
		c-6.8-18.6-10.8-30.9-12.5-55.5c-1.7-24.6-6.2-35.8-1.7-47.2c4.6-11.4,16-3.1,16-3.1l4.7-31.3l0.1-0.9c0,0,0,0,0,0l3.2-21.4
		c0-0.1,0-0.1,0-0.2l2.2-14.7c0-0.2,0.1-0.3,0.1-0.5l5.4-36.4c0,0,9.2-86.5,45.5-120.7c2.6-2.5,5.4-4.7,8.4-6.6
		c13.3-8.5,45-16.5,83.9-21.6c87.3-11.4,211-8.5,245.9,34.5c50.4,62.1,33.9,239.7,33.9,239.7s1.3,1.6,5.3,3.8
		C717.8,473.2,715.8,480.3,713.8,498.3z"/>
	<defs>
		<filter id="Adobe_OpacityMaskFilter" filterUnits="userSpaceOnUse" x="280" y="190.4" width="376.3" height="642.7">
			<feColorMatrix  type="matrix" values="1 0 0 0 0  0 1 0 0 0  0 0 1 0 0  0 0 0 1 0"/>
		</filter>
	</defs>
	<mask maskUnits="userSpaceOnUse" x="280" y="190.4" width="376.3" height="642.7" id="SVGID_1_">
		<g class="st1">
			
				<linearGradient id="SVGID_00000093151304049822965060000006067120008140168626_" gradientUnits="userSpaceOnUse" x1="457.0837" y1="260.9243" x2="494.9596" y2="868.4538">
				<stop  offset="0" style="stop-color:#FFFFFF"/>
				<stop  offset="1" style="stop-color:#000000"/>
			</linearGradient>
			<path style="fill:url(#SVGID_00000093151304049822965060000006067120008140168626_);" d="M633.8,437.8
				c-10.7-7.1-22.5-9.7-30.4-10.6c8.2,0.7,20.6,2.7,31.2,8.2c13,6.7,19.4,16.6,21.7,21c-0.6-1.9-1.5-5.4-2.1-11.7
				c-1.3-12.2-16.8-19.1-16.8-19.8c0-0.8-39.4-9-25.5-16.2c13.9-7.2,37.9-9.3,37.9-9.3l-42.9-13.5c0,0-33.6-5.3-105.6-15.7
				c-72-10.4-145.4,2.3-145.4,2.3s16.6-85.4,35.3-87.4c18.7-2,59.3,13.4,90.6-3.5c31.3-16.9,103.3-29,103.3-29
				s-84.9-47.6-156.2-59.5c-12-2-23.6-3-34.3-2.5c-10.1,0.4-19.4,2-27.6,5.2c-11.6,4.5-21.6,13.5-30.4,25.5
				c-29.3,40.1-44,113.1-50.9,157.1c0,0.2,0,0.3-0.1,0.5c-0.8,5.4-1.6,10.3-2.2,14.7c0,0.1,0,0.1,0,0.2c-1.8,12.9-2.8,21-3.2,21.4
				c0,0,0,0,0,0c-0.1,0.1-0.1,0.4-0.1,0.9c-0.5,12.6,14.1,155,15.6,170.1c1.4,0.3,2.3,0.4,2.3,0.4s1.7,41.2,12.1,65.6
				c2.9,6.9,5.3,12.5,7.3,17c5,11.6,7.1,16,7.1,16l4.7,45.4c10.3,12.6,41.5,50.4,67.2,72c31.1,26,104.5,38.6,127.5,25.2
				c22.8-13.3,83.4-89.7,84.3-90.9c-0.5,0.3-34.8,21.3-57.8,27.8c-23.2,6.6-45.7,8.1-81.8,2c-36.1-6.1-47.1-34.8-69.1-61.5
				c-22-26.7-40.9-82.2-37.1-78.5c3.8,3.8,12.9,16.9,20.1,20.5c7.2,3.6,11.4,5.7,11.4,5.7s-8.3-22.9-3.2-19.8
				c5.1,3.1,10.2,10.9,25.9,7.7c15.7-3.2,30.3-0.8,30.3-0.8s-25.6-19.9-17.6-31.1c6.5-9.2,26.2-31,33.1-38.5
				c9,2.6,17.2,4.2,20.8,7.7c8.7,8.7,21.2,11.1,35.7,2.9c14.5-8.2,44.2-5.4,48.5-24.5c4.3-19.1-8.2-38.3-8.2-38.3s-15-61.7-13-59.7
				c2,2,17.9,19.4,27.1,19.4c9,0,27.3,5.4,28.1,5.7c-1.3-0.8-46.4-27.6-42.3-27.6c4.1,0,26.9,13.8,53.9,12.9s40.3-9.6,40.3-9.6
				S652.2,450.2,633.8,437.8z M432.4,425.8c-0.6-0.3-24.4-10.8-46.2-10c-12.9,0.5-28.7,9.3-39.6,16.6c3-3.8,6.7-7.8,9.2-9.4
				c5.3-3.3,23.7-11,44-12.8C419.9,408.6,432.1,425.3,432.4,425.8z M388.2,379.2c0.9,0,21.8,17.2,17.7,19.9
				c-4.2,2.8-41.1,4.8-50,13.8c-6,6-10.8,16.2-13.2,22.2c-3.2,2.2-5.7,4.1-7.3,5.4c2.3-11,4.7-20.3,6.5-27
				C348.5,390.1,387.4,379.2,388.2,379.2z M454.8,491c-1.3,3.2-17.5,15.1-23.3,32.4c-8.2,7.3-32.1,28.3-45.4,39.3
				c-16.3,13.5-13.4,39.5-25.7,35.2c-12.4-4.3-18.2-19.4-28.3-61.4c-7.2-29.7-2.5-67.2,3.1-94.9c1.6-0.2,4.5-0.2,8.6,1.4
				c6.7,2.6,17.9,16.2,42.2,16.2c24.2,0,50.5-7.8,48.6-5.9c-1.9,1.9-14.9,8.2-17.7,11c-2.8,2.8-14.8,10.6-14.8,10.6s1,0,17.9-6.2
				c16.9-6.2,43.3-16.7,43.3-14.1C463.4,457.1,456.7,486.5,454.8,491z"/>
		</g>
	</mask>
	<path class="st3" d="M633.8,437.8c-10.7-7.1-22.5-9.7-30.4-10.6c8.2,0.7,20.6,2.7,31.2,8.2c13,6.7,19.4,16.6,21.7,21
		c-0.6-1.9-1.5-5.4-2.1-11.7c-1.3-12.2-16.8-19.1-16.8-19.8c0-0.8-39.4-9-25.5-16.2c13.9-7.2,37.9-9.3,37.9-9.3l-42.9-13.5
		c0,0-33.6-5.3-105.6-15.7c-72-10.4-145.4,2.3-145.4,2.3s16.6-85.4,35.3-87.4c18.7-2,59.3,13.4,90.6-3.5
		c31.3-16.9,103.3-29,103.3-29s-84.9-47.6-156.2-59.5c-12-2-23.6-3-34.3-2.5c-10.1,0.4-19.4,2-27.6,5.2
		c-11.6,4.5-21.6,13.5-30.4,25.5c-29.3,40.1-44,113.1-50.9,157.1c0,0.2,0,0.3-0.1,0.5c-0.8,5.4-1.6,10.3-2.2,14.7c0,0.1,0,0.1,0,0.2
		c-1.8,12.9-2.8,21-3.2,21.4c0,0,0,0,0,0c-0.1,0.1-0.1,0.4-0.1,0.9c-0.5,12.6,14.1,155,15.6,170.1c1.4,0.3,2.3,0.4,2.3,0.4
		s1.7,41.2,12.1,65.6c2.9,6.9,5.3,12.5,7.3,17c5,11.6,7.1,16,7.1,16l4.7,45.4c10.3,12.6,41.5,50.4,67.2,72
		c31.1,26,104.5,38.6,127.5,25.2c22.8-13.3,83.4-89.7,84.3-90.9c-0.5,0.3-34.8,21.3-57.8,27.8c-23.2,6.6-45.7,8.1-81.8,2
		c-36.1-6.1-47.1-34.8-69.1-61.5c-22-26.7-40.9-82.2-37.1-78.5c3.8,3.8,12.9,16.9,20.1,20.5c7.2,3.6,11.4,5.7,11.4,5.7
		s-8.3-22.9-3.2-19.8c5.1,3.1,10.2,10.9,25.9,7.7c15.7-3.2,30.3-0.8,30.3-0.8s-25.6-19.9-17.6-31.1c6.5-9.2,26.2-31,33.1-38.5
		c9,2.6,17.2,4.2,20.8,7.7c8.7,8.7,21.2,11.1,35.7,2.9c14.5-8.2,44.2-5.4,48.5-24.5c4.3-19.1-8.2-38.3-8.2-38.3s-15-61.7-13-59.7
		c2,2,17.9,19.4,27.1,19.4c9,0,27.3,5.4,28.1,5.7c-1.3-0.8-46.4-27.6-42.3-27.6c4.1,0,26.9,13.8,53.9,12.9s40.3-9.6,40.3-9.6
		S652.2,450.2,633.8,437.8z M432.4,425.8c-0.6-0.3-24.4-10.8-46.2-10c-12.9,0.5-28.7,9.3-39.6,16.6c3-3.8,6.7-7.8,9.2-9.4
		c5.3-3.3,23.7-11,44-12.8C419.9,408.6,432.1,425.3,432.4,425.8z M388.2,379.2c0.9,0,21.8,17.2,17.7,19.9c-4.2,2.8-41.1,4.8-50,13.8
		c-6,6-10.8,16.2-13.2,22.2c-3.2,2.2-5.7,4.1-7.3,5.4c2.3-11,4.7-20.3,6.5-27C348.5,390.1,387.4,379.2,388.2,379.2z M454.8,491
		c-1.3,3.2-17.5,15.1-23.3,32.4c-8.2,7.3-32.1,28.3-45.4,39.3c-16.3,13.5-13.4,39.5-25.7,35.2c-12.4-4.3-18.2-19.4-28.3-61.4
		c-7.2-29.7-2.5-67.2,3.1-94.9c1.6-0.2,4.5-0.2,8.6,1.4c6.7,2.6,17.9,16.2,42.2,16.2c24.2,0,50.5-7.8,48.6-5.9
		c-1.9,1.9-14.9,8.2-17.7,11c-2.8,2.8-14.8,10.6-14.8,10.6s1,0,17.9-6.2c16.9-6.2,43.3-16.7,43.3-14.1
		C463.4,457.1,456.7,486.5,454.8,491z"/>
	<path class="st4" d="M657.3,458.5c0,0-0.5-0.5-1-2.1C656.9,457.6,657.2,458.4,657.3,458.5z"/>
	<path class="st4" d="M290.1,491.9c0,0-8.3-22.7-16.2-27.7c-8-5.1-13.3,13-10.1,30.9c3.2,17.9,3.2,22.1,3.2,17.9
		c0-4.2,2-26.4,6.1-30.5s2.9,17,2.9,17s-4.7,10.2-4.7,24.5c0,14.3,17.2,18.6,19.7,21.1c2.5,2.5,2.5,2.5,2.5,2.5s-4.2-8.3-6.8-13.3
		s0.4-15.2,1.5-19.3C289.3,510.7,290.1,491.9,290.1,491.9z"/>
	<path class="st4" d="M692.8,512.5c0,0,12.2-21.6,18.4-25.4c6.3-3.8-7.6,38.2-7.6,38.2s1.1-14-0.8-15.8c-1.9-1.9-3.6,13.8-3.6,14.8
		s-1,17.4-3.8,27.3c-2.8,9.8-4.5,9.2-6.9,11.7c-2.5,2.5-4.8,7.3-4.8,7.3s-1.4-11.5,2.2-17.5s4.7-22.5,4.7-22.5L692.8,512.5z"/>
	<defs>
		
			<filter id="Adobe_OpacityMaskFilter_00000155852932158285248590000005039318651037264557_" filterUnits="userSpaceOnUse" x="560.6" y="522.9" width="59.5" height="144">
			<feColorMatrix  type="matrix" values="1 0 0 0 0  0 1 0 0 0  0 0 1 0 0  0 0 0 1 0"/>
		</filter>
	</defs>
	
		<mask maskUnits="userSpaceOnUse" x="560.6" y="522.9" width="59.5" height="144" id="SVGID_00000167355288930528825670000017600781428379035291_">
		<g style="filter:url(#Adobe_OpacityMaskFilter_00000155852932158285248590000005039318651037264557_);">
			
				<image style="overflow:visible;" width="56" height="136" xlink:href="AF921C8E.jpg"  transform="matrix(1.0626 0 0 1.0626 560.576 522.9119)">
			</image>
		</g>
	</mask>
	<path style="mask:url(#SVGID_00000167355288930528825670000017600781428379035291_);fill:#E4E3EA;" d="M561.5,522.9
		c0,0,49.6,50.8,56.2,68.7s-2.4,39.4-13.3,55.8c-10.9,16.4-12.4,21.5-11.6,18.9c0.8-2.5,6.1-19.9,6.1-27.5s6.6-24.5,2-42.7
		s-40.4-31.4-40.4-32.9S572.3,543.9,561.5,522.9z"/>
	<defs>
		
			<filter id="Adobe_OpacityMaskFilter_00000075158163675574613980000004720649920941199027_" filterUnits="userSpaceOnUse" x="569.6" y="230.3" width="149.6" height="543.2">
			<feColorMatrix  type="matrix" values="1 0 0 0 0  0 1 0 0 0  0 0 1 0 0  0 0 0 1 0"/>
		</filter>
	</defs>
	
		<mask maskUnits="userSpaceOnUse" x="569.6" y="230.3" width="149.6" height="543.2" id="SVGID_00000086663674709032528370000007167704894134526880_">
		<g style="filter:url(#Adobe_OpacityMaskFilter_00000075158163675574613980000004720649920941199027_);">
			
				<linearGradient id="SVGID_00000151544835147097394450000003875203767852697218_" gradientUnits="userSpaceOnUse" x1="694.4028" y1="305.5821" x2="554.6407" y2="805.5441">
				<stop  offset="0" style="stop-color:#FFFFFF"/>
				<stop  offset="1" style="stop-color:#000000"/>
			</linearGradient>
			<path style="fill:url(#SVGID_00000151544835147097394450000003875203767852697218_);" d="M650.8,230.3
				c0,11.9,31.8,17.6,22.7,92.6s-2.7,105.9,3.8,164s-25,116-39,133.4c-14,17.4-17.8,43.6-32.6,88.3c-14.8,44.6-36.2,65-36.2,65
				s61.1-58.1,76.7-96.1c15.7-38,32.5-78,39.5-112.9c7-34.8,10.7-88.3,12.3-97.3c1.6-9.1,25-106.1,20.5-164.8
				S650.8,230.3,650.8,230.3z"/>
		</g>
	</mask>
	<path style="mask:url(#SVGID_00000086663674709032528370000007167704894134526880_);fill:#E4E3EA;" d="M650.8,230.3
		c0,11.9,31.8,17.6,22.7,92.6s-2.7,105.9,3.8,164s-25,116-39,133.4c-14,17.4-17.8,43.6-32.6,88.3c-14.8,44.6-36.2,65-36.2,65
		s61.1-58.1,76.7-96.1c15.7-38,32.5-78,39.5-112.9c7-34.8,10.7-88.3,12.3-97.3c1.6-9.1,25-106.1,20.5-164.8S650.8,230.3,650.8,230.3
		z"/>
	<path class="st10" d="M564.9,392.4c0,0-27.8,18.7-32.6,25s-5.3,43.2-4.2,55.9s18.5,13.5,20.5,15.5c2,2,2.3,2.8,2.3,2.8
		s-6.6-30.4-6.6-34.3c0-3.9,31.2,15.4,31.2,15.4s-6.2-3.6-7.7-7.2c-1.5-3.6-10.6-6.9-12-9.6s12.6,2.9,31.4,7.1s36.5,1.3,49.2-2.9
		C649.2,456,652,456,652,456s-10-16.5-28-23.5s-30.2-4.4-30.2-4.4s9.1-4.3,29.5,0.4c20.5,4.6,29.4,16.6,29.4,17.8
		c0,1.3-12.6-16.9-13.9-19.2c-1.4-2.3-15.8-5.8-37.4-10.2c-21.6-4.4-5.8-24.4-5.8-24.4H564.9z"/>
	<path class="st10" d="M442.7,379.2c2,2,37.8,28,44,39.7c6.2,11.7,1.5,92.8,1.5,92.8s-9.6,22,13.3,30.5
		c22.9,8.5,32.8-10.9,33.6-16.3c0.9-5.4,0.9-5.4,0.9-5.4s2.8,7.6,0,15.9s15.2,7,21.7,9.3c6.5,2.3,2.4-15.9,0-19.7s-5.3-7.8-5.3-7.8
		s14.9,14.1,14.9,29.8c0,15.7-16.8,20.5-23.1,22c-6.3,1.5-25,5.3-33.6,9.2c-8.6,3.9-19.2,2.1-26.4-3.5s-28.4-7.3-41.5-17.9
		c-13.1-10.6-18.1-22.1-5.9-38.9c12.2-16.8,20.3-26.8,20.7-27.2c0.4-0.4,6.8-37.3,6.8-39.3s-23.9,4.6-31.5,7.9c-7.6,3.3-8,3.4-8,3.4
		s6.2-6.1,6.7-6.6c0.5-0.5,7.6-6.1,9.1-6.6c1.5-0.6-26,4.3-50,4.3c-24,0-38.1-13.5-42-15.2c-4-1.6-4.7-1.3-4.7-1.3
		s18.7-19,41.3-21.5c22.5-2.6,49.9,10.6,50.3,11s-14.7-14-21.3-16.5c-6.6-2.5-32.3-0.5-39,1.6c-6.7,2.1-21.1,9.8-22.9,11.8
		s-6.1,6.3-6.1,6.8s7-11.8,14-17.9s47.8-10.4,53.8-14.9c6-4.5,1.1-18.6,1.1-18.6L442.7,379.2z"/>
	<defs>
		
			<filter id="Adobe_OpacityMaskFilter_00000181047015340910225260000008911753582645719686_" filterUnits="userSpaceOnUse" x="489.5" y="406.3" width="42.1" height="135.4">
			<feColorMatrix  type="matrix" values="1 0 0 0 0  0 1 0 0 0  0 0 1 0 0  0 0 0 1 0"/>
		</filter>
	</defs>
	
		<mask maskUnits="userSpaceOnUse" x="489.5" y="406.3" width="42.1" height="135.4" id="SVGID_00000054955571266094736940000008211554658046025636_">
		<g style="filter:url(#Adobe_OpacityMaskFilter_00000181047015340910225260000008911753582645719686_);">
			
				<image style="overflow:visible;" width="40" height="129" xlink:href="AF921C8D.jpg"  transform="matrix(1.0626 0 0 1.0626 489.54 405.1892)">
			</image>
		</g>
	</mask>
	<path style="mask:url(#SVGID_00000054955571266094736940000008211554658046025636_);fill:#FFFFFF;" d="M523,409.9
		c0,0,3.9,84,7.4,101.8c3.5,17.9-0.2,26.9-14.6,29.6c-14.4,2.7-30.7-7.8-25.2-31.6c5.5-23.9,1.3-85,3-93.6
		C495.4,407.6,518.5,402.3,523,409.9z"/>
	<path class="st4" d="M465.8,520.6c0,0,5.3,7.4,2.3,12.6c-3,5.2-15.4,8.4-23.3,8.4c-7.9,0,0.1-13.3,5.6-16.9
		C456,521.3,464.9,521.5,465.8,520.6z"/>
	<path class="st10" d="M589.5,561.4c0,0,22,25.2,26.1,37s-1,20.5-4.5,29.1c-3.5,8.5-3.5,8.5-3.5,8.5s3.1-11.8,3.9-16.7
		c0.8-4.8,2.9-17.2-4.1-27.9c-7-10.7-15.3-20.9-21-29.1c-5.7-8.1-9.1-12.4-9.1-12.4s8.2,6.7,9.9,8.4
		C589,560.1,589.5,561.4,589.5,561.4z"/>
	<path class="st10" d="M412.4,551.6c0,0-27.1,22.4-32.4,37.4c-5.3,15-1.3,42.4,0,46.4c1.3,4,1.3,4,1.3,4s-5.5-10.3-8-12.8
		s-5.1-26.6,3.8-45.3S408.6,555.5,412.4,551.6z"/>
	<path class="st4" d="M574,624.6c0,0,6.8-7.3,14.1-7.3c7.3,0,9.1,0,9.1,0s-2.4,10.2-5.6,13.4c-3.2,3.2-31.1-1.8-31.1-1.8L574,624.6z
		"/>
	<path class="st4" d="M439.6,650.4c0,0,14.1,29.3,31.3,34.3s45.7,7.8,61.4-1.8c15.7-9.6,26.5-37.9,26.5-37.9s-59.3,1-80.5-1.3
		C457,641.6,438.1,650.4,439.6,650.4z"/>
	<path class="st13" d="M581.7,624.6c0,0-22.7,29.6-43.1,37.5c-20.5,7.9-49.2,6.7-72.7,0c-0.1,0-0.1,0-0.2-0.1
		c-23.4-6.7-41.3-22.3-50.7-41.2c0,0,43.8-14.6,56.4-16.5c12.1-1.8,27.8,4.3,29,4.8c0.1,0,0.1,0,0.1,0s16-3.8,28.5-3.8
		S581.7,624.6,581.7,624.6z"/>
	<path class="st14" d="M575.9,625.7c0,0-1.3,0.9-3.6,0.9s-11.6,3.5-29.2,9.2c-17.6,5.7-41.5,0.2-41.5,0.2l-2.4,9c0,0-3.8-7.3-16.9-9
		c-13.1-1.7-39.6-5.3-43.7-5.3c-4.2,0-12.9,4.5-3.4,11.9c6.2,4.9,21,13.8,30.5,19.4c-23.4-6.7-41.3-22.3-50.7-41.2
		c0,0,43.8-14.6,56.4-16.5c12.1-1.8,27.8,4.3,29,4.8c-0.3,6.4,0.2,13.9,4.6,13.4c7.6-1,39.6-2.3,46.1,0
		C557.4,624.8,575.9,625.7,575.9,625.7z"/>
	<path class="st0" d="M563.9,448.3c0,0,21.5-15.1,41-14.3c19.4,0.8,35,16.1,35,17s-12,7.5-17.2,7.5c-5.2,0-7.5,1.2-13.3,0.4
		c-5.8-0.8-22.5-2.7-26.3-4c-3.8-1.2-14.6-3.6-17.8-4.3C562,450,563.9,448.3,563.9,448.3z"/>
	<path class="st0" d="M387.3,420.4c0,0,17.3-2.1,33.6,5.4c16.3,7.5,13,12.7,11.5,14.2c-1.5,1.5-10.2,0.1-18.1,2.8
		s-25.7,2.5-32.7,0.9c-7-1.5-20.6-7.7-21.3-9.6c-0.7-1.9,6.6-6.1,6.6-6.1S380.3,422.9,387.3,420.4z"/>
	<g>
		<defs>
			<path id="SVGID_00000001656473082950974650000016394141204870120836_" d="M387.3,420.4c0,0,17.3-2.1,33.6,5.4
				c16.3,7.5,13,12.7,11.5,14.2c-1.5,1.5-10.2,0.1-18.1,2.8s-25.7,2.5-32.7,0.9c-7-1.5-20.6-7.7-21.3-9.6c-0.7-1.9,6.6-6.1,6.6-6.1
				S380.3,422.9,387.3,420.4z"/>
		</defs>
		<clipPath id="SVGID_00000123436346273528323510000006184861087666788254_">
			<use xlink:href="#SVGID_00000001656473082950974650000016394141204870120836_"  style="overflow:visible;"/>
		</clipPath>
		<g style="clip-path:url(#SVGID_00000123436346273528323510000006184861087666788254_);">
			<circle class="st16" cx="395.9" cy="430.2" r="19.9"/>
			<circle class="st0" cx="403.6" cy="427.7" r="5"/>
		</g>
	</g>
	<g>
		<defs>
			<path id="SVGID_00000007395222978846308360000008028200636018581382_" d="M563.9,448.3c0,0,21.5-15.1,41-14.3
				c19.4,0.8,35,16.1,35,17s-12,7.5-17.2,7.5c-5.2,0-7.5,1.2-13.3,0.4c-5.8-0.8-22.5-2.7-26.3-4c-3.8-1.2-14.6-3.6-17.8-4.3
				C562,450,563.9,448.3,563.9,448.3z"/>
		</defs>
		<clipPath id="SVGID_00000044147092444218765980000007697407370644918955_">
			<use xlink:href="#SVGID_00000007395222978846308360000008028200636018581382_"  style="overflow:visible;"/>
		</clipPath>
		<g style="clip-path:url(#SVGID_00000044147092444218765980000007697407370644918955_);">
			<circle class="st16" cx="603" cy="443.8" r="19.9"/>
			<circle class="st0" cx="610.7" cy="441.3" r="5"/>
		</g>
	</g>
	<path class="st10" d="M340.6,683c15,30.3,65.8,84.2,66.6,85.1c-1-0.8-67.4-50.4-90.1-99.1c-2-4.5-4.4-10.1-7.3-17
		c-10.4-24.4-12.1-65.6-12.1-65.6s-0.9,0-2.3-0.4c-1.5-15.1-16.1-157.5-15.6-170.1c0-0.5,0.1-0.8,0.1-0.9c0,0,0,0,0,0
		c0.4-0.4,1.3-8.5,3.2-21.4c0-0.1,0-0.1,0-0.2c0.6-4.4,1.3-9.3,2.2-14.7c0-0.2,0.1-0.3,0.1-0.5c6.9-44.1,21.6-117,50.9-157.1
		c8.8-12,18.8-21.1,30.4-25.5c8.2-3.2,17.5-4.8,27.6-5.2c6.8,14.3,23.9,39.8,23.9,39.8s-53.6,44.1-68.6,59
		c-15,15-30.4,88.4-40.5,180.8C299.2,562.6,325.5,652.4,340.6,683z"/>
	<defs>
		
			<filter id="Adobe_OpacityMaskFilter_00000003822978876733819610000001337996521518533010_" filterUnits="userSpaceOnUse" x="373.5" y="566.3" width="233.6" height="63.4">
			<feColorMatrix  type="matrix" values="1 0 0 0 0  0 1 0 0 0  0 0 1 0 0  0 0 0 1 0"/>
		</filter>
	</defs>
	
		<mask maskUnits="userSpaceOnUse" x="373.5" y="566.3" width="233.6" height="63.4" id="SVGID_00000080179686095673107850000007581286725295386526_">
		<g style="filter:url(#Adobe_OpacityMaskFilter_00000003822978876733819610000001337996521518533010_);">
			
				<linearGradient id="SVGID_00000059299149441457877720000015711398451834884287_" gradientUnits="userSpaceOnUse" x1="492.3805" y1="480.0353" x2="490.108" y2="626.2363">
				<stop  offset="0" style="stop-color:#FFFFFF"/>
				<stop  offset="1" style="stop-color:#000000"/>
			</linearGradient>
			<path style="fill:url(#SVGID_00000059299149441457877720000015711398451834884287_);" d="M500.7,576.5c0,0-16.9-8.5-23.7-10
				c-6.8-1.5-37.1,7.4-38.3,7.4c-1.1,0-14,14-13.4,13.4c0.6-0.6,9.2-13.4,9.2-13.4s-46,15.2-50.5,17.9s-10.6,17.9-10.6,23.9
				s0,5.9,0,5.9s48-13.3,51.4-14.5c3.4-1.3,25.8-15.4,25.8-15.4L436.2,604c0,0,34-8.4,40-9.1c6.1-0.7,25.6,5,25.6,5
				s21.1-2.9,30.9-2.3c9.8,0.6,34.5,11.5,34.5,11.5l-10.6-12.5c0,0,13.7,13.3,14.1,13.8s22.3,9,28.5,14.2s6.2,5.2,6.2,5.2
				s2.7-12.9,1-19.2c-1.6-6.3-68.1-35.7-68.1-35.7l9.1,8.5c0,0-24.6-13.7-28.3-13.7C515.6,569.6,500.7,576.5,500.7,576.5z"/>
		</g>
	</mask>
	<path style="mask:url(#SVGID_00000080179686095673107850000007581286725295386526_);fill:#CBCBDB;" d="M500.7,576.5
		c0,0-16.9-8.5-23.7-10c-6.8-1.5-37.1,7.4-38.3,7.4c-1.1,0-14,14-13.4,13.4c0.6-0.6,9.2-13.4,9.2-13.4s-46,15.2-50.5,17.9
		s-10.6,17.9-10.6,23.9s0,5.9,0,5.9s48-13.3,51.4-14.5c3.4-1.3,25.8-15.4,25.8-15.4L436.2,604c0,0,34-8.4,40-9.1
		c6.1-0.7,25.6,5,25.6,5s21.1-2.9,30.9-2.3c9.8,0.6,34.5,11.5,34.5,11.5l-10.6-12.5c0,0,13.7,13.3,14.1,13.8s22.3,9,28.5,14.2
		s6.2,5.2,6.2,5.2s2.7-12.9,1-19.2c-1.6-6.3-68.1-35.7-68.1-35.7l9.1,8.5c0,0-24.6-13.7-28.3-13.7
		C515.6,569.6,500.7,576.5,500.7,576.5z"/>
	<path class="st4" d="M518.1,562.1c0,0,7.3-8.5,15.2-9.9c8-1.4,17,1.4,17,1.4s-11.2-4.1-15.2-3.7c-4,0.4-14.2,7.2-17.9,10.2
		c-3.7,3-2.7,3.4-8.9,5.1c-6.2,1.7-8.3,0.8-8.3,0.8s2.2,1.6,9.1-0.1C515.9,564.3,518.1,562.1,518.1,562.1z"/>
	<path class="st4" d="M469.7,545.2c0,0,5.5-0.8,11.4,2.9c5.9,3.7,10.6,10,10.6,10s-5.5-7.6-7.5-9.6
		C482.1,546.5,476.7,544.1,469.7,545.2z"/>
</g>
<g id="Layer_5">
	<path class="st16" d="M655,249.4c0,0-26.3,9.3-68.9,15c-42.6,5.7-56.2,4.2-56.2,4.2s38.6-4.5,55.9-6.8c17.2-2.3,17.2-2.3,17.2-2.3
		s-49.2,8.3-104.3,3.8s-62.9-10.4-87.7-13.8c-24.8-3.4-42.2,0.8-42.2,0.8s13.7-4.2,34-4.2s29.4,1.6,29.4,1.6s-24.7-3.7-44.2-3.2
		c-19.5,0.5-38.4,8.7-38.4,8.7s15-8.2,34-12.1c19-3.9,29.8-2.8,29.8-2.8s-17.4-0.6-35,0.8c-17.7,1.4-31.8-2.9-31.8-2.9
		s-12.7,23.2-17.2,41.8s-4.2,25.2-4.2,25.2l-2.3-14.6v22.2l-2.1-16.5c0,0-1.5,21.2-5.1,36.6s-7,26.9-7,26.9l6.1-16.7
		c0,0-1.9,17-9.1,43c-7.2,25.9-10.2,65.7-14.2,92.4c-4,26.7-1.3,54.2-1.3,54.2s-1.1-24.4-11.4-50c-10.2-25.6-17.4-62.5-13.3-106.8
		s-1.1-93.4,3.9-141.2s32.1-72.2,32.1-72.2s-13.4,11.1-25,34.6c-11.6,23.5-5.3,56.3-5.3,56.3s-10.6-34.8,6.3-69.7
		s87.4-70.2,129.8-78.3s73.9-5.5,73.9-5.5s-27.5-3.4-56.6-0.4c-29.2,3-31.6,4-31.6,4s36.2-9.5,72.3-10.4s58.1,8,58.1,8l-22.5-8
		l37.7,9.7l-26.5-14.4c0,0,16.9,6.2,33.9,15.5c17,9.3,29.2,14.2,29.2,14.2l-21.8-14.4L577,115c0,0,48.7,8,90.4,35.5s44.7,54,44.7,54
		s-2.8-23.5-28.3-44.7c0,0,21.2,15.5,27.5,32.3c6.3,16.8,6.9,19.6,6.9,19.6s14,22.4,16.1,52.7s7,55.5,7,55.5s-4.9-15.7-7.4-25.8
		c-2.5-10-2.5-10-2.5-10s1.9,14.2,8.1,47.7s-7,60-11,79.7s-10.4,36-16.3,68.2c-5.9,32.2-21.3,41.7-21.3,41.7s1.2-34.5-1.3-75.8
		c-2.5-41.3-0.8-104.1-2.6-116.8c-1.8-12.7-2.3-18.3-2.3-18.3l4.5,18.2c0,0-0.7-15.5-7.2-31.2c-6.5-15.6-6.5-15.6-6.5-15.6
		l10.1,18.3c0,0-2.9-15-12.4-28.4C664,258.4,655,249.4,655,249.4z"/>
	<path class="st16" d="M550.5,401.9c0,0-2.6-16.5,3.3-24.9c5.9-8.4,13.4-9.5,13.4-9.5s-8.3,4.2-11.3,11c-2.9,6.8-3.3,8.8-3.3,8.8
		s2.7-9.7,9.3-14.2c6.5-4.5,13.5-6.1,13.5-6.1s-7,3.4-11.4,7.8c-4.4,4.4-4.7,5.5-4.7,5.5s8-7.2,13.4-10.5s7-3.9,7-3.9l-11.6,9.8
		c0,0,9.8-7.8,19-8.3s45.6,6.4,53.9,9.3s16.5,9.7,16.5,9.7l-10-8.2c0,0,10.9,4.2,23.2,18.6c12.4,14.4,11.2,38.6,11.2,38.6
		s-7.7-17.3-24.9-26.4s-30.3-9.2-58.8-9.2S550.5,401.9,550.5,401.9z"/>
	<path class="st16" d="M588.2,456c0,0-8.6-3.9-16.3-4.8c-7.6-0.9-4.5-4.7-0.6-6.5c3.9-1.8,10.7-6.9,24.9-8.6
		c14.1-1.8,26.9,3.3,33.7,8.5c6.8,5.2,9.2,8.6,12,10.7c2.8,2.1,8.3-1.8,8.3-1.8s-9-11.8-26.8-18.1c-17.8-6.2-28.5-3.5-39.3,0
		c-10.8,3.5-21,9-23.9,10.3c-2.9,1.3-1.1,5.9,5.4,6.9C572.1,453.5,582.7,455,588.2,456z"/>
	<path class="st16" d="M638.2,448.3c0,0-5.6,8.1-14.7,9.4c-9.2,1.3-15.7,0.8-15.7,0.8s5.2,3,17.4,0.9c12.2-2,19-6.4,19-6.4
		L638.2,448.3z"/>
	<path class="st16" d="M554.4,441c0,0,20.8-15.5,31.6-18.7c10.7-3.2,44.3,3.7,53.3,10.4s16.2,19.2,16.2,19.2s-4.2-9.8-11.1-18.2
		c-6.9-8.3-37.1-15.3-51.1-16S554.4,441,554.4,441z"/>
	<path class="st16" d="M569.7,443.2c0,0,1.8,4,2.5,6.3c0.7,2.3-0.1-5.7-0.6-6.6C571.3,442,569.7,443.2,569.7,443.2z"/>
	<path class="st16" d="M463.2,393c0,0,4.1-16.2-1.5-25.1s-13.5-10.6-13.5-10.6s8.6,4.9,11.2,11.9c2.6,7,2.8,9.1,2.8,9.1
		s-2.2-9.9-8.8-15c-6.6-5.1-14-7.2-14-7.2s7.2,4,11.5,8.7c4.3,4.7,4.6,5.9,4.6,5.9s-7.9-7.9-13.6-11.6c-5.6-3.8-7.2-4.5-7.2-4.5
		l11.6,10.8c0,0-9.8-8.6-19.7-9.9c-9.9-1.4-49.3,2.4-58.5,4.6s-18.5,8.3-18.5,8.3L361,361c0,0-12,3.2-26.4,16.5
		c-14.4,13.3-15.1,37.5-15.1,37.5s9.6-16.6,28.7-24.2c19.1-7.6,33.2-6.6,63.7-4.1S463.2,393,463.2,393z"/>
	<path class="st16" d="M411.5,443.1c0,0,8.9-3.2,16.6-3.5s4.8-4.4,1.1-6.4c-3.8-2.1-10.1-7.7-24.1-10.6c-14-2.9-27.1,1.1-34.3,5.8
		c-7.2,4.7-9.9,7.9-12.8,9.7c-2.9,1.9-8.2-2.5-8.2-2.5s9.9-11,28.1-15.8s28.7-1.2,39.2,3.2c10.5,4.4,20.2,10.7,23,12.2
		c2.8,1.5,0.7,6-5.9,6.4C427.8,441.9,417.1,442.5,411.5,443.1z"/>
	<path class="st16" d="M362.3,431.4c0,0,4.9,8.5,13.9,10.6c9,2.1,15.5,2.1,15.5,2.1s-5.4,2.5-17.4-0.5c-12-3-18.4-7.9-18.4-7.9
		L362.3,431.4z"/>
	<path class="st16" d="M446.4,430.8c0,0-19.5-17.2-30-21.2s-44.5,0.1-53.9,6c-9.5,6-17.6,17.8-17.6,17.8s4.9-9.5,12.5-17.2
		c7.6-7.7,38.2-12.2,52.3-11.9C423.7,404.8,446.4,430.8,446.4,430.8z"/>
	<path class="st16" d="M431,431.8c0,0-2.2,3.9-3,6.1c-0.8,2.3,0.6-5.7,1.1-6.6C429.5,430.5,431,431.8,431,431.8z"/>
	<path class="st16" d="M454.8,550.3c0,0,10.9-6.2,21.2-4.1c10.3,2.2,15.6,13.4,15.6,13.4s-4.4-4.8-9.3-4.8s-13.3-3.8-17.3-4.2
		C461,550.2,454.8,550.3,454.8,550.3z"/>
	<path class="st16" d="M519.3,561.4c0,0,8.2-10,19.2-9.7c11,0.3,12.4,4.1,12.4,4.1s-6-1.6-10,0.3s-10.9,0.1-14,1.1
		S519.3,561.4,519.3,561.4z"/>
	<path class="st16" d="M452.6,509.7c0,0-13.8,13.1-16.3,28.5c-2.5,15.4,15.4,19.6,15.4,19.6s-16.8-1.3-18.6-13.9
		S441.8,516.2,452.6,509.7z"/>
	<path class="st16" d="M556.8,522.9c0,0,9.6,13.9,7.2,26.8c-2.4,12.9-16.9,16.8-16.9,16.8s17.3-3,19.1-16
		C567.9,537.5,556.8,522.9,556.8,522.9z"/>
	<path class="st16" d="M424.5,622.9c0,0,17.9,0.5,30.9,2.2c13.1,1.7,25.5,5.2,41.9,5.2c16.4,0,24.7-0.7,35.7-2.3
		c11-1.6,36.3-2.1,46.4-4.3s5.5,2.6,0,4.1s-31.5,0.7-46.3,2.5c-14.8,1.8-25.8,3.1-39.9,2.6c-14.1-0.6-38.8-6.2-47.3-6.2
		s-24.5,0.6-30.3-1c-5.8-1.6-5-5.3-4.1-5.3S424.5,622.9,424.5,622.9z"/>
	<path class="st21" d="M279.8,450.7c0,0-12.1-12.1-19.4-2c-7.3,10.1-1.7,20.3-1.7,36.9s6.4,24.6,9.5,43.4
		c3.1,18.7,8.1,36.7,14.9,47.9c6.8,11.2,14.8,9.5,14.8,9.5s1.5,62.7,31.1,104c29.5,41.3,93.9,90.3,115.1,100
		c21.2,9.7,78.6,17.2,105.9-1.3c27.3-18.6,59.1-53.6,79.7-81.1c20.6-27.5,50.1-118.4,50.1-118.4s7.7,0.1,11.2-13s7.4-46.1,16-59.7
		c8.6-13.6,9.4-37.1,8.6-43.2c-0.8-6.1-11.4-7.6-11.4-7.6"/>
	<polyline class="st21" points="324.1,683 335.6,794.9 486.2,912.5 603.2,807.5 615,726.4 	"/>
	<g>
		<path class="st16" d="M287.8,499.4c-3.9-6.4-7.3-13-10.7-19.5c-1.7-3.3-3.4-6.5-5.1-9.7l-0.6-1.2c-0.2-0.3-0.4-0.7-0.6-0.9
			c-0.4-0.6-0.8-1-0.9-1c0-0.1,0,0,0,0c0,0,0.1,0,0.2,0c0.1,0,0.2,0,0.2,0c0,0,0,0,0,0c0,0,0,0,0,0c-0.1,0.1-0.6,0.5-0.9,1.1
			c-0.8,1.1-1.4,2.7-1.9,4.3c-0.5,1.6-0.9,3.3-1.3,5c-0.7,3.4-1,7-1,10.5l0.1,5.5c0,1.9,0,3.7,0,5.6c-0.1,3.7-0.1,7.4-0.4,11.2
			c-1-3.6-1.7-7.3-2.5-10.9c-0.4-1.8-0.7-3.6-1-5.5c-0.3-1.8-0.6-3.6-0.9-5.6c-0.5-3.9-0.4-7.8,0.1-11.7c0.3-1.9,0.7-3.9,1.2-5.8
			c0.6-1.9,1.3-3.9,2.5-5.8c0.7-1,1.4-2,2.8-2.9l0.6-0.3c0.2-0.1,0.4-0.2,0.7-0.3c0.4-0.2,1-0.2,1.5-0.3c0.5,0,1.1,0.1,1.6,0.2
			c0.4,0.2,1,0.3,1.3,0.6c0.8,0.4,1.3,1,1.8,1.5l0.6,0.8l0.5,0.7c0.3,0.5,0.6,1,0.8,1.5l0.6,1.3c1.6,3.4,3,6.9,4.3,10.4
			C284,485,286.2,492.1,287.8,499.4z"/>
	</g>
	<g>
		<path class="st16" d="M278.5,480.5c2.9,5,4.8,10.6,5.9,16.4c0.6,2.9,0.9,5.8,0.9,8.8c0.1,1.5,0,3-0.1,4.5c0,0.7-0.1,1.5-0.2,2.2
			l-0.2,2.2c-0.7,5.4-1.1,10.7,0.4,15.5c0.7,2.4,2.1,4.7,3.4,7.4c0.6,1.4,1.2,2.7,1.6,4.1c0.4,1.4,0.9,2.9,0.8,4.3
			c-0.3-0.7-0.6-1.3-1-1.9c-0.4-0.6-0.8-1.2-1.2-1.7c-0.9-1.1-1.7-2.2-2.6-3.3c-1.8-2-3.9-4.3-5.3-7.2c-1.5-2.8-2.1-6-2.3-9.1
			c-0.2-3.1,0-6.1,0.4-9l0.3-2.1c0.1-0.7,0.2-1.3,0.2-2c0.1-1.3,0.2-2.7,0.3-4c0.1-1.4,0.1-2.7,0.1-4.1c0-1.4,0-2.7-0.1-4.1
			C279.6,491.8,279.1,486.3,278.5,480.5z"/>
	</g>
	<g>
		<path class="st16" d="M271.5,485.4c-0.1,5.1-0.4,10-0.7,14.8c-0.3,4.8-0.5,9.6-0.3,14.3c0.2,4.5,1.2,9,2.7,13.5
			c1.5,4.5,3.3,9,5.3,13.7c-4-3.2-7.2-7.3-9.7-11.8c-2.4-4.5-4.1-9.7-4.3-15.1c-0.2-5.2,0.5-10.3,1.6-15.2
			C267.4,494.6,269,489.9,271.5,485.4z"/>
	</g>
	<path class="st21" d="M696.7,506.8c0,0,3.7-12.2,11-13.8c7.3-1.5,1.4,20.4,0,22.8c-1.4,2.4-1.4,2.4-1.4,2.4"/>
	<g>
		<path class="st16" d="M699.7,499.9c-0.8,5.6-1.3,11-1.6,16.3c-0.1,2.7-0.2,5.3-0.1,7.9c0.1,1.3,0.1,2.6,0.2,3.9l0.2,1.9l0.2,2.2
			c0.4,5.9-1,12.1-4.1,17.2c-1.5,2.5-3.4,4.8-5.1,6.8c-0.4,0.5-0.8,1-1.2,1.5l-0.2,0.3c-0.1,0.1-0.1,0.3-0.2,0.5l-0.4,0.9
			c-0.5,1.3-1.1,2.5-1.6,3.9c-0.2-1.4-0.1-2.8,0-4.2c0-0.4,0-0.7,0.1-1.1c0-0.2,0-0.3,0.1-0.5l0.1-0.6c0.2-0.8,0.5-1.5,0.8-2.1
			c1.2-2.6,2.5-4.9,3.4-7.3c1.9-4.8,2.6-9.7,2.3-14.8l-0.2-4.1c-0.1-0.7,0-1.4,0-2.2c0-0.7,0-1.4,0-2.2c0.1-2.9,0.5-5.7,1.1-8.5
			C694.7,510,696.6,504.6,699.7,499.9z"/>
	</g>
	<path class="st22" d="M533.6,254.8c-69.7-6.6-110.7-45.6-109.6-44.4c1.1,1.1,28.8,13.1,51.8,20.7s23,7.6,23,7.6s-45.2-16.8-63.8-27
		c-18.6-10.2-21.2-11.2-21.2-11.2s39.6,2.7,57.6,7.2c18,4.5,18,4.5,18,4.5s-39.2-12.5-60.4-14.2c-21.2-1.7-23.1-1.3-23.1-1.3
		s25.6-2.1,45.8,0.9s20.3,3,20.3,3s-33.9-7.4-42.4-7.4s-12.7,0-12.7,0s36.7-3.4,61.2,0c24.4,3.4,24.4,3.4,24.4,3.4
		s-50.6-8.9-73.3-8.9c-22.7,0-27.3,0-27.3,0s49.2-2.7,83.3,1.9s88.3,12.7,104.2,18.2c15.9,5.5,17,5.7,17,5.7l-31.2-4.2
		c0,0,28.2,4,40.3,8.5s12.1,4.5,12.1,4.5l-33.9-5.1l45.2,9.7c0,0-22.1,2.1-41.8,0.8c-19.7-1.3-23.7-2.1-23.7-2.1s30.5,4.7,54,4.7
		c23.5,0,23.5,0,23.5,0s-27.3,3.2-42.8,3.2s-18.2,0.6-17.2,0.6s20.3,0.8,44.9,0.8s25.2-0.8,25.2-0.8S603.2,261.3,533.6,254.8z"/>
	<path class="st22" d="M538.4,198.5c0,0-58.1-12.7-81.6-15.3c-23.5-2.7-36-2.5-36-2.5s54.4-1,66.5,0c12.1,0.9,12.1,0.9,12.1,0.9
		s-33.9-3.6-61.4-3.6c-27.5,0-33.5,1.5-33.5,1.5s40.5-8.9,77.8-10s43.9,0,43.9,0l-42.4,1.5c0,0,47.2-1.7,75.8,4
		c28.6,5.7,53,15,53,15s-21-6.1-34.5-8.1c-13.4-2.1-16.9-2.8-16.9-2.8s35.8,8.3,53,17c17.2,8.7,18.6,9.3,18.6,9.3l-33-8.3l44.7,17.6
		c0,0-44-7.2-64.9-9.5S538.4,198.5,538.4,198.5z"/>
	<path class="st22" d="M539.3,173.3c0,0,42.4,4.2,70.6,11.6c28.2,7.4,38.6,10.8,38.6,10.8s-40.9-15.7-50.6-18.2
		c-9.7-2.5-11.7-3.2-11.7-3.2s47.9,10.6,60.8,15c12.9,4.4,15,5.3,15,5.3s-36.7-18.4-59.5-25.5c-22.7-7.1-24.2-7.1-23.5-7.1
		s49.6,12.5,49.6,12.5l-54.5-23.3c0,0,44.7,14,55.9,18.9c11.2,4.9,12.1,4.9,12.1,4.9s-43-24.6-72.9-33.9
		c-29.9-9.3-38.6-10.4-38.6-10.4s25.2,4.5,51.9,12.5c26.7,8,26.7,8,26.7,8s-48.5-23.9-104.9-31.8s-97.5,7.4-97.5,7.4
		s25.4-5.1,45.8-5.9c20.5-0.8,20.5-0.8,20.5-0.8s-49.4,0.4-74.8,11.2s-47.7,23.3-47.7,23.3s28.6-14.2,46-17.6s18.4-4.4,18.4-4.4
		s-34.7,9.8-50.2,18.7C349.2,160.3,342,165,342,165s59.7-17.4,72.2-19.9c12.5-2.5,12.5-2.5,12.5-2.5l-49,15.5l59.5-11.7
		c0,0-44.5,9.8-58.1,14.4s-17,5.3-17,5.3s77.1-6.2,101.1-6.2s24.1,0,24.1,0s-68.7,2.7-86.4,6.1c-17.6,3.4-17.6,3.4-17.6,3.4
		s53.8-0.9,75.6-0.3c21.8,0.6,39.6,2.4,58,5.2C534.9,177.1,539.3,173.3,539.3,173.3z"/>
	<path class="st22" d="M510.5,121.4c0,0,44.1,7.2,79.9,18.4c35.8,11.2,39,12.3,39,12.3s-71.2-25-85.2-27.6c-14-2.7-19.7-3-19.7-3
		s51.1,8.9,70.4,14c19.3,5.1,19.3,5.1,19.3,5.1s-45.5-27.3-92.4-35.8s-103.6,1.5-103.6,1.5l43.6-2.8c0,0-22.2-1.9-54.2,10.8
		s-43.7,18-43.7,18s56.1-12.3,92.2-12.3S510.5,121.4,510.5,121.4z"/>
	<path class="st22" d="M672.1,239.2c0,0,43,64.8,45.5,91.8c2.5,27.1,2.5,27.8,2.5,27.8s3-28.6-3.2-47.7c-6.2-19.1-6.2-19.1-6.2-19.1
		s12.7,28,14,39.6c1.3,11.6,1.3,11.6,1.3,11.6l-1.7-26.1l-0.4-1.1c0,0,11.7,17.6,8.5,47.9c-3.2,30.3-19.1,96.6-24.6,112.1
		s-8.7,22.4-8.7,22.4s-3.2-43.6-4.9-89.1s-4.2-89.9-4.2-89.9s3.4,18.8,3.4,19.2s-0.8-24.9-7.9-45.7c-7.1-20.8-8.1-23.4-8.1-23.4
		s7.7,18.4,11.5,28.3c3.8,9.9,3.8,9.9,3.8,9.9s-8-28.3-14.6-42.3c-6.6-14-8-17-8-17s14.1,18.8,18.6,27.9c4.5,9.1,4.5,8.5,4.5,8.5
		S678.5,251.1,672.1,239.2z"/>
	<path class="st22" d="M327.5,233c0,0-4,46.8-10.6,75.3c-6.6,28.5-8.1,32.3-8.1,32.3l3-26.3c0,0-2.8,19.9-10.1,52s-8.8,46-8.8,46
		l2.3-29.8c0,0-4.2,21-5.8,68.9c-1.6,48-1.6,48-1.6,48s-25.4-49.2-17.4-128c8.1-78.8,8.1-115.6,8.1-115.6l3.8,42.9
		c0,0-1.8-31.1,3.5-51.5c5.3-20.5,6.3-22.5,6.3-22.5l-5.1,34.8c0,0,5.8-24,13.6-34.8c7.8-10.9,8.6-13.4,8.6-13.4s-12.2,48-11.1,47
		s18.2-34.1,18.2-34.1s-4.8,41.2-8.1,62.4c-3.3,21.2-3.3,21.2-3.3,21.2s9.1-30.8,11.6-47s2.5-16.2,2.5-16.2s-2.5,23.5-2.5,33.1
		c0,9.6-1,9.8-1,9.8S325.2,242.6,327.5,233z"/>
	<path class="st23" d="M528.3,201.7c-28.7-5.5-52.3-6.1-52.3-6.1l46.4,7.8c0,0-37.5-6.2-62.1-6.2c-24.6,0-26.4-0.1-26.4-0.1
		l41.9,6.6l-31-3.2c0,0,39.9,10.7,51.8,14.2c12,3.5,12,3.5,12,3.5s-48-7.6-55.4-9.6c-7.4-2-10.6-2.8-10.6-2.8s44.4,12.9,52.6,14.6
		c8.2,1.8,8.2,1.8,8.2,1.8s-23.6-3.3-46.6-9.6c-23-6.3-26.8-7.8-26.8-7.8s25.5,14,55.3,23c29.8,9,35.1,8.3,35.1,8.3
		s-26.8-3-42.8-8.3s-16.9-6.1-16-5.3c0.8,0.8,39.9,18.4,75.4,23.4c35.5,4.9,87.9-7.4,87.9-7.4s-22,1.4-42.8-1.5
		c-20.8-2.9-23.1-3.4-23.1-3.4l39.8,1.6c0,0-41.9-8.6-45.7-8.6s-7.3-0.6-4.2-0.6c3.2,0,31.9,3.7,44.3,4.7s14.8,1.1,14.8,1.1
		s-41.9-8.2-45.1-8.2c-3.2,0-3.2,0-3.2,0s24.6,2.4,42.8,2.4c18.2,0,19.6,0.3,19.6,0.3S557,207.2,528.3,201.7z"/>
	<path class="st23" d="M582.5,204.6c0,0-46.7-7.2-76.2-12.8c-29.5-5.6-34.8-6.5-34.8-6.5l45.7,6.5c0,0-44.9-8.9-57.6-10.2
		c-12.6-1.3-13.8-1.3-13.8-1.3s41.9-1.5,54.8,0c12.9,1.5,15.7,1.9,14.6,1.9s-35.6-5.4-45.1-5.4c-9.5,0-8.6,0-8.6,0s45.2-0.9,55.7,0
		c10.5,0.9,10.5,0.9,10.5,0.9l-35.6-3.3c0,0,36.3,0.7,64.6,5.8c28.4,5.1,46,12.9,46,12.9s-23.4-6.2-25.9-6.2c-2.5,0-3.3,0-3.3,0
		s12.5,3.3,26.1,7.1c13.6,3.8,14.4,3.9,14.4,3.9s-31.3-3-49.6-5.6c-18.3-2.5-21.1-2.9-19.2-2.9s54.7,9.8,54.7,9.8l-31.2-3.7
		c0,0,19.1,2.8,33.1,7.1c14,4.3,15.5,4.3,15.5,4.3S593,206.2,582.5,204.6z"/>
	<path class="st23" d="M549,179c0,0-37.2-9-73.3-12.9s-38.4-3.7-38.4-3.7s59,1.3,70.6,2.7s11.6,1.4,11.6,1.4s-46.8-5.6-79-7.2
		c-32.2-1.6-34.2-1.3-34.2-1.3s60.3-6.1,105.9-1.7s96,21.5,95.4,21.5s-36.5-8.8-36.5-8.8s28.4,10.2,42.2,14.4
		c13.8,4.2,13.8,4.2,13.8,4.2s-42.7-8.3-59.9-11.6s-22.9-4.8-22.9-4.8l49.9,12.7l-37.4-7l33.4,10.1C590.3,186.9,558.9,181.2,549,179
		z"/>
	<path class="st23" d="M582.5,147.7c0,0-36.1-10.7-90.3-13.6s-89,6.8-89,6.8s21.3-8.2,45.7-9.5c24.4-1.3,24.4-1.3,24.4-1.3
		s-35.1-0.8-61.6,5.2c-26.5,5.9-33,11.4-33,11.4s23-15.5,58.2-18.7c35.2-3.2,35.2-3.2,35.2-3.2s-33.3,1.5-50.1,3.5s-17.6,2-17.6,2
		s44.5-9.1,72.4-8.2c27.9,0.9,70.3,9,78.7,11.2c8.3,2.3,9.2,2.4,9.2,2.4l-33.1-4.9c0,0,27.4,5.7,39.7,9.2
		c12.2,3.5,12.2,3.5,12.2,3.5l-50.2-8.6C533.3,134.9,570.7,141.5,582.5,147.7z"/>
	<path class="st23" d="M494,131.5c0,0-27.5,1-51.3,4.5s47.4,2.1,72.2,5.7c24.7,3.6,39.8,5.5,39.8,5.5l-30.1-5.5
		c0,0,26.6,2.7,37.4,4.4c10.8,1.7,11.6,1.6,11.6,1.6s-46.7-12.8-56-13.6S494,131.5,494,131.5z"/>
	<path class="st16" d="M551,403c0,0-4.9-23.4,2.8-34.4C553.8,368.6,541.6,381.1,551,403z"/>
	<path class="st16" d="M550.1,401.3c0,0-7.5-21.6-1.2-33C548.9,368.3,538.3,381.6,550.1,401.3z"/>
	<path class="st16" d="M546.8,397.9c0,0-8.3-17.4-2.1-27.5C544.7,370.4,534.3,382.5,546.8,397.9z"/>
	<path class="st16" d="M466,366.6c0,0,1,14.9-3.2,26.1C462.8,392.8,471.2,380,466,366.6z"/>
	<path class="st16" d="M470.1,364.3c0,0-0.6,16.3-6,28C464.1,392.3,473.8,379.7,470.1,364.3z"/>
	<path class="st16" d="M474.8,367.8c0,0-2.1,13.5-8.7,22.2C466.1,390,477.2,381.1,474.8,367.8z"/>
</g>
</svg>
