<?xml version="1.0" encoding="utf-8"?>
<!-- Generator: Adobe Illustrator 28.0.0, SVG Export Plug-In . SVG Version: 6.00 Build 0)  -->
<svg version="1.1" id="Layer_1" xmlns="http://www.w3.org/2000/svg" xmlns:xlink="http://www.w3.org/1999/xlink" x="0px" y="0px"
	 viewBox="0 0 1000 1000" style="enable-background:new 0 0 1000 1000;" xml:space="preserve">
<style type="text/css">
	.st0{fill:#FFFFFF;}
	.st1{fill:#E4E3EA;}
	.st2{filter:url(#Adobe_OpacityMaskFilter);}
	.st3{mask:url(#SVGID_00000166658315420694749110000011228449879651449534_);fill:#E4E3EA;}
	.st4{filter:url(#Adobe_OpacityMaskFilter_00000138545091028748542560000000610944598071759526_);}
	.st5{fill:url(#SVGID_1_);}
	.st6{mask:url(#SVGID_00000038407230050450392240000003649286676863469725_);fill:#E4E3EA;}
	.st7{fill:#CBCBDB;}
	.st8{filter:url(#Adobe_OpacityMaskFilter_00000167367483450988435260000003728226290997623701_);}
	.st9{mask:url(#SVGID_00000142156856640319124150000008298024352157077946_);fill:#FFFFFF;}
	.st10{fill:#CDCDCD;}
	.st11{fill:#ACACAC;}
	.st12{clip-path:url(#SVGID_00000116193998160280575980000006983424652978478743_);}
	.st13{fill:#1D1C4E;}
	.st14{clip-path:url(#SVGID_00000183231938533484993310000005513002077043873669_);}
	.st15{filter:url(#Adobe_OpacityMaskFilter_00000128448137626931039190000005324886399180121275_);}
	.st16{fill:url(#SVGID_00000131341681712399606770000010436922091618271886_);}
	.st17{mask:url(#SVGID_00000158711047359939364480000011030760552504816048_);fill:#CBCBDB;}
	.st18{fill:none;stroke:#1D1C4E;stroke-width:6;stroke-miterlimit:10;}
	.st19{fill:#292963;}
	.st20{fill:#373777;}
</style>
<g id="Layer_2_00000013164677218415511760000008975309554881804198_">
</g>
<g id="Layer_3">
</g>
<g id="Layer_4">
	<path class="st0" d="M713.8,498.3c-2,18-18.2,33.5-20,59S682,589,682,589s-14.2,19.1-24.6,62.2c-10.4,43.1-41.2,73.6-41.2,73.6
		l-12.7,80.3L486.2,912.5L335.5,793.9c-2.7-26.6-8.5-82.6-11.2-108.8c-14.7-26.2-27.6-75.2-26.5-98.7c-15-2.2-14.8-9.5-24.4-33.3
		c-6.8-18.6-10.8-30.9-12.5-55.5c-2.1-25.7-11.4-63.2,14.3-50.3l4.7-31.3l0.1-0.9l0,0c9.9-42.4,8.8-158.4,64.8-200.5
		c13.3-8.5,45-16.5,83.9-21.6c293.6-40.3,288.6,84.8,279.8,274.2C719,474.1,716.5,474.2,713.8,498.3z"/>
	<path class="st1" d="M657.3,458.5c0,0-0.5-0.5-1-2.1C656.9,457.6,657.2,458.4,657.3,458.5z"/>
	<path class="st1" d="M290.1,491.9c0,0-8.3-22.7-16.2-27.7c-8-5.1-13.3,13-10.1,30.9C267,513,267,517.2,267,513
		c0-4.2,2-26.4,6.1-30.5s2.9,17,2.9,17s-4.7,10.2-4.7,24.5c0.8,16.6,18.9,17.8,22.2,23.6c0,0-4.2-8.3-6.8-13.3s0.4-15.2,1.5-19.3
		C289.3,510.7,290.1,491.9,290.1,491.9z"/>
	<path class="st1" d="M692.8,512.5c0,0,12.2-21.6,18.4-25.4c6.3-3.8-7.6,38.2-7.6,38.2s1.1-14-0.8-15.8c-6.2,4.9-1.3,45.8-14.3,53.8
		c-2.5,2.5-4.8,7.3-4.8,7.3s-1.4-11.5,2.2-17.5s4.7-22.5,4.7-22.5L692.8,512.5z"/>
	<defs>
		<filter id="Adobe_OpacityMaskFilter" filterUnits="userSpaceOnUse" x="560.5" y="522.9" width="58.5" height="143.4">
			<feColorMatrix  type="matrix" values="1 0 0 0 0  0 1 0 0 0  0 0 1 0 0  0 0 0 1 0"/>
		</filter>
	</defs>
	
		<mask maskUnits="userSpaceOnUse" x="560.5" y="522.9" width="58.5" height="143.4" id="SVGID_00000166658315420694749110000011228449879651449534_">
		<g class="st2">
		</g>
	</mask>
	<path class="st3" d="M561.5,522.9c43.7,50.8,86.6,67.9,31.3,143.4c13.6-50.1,20.5-82.2-32.3-103.1
		C560.5,561.7,572.3,543.9,561.5,522.9z"/>
	<defs>
		
			<filter id="Adobe_OpacityMaskFilter_00000085966376353853454240000002173842068642036143_" filterUnits="userSpaceOnUse" x="569.5" y="230.3" width="149.3" height="543.3">
			<feColorMatrix  type="matrix" values="1 0 0 0 0  0 1 0 0 0  0 0 1 0 0  0 0 0 1 0"/>
		</filter>
	</defs>
	
		<mask maskUnits="userSpaceOnUse" x="569.5" y="230.3" width="149.3" height="543.3" id="SVGID_00000038407230050450392240000003649286676863469725_">
		<g style="filter:url(#Adobe_OpacityMaskFilter_00000085966376353853454240000002173842068642036143_);">
			
				<linearGradient id="SVGID_1_" gradientUnits="userSpaceOnUse" x1="694.3023" y1="694.446" x2="554.5402" y2="194.484" gradientTransform="matrix(1 0 0 -1 0 1000)">
				<stop  offset="0" style="stop-color:#FFFFFF"/>
				<stop  offset="1" style="stop-color:#000000"/>
			</linearGradient>
			<path class="st5" d="M650.8,230.3c0,11.9,31.8,17.6,22.7,92.6s-2.7,105.9,3.8,164s-25,116-39,133.4c-14,17.4-17.8,43.6-32.6,88.3
				c-14.8,44.6-36.2,65-36.2,65s61.1-58.1,76.7-96.1c15.7-38,32.5-78,39.5-112.9c7-34.8,10.7-88.3,12.3-97.3
				c1.6-9.1,25-106.1,20.5-164.8S650.8,230.3,650.8,230.3z"/>
		</g>
	</mask>
	<path class="st6" d="M650.8,230.3c0,11.9,31.8,17.6,22.7,92.6s-2.7,105.9,3.8,164s-25,116-39,133.4c-18.6,22.6-38.2,132-68.8,153.3
		C653,706.7,694.2,572.2,698,467.3C704.6,421.6,762.5,248.9,650.8,230.3z"/>
	<path class="st7" d="M564.9,392.4c-40.8,26.5-37.9,27-36.8,80.9c2.2,15.2,20.7,11.6,22.8,18.3c-6.4-37.8-17.9-44.5,24.6-18.9
		c0,0-6.2-3.6-7.7-7.2s-10.6-6.9-12-9.6s12.6,2.9,31.4,7.1c22.1,6.6,50.9-3.8,64.8-7c-7.9-16.1-39.3-32.3-58.2-27.9
		c12.2-6.6,53.9,4.4,58.9,18.2c0,1.3-12.6-16.9-13.9-19.2c-1.4-2.3-15.8-5.8-37.4-10.2c-21.6-4.4-5.8-24.4-5.8-24.4L564.9,392.4
		L564.9,392.4z"/>
	<path class="st7" d="M442.7,379.2c2,2,37.8,28,44,39.7s1.5,92.8,1.5,92.8c-14.3,34.4,45.5,47,47.8,8.8c0,0,2.8,7.6,0,15.9
		s15.2,7,21.7,9.3s2.4-15.9,0-19.7s-5.3-7.8-5.3-7.8c14.7,13,26.6,45.2-8.2,51.8c-6.3,1.5-25,5.3-33.6,9.2s-19.2,2.1-26.4-3.5
		c-62.4-21.2-69.6-35-26.7-84c0.4-0.4,6.8-37.3,6.8-39.3c-0.4-2.8-35.4,8.5-39.5,11.3c3.6-3.7,10.4-10.4,15.8-13.2
		c-25.1,4.7-67.7,9-96.7-12.2c24.7-27,63.6-25.7,91.6-10.5c0.4,0.4-14.7-14-21.3-16.5c-20.8-4.7-56.6,2.7-68,20.2
		c0,0.5,7-11.8,14-17.9s47.8-10.4,53.8-14.9s1.1-18.6,1.1-18.6L442.7,379.2z"/>
	<defs>
		
			<filter id="Adobe_OpacityMaskFilter_00000057112946500924406660000003294597559249147290_" filterUnits="userSpaceOnUse" x="489.5" y="406.2" width="42.6" height="135.5">
			<feColorMatrix  type="matrix" values="1 0 0 0 0  0 1 0 0 0  0 0 1 0 0  0 0 0 1 0"/>
		</filter>
	</defs>
	
		<mask maskUnits="userSpaceOnUse" x="489.5" y="406.2" width="42.6" height="135.5" id="SVGID_00000142156856640319124150000008298024352157077946_">
		<g style="filter:url(#Adobe_OpacityMaskFilter_00000057112946500924406660000003294597559249147290_);">
		</g>
	</mask>
	<path class="st9" d="M523,409.9c0,0,3.9,84,7.4,101.8c12.5,40.4-50,40.4-39.8-2c5.5-23.9,1.3-85,3-93.6
		C495.4,407.6,518.5,402.3,523,409.9z"/>
	<path class="st1" d="M465.8,520.6c10.4,14.1-6.1,20.6-21,21c-7.9,0,0.1-13.3,5.6-16.9C456,521.3,464.9,521.5,465.8,520.6z"/>
	<path class="st7" d="M589.5,561.4c0,0,22,25.2,26.1,37c5.5,12.5-5.5,30-8,37.6c15.1-42.1-9.8-54.9-30.3-86.1
		C577.9,550.5,589,559,589.5,561.4z"/>
	<path class="st7" d="M412.4,551.6c-30.6,24.5-43,45.6-31.1,87.8c0,0-5.5-10.3-8-12.8s-5.1-26.6,3.8-45.3S408.6,555.5,412.4,551.6z"
		/>
	<path class="st1" d="M574,624.6c5.7-6.7,14.2-8,23.2-7.3c0,0-2.4,10.2-5.6,13.4c-3.2,3.2-31.1-1.8-31.1-1.8L574,624.6z"/>
	<path class="st1" d="M439.6,650.4c0,0,14.1,29.3,31.3,34.3s45.7,7.8,61.4-1.8s26.5-37.9,26.5-37.9s-59.3,1-80.5-1.3
		C457,641.6,438.1,650.4,439.6,650.4z"/>
	<path class="st10" d="M581.7,624.6c0,0-22.7,29.6-43.1,37.5c-40.1,14.6-104.9,0.8-123.6-41.3c17.1-4.5,60.5-25.3,85.5-11.7
		C531.9,598.5,560.1,614.7,581.7,624.6z"/>
	<path class="st11" d="M575.9,625.7c-24.1,6.2-45.6,17.9-74.3,10.3l-2.4,9c0,0-3.8-7.3-16.9-9c-53.7-9.2-74.2-5.9-16.6,26
		c-23.4-6.7-41.3-22.3-50.7-41.2c16.6-4.4,60.9-25.4,85.4-11.7c-0.3,6.4,0.2,13.9,4.6,13.4c7.6-1,39.6-2.3,46.1,0
		C557.4,624.8,575.9,625.7,575.9,625.7z"/>
	<path class="st0" d="M563.9,448.3c21-15.9,55.3-21.6,76,2.7c-19.3,15.9-53.1,4-74.6-0.4C562,450,563.9,448.3,563.9,448.3z"/>
	<path class="st0" d="M387.3,420.4c0,0,17.3-2.1,33.6,5.4c16.3,7.5,13,12.7,11.5,14.2s-10.2,0.1-18.1,2.8c-15.5,5.1-44.1,0.9-54-8.7
		C363.7,426.7,375.2,425.6,387.3,420.4z"/>
	<g>
		<g>
			<defs>
				<path id="SVGID_00000031887933516390484970000007931749488463974076_" d="M387.3,420.4c0,0,17.3-2.1,33.6,5.4
					c16.3,7.5,13,12.7,11.5,14.2s-10.2,0.1-18.1,2.8c-15.5,5.1-44.1,0.9-54-8.7C363.7,426.7,375.2,425.6,387.3,420.4z"/>
			</defs>
			<clipPath id="SVGID_00000063597157866890873400000007917792495629393291_">
				<use xlink:href="#SVGID_00000031887933516390484970000007931749488463974076_"  style="overflow:visible;"/>
			</clipPath>
			<g style="clip-path:url(#SVGID_00000063597157866890873400000007917792495629393291_);">
				<path class="st13" d="M395.9,410.3c26.2,0.4,26.2,39.4,0,39.8C369.7,449.7,369.7,410.7,395.9,410.3z"/>
				<path class="st0" d="M403.6,422.7c6.5-0.1,6.5,10.1,0,10C397.1,432.8,397.1,422.6,403.6,422.7z"/>
			</g>
		</g>
	</g>
	<g>
		<g>
			<defs>
				<path id="SVGID_00000087381602371010723140000007566973416565671070_" d="M563.9,448.3c21-15.9,55.3-21.6,76,2.7
					c-19.3,15.9-53.1,4-74.6-0.4C562,450,563.9,448.3,563.9,448.3z"/>
			</defs>
			<clipPath id="SVGID_00000143577657351592268610000000869661805538993081_">
				<use xlink:href="#SVGID_00000087381602371010723140000007566973416565671070_"  style="overflow:visible;"/>
			</clipPath>
			<g style="clip-path:url(#SVGID_00000143577657351592268610000000869661805538993081_);">
				<path class="st13" d="M603,423.9c26.2,0.4,26.2,39.4,0,39.8C576.8,463.3,576.8,424.3,603,423.9z"/>
				<path class="st0" d="M610.7,436.3c6.5-0.1,6.5,10.1,0,10C604.2,446.4,604.2,436.2,610.7,436.3z"/>
			</g>
		</g>
	</g>
	<path class="st7" d="M340.6,683c15,30.3,65.8,84.2,66.6,85.1c-40.1-28.5-112.9-98.4-109.5-181.7c0,0-0.9,0-2.3-0.4
		c-1.5-15.9-16.4-157.7-15.5-171l0,0c11.7-62.6,23.7-223.9,114.4-224.6c6.8,14.3,23.9,39.8,23.9,39.8s-53.6,44.1-68.6,59
		C304.4,351.3,293.1,614.7,340.6,683z"/>
	<defs>
		
			<filter id="Adobe_OpacityMaskFilter_00000102508965578523354670000014680575798883811475_" filterUnits="userSpaceOnUse" x="373.2" y="566.3" width="233.8" height="63.5">
			<feColorMatrix  type="matrix" values="1 0 0 0 0  0 1 0 0 0  0 0 1 0 0  0 0 0 1 0"/>
		</filter>
	</defs>
	
		<mask maskUnits="userSpaceOnUse" x="373.2" y="566.3" width="233.8" height="63.5" id="SVGID_00000158711047359939364480000011030760552504816048_">
		<g style="filter:url(#Adobe_OpacityMaskFilter_00000102508965578523354670000014680575798883811475_);">
			
				<linearGradient id="SVGID_00000048476445947209261850000018420056056890874289_" gradientUnits="userSpaceOnUse" x1="492.2938" y1="519.9661" x2="490.0213" y2="373.765" gradientTransform="matrix(1 0 0 -1 0 1000)">
				<stop  offset="0" style="stop-color:#FFFFFF"/>
				<stop  offset="1" style="stop-color:#000000"/>
			</linearGradient>
			<path style="fill:url(#SVGID_00000048476445947209261850000018420056056890874289_);" d="M500.7,576.5c0,0-16.9-8.5-23.7-10
				c-6.8-1.5-37.1,7.4-38.3,7.4c-1.1,0-14,14-13.4,13.4s9.2-13.4,9.2-13.4s-46,15.2-50.5,17.9s-10.6,17.9-10.6,23.9s0,5.9,0,5.9
				s48-13.3,51.4-14.5c3.4-1.3,25.8-15.4,25.8-15.4L436.2,604c0,0,34-8.4,40-9.1c6.1-0.7,25.6,5,25.6,5s21.1-2.9,30.9-2.3
				c9.8,0.6,34.5,11.5,34.5,11.5l-10.6-12.5c0,0,13.7,13.3,14.1,13.8s22.3,9,28.5,14.2s6.2,5.2,6.2,5.2s2.7-12.9,1-19.2
				c-1.6-6.3-68.1-35.7-68.1-35.7l9.1,8.5c0,0-24.6-13.7-28.3-13.7C515.6,569.6,500.7,576.5,500.7,576.5z"/>
		</g>
	</mask>
	<path class="st17" d="M500.7,576.5c0,0-16.9-8.5-23.7-10c-6.8-1.5-37.1,7.4-38.3,7.4c-1.1,0-14,14-13.4,13.4s9.2-13.4,9.2-13.4
		s-46,15.2-50.5,17.9c-6,3.5-12.2,23.8-10.6,29.8c0,0,48-13.3,51.4-14.5c3.4-1.3,25.8-15.4,25.8-15.4L436.2,604c0,0,34-8.4,40-9.1
		c6.1-0.7,25.6,5,25.6,5c26.2-4.8,42.4-1.8,65.4,9.2l-10.6-12.5c0,0,13.7,13.3,14.1,13.8c2.2,0.7,30.7,13.3,34.7,19.4
		c0,0,2.7-12.9,1-19.2c-1.6-6.3-68.1-35.7-68.1-35.7l9.1,8.5c0,0-24.6-13.7-28.3-13.7C515.6,569.6,500.7,576.5,500.7,576.5z"/>
	<path class="st1" d="M518.1,562.1c7.9-10.1,20.7-12.4,32.2-8.5c0,0-11.2-4.1-15.2-3.7c-4,0.4-14.2,7.2-17.9,10.2
		c-2.9,4.2-14.5,7.1-17.2,5.9c0,0,2.2,1.6,9.1-0.1C515.9,564.3,518.1,562.1,518.1,562.1z"/>
	<path class="st1" d="M469.7,545.2c7.3-2,19.6,8.6,22,12.9C487.4,552.1,482.1,542.7,469.7,545.2z"/>
</g>
<g id="Layer_5">
	<path class="st13" d="M655,249.4c0,0-26.3,9.3-68.9,15c-42.6,5.7-56.2,4.2-56.2,4.2c-2.4,0.2,66.4-7.9,73.1-9.1
		c0,0-49.2,8.3-104.3,3.8c-65.4-4.6-91.7-21.4-129.9-13c0,0,13.7-4.2,34-4.2s29.4,1.6,29.4,1.6c-17-3.8-64.2-5.3-82.6,5.5
		c0,0,15-8.2,34-12.1c19-3.9,29.8-2.8,29.8-2.8s-17.4-0.6-35,0.8c-17.7,1.4-31.8-2.9-31.8-2.9c-5.1,5.7-23.3,53.8-21.4,67l-2.3-14.6
		v22.2l-2.1-16.5c0,0-1.5,21.2-5.1,36.6s-7,26.9-7,26.9l6.1-16.7c-8,36.2-31.4,153.1-24.6,189.6c-2.3-37.6-34.7-97.9-24.7-156.8
		c4.1-53.9-8.4-183.8,36-213.4c-25.1,20.5-37.7,62.9-30.3,90.9c-34.7-106.2,135.2-163.2,210-153.5c0,0-27.5-3.4-56.6-0.4
		c-29.2,3-31.6,4-31.6,4c17.6-7.6,107.7-16.2,130.4-2.4l-22.5-8l37.7,9.7l-26.5-14.4c-1.6-2.5,63.9,30.8,63.1,29.7l-21.8-14.4
		L577,115c24,0,131.3,43.5,135.1,89.5c0,0-2.8-23.5-28.3-44.7c14.9,9.8,29.7,30.4,34.4,51.9c0,0,14,22.4,16.1,52.7s7,55.5,7,55.5
		c0.2,1.7-9.6-33.1-9.9-35.8c20.7,72.4-1.6,116.8-19.2,195.6c-5.9,32.2-21.3,41.7-21.3,41.7c0.1-28.7-2.2-185.9-6.2-210.9l4.5,18.2
		c0,0-0.7-15.5-7.2-31.2c-6.5-15.6-6.5-15.6-6.5-15.6l10.1,18.3C685.2,287.5,663.5,256.3,655,249.4z"/>
	<path class="st13" d="M550.5,401.9c-2.3-10.8,0.2-31.2,16.7-34.4c-6.6,2.6-13.1,12.1-14.6,19.8c2.1-10.2,13.2-18.5,22.8-20.3
		c0,0-7,3.4-11.4,7.8s-4.7,5.5-4.7,5.5c-0.9-0.1,18.4-14.6,20.4-14.4l-11.6,9.8c0,0,9.8-7.8,19-8.3c16.6,0.4,60.3,7.3,70.4,19
		l-10-8.2c22.1,9.2,36.8,36,34.4,57.2C662.4,387.8,585,400.3,550.5,401.9z"/>
	<path class="st13" d="M588.2,456c0,0-8.6-3.9-16.3-4.8c-21-4.3,38.5-26.9,58-6.6c9.5,6.9,12.1,15.4,20.3,8.9
		c-9.9-14.6-44.9-28.5-66.1-18.1C541.3,450.6,560.1,451.8,588.2,456z"/>
	<path class="st13" d="M638.2,448.3c-5.6,9.8-21.9,11-30.4,10.2c0,0,5.2,3,17.4,0.9c12.2-2,19-6.4,19-6.4L638.2,448.3z"/>
	<path class="st13" d="M554.4,441c0,0,20.8-15.5,31.6-18.7c10.7-3.2,44.3,3.7,53.3,10.4s16.2,19.2,16.2,19.2
		c-8.8-25.6-33.1-31.1-62.2-34.2C579.3,417,554.4,441,554.4,441z"/>
	<path class="st13" d="M569.7,443.2c0,0,1.8,4,2.5,6.3s-0.1-5.7-0.6-6.6C571.3,442,569.7,443.2,569.7,443.2z"/>
	<path class="st13" d="M463.2,393c3.5-11.6,1.8-31.3-15-35.7c6.6,3,13,12.7,14,21c-1.6-10.8-13.1-19.9-22.8-22.2c0,0,7.2,4,11.5,8.7
		s4.6,5.9,4.6,5.9c0.6-0.4-18.4-16-20.8-16.1l11.6,10.8c0,0-9.8-8.6-19.7-9.9c-17.8-1.1-64.9,1.9-77,12.9L361,361
		c-23.3,6.9-42.1,30.9-41.5,54C344.2,368.6,428.4,388.8,463.2,393z"/>
	<path class="st13" d="M411.5,443.1c0,0,8.9-3.2,16.6-3.5c15.3-0.9-10.3-14.8-23-17c-38.4-7.1-43,24.8-55.3,13
		c11.1-13.7,47-24.8,67.3-12.6C458.5,441.7,440.1,441.1,411.5,443.1z"/>
	<path class="st13" d="M362.3,431.4c4.8,10.1,20.8,12.8,29.4,12.7c0,0-5.4,2.5-17.4-0.5s-18.4-7.9-18.4-7.9L362.3,431.4z"/>
	<path class="st13" d="M446.4,430.8c0,0-19.5-17.2-30-21.2s-44.5,0.1-53.9,6c-9.5,6-17.6,17.8-17.6,17.8
		c10.5-24.7,35.9-28.3,64.8-29.1C423.7,404.8,446.4,430.8,446.4,430.8z"/>
	<path class="st13" d="M431,431.8c0,0-2.2,3.9-3,6.1c-0.8,2.3,0.6-5.7,1.1-6.6C429.5,430.5,431,431.8,431,431.8z"/>
	<path class="st13" d="M454.8,550.3c12.5-7.4,29.9-6.1,36.8,9.3c0,0-4.4-4.8-9.3-4.8S469,551,465,550.6
		C461,550.2,454.8,550.3,454.8,550.3z"/>
	<path class="st13" d="M519.3,561.4c0,0,8.2-10,19.2-9.7s12.4,4.1,12.4,4.1s-6-1.6-10,0.3C531.5,558.6,527.7,554.4,519.3,561.4z"/>
	<path class="st13" d="M452.6,509.7c-9.5,8.1-30.5,41-0.9,48.1C422.7,555.7,431.4,522.4,452.6,509.7z"/>
	<path class="st13" d="M556.8,522.9c9.6,13.2,12.8,37.4-9.7,43.6C574.2,561.5,567.4,536.6,556.8,522.9z"/>
	<path class="st13" d="M424.5,622.9c14.5-1.2,51.5,6.8,72.8,7.4c30.2-0.7,54.5-3.8,82.1-6.6c10.1-2.2,5.5,2.6,0,4.1
		s-31.5,0.7-46.3,2.5s-25.8,3.1-39.9,2.6c-14.1-0.6-38.8-6.2-47.3-6.2s-24.5,0.6-30.3-1s-5-5.3-4.1-5.3S424.5,622.9,424.5,622.9z"/>
	<path class="st18" d="M279.8,450.7c0,0-12.1-12.1-19.4-2c-7.3,10.1-1.7,20.3-1.7,36.9s6.4,24.6,9.5,43.4
		c4.1,21.2,10.6,57.3,29.7,57.4C295.6,695.3,436.8,842.1,550,789.1c71.5-46.3,113.4-138.6,129.8-199.5c17.7-2.4,14.8-57.6,27.2-72.7
		c8.6-13.6,9.4-37.1,8.6-43.2c-0.8-6.1-11.4-7.6-11.4-7.6"/>
	<polyline class="st18" points="324.1,683 335.6,794.9 486.2,912.5 603.2,807.5 615,726.4 	"/>
	<g>
		<path class="st13" d="M287.8,499.4c-6.7-10.4-11.2-22.2-17.9-32.3c0-0.1,0,0,0,0h0.4c-8.3,12.4-3.7,29.1-5.4,43.2
			c-3.3-14.7-8.3-31.2-0.6-45.3c1.9-3.7,7.6-5.3,10.3-1.5C281.2,474.5,284.7,486.9,287.8,499.4z"/>
	</g>
	<g>
		<path class="st13" d="M278.5,480.5c11.1,18,3.8,32.1,6.7,49.6c1.6,4.9,5.8,10.3,5.8,15.8c-4.1-7.7-12.7-13.4-12.4-23.2
			C279.3,508.4,280.8,494.8,278.5,480.5z"/>
	</g>
	<g>
		<path class="st13" d="M271.5,485.4c-1.4,19.6-2.7,38.4,7,56.3C261.1,528.4,261.6,503.2,271.5,485.4z"/>
	</g>
	<path class="st18" d="M696.7,506.8c0,0,3.7-12.2,11-13.8c7.9-0.8,0.9,22.9-1.4,25.2"/>
	<g>
		<path class="st13" d="M699.7,499.9c-4.8,21,5.6,41.2-11.5,57.7c-0.9,1.8-1.6,3.7-2.4,5.6c-1.1-5.8,2.5-10.9,4.5-15.8
			C695.5,531.8,688.9,514.3,699.7,499.9z"/>
	</g>
	<path class="st19" d="M533.6,254.8c-69.7-6.6-110.7-45.6-109.6-44.4c1.1,1.1,28.8,13.1,51.8,20.7s23,7.6,23,7.6
		c-0.2,1.5-77.5-32.2-85-38.2c-1.6-1.5,68.8,7.5,75.6,11.7c0,0-39.2-12.5-60.4-14.2c-21.2-1.7-23.1-1.3-23.1-1.3s25.6-2.1,45.8,0.9
		s20.3,3,20.3,3c-2.7-1.2-47.6-9.6-55.1-7.4c0,0,36.7-3.4,61.2,0c24.4,3.4,24.4,3.4,24.4,3.4s-50.6-8.9-73.3-8.9
		c-22.7,0-27.3,0-27.3,0c32-6.1,172.6,10.4,204.5,25.8l-31.2-4.2c1.6-0.7,45.9,8.6,52.4,13c0,0-33.9-5.1-33.9-5.1l45.2,9.7
		c0,0-22.1,2.1-41.8,0.8s-23.7-2.1-23.7-2.1s30.5,4.7,54,4.7c66.7-1-28.1,3.5-36.5,3.8c1,0,20.3,0.8,44.9,0.8s25.2-0.8,25.2-0.8
		S603.2,261.3,533.6,254.8z"/>
	<path class="st19" d="M538.4,198.5c-1.8-1.6-105.8-21.1-117.6-17.8c2.4-0.2,68.1-1.1,78.6,0.9c1.8-1.3-89.9-5.6-94.9-2.1
		c0,0,40.5-8.9,77.8-10s43.9,0,43.9,0l-42.4,1.5c24.2-3.7,102.7,5.4,128.8,19c2.2-0.5-48.5-11.2-51.4-10.9c0,0,35.8,8.3,53,17
		s18.6,9.3,18.6,9.3l-33-8.3l44.7,17.6C641.1,213.4,546.3,201.1,538.4,198.5z"/>
	<path class="st19" d="M539.3,173.3c0,0,42.4,4.2,70.6,11.6c28.2,7.4,38.6,10.8,38.6,10.8c-2.4-1.2-53.6-20.1-62.3-21.4
		c2,0.1,67,15.3,75.8,20.3c0,0-36.7-18.4-59.5-25.5c-22.7-7.1-24.2-7.1-23.5-7.1s49.6,12.5,49.6,12.5l-54.5-23.3
		c1.9,0.1,59.6,19.5,68,23.8c0,0-43-24.6-72.9-33.9c-29.9-9.3-38.6-10.4-38.6-10.4s25.2,4.5,51.9,12.5s26.7,8,26.7,8
		c-35.6-22.4-156.2-47.7-202.4-24.4c0,0,0.5-0.1,1.4-0.3c1.5-2,65.5-7.7,64.9-6.4c-37.7-2.1-88.1,12.4-122.5,34.5
		c0,0,28.6-14.2,46-17.6s18.4-4.4,18.4-4.4s-34.7,9.8-50.2,18.7c-15.6,9-22.8,13.7-22.8,13.7c2.9-1,72.9-21.2,84.7-22.4
		c0,0-49,15.5-49,15.5l59.5-11.7c-1.7-0.4-66.6,16.1-75.1,19.7c0.7-0.6,109.8-8,125.2-6.2c-2.3-0.4-90.8,4.2-104,9.5
		c19.3-0.7,104.2-1.7,133.6,4.9C534.9,177.1,539.3,173.3,539.3,173.3z"/>
	<path class="st19" d="M510.5,121.4c0,0,44.1,7.2,79.9,18.4c35.8,11.2,39,12.3,39,12.3c-5.8-2.1-89.5-32.1-104.9-30.6
		c0.4-0.5,79.4,14.9,89.7,19.1c-48.1-33.8-142-47.9-196-34.3l43.6-2.8c0,0-22.2-1.9-54.2,10.8s-43.7,18-43.7,18S420,120,456.1,120
		S510.5,121.4,510.5,121.4z"/>
	<path class="st19" d="M672.1,239.2c11.4,16,52.2,80.6,48,119.6c0,0,3-28.6-3.2-47.7s-6.2-19.1-6.2-19.1
		c2.4,3.5,16.6,40.1,15.3,51.2l-1.7-26.1l-0.4-1.1c24.6,33.7-12.6,153.4-24.8,182.4c-1,0.6-8.9-179.8-9.1-179c0,0,3.4,18.8,3.4,19.2
		s-0.8-24.9-7.9-45.7c-19.4-54.3,1.8,1.4,7.2,14.8c0,0-8-28.3-14.6-42.3s-8-17-8-17c0.8-0.2,21.4,31.2,23.1,36.4
		C693.2,284.8,678.5,251.1,672.1,239.2z"/>
	<path class="st19" d="M327.5,233c0,0-4,46.8-10.6,75.3s-8.1,32.3-8.1,32.3l3-26.3c2-4.4-20.7,101.2-18.9,98l2.3-29.8
		c0,0-4.2,21-5.8,68.9c-1.6,48-1.6,48-1.6,48s-25.4-49.2-17.4-128c8.1-78.8,8.1-115.6,8.1-115.6l3.8,42.9c0,0-1.8-31.1,3.5-51.5
		c5.3-20.5,6.3-22.5,6.3-22.5l-5.1,34.8c0,0,5.8-24,13.6-34.8c7.8-10.9,8.6-13.4,8.6-13.4s-12.2,48-11.1,47s18.2-34.1,18.2-34.1
		s-4.8,41.2-8.1,62.4c-3.3,21.2-3.3,21.2-3.3,21.2c0.3,2.5,14.8-57.5,14.1-63.2c-0.9,0.3-2.2,38.1-3.5,42.9
		C315.5,287.5,325.2,242.6,327.5,233z"/>
	<path class="st20" d="M528.3,201.7c-28.7-5.5-52.3-6.1-52.3-6.1l46.4,7.8c-3.1-2.3-77.4-8-88.5-6.3l41.9,6.6l-31-3.2
		c0.6,0.1,56,15.2,63.8,17.7c-4-0.5-57.6-9.1-66-12.4c2.3,0.7,52.5,15.2,60.8,16.4c0,0-23.6-3.3-46.6-9.6s-26.8-7.8-26.8-7.8
		s25.5,14,55.3,23c29.8,9,35.1,8.3,35.1,8.3s-26.8-3-42.8-8.3s-16.9-6.1-16-5.3c45.2,25.3,117.3,30.1,163.3,16c0,0-22,1.4-42.8-1.5
		s-23.1-3.4-23.1-3.4l39.8,1.6c0,0-41.9-8.6-45.7-8.6s-7.3-0.6-4.2-0.6c3.4,0.1,51.8,5.9,59.1,5.8c-1.8-0.2-44-9-48.3-8.2
		c-1.3,0.9,58.1,3,62.4,2.7C622.1,226.3,557,207.2,528.3,201.7z"/>
	<path class="st20" d="M582.5,204.6c0.9,0.7-102.3-17.3-111-19.3l45.7,6.5c-1.5-0.5-62-12-71.4-11.5c0.6-0.6,62.8-1.4,69.4,1.9
		c-2-0.4-46.2-6.8-53.7-5.4c1.9-0.2,57.4-1,66.2,0.9c0,0-35.6-3.3-35.6-3.3s36.3,0.7,64.6,5.8c28.4,5.1,46,12.9,46,12.9
		c-1.6-0.3-25.7-7.2-29.2-6.2c-2.3-0.7,39.7,10.9,40.5,11c0,0-31.3-3-49.6-5.6c-18.3-2.5-21.1-2.9-19.2-2.9s54.7,9.8,54.7,9.8
		l-31.2-3.7c0,0,19.1,2.8,33.1,7.1s15.5,4.3,15.5,4.3S593,206.2,582.5,204.6z"/>
	<path class="st20" d="M549,179c0,0-37.2-9-73.3-12.9s-38.4-3.7-38.4-3.7c2.9,0,71.4,1.5,82.2,4.1c0.7-0.9-102.8-9.8-113.2-8.5
		c0,0,60.3-6.1,105.9-1.7c65.4,7.8,137.2,33.9,58.9,12.7c-1.9-0.4,50.8,17.6,56,18.6c0.1-0.1-75.3-14.3-82.8-16.4l49.9,12.7l-37.4-7
		l33.4,10.1C590.3,186.9,558.9,181.2,549,179z"/>
	<path class="st20" d="M582.5,147.7c0,0-36.1-10.7-90.3-13.6s-89,6.8-89,6.8s21.3-8.2,45.7-9.5c24.4-1.3,24.4-1.3,24.4-1.3
		s-35.1-0.8-61.6,5.2c-26.5,5.9-33,11.4-33,11.4c14.5-13.6,73.3-21.8,93.4-21.9c2-0.7-62,4.1-67.7,5.5c41.1-12.2,118.9-8,160.3,5.4
		l-33.1-4.9c0,0,27.4,5.7,39.7,9.2c12.2,3.5,12.2,3.5,12.2,3.5l-50.2-8.6C533.3,134.9,570.7,141.5,582.5,147.7z"/>
	<path class="st20" d="M494,131.5c0,0-27.5,1-51.3,4.5s47.4,2.1,72.2,5.7c24.7,3.6,39.8,5.5,39.8,5.5l-30.1-5.5
		c-0.2-0.3,43.8,5.1,49,6C566,144.6,506,130.7,494,131.5z"/>
	<path class="st13" d="M551,403c0,0-4.9-23.4,2.8-34.4C553.8,368.6,541.6,381.1,551,403z"/>
	<path class="st13" d="M550.1,401.3c0,0-7.5-21.6-1.2-33C548.9,368.3,538.3,381.6,550.1,401.3z"/>
	<path class="st13" d="M546.8,397.9c0,0-8.3-17.4-2.1-27.5C544.7,370.4,534.3,382.5,546.8,397.9z"/>
	<path class="st13" d="M466,366.6c0,0,1,14.9-3.2,26.1C462.8,392.8,471.2,380,466,366.6z"/>
	<path class="st13" d="M470.1,364.3c0,0-0.6,16.3-6,28C464.1,392.3,473.8,379.7,470.1,364.3z"/>
	<path class="st13" d="M474.8,367.8c0,0-2.1,13.5-8.7,22.2C466.1,390,477.2,381.1,474.8,367.8z"/>
</g>
</svg>
