<?xml version="1.0" encoding="utf-8"?>
<!-- Generator: Adobe Illustrator 28.0.0, SVG Export Plug-In . SVG Version: 6.00 Build 0)  -->
<svg version="1.1" id="Layer_1" xmlns="http://www.w3.org/2000/svg" xmlns:xlink="http://www.w3.org/1999/xlink" x="0px" y="0px"
	 viewBox="0 0 900 900" style="enable-background:new 0 0 900 900;" xml:space="preserve">
<style type="text/css">
	.st0{fill:#FFFFFF;}
	.st1{fill:#E4E3EA;}
	.st2{fill:#CBCBDB;}
	.st3{clip-path:url(#SVGID_00000064317991829213832810000014959063289416332200_);}
	.st4{fill:#1D1C4E;}
	.st5{fill:#30306B;}
	.st6{clip-path:url(#SVGID_00000044858445923106724430000007612103158400501415_);}
	.st7{fill:#CDCDCD;}
	.st8{fill:#ACACAC;}
	.st9{fill:none;stroke:#1D1C4E;stroke-width:6;stroke-miterlimit:10;}
	.st10{fill:#2C2C66;}
	.st11{fill:#3F3F82;}
</style>
<g id="Layer_2_00000110454205268886832510000013383872589182843536_">
</g>
<g id="Layer_3">
</g>
<path class="st0" d="M614.4,478.7c-4.3,45.3-22.9,146-59.5,180.2c0,0-18.9,97.1-18.9,97.1l-4.3,2.7l-97.8,60.1l-114.2-68.1
	c-4.8-22.3-14.7-67.1-19.6-89.4c0,0-4.4-7.9-10.7-20c-57.3-97.5-56.4-152.1-54.4-246.1c-14.2-36.4,9-69.3,14.2-97.4
	c25.6-99.4,127.6-209.9,176.8-203c26.2,3.7,63.9,18.9,97.9,46.6c32.3,26.4,61.3,64,74,113.8C623.7,357.3,614.4,478.7,614.4,478.7z"
	/>
<path class="st1" d="M494.8,152.2c0,0-31.4,51.5-99.8,90.9s-56.9,48.3-56.9,48.3l168.2,3.4l32.8,16.3c-0.1-1.4-50.3,15.3-30.5,28.3
	c16.4-2.9,67.3,8.1,64.5,39.4c-10.6-31.8-81.3-42.8-61.6-28.2c20.1-1.2,49.8,12.8,60.7,33.2c1.4,1.4,1.4,1.4,1.4,1.4
	s-20.2,10.4-37.7,12.2c-17.6,1.8-54.5-9.9-59.6-11.6c-5.1-1.7,10.7,9.8,10.7,9.8c-15.2-3.4-6.3,2.2-21.4-9.8
	c-4-2.3-8.8,9.6,2.5,22.6c11.3,13,69.1,9.7,69.1,9.7c-12,0.9-81,11.7-90-18.2c0,0-6.3-29.5-9.4-37.7s-29.2-5.7-32.3-3.8
	s-4,65-14.7,86.9c-10.7,21.9-1.3,37.7,24.4,39s28.6-15.1,26.1-24.5c0,0,5,7,4.3,16.9c-0.7,9.9,12.1,9.2,17,14.1s7.1-7.6,2.4-20.8
	s-11.4-20.4-11.4-20.4l9.6-5.8c2.3,13.9,29.1,51.3,3.8,68.4c-10.7,7.5-29.2,6.6-46.1,18s-17.4-0.8-27.1-4.6
	c-31.4-6.4-61-37.1-30.9-71.3c15.1-16.3,13.1-40.4,13.1-40.4c-13.8,8.9-64.8,11.4-78.3,3.9c7.7,1.7,89.7,2.3,72.8-36.1
	c0.5,0.4-24.8,9.8-27.5,9.8c3.7-2.8,11.3-8.1,16.6-10.4c-31.9,13.4-60,10.6-92.8-1.3c8.9-21.2,65.3-44.3,88.1-29
	c-25.8-20.9-70.8-2.1-85.3,20c0,0,13.5-23,22.6-29s25.2-8.1,41-7.7s-18.4-22.5-38.8-24s-17.6-5.7-17.6-5.7s-17.9-66.9,92.4-99.3
	S494.8,152.2,494.8,152.2z"/>
<path class="st1" d="M327.3,533.7c-0.1,0.2-1.2,1.8-2.9,4.1C325.9,535.3,327.1,533.8,327.3,533.7z"/>
<path class="st1" d="M395.2,669.1c-60.5,92.7-139-81.5-153.3-134.6c-11.3-71.2-5.8-87.6-7-139.4c-14.2-36.4,9.1-69.2,14.2-97.4
	c9.8-1.9,21-3,33.6-3c0,0-20,45.1-18.3,91.7c1.7,46.6-17,39-10.7,85.5c6.3,46.5,35.6,84.8,46,86.2c7.7,1.1,19.4-13.3,24.7-20.5
	C298.4,582.7,337.8,675.4,395.2,669.1z"/>
<path class="st1" d="M614.4,478.7c-4.3,45.3-22.9,146-59.5,180.2c0,0-18.9,97.1-18.9,97.1l-4.3,2.7c-1-7.5-2.6-16.2-4.9-15.5
	c-58.1,37.7-122.8,44.3-173.1-0.4c0.9,0.6,9,6.3,18.2,4.7c9.7-1.7,72-53.2,72-53.2c37.6,4.1,80.8-129.6,102.9-140.9
	c16.4-14.3,52.2-53.9,55.8-86.7c3.6-32.9-15.5-58.2-11.6-88.9c3.8-30.6-4.3-48-4.3-48s1-12.1-10.9-30.4
	c-65.4-50.4-29.9-127.6-105.3-148.6c19.1-7.8,37-10.6,53.4-9.4C625.3,198.6,619.5,450.3,614.4,478.7z"/>
<path class="st2" d="M354.7,294.8c0,0,28.1,22,35.6,29.5c11.2,13.7,9,83.3-9,94.2c-6.1,4-5.6,7.3-5.6,7.3c4.3-34.9-7.1,4.6-53-7.1
	c0,0,36.4,0.2,46.1-14.2c9.6-14.3,6.2-26.3,4.1-27.6s-18.2,1.3-34.4,7.7c-22.5,9.3-52.8-2.1-67.6-7.3c20.9-24.7,56.9-39.3,89.8-21.2
	c0,0-11.2-11.6-23.8-15.1c-20.1-2.9-47.9,4.9-57.5,14.5c0,0,14.8-15.1,24.3-17.4c43.7-6.2,59.8,9.4,21.2-35.2L354.7,294.8z"/>
<path class="st2" d="M473.2,298.1c0,0-21.1,16.3-30.7,27.6s-0.9,51.4,4.6,66.9c8,23.2,34.7,27.1,50.6,25
	c-45.1,2.9-49.4-48-20.9-34.4c18.8,9,69.3,18.7,93.7-1.5c-10.4-22.3-60.2-37.5-81.5-25.4c0,0,7.7-8.5,22.8-11.8
	c22-2.1,47.7,10.6,54.3,21.1c-3.6-22.1-42.9-25-61-26c-10.6,0-2.5-20.9,4.6-27C517.1,306.4,479.5,290.7,473.2,298.1z"/>
<path class="st2" d="M374.4,450c-3.2,1.7-29.7,41.4-9.8,46.6c2.5,0,4.2-9,12.2-10.8c8-1.8,18.4,7.8,18.4,7.8s-9.7-7.2-10.8-16.8
	c8.3,14.9,41.8,22.1,54,5.6c0,0-0.7,4.5-3.4,8.2c-2.7,3.7,2.6-2,11,0.1c8.5,2.1,12.1,8.3,17.5,8.3s7.6-13.7,3.9-25.7
	s-11.1-19.8-11.1-19.8c18.1,16,35,54.6-7.5,64.6c-6.8,1.7-24.8,2.1-34.9,8.6c-10.1,6.5-29.4-5.9-35.7-7.8
	c-6.3-1.8-28.4-16.8-27.6-35.8c1.9-22.5,22-32.2,27.2-40.9L374.4,450z"/>
<path class="st0" d="M480.5,369.8c0,0,15.1-9.9,27.1-12.8c14.8-2.9,40.4,7.8,46,16.8c-5.4,12.5-31.3,14.2-43.1,9.3
	c-6.9-2-13-5.7-18.4-6.4C484.8,375.9,475.3,377.2,480.5,369.8z"/>
<path class="st0" d="M322.5,354.2c0,0,12.7-2.6,27,6.1s12.3,11.5,8,12s-14.9,2.8-25.2,5.7c-10.3,2.9-15.4,6.3-27.1,3.1
	C268.5,370.2,301,359.8,322.5,354.2z"/>
<g>
	<g>
		<defs>
			<path id="SVGID_1_" d="M322.5,354.2c0,0,12.7-2.6,27,6.1s12.3,11.5,8,12s-14.9,2.8-25.2,5.7c-10.3,2.9-15.4,6.3-27.1,3.1
				C268.5,370.2,301,359.8,322.5,354.2z"/>
		</defs>
		<clipPath id="SVGID_00000152981567022082657640000001735003874341490871_">
			<use xlink:href="#SVGID_1_"  style="overflow:visible;"/>
		</clipPath>
		<g style="clip-path:url(#SVGID_00000152981567022082657640000001735003874341490871_);">
			<path class="st4" d="M322.6,348.4c23.5,0.4,23.5,35.4,0,35.8C299,383.8,299,348.8,322.6,348.4z"/>
			<path class="st5" d="M322.6,349.8c21.7,0.4,21.7,32.7,0,33C300.9,382.4,300.9,350.1,322.6,349.8z"/>
			<path class="st4" d="M322.6,358.2c10.5-0.2,10.5,16.3,0,16.1C312.1,374.5,312.1,358.1,322.6,358.2z"/>
			<path class="st0" d="M330,361.3c4-0.1,4,6.3,0,6.2C325.9,367.6,325.9,361.2,330,361.3z"/>
		</g>
	</g>
</g>
<g>
	<g>
		<defs>
			<path id="SVGID_00000114756490106979661440000006594400960001802934_" d="M480.5,369.8c0,0,15.1-9.9,27.1-12.8
				c14.8-2.9,40.4,7.8,46,16.8c-5.4,12.5-31.3,14.2-43.1,9.3c-6.9-2-13-5.7-18.4-6.4C484.8,375.9,475.3,377.2,480.5,369.8z"/>
		</defs>
		<clipPath id="SVGID_00000172433160909892594710000017922776865806506426_">
			<use xlink:href="#SVGID_00000114756490106979661440000006594400960001802934_"  style="overflow:visible;"/>
		</clipPath>
		<g style="clip-path:url(#SVGID_00000172433160909892594710000017922776865806506426_);">
			<path class="st4" d="M518.4,351.8c23.5,0.4,23.5,35.4,0,35.8C494.9,387.2,494.9,352.2,518.4,351.8z"/>
			<path class="st5" d="M518.4,353.2c21.7,0.4,21.7,32.7,0,33C496.7,385.9,496.7,353.6,518.4,353.2z"/>
			<path class="st4" d="M518.4,361.7c10.5-0.2,10.5,16.3,0,16.1C508,377.9,508,361.5,518.4,361.7z"/>
			<path class="st0" d="M525.8,364.7c4-0.1,4,6.3,0,6.2C521.8,371,521.8,364.7,525.8,364.7z"/>
		</g>
	</g>
</g>
<path class="st0" d="M383.6,505.8c4.6-1.2,8.2-1.1,12.6,1.7c2.2,0.8-2.3-0.4-5,1c-3.8,1.1-9.1,0-11.2-1L383.6,505.8z"/>
<path class="st0" d="M431.5,508.8c0,0,4-1.6,8.3-1.1s4.3,0.5,4.3,0.5s-3.1,0.7-4,1.6C439.3,510.6,432.6,509.9,431.5,508.8z"/>
<path class="st1" d="M352.1,588.8c0,0-12.1-6.5-15.8-4.7c-3.7,1.8-4.5,2.1-5.2,1.4c-1.5,17.7,21.3,9,29.1,5.2L352.1,588.8z"/>
<path class="st1" d="M478.6,590.8c0,0,5-9.1,17.9-4.7s13,4.4,13,4.4s-8.7,4.1-10.3,5.7c-1.5,2.1-26.3-4.6-28.9-3.6L478.6,590.8z"/>
<path class="st7" d="M488.7,591.7c-17.7,29.2-66.5,49.7-107.3,28.2c-8.5-5.4-34.9-29.9-34.9-29.9s34.5-19.1,42.8-21.5
	c7.7-2,18.8,2.6,22.7,4.3c0,0,6.4-7.2,16.8-7.2S488.7,591.7,488.7,591.7z"/>
<path class="st8" d="M485.5,592.2c-24.9,23.7-66-2.5-70.9,14.8c0,0-2.3-6.2-7.4-6.2c-5.1,0-41.6-3.6-39.9-1.9
	c1.7,1.7,13,12.1,16.5,17.8c2,3.1,5.7,6,8.7,7.9c-13.8-2.3-42.1-31.8-46-34.7c0,0,34.5-19.1,42.8-21.5c7.1-2.1,18.6,2.5,21.9,3.9
	c0.2,5.8,1.2,14.4,5.7,14c6.8-0.7,28.3-2.3,37,0.6C462.4,589.8,485.5,592.2,485.5,592.2z"/>
<path class="st4" d="M491.3,168.6c0,0-37,30.7-90.6,55.8s-60.8,30.8-60.8,30.8s23.2-17.5,65-40.1c-40.8,17.1-151.3,86.2-160.7,147.7
	c0,0,1.1-13,5.7-21.4c-5.7,9-12,48.8-10.7,55.6c-32.2-90.9-5.3-253.4,99.7-296.7c-37.8,7.3-90,73.1-91.2,110.5
	c3.7-92.3,132.3-156,212.7-111.9c-12.1-14-51.3-19.6-66.4-6.3c14.2-20.7,69-9.3,80.3,5.9c23.2-7.3,70.1,16.2,81,34
	c0,0-12.2-11.3-26-19c62.1,37.9,147.3,184.7,140.3,265.5c-4.2,58.1-36.5,104.3-58.8,132.9c0,0,5.4-9.5,12-20.9
	c0,0-7.4,13.1-16.8,20.1S593.9,522,593.9,522c10.1-42.4,22.2-87.7,11.2-145.2C599.7,319,583.5,224,538.2,188c0,0,13.3,9.9,26.1,38.1
	c12.8,28.3,22.3,40.3,22.3,40.3s-9.4-10.3-22.1-32.1s-15.8-27-15.8-27s7.5,15.9,20.8,37.4s19.4,25.9,19.4,25.9l0.7,6.3
	c0,0-31.7-25.1-49.8-60.1S497.8,168.6,491.3,168.6z"/>
<path class="st4" d="M487.5,274.7c0,0-6.1,3-14.6,17.9c0,0,9.9-15.8,25-17.9c0,0-10,2.6-18.1,13.9c0,0,11.2-14.9,30.5-11.9
	c19.4,3,75.4,26.5,81.6,37.4s5.8,25.9,5.8,25.9c1.8-11.1-72.8-26.3-92.1-24.2c0,0,7.8-1.3,22.2-0.4c1.2-0.5-47.2-1.7-48.9-0.4
	c0,0-1.5-10.3,7.6-19.4c0,0-8.7,5.2-9.3,19.7c0,0-1.9-8.3,3.3-16c0,0-6.2,6.7-4.7,16.4c0,0-5.8-4.5-4.1-14.4c0,0-2.3,7.9,1.8,14.6
	c0,0-4.8-4.3-4.8-9.9c0,0-0.5,5.9,2.2,9.4C466.4,316.5,455.3,285.6,487.5,274.7z"/>
<path class="st4" d="M466.3,312.6c0,0-9.5-24.3,7-35.6C473.2,277,451.9,286.6,466.3,312.6z"/>
<path class="st4" d="M460.6,286.2c0,0-2.6,10.5,2.3,21.9C463,308.1,455.1,298.7,460.6,286.2z"/>
<path class="st4" d="M354.9,272.3c0,0,6.1,3,14.6,17.9c0,0-9.9-15.8-25-17.9c0,0,10,2.6,18.1,13.9c0,0-11.2-14.9-30.5-11.9
	c-19.4,3-75.4,26.5-81.6,37.4c-6.3,10.9-5.8,25.9-5.8,25.9c-1.8-11.1,72.8-26.3,92.1-24.2c0,0-7.8-1.3-22.2-0.4
	c-1.2-0.5,47.2-1.7,48.9-0.4c0,0,1.5-10.3-7.6-19.4c0,0,8.7,5.2,9.3,19.7c0,0,1.9-8.3-3.3-16c0,0,6.2,6.7,4.7,16.4
	c0,0,5.8-4.5,4.1-14.4c0,0,2.3,7.9-1.8,14.6c0,0,4.8-4.3,4.8-9.9c0,0,0.5,5.9-2.2,9.4C376,314.1,387.1,283.2,354.9,272.3z"/>
<path class="st4" d="M376.1,310.2c0,0,9.5-24.3-7-35.6C369.1,274.7,390.5,284.3,376.1,310.2z"/>
<path class="st4" d="M381.7,283.9c0,0,2.6,10.5-2.3,21.9C379.4,305.8,387.3,296.4,381.7,283.9z"/>
<path class="st4" d="M498.1,378.4c0,0-6.7-3-11.5-3.6c-4.8-0.6-4.6-3.4-3.8-4.1s16.7-12.5,31.4-12.1c30.8-0.5,42.7,28.7,53.6,20.1
	c-15.3-18.2-51.3-35.5-78.3-16.5c-7.8,5-12.5,8.7-13.7,9.9s-1.2,2.7,3.1,3.4C483.2,376.3,498.1,378.4,498.1,378.4z"/>
<path class="st4" d="M552,372.6c-2.5,9.1-21.8,13.2-27.9,13.1c5.2,1,29.4,0.7,31.8-11L552,372.6z"/>
<path class="st4" d="M476.3,361.5c19.4-24.3,60.4-21.7,82.8-3.9c3.6,3.6,11.2,15.8,11.2,15.8s-6.5-14.3-12.6-20.3
	c-6.1-6.1-31.8-12.8-50.7-12.4C488.1,341.1,476.3,361.5,476.3,361.5z"/>
<path class="st4" d="M486.6,366.3c0,0,1.3,4,1.5,5.2c0.1,1.2,1.1-4.8,1.1-5.7S486.6,366.3,486.6,366.3z"/>
<path class="st4" d="M343.2,375c0,0,6.7-3,11.5-3.6c4.8-0.6,4.6-3.4,3.8-4.1s-16.7-12.5-31.4-12.1c-30.8-0.5-42.7,28.7-53.6,20.1
	c15.3-18.2,51.3-35.5,78.3-16.5c7.8,5,12.5,8.7,13.7,9.9s1.2,2.7-3.1,3.4C358.2,372.8,343.2,375,343.2,375z"/>
<path class="st4" d="M289.3,369.1c2.5,9.1,21.8,13.2,27.9,13.1c-5.2,1-29.4,0.7-31.8-11L289.3,369.1z"/>
<path class="st4" d="M365.1,358c-19.4-24.3-60.4-21.7-82.8-3.9c-3.6,3.6-11.2,15.8-11.2,15.8s6.5-14.3,12.6-20.3
	c6.1-6.1,31.8-12.8,50.7-12.4C353.2,337.6,365.1,358,365.1,358z"/>
<path class="st4" d="M354.7,362.9c0,0-1.3,4-1.5,5.2c-0.1,1.2-1.1-4.8-1.1-5.7C352.2,361.5,354.7,362.9,354.7,362.9z"/>
<path class="st4" d="M372.8,499.1c4.6-18.3,17.8-4.5,24.1,3.8c-5.4-4.4-14.7,0.6-19.5-3.7C375.6,497.5,372.8,499.1,372.8,499.1z"/>
<path class="st4" d="M428.7,502.9c0,0,8.1-10.6,12.5-10.6c9.3-0.5,9.6,10.3,10.3,14.9c0,0-3.4-4.3-5.3-4.3s-2.1,1.3-6.1,1.1
	C436.1,503.8,433.9,501.6,428.7,502.9z"/>
<path class="st4" d="M373.3,450.4c-14.6,13.6-28.6,46.2-2,61.8C341.2,498.6,352.3,462.5,373.3,450.4z"/>
<path class="st4" d="M456.6,453.4c11.6,13.1,27.1,47.5-1.7,60.2C489.2,505,471.3,464.4,456.6,453.4z"/>
<path class="st4" d="M600.4,492.2c0.6,0.6-24.3,54-30.5,55.8l5.5-9.7c-8.1,9.6-26.9,28.3-44.2,21.8c0,0,5.2,3.2,10.5,4.4
	c0,0-7.8,1.4-19.3-5.6c-11.6-7-16.1-9.3-16.1-9.3c0.6,0.5,12.9,11.2,14.6,13.1c-1-0.2-22.8-15.9-25.6-19l5.3,7.7l-13.7-10.5
	l-15.3-7.2l5.9,11.3l-11.3-13.4c0,0-25.1-7.8-30.9-9.5c-12.8-1.4-17,4-25.4,7.8l-10.2-6.3l6.4,6.3c-8.5-5.5-11.1-10.5-23.3-7.8
	c0,0-23.8,17.3-23.8,17.3l11.8-11c0,0-25.6,11.2-30.2,13.7S329,556.7,329,556.7l5.7-12c0,0-18.5,9-21.5,11.1
	c-16.6,16.3-12.6,45.8-25.1,6.7c-3.7-12.2-3.8-12.8-3.8-12.8l1.6,12.9c0.1-9.6-11.4-28-15-34.2l3.8,13.5l-9.4-17.5l3.3,10.5
	c0,0-3.5-9.7-9.5-17.6c-14.5-15.4-26.6-75.9-21.7-96.1c1.8-10,3.1-38.4,1.9-46.2l-3.1,6.2c-5.2,36.8-9.9,125.4,9.3,176
	c15.5,46.1,23.5,82.6,43.7,103.7c0,0-3-2.7-5.9-10.2c-2.7-7-2.9-7.5-2.9-7.5c0,0.1,2.9,7.8,11.9,18.8c14.3,25.9,17.6,71.8,54.8,85.2
	l-16.2-13.4c28.2,23.8,80.9,37.3,118.1,20.7l-11.9,5.7c25.1-2.2,67-16.7,80.3-46.9c0,0-3.7,8.2-8.4,14.3c0,0,12.8-5.5,32.4-39.3
	s37.4-49.5,48.5-77.1c11-27.6,15.3-56,15.3-56s-0.2,9-2.5,22c0,0,5.5-11.2,7.1-38.4c1.6-27.2,11.5-52.6,11.5-52.6L600.4,492.2z
	 M476.1,676.2c-19.8,11.6-33.4-7-25.3-14.1s8.4-15.9,8.4-15.9c0,4.9-2.3,9.7-2.3,9.7c7.5-10.4,8.1-32.5,8.1-32.5s-10,7.7-39.7,8.4
	c-29.7,0.7-54.7-4.8-54.7-4.8c-0.5,1,4.1,21.1,4.5,20.3l-1-7.7c15,46.3-13.7,38.8-30.4,12.8l6.1,11c-6.5-6.6-34.8-48.2-33.6-55.3
	c0-6.6,7.9-16,13.8-22c5.9-5.9,23.2-11.2,23.2-11.2l11.4-15.7l-6.9,13.3c3.7-2.7,36.9-11.6,37.9-10.7c1.7,0,9.5,3.4,9.5,3.4
	l-5.7-4.3l10.2,5.1c0,0,12.8-8.6,16.2-8.1c3.4,0.5,52.3,20.6,52.3,20.6l-8.3-13.2l10.3,13.2c0,0,19.9,9.9,22.6,12.5
	s8.7,15.9,8.7,21.9S495.9,664.6,476.1,676.2z"/>
<path class="st4" d="M349.7,588.6c8.7,1.2,43.3,1.3,57.2,3.2c13.3,1.6,19-0.5,28.5-0.5c9.5,0,32.6,1.9,36.4,1.1
	c3.7-0.8,15-3.8,18.4-3.8c3.5,0,0.9,4.8-3.5,6.3s-35.9-2.5-41.3-2.5s-27.7,3.6-36.8,2.8c-9.1-0.8-20.9-4-25.3-4
	c-4.5,0-33.3,1.5-36.9,0.7s-2.1-5.1-2.1-5.1L349.7,588.6z"/>
<polyline class="st9" points="303.8,677.8 319.6,750.6 434.6,819.2 536,756 555.9,653.3 "/>
<path class="st4" d="M625.4,362c-0.4-7.1-3.6-14.9-3.9-15.1c-0.2-0.2-10.8-2.4-10.8-2.4c-8.2-28.2-155.5-25.7-168.8,3.4
	c0,0-11.1-2.5-28.3-2.5s-21.9,1.8-21.9,1.8c-6-27.3-164.7-28.4-163.2,2.5c0,0-6.8,1-7.2,2.4c0,0,0,15.3,0,17s7.5,5.9,7.5,5.9
	c-7.7,54.3,94,48.1,128.6,41.5c24.2-6.4,25.4-19.3,30.9-34s7.8-23.5,7-25c-0.7-1.5,2.1-3.2,2.8-3.9c0.2,0.5,46.8-5.6,43.3,6.5
	c-3.3,11.5,16.4,60.2,41.3,57.6c15.1,1.9,56.4,3.3,74.1,1c32.6-3.9,54.6-8.3,56.5-38.2c0-0.7,0.8,4.9,0.8,4.9l4.8-0.4
	C618.7,384.9,625.7,369.1,625.4,362z M385.4,365.8c-8.5-4.3-16.8,20.5-3.7,16.7c0,0-2,23.3-22.1,29.9c-30.2,6.8-107.1,10-122.3-17.4
	c-15.3-51.1,3.9-60.5,43.7-63c11.8-1.8,75.6-1.2,91.2,7.2C390.8,345.2,389,355.4,385.4,365.8z M600.7,400
	c-18.4,20.6-108.4,17.5-129.8,10.3c-10.2-5.1-16.5-23.4-16.5-23.4c4.6,1.6,9.1-1.7,7.5-9.5c-1.1-6.9-13.3-14.6-11.9-5.5
	c-0.9-3-5.3-19.3,2.4-26.4c28.9-18.3,71.1-16.5,109.7-13.8c45.3,6.3,44.6,7.6,47.1,35.6C609.6,376.6,606.5,391.1,600.7,400z"/>
<path class="st10" d="M504.6,131c-2,48.4-125,102.4-144.9,106.2c0,0,32.1-12.7,56-29.8c23.9-17.1,23.9-17.1,23.9-17.1
	s-30.7,18.5-86.1,43.7s-68.8,33.9-68.8,33.9s46.1-26.6,94.7-52.8s57-43.8,56.2-43c-0.8,0.8-7.7,13-59.3,40.6
	c0,0,33.1-19.4,49.4-39.7c0,0-21.7,11.6-93.9,52.9s-79.3,69.7-79.3,69.7s7.5-26.7,50.3-61.3s69.3-49,69.3-49s-38.1,22.3-70.6,45.4
	S266,257.2,266,257.2s18.5-23.7,57.7-50.1s65.9-49.7,65.9-49.7c-21.3,19.6-138.4,77.9-142.4,126.4c4.2-41.8,54.4-96.4,90-107.2
	c-29.9,9.1-114.3,83.3-98.9,133.5c-37.1-76.2,87-167.6,121.5-182.9c0,0-49.7,26.2-74.3,48.8S261,198.8,261,198.8
	c11.2-21.4,87-80.7,114.2-86.8c0,0-23,6.8-48.1,23s-33.7,22.5-33.7,22.5c41.7-42.1,111.9-74.2,177.2-56.3c0,0-14.6-2.7-30.5,0.4
	c-15.9,3.1-16.5,3.1-16.5,3.1s15.9-3.9,32.6-3.2c16.6,0.7,21.5,0.6,21.5,0.6s-12.7,8.9-34.2,19.5c-21.5,10.6-26.3,12.1-26.3,12.1
	s17.6-5.6,36.7-14.7c19.1-9.1,23.6-12.6,23.6-12.6s-10.5,10-28.4,19.6c0,0,23.5-10.3,34.5-22.3c0,0,3.2,14.4-14.1,35.9
	s-28,28.1-27.3,27.4c11.3-7.5,43.3-34.6,45.9-56.6c0,0,1.4-0.9-6.4,20.7c-7.8,21.6-23.6,31.1-23.6,31.1
	c10.3-5.1,36.3-39.1,36.2-54.3c8,19.3-10.8,58-26,66.1C468.1,173.8,496.6,153.3,504.6,131z"/>
<path class="st10" d="M511,157.8c0,0,29.4,18.5,48.3,50.6s19.1,37.2,19.1,37.2s-4.5-22.9-15.7-42.3S551.5,184,551.5,184
	s23,27.6,34.4,70.2c12.5,49.8,28.3,98.3,42.5,126.2c0,0-4.6-14.1-9.3-37.5s-4.9-24.2-4.9-24.2c-0.9-0.3,12.1,51.8,15.8,57.5
	c0,0-2.9-9.6-9.9-43.2S610,274.1,610,274.1s6.3,31.5,12.7,56.7s6.5,28.3,6.5,27.4c0-0.8-7.5-46.3-7.5-46.3s10.1,24,13.4,48.5
	s1.8,33.5,1.8,32.4s2.6-20.4-2.3-58.5s-10-51.3-10-51.3c3.6,5.2,20.3,87.1,15.6,98.1c3.6-85.6-38.1-216.3-127.8-259.5l29,23
	c-0.1,0-33-21.7-36.9-25.2c0,0,21.3,20.1,36,38.8c14.7,18.6,15.1,19,15.1,19l-28.8-31l22.9,28.4c0,0-15.3-14.8-26.4-21.7
	c-11-6.9-11-6.9-11-6.9c-0.4-0.9,27.2,23,29.4,26.3c0,0-16.4-14.8-25.8-20.1c-9.4-5.3-13-7-13-7L511,157.8z"/>
<path class="st10" d="M597.8,210.2c25.7,55.4,81.1,153.5,32.3,228.8c0,0,23.3-27.3,26.1-75.3c0,0,2.7,24.5-15.5,63
	c-18.2,38.5-27,49-27,49s51.1-55.2,54.4-107c0.4-73.2-69-212.6-124.5-234C543.6,134.6,579,161,597.8,210.2z"/>
<path class="st10" d="M411.9,98.4C373.5,96,291,131.9,273.6,171c0,0,24.6-40.8,63.3-59.3c0,0-19.4,7.1-39.9,25.8
	C329.2,88.7,405.2,86.3,448.1,99L411.9,98.4z"/>
<path class="st11" d="M467.9,111.8c0,0-37.8,18.9-86.4,54s-54.7,37.6-54.7,37.6l64-36.5c0,0-40.5,25-64,41.7s-23.5,16.8-23.5,16.8
	c1.5,0,102.7-56.6,115-66.7c1.5,0.2-66.7,49.9-75.6,53.6c8-0.6,145.2-77.3,141.1-107.7c0,0-13.5,13.6-38.9,27.1
	s-25.8,13.9-25.4,13.5C419.8,144.8,467.9,111.8,467.9,111.8z"/>
<path class="st11" d="M482.4,125c0,0-26.3,33.2-58,55.9s-38,26.4-38,26.4s27.2-13.6,44.6-26.7c17.5-13.2,17.5-13.2,17.5-13.2
	s-22.3,19.5-56.9,42.2s-46.5,26-46.5,26C376,224,483.2,184.6,489,123.7c0,0-9.8,16.7-22.2,29.8s-13,13.3-13,13.3
	S473.4,146.8,482.4,125z"/>
<path class="st11" d="M462,109.3c0,0-28.3,11-62.7,32.6s-47.2,34.8-47.2,34.8s31.2-30.4,54.2-44.9c23-14.6,23-14.6,23-14.6
	s-16.2,6.6-37.4,19.8s-23.1,15.1-23.1,15.1c7.4-10.7,54.5-48,75-44.2c0,0-16.4,0.4-39,10.2s-29.5,15.3-29.5,15.3
	c23.1-22.6,74.3-35.6,101.8-31L462,109.3z"/>
<path class="st11" d="M441.6,104.6c-30.3-3.3-83.9,8.9-110.6,31.6c16-20.3,69-40,95.8-35.3c0,0-18.8-3.9-58.1,5.9
	S319,125.7,319,125.7s15.7-13.1,45.5-20.4c29.8-7.4,44-7.2,44-7.2s-30.1,1.1-47.6,5.8c-17.5,4.8-17.5,4.8-17.5,4.8
	c27.9-14.4,91.3-18.4,118.5-9.1l-28.7,0.3l27.2,2.2L441.6,104.6z"/>
<path class="st11" d="M540.2,143.5c42.6,22,82.3,102.5,86.5,146.4c0,0-9.4-32.4-19.7-51s-10.2-18.5-10.2-18.5s13,22.1,20.9,62
	s9,53.7,9,53.7c0.1,0.3-34.4-87.9-36.5-99.3c0,0,4.9,7.6,15.8,54.7c10.9,47,10.9,47,10.9,47c-1.5-17.4-55.3-162.1-86.3-179.4
	c0,0,13.7,9.2,22.7,20.6s9,11.4,9,11.4c0.8,0.1-32.4-48.6-36-51.7c0,0,29.1,35.4,29.1,34.4s-28-38.5-28-38.5L540.2,143.5z"/>
<path class="st11" d="M597.8,185.5c18,26.2,97.8,177.1,52.5,230c0,0,16.6-36.6,8.1-75.4c0,0,5.4,20.2-5.4,47.3
	c14.9-59.7-69.5-195.3-81.1-230.2L597.8,185.5z"/>
</svg>
