<?xml version="1.0" encoding="iso-8859-1"?>
<!-- Generator: Adobe Illustrator 25.3.1, SVG Export Plug-In . SVG Version: 6.00 Build 0)  -->
<svg version="1.1" xmlns="http://www.w3.org/2000/svg" xmlns:xlink="http://www.w3.org/1999/xlink" x="0px" y="0px" width="900px"
	 height="900px" viewBox="0 0 900 900" enable-background="new 0 0 900 900" xml:space="preserve">
<g id="Layer_2">
</g>
<g id="Layer_3">
</g>
<g id="BG">
	<rect x="-980.911" fill="#1D1C4E" width="900" height="900"/>
	<path fill="#FFFFFF" d="M-672.766,758.841l-14.312-65.757c-0.433-1.403-0.855-2.792-1.27-4.157
		c-2.648-8.717-5.149-16.95-8.172-20.693c-0.106-0.132-0.212-0.263-0.317-0.394l-0.902,1.109c-1.323-0.97-8.371-6.688-17.258-24.144
		c-8.786-17.256-18.658-48.45-30.088-84.57c-12.57-39.722-17.276-94.202-14.563-123.925c1.006-11.021,2.033-22.715,3.056-34.802
		c-3.985-7.733-5.269-15.583-5.636-20.903c-5.365-3.693-7.56-7.16-7.56-11.524v-18.477l0.399-1.371
		c1.108-3.801,3.817-6.046,7.146-7.448c-1.968-16.568-2.787-32.253-2.434-46.671c0.915-37.386,9.48-73.046,25.462-106.012
		c4.601-17,14.569-41.705,36.036-64.705c36.422-39.024,96.094-49.335,122.558-49.335c0.777,0,1.573,0.007,2.384,0.021
		c6.806-2.841,14.28-4.28,22.259-4.28c4.645,0,9.488,0.5,14.396,1.485c21.408,4.299,32.84,11.05,38.533,15.719
		c1.886-0.181,4.189-0.317,6.848-0.317c8.294,0,21.377,1.346,36.61,7.76c27,11.369,41.516,30.31,42.12,31.111l-1.672,1.516
		c1.773,1.817,3.556,3.721,5.32,5.705c2.713,3.049,5.854,6.148,9.49,9.738c6.116,6.037,13.728,13.549,22.025,23.712
		c1.491,1.804,3.029,3.75,4.536,5.74l0.939,1.237c11.096,14.693,21.315,31.729,31.239,52.074
		c24.998,51.257,47.682,105.331,44.415,153.516c-2.187,32.25-13.669,65.948-34.128,100.16c-7.15,11.956-16.104,24.264-21.516,31.439
		c-2.371,9.901-3.834,19.275-4.352,27.89c-1.707,28.362-7.48,40.85-8.134,42.18l-1.69-0.55c-2.518,9.965-6.062,21.936-10.837,33.847
		c-6.812,16.995-16.143,29.937-26.021,43.638c-2.173,3.014-4.408,6.114-6.684,9.346l-18.734,96.271l-112.865,70.412
		L-672.766,758.841z"/>
	<path fill="#3F3F82" d="M-354.581,230.664c-10.826-22.196-21.018-38.241-30.283-50.5c-0.023-0.03-0.046-0.063-0.069-0.094
		c-0.092-0.124-0.185-0.241-0.277-0.364c-0.178-0.235-0.356-0.468-0.534-0.7c-1.426-1.883-2.864-3.702-4.31-5.452
		c-12.703-15.559-23.402-24.318-31.24-33.127c-14.376-16.158-30.178-26.852-30.178-26.852c13.782,7.723,26.02,19.01,26.02,19.01
		s-13.188-17.465-38.02-27.921s-43.01-6.059-43.01-6.059s-7.485-10.574-37.069-16.515c-14.767-2.965-25.566-0.335-32.681,3.043
		c-1.475-0.047-2.94-0.072-4.389-0.072c-21.743,0-80.317,8.733-115.248,46.158c-20.519,21.984-29.781,45.625-33.934,61.394
		c-15.825,32.327-24.002,66.963-24.878,102.745c-0.412,16.822,0.872,33.617,2.777,48.573c-1.206,2.536-0.639,5.695-0.639,5.695
		s-6.832,0.98-7.247,2.406c0,0,0,15.267,0,17.049s7.485,5.852,7.485,5.852s-1,13.12,5.933,24.358
		c-0.852,10.135-2.01,23.588-3.319,37.929c-2.733,29.941,2.257,82.455,14.139,120s21.208,66.832,29.465,83.049
		c8.257,16.218,14.257,20.614,14.257,20.614s-2.97-2.673-5.881-10.218c-2.684-6.956-2.893-7.497-2.909-7.54
		c0.02,0.054,2.94,7.757,11.879,18.827c4.874,6.037,7.681,16.759,11.342,28.588l13.48,61.937l117.666,70.237l103.995-64.879
		l18.31-94.089c13.237-18.964,24.816-32.711,32.831-52.705c11.049-27.564,15.327-55.96,15.327-55.96s-0.238,9.03-2.495,21.98
		c0,0,5.493-11.197,7.129-38.376c0.69-11.462,2.848-22.609,5.112-31.677c5.236-6.875,14.711-19.737,22.155-32.184
		c10.871-18.178,29.881-53.644,32.733-95.703C-308.303,337.06-326.244,288.763-354.581,230.664z M-553.887,85.06
		c21.386,1.782,33.505,13.901,33.505,13.901c-10.796-7.003-29.714-11.854-48.15-13.384
		C-564.334,84.892-559.447,84.597-553.887,85.06z M-702.996,145.298c27.267-35.287,61.129-44.911,61.129-44.911
		s-31.723,9.445-63.624,52.396c-7.76,10.448-14.574,21.236-20.472,32.31C-721.524,173.932-714.401,160.057-702.996,145.298z
		 M-364.366,500.692c3.133-4.062,5.349-7.688,6.108-8.973c-2.598,4.462-4.994,8.616-6.937,12
		C-364.917,502.674-364.64,501.664-364.366,500.692z"/>
</g>
<g id="Color">
	<path fill="#FFFFFF" d="M614.386,478.681c0,0-3.99,29.02-13.78,83.41c-9.79,54.38-45.75,96.78-45.75,96.78l-18.9,97.11l-4.35,2.67
		l-97.8,60.06l-114.16-68.14l-9.52-43.75l-10.11-45.64c0,0-4.37-7.91-10.72-19.96c-15.36-29.12-42.34-82.45-47.38-106.7
		c-7.12-34.27-7.13-82.15-7.13-82.15l0.1-57.25c0,0-5.09-18.14-5.09-29.93c0-11.79,16.51-54.98,16.51-54.98
		c0.8-4.13,1.74-8.3,2.81-12.48c25.6-99.44,127.63-209.89,176.77-203.05c26.25,3.65,63.93,18.86,97.93,46.56
		c32.33,26.36,61.32,64.02,73.95,113.84C623.686,357.261,614.386,478.681,614.386,478.681z"/>
	<path fill="#E4E3EA" d="M494.806,152.249c0,0-31.366,51.505-99.802,90.891s-56.851,48.297-56.851,48.297l168.238,3.386
		l32.792,16.337c0,0-17.941,3.546-29.584,13.119c-11.644,9.574-0.951,15.158-0.951,15.158s14.673-3.089,38.822,6.713
		s24.594,22.188,24.951,27.178c0.356,4.99,0.713,5.525,0.713,5.525s-5.614-12.653-17.198-20.495s-30.653-13.901-42.327-13.901
		s-2.05,6.238-2.05,6.238s21.297,0,37.337,9.98s21.965,21.876,23.347,23.257c1.381,1.381,1.381,1.381,1.381,1.381
		s-20.183,10.381-37.738,12.163c-17.554,1.782-54.535-9.856-59.614-11.567c-5.079-1.71,10.693,9.785,10.693,9.785
		s-6.772-1.96-9.178-1.248c-2.406,0.713-8.198-6.283-12.208-8.537c-4.01-2.254-8.773,9.631,2.519,22.584
		c11.293,12.953,69.124,9.745,69.124,9.745s-30.713,3.579-56.495,2.131c-25.782-1.448-33.505-20.339-33.505-20.339
		s-6.297-29.465-9.386-37.663c-3.089-8.198-29.228-5.703-32.317-3.802s-4.04,64.99-14.733,86.852
		c-10.693,21.861-1.307,37.663,24.356,38.97c25.663,1.307,28.634-15.089,26.139-24.475c0,0,4.99,7.01,4.277,16.871
		c-0.713,9.861,12.059,9.208,16.99,14.139s7.122-7.614,2.361-20.792s-11.391-20.436-11.391-20.436l9.624-5.822
		c0,0,2.97,11.525,10.812,28.277s3.683,32.554-7.01,40.099c-10.693,7.545-29.228,6.594-46.099,18s-17.402-0.794-27.089-4.634
		c-9.687-3.839-24.356-6.178-35.525-20.079c-11.168-13.901-10.536-34.931,4.594-51.208c15.129-16.277,13.109-40.396,13.109-40.396
		s-13.01,6.535-36.891,8.436c-23.881,1.901-41.406-4.574-41.406-4.574s48.951,3.505,65.584-10.99
		c16.634-14.495,7.188-25.099,7.188-25.099s-13.099,5.881-19.782,7.663c-6.683,1.782-7.753,2.139-7.753,2.139
		s5.391-3.698,6.416-4.723s8.198-4.634,10.158-5.703c1.96-1.069-12.297,5.525-30.475,8.287c-18.178,2.762-39.832-1.782-50.257-5.881
		c-10.426-4.099-12.03-3.743-12.03-3.743s13.455-22.901,45-30.564s43.059,1.604,43.059,1.604s-19.356-14.67-45.287-7.157
		c-25.931,7.513-40.01,27.206-40.01,27.206s13.545-22.99,22.634-28.96c9.089-5.97,25.218-8.109,40.99-7.663
		c15.772,0.446-18.356-22.515-38.762-24c-20.406-1.485-17.624-5.726-17.624-5.726s-17.945-66.893,92.43-99.304
		S494.806,152.249,494.806,152.249z"/>
	<path fill="#E4E3EA" d="M327.266,533.651c-0.12,0.18-1.19,1.78-2.89,4.08C325.876,535.341,327.116,533.821,327.266,533.651z"/>
	<path fill="#E4E3EA" d="M395.186,669.081c0,0-37.31,56.49-78.96,5.64c-9.45-11.54-18.37-22.39-26.93-33.5
		c-15.36-29.12-42.34-82.45-47.38-106.7c-7.12-34.27-7.13-82.15-7.13-82.15l0.1-57.25c0,0-5.09-18.14-5.09-29.93
		c0-11.79,16.51-54.98,16.51-54.98c0.8-4.13,1.74-8.3,2.81-12.48c9.82-1.94,20.96-2.95,33.55-2.95c0,0-19.96,45.13-18.3,91.7
		c1.67,46.58-17.01,39.01-10.69,85.55c6.32,46.53,35.64,84.83,45.98,86.24c7.74,1.06,19.36-13.27,24.72-20.54
		c-2.6,4.12-6.01,10.82-6.01,17.65c0,11.05-9.26,41.52,17.11,80.19C361.856,674.251,395.186,669.081,395.186,669.081z"/>
	<path fill="#E4E3EA" d="M614.386,478.681c0,0-3.99,29.02-13.78,83.41c-9.79,54.38-45.75,96.78-45.75,96.78l-18.9,97.11l-4.35,2.67
		c-0.96-7.49-2.58-16.17-4.9-15.49c-4.04,1.19-8.08,8.79-62.97,27.8c-53.68,18.59-107.82-26.23-110.18-28.22
		c0.87,0.63,9.02,6.27,18.22,4.7c9.74-1.67,72-53.23,72-53.23s24.47-0.48,44.67-40.87c20.2-40.4,41.82-85.79,58.22-100.04
		c16.4-14.26,52.22-53.87,55.84-86.74c3.63-32.86-15.45-58.23-11.64-88.87c3.81-30.63-4.28-48.01-4.28-48.01s0.95-12.11-10.93-30.4
		c-11.88-18.3-33.98-18.06-47.19-80.32c-13.21-62.26-58.08-68.32-58.08-68.32c19.15-7.79,36.96-10.62,53.43-9.4
		c32.33,26.36,61.32,64.02,73.95,113.84C623.686,357.261,614.386,478.681,614.386,478.681z"/>
	<path fill="#CBCBDB" d="M354.746,294.778c0,0,28.075,21.951,35.624,29.501c7.549,7.549,7.218,38.712,5.525,57.96
		c-1.693,19.248-8.465,32.257-14.525,36.267c-6.059,4.01-5.55,7.307-5.55,7.307s1.143-10.09,0.382-14.257
		s-12.208,7.826-29.139,8.814c-16.931,0.988-24.238-1.685-24.238-1.685s36.446,0.178,46.069-14.168
		c9.624-14.347,6.238-26.313,4.099-27.592s-18.178,1.305-34.396,7.721c-16.218,6.416-41.614,2.411-52.842-2.181
		c-11.228-4.592-14.451-5.389-14.713-5.126s16.674-18.446,35.565-25.842c18.891-7.396,43.574-0.585,48.921,2.024
		s5.347,2.609,5.347,2.609s-11.176-11.592-23.781-15.103s-41.358,4.856-46.169,6.816c-4.812,1.96-11.373,7.67-11.373,7.67
		s14.759-15.066,24.294-17.383c9.535-2.317,34.625-1.597,42.327-2.584c7.701-0.988-21.119-32.614-21.119-32.614L354.746,294.778z"/>
	<path fill="#CBCBDB" d="M473.241,298.09c0,0-21.149,16.277-30.653,27.564s-0.888,51.362,4.634,66.891s22.478,25.409,36.525,25.215
		s14.048-0.194,14.048-0.194s-35.128,0.881-38.098-22.169c-2.97-23.049,17.228-12.238,17.228-12.238s35.525,13.901,59.049,10.693
		c23.525-3.208,34.668-12.18,34.668-12.18s-10.549-18.83-37.639-26.434c-27.089-7.604-43.842,1.069-43.842,1.069
		s7.663-8.521,22.841-11.805s44.43,10.446,47.407,13.423s6.922,7.627,6.922,7.627s-3.56-13.368-15.357-17.888
		c-11.796-4.52-35.081-8.11-45.655-8.11s-2.495-20.852,4.634-27C517.083,306.407,479.538,290.724,473.241,298.09z"/>
	<path fill="#CBCBDB" d="M374.419,449.962c0,0-11.941,13.455-15.95,27.802c-4.01,14.347,3.653,18.75,6.148,18.75
		s4.188-9.037,12.208-10.819c8.02-1.782,18.361,7.842,18.361,7.842s-9.717-7.218-10.787-16.842c0,0,10.693,15.505,29.851,15.148
		c19.158-0.356,24.149-9.535,24.149-9.535s-0.713,4.545-3.386,8.198c-2.673,3.653,2.584-2.05,11.049,0.089
		c8.465,2.139,12.119,8.287,17.465,8.287s7.632-13.659,3.921-25.663s-11.093-19.842-11.093-19.842s18.043,16.366,19.469,36.059
		c1.426,19.693-20.228,26.822-27,28.515s-24.832,2.132-34.931,8.644c-10.099,6.512-29.428-5.913-35.733-7.752
		c-6.305-1.84-28.444-16.836-27.588-35.819s19.747-31.815,23.489-36.359c3.743-4.545,3.743-4.545,3.743-4.545L374.419,449.962z"/>
	<path fill="#FFFFFF" d="M480.548,369.763c0,0,15.089-9.882,27.089-12.798c12-2.915,30.594,5.342,37.842,9.501
		s8.139,7.307,8.139,7.307s-4.158,8.317-16.158,10.812s-20.079,0.416-26.97-1.545c-6.891-1.96-13.01-5.703-18.356-6.416
		c-5.347-0.713-10.619,0.104-12.416-1.693C477.919,373.135,480.548,369.763,480.548,369.763z"/>
	<path fill="#FFFFFF" d="M322.528,354.229c0,0,12.713-2.599,27.03,6.067c14.317,8.666,12.297,11.53,8.02,12.029
		c-4.277,0.499-14.911,2.815-25.248,5.726c-10.337,2.911-15.446,6.297-27.089,3.089c-11.644-3.208-17.05-7.842-17.05-11.703
		C288.192,365.575,311.538,356.13,322.528,354.229z"/>
	<g>
		<defs>
			<path id="SVGID_1_" d="M322.528,354.229c0,0,12.713-2.599,27.03,6.067c14.317,8.666,12.297,11.53,8.02,12.029
				c-4.277,0.499-14.911,2.815-25.248,5.726c-10.337,2.911-15.446,6.297-27.089,3.089c-11.644-3.208-17.05-7.842-17.05-11.703
				C288.192,365.575,311.538,356.13,322.528,354.229z"/>
		</defs>
		<clipPath id="SVGID_2_">
			<use xlink:href="#SVGID_1_"  overflow="visible"/>
		</clipPath>
		<g clip-path="url(#SVGID_2_)">
			<circle fill="#1D1C4E" cx="322.558" cy="366.288" r="17.911"/>
			<circle fill="#30306B" cx="322.558" cy="366.288" r="16.509"/>
			<circle fill="#1D1C4E" cx="322.558" cy="366.288" r="8.068"/>
			<circle fill="#FFFFFF" cx="329.954" cy="364.424" r="3.119"/>
		</g>
	</g>
	<g>
		<defs>
			<path id="SVGID_3_" d="M480.548,369.763c0,0,15.089-9.882,27.089-12.798c12-2.915,30.594,5.342,37.842,9.501
				s8.139,7.307,8.139,7.307s-4.158,8.317-16.158,10.812s-20.079,0.416-26.97-1.545c-6.891-1.96-13.01-5.703-18.356-6.416
				c-5.347-0.713-10.619,0.104-12.416-1.693C477.919,373.135,480.548,369.763,480.548,369.763z"/>
		</defs>
		<clipPath id="SVGID_4_">
			<use xlink:href="#SVGID_3_"  overflow="visible"/>
		</clipPath>
		<g clip-path="url(#SVGID_4_)">
			<circle fill="#1D1C4E" cx="518.419" cy="369.723" r="17.911"/>
			<circle fill="#30306B" cx="518.419" cy="369.723" r="16.509"/>
			<circle fill="#1D1C4E" cx="518.419" cy="369.723" r="8.068"/>
			<circle fill="#FFFFFF" cx="525.815" cy="367.859" r="3.119"/>
		</g>
	</g>
	<path fill="#FFFFFF" d="M383.598,505.771c0,0,4.474-0.849,6.172-0.849s5.786,2.237,6.403,2.507c0.617,0.27,0.733,0.154,0.617,0.27
		s-2.816-0.424-5.593,0.694c-2.777,1.119-8.062-0.077-9.335-0.309s-1.852-0.694-1.852-0.694L383.598,505.771z"/>
	<path fill="#FFFFFF" d="M431.494,508.818c0,0,3.965-1.604,8.287-1.114c4.322,0.49,4.322,0.49,4.322,0.49s-3.134,0.733-3.96,1.559
		C439.316,510.58,432.563,509.887,431.494,508.818z"/>
	<path fill="#E4E3EA" d="M352.081,588.797c0,0-12.147-6.509-15.83-4.727c-3.683,1.782-4.494,2.069-5.195,1.368
		c-0.701-0.701-0.152,9.206,5.67,10.513s17.699-2.691,20.196-3.781c2.497-1.09,3.21-1.565,3.21-1.565L352.081,588.797z"/>
	<path fill="#E4E3EA" d="M478.611,590.82c0,0,4.967-9.126,17.918-4.73s12.951,4.396,12.951,4.396s-8.733,4.099-10.337,5.703
		c-1.604,1.604-11.762-1.188-18.297-2.376c-6.535-1.188-10.568-1.242-10.568-1.242L478.611,590.82z"/>
	<path fill="#CDCDCD" d="M488.656,591.731c0,0-20.06,28.98-47.85,34.58c-19.61,3.95-36.88,1.84-48.35-1.67
		c-4.79-1.45-8.57-3.15-11.09-4.75c-8.55-5.43-34.93-29.91-34.93-29.91s34.49-19.1,42.78-21.5c7.07-2.06,18.63,2.51,21.86,3.89
		c0.55,0.24,0.86,0.38,0.86,0.38s6.4-7.22,16.79-7.22S488.656,591.731,488.656,591.731z"/>
	<path fill="#ACACAC" d="M485.486,592.161c0,0,0,0-0.7,0.7c-0.71,0.71-11.78,9.86-26.99,9.86s-37.6-3.26-39.33-1.54
		c-1.72,1.72-3.92,5.82-3.92,5.82s-2.26-6.18-7.36-6.18c-5.11,0-41.59-3.56-39.93-1.9c1.67,1.66,12.96,12.12,16.52,17.82
		c1.95,3.13,5.7,5.98,8.68,7.9c-4.79-1.45-8.57-3.15-11.09-4.75c-8.55-5.43-34.93-29.91-34.93-29.91s34.49-19.1,42.78-21.5
		c7.07-2.06,18.63,2.51,21.86,3.89c0.18,5.79,1.21,14.43,5.73,13.96c6.77-0.72,28.28-2.26,36.95,0.59
		C462.426,589.771,485.486,592.161,485.486,592.161z"/>
	<path fill="#FFFFFF" d="M-366.525,478.681c0,0-3.99,29.02-13.78,83.41c-9.79,54.38-45.75,96.78-45.75,96.78l-18.9,97.11l-4.35,2.67
		l-97.8,60.06l-114.16-68.14l-9.52-43.75l-10.11-45.64c0,0-4.37-7.91-10.72-19.96c-15.36-29.12-42.34-82.45-47.38-106.7
		c-7.12-34.27-7.13-82.15-7.13-82.15l0.1-57.25c0,0-5.09-18.14-5.09-29.93c0-11.79,16.51-54.98,16.51-54.98
		c0.8-4.13,1.74-8.3,2.81-12.48c25.6-99.44,127.63-209.89,176.77-203.05c26.25,3.65,63.93,18.86,97.93,46.56
		c32.33,26.36,61.32,64.02,73.95,113.84C-357.224,357.261-366.525,478.681-366.525,478.681z"/>
	<path fill="#E4E3EA" d="M-486.105,152.249c0,0-31.366,51.505-99.802,90.891s-56.852,48.297-56.852,48.297l168.238,3.386
		l32.792,16.337c0,0-17.941,3.546-29.584,13.119s-0.951,15.158-0.951,15.158s14.673-3.089,38.822,6.713
		c24.149,9.802,24.594,22.188,24.951,27.178c0.356,4.99,0.713,5.525,0.713,5.525s-5.614-12.653-17.198-20.495
		s-30.653-13.901-42.327-13.901c-11.673,0-2.05,6.238-2.05,6.238s21.297,0,37.337,9.98s21.965,21.876,23.347,23.257
		c1.381,1.381,1.381,1.381,1.381,1.381s-20.183,10.381-37.738,12.163c-17.554,1.782-54.535-9.856-59.614-11.567
		c-5.079-1.71,10.693,9.785,10.693,9.785s-6.772-1.96-9.178-1.248c-2.406,0.713-8.198-6.283-12.208-8.537
		c-4.01-2.254-8.773,9.631,2.519,22.584c11.293,12.953,69.124,9.745,69.124,9.745s-30.713,3.579-56.495,2.131
		c-25.782-1.448-33.505-20.339-33.505-20.339s-6.297-29.465-9.386-37.663c-3.089-8.198-29.228-5.703-32.317-3.802
		s-4.04,64.99-14.733,86.852c-10.693,21.861-1.307,37.663,24.356,38.97c25.663,1.307,28.634-15.089,26.139-24.475
		c0,0,4.99,7.01,4.277,16.871c-0.713,9.861,12.059,9.208,16.99,14.139c4.931,4.931,7.122-7.614,2.361-20.792
		c-4.761-13.179-11.391-20.436-11.391-20.436l9.624-5.822c0,0,2.97,11.525,10.812,28.277s3.683,32.554-7.01,40.099
		c-10.693,7.545-29.228,6.594-46.099,18s-17.402-0.794-27.089-4.634c-9.687-3.839-24.356-6.178-35.525-20.079
		c-11.168-13.901-10.536-34.931,4.594-51.208c15.129-16.277,13.109-40.396,13.109-40.396s-13.01,6.535-36.891,8.436
		c-23.881,1.901-41.406-4.574-41.406-4.574s48.951,3.505,65.584-10.99c16.634-14.495,7.188-25.099,7.188-25.099
		s-13.099,5.881-19.782,7.663c-6.683,1.782-7.752,2.139-7.752,2.139s5.391-3.698,6.416-4.723c1.025-1.025,8.198-4.634,10.158-5.703
		s-12.297,5.525-30.475,8.287c-18.178,2.762-39.832-1.782-50.257-5.881c-10.426-4.099-12.03-3.743-12.03-3.743
		s13.455-22.901,45-30.564s43.059,1.604,43.059,1.604s-19.356-14.67-45.287-7.157c-25.931,7.513-40.01,27.206-40.01,27.206
		s13.545-22.99,22.634-28.96c9.089-5.97,25.218-8.109,40.99-7.663c15.772,0.446-18.356-22.515-38.762-24s-17.624-5.726-17.624-5.726
		s-17.945-66.893,92.43-99.304S-486.105,152.249-486.105,152.249z"/>
	<path fill="#E4E3EA" d="M-653.645,533.651c-0.12,0.18-1.19,1.78-2.89,4.08C-655.034,535.341-653.794,533.821-653.645,533.651z"/>
	<path fill="#E4E3EA" d="M-585.724,669.081c0,0-37.31,56.49-78.96,5.64c-9.45-11.54-18.37-22.39-26.93-33.5
		c-15.36-29.12-42.34-82.45-47.38-106.7c-7.12-34.27-7.13-82.15-7.13-82.15l0.1-57.25c0,0-5.09-18.14-5.09-29.93
		c0-11.79,16.51-54.98,16.51-54.98c0.8-4.13,1.74-8.3,2.81-12.48c9.82-1.94,20.96-2.95,33.55-2.95c0,0-19.96,45.13-18.3,91.7
		c1.67,46.58-17.01,39.01-10.69,85.55c6.32,46.53,35.64,84.83,45.98,86.24c7.74,1.06,19.36-13.27,24.72-20.54
		c-2.6,4.12-6.01,10.82-6.01,17.65c0,11.05-9.26,41.52,17.11,80.19C-619.055,674.251-585.724,669.081-585.724,669.081z"/>
	<path fill="#E4E3EA" d="M-366.525,478.681c0,0-3.99,29.02-13.78,83.41c-9.79,54.38-45.75,96.78-45.75,96.78l-18.9,97.11l-4.35,2.67
		c-0.96-7.49-2.58-16.17-4.9-15.49c-4.04,1.19-8.08,8.79-62.97,27.8c-53.68,18.59-107.82-26.23-110.18-28.22
		c0.87,0.63,9.02,6.27,18.22,4.7c9.74-1.67,72-53.23,72-53.23s24.47-0.48,44.67-40.87c20.2-40.4,41.82-85.79,58.22-100.04
		c16.4-14.26,52.22-53.87,55.84-86.74c3.63-32.86-15.45-58.23-11.64-88.87c3.81-30.63-4.28-48.01-4.28-48.01s0.95-12.11-10.93-30.4
		c-11.88-18.3-33.98-18.06-47.19-80.32c-13.21-62.26-58.08-68.32-58.08-68.32c19.15-7.79,36.96-10.62,53.43-9.4
		c32.33,26.36,61.32,64.02,73.95,113.84C-357.224,357.261-366.525,478.681-366.525,478.681z"/>
	<path fill="#CBCBDB" d="M-626.165,294.778c0,0,28.075,21.951,35.624,29.501c7.549,7.549,7.218,38.712,5.525,57.96
		s-8.465,32.257-14.525,36.267c-6.059,4.01-5.55,7.307-5.55,7.307s1.143-10.09,0.382-14.257c-0.76-4.167-12.208,7.826-29.139,8.814
		c-16.931,0.988-24.238-1.685-24.238-1.685s36.445,0.178,46.069-14.168s6.238-26.313,4.099-27.592s-18.178,1.305-34.396,7.721
		c-16.218,6.416-41.614,2.411-52.842-2.181c-11.228-4.592-14.451-5.389-14.713-5.126c-0.262,0.262,16.674-18.446,35.565-25.842
		c18.891-7.396,43.574-0.585,48.921,2.024s5.347,2.609,5.347,2.609s-11.176-11.592-23.781-15.103s-41.357,4.856-46.169,6.816
		c-4.812,1.96-11.373,7.67-11.373,7.67s14.759-15.066,24.294-17.383s34.625-1.597,42.327-2.584s-21.119-32.614-21.119-32.614
		L-626.165,294.778z"/>
	<path fill="#CBCBDB" d="M-507.67,298.09c0,0-21.149,16.277-30.653,27.564s-0.888,51.362,4.634,66.891s22.478,25.409,36.526,25.215
		s14.048-0.194,14.048-0.194s-35.128,0.881-38.098-22.169c-2.97-23.049,17.228-12.238,17.228-12.238s35.525,13.901,59.049,10.693
		s34.668-12.18,34.668-12.18s-10.549-18.83-37.639-26.434c-27.089-7.604-43.842,1.069-43.842,1.069s7.663-8.521,22.841-11.805
		c15.178-3.284,44.429,10.446,47.407,13.423s6.922,7.627,6.922,7.627s-3.56-13.368-15.357-17.888
		c-11.796-4.52-35.081-8.11-45.655-8.11s-2.495-20.852,4.634-27C-463.828,306.407-501.373,290.724-507.67,298.09z"/>
	<path fill="#CBCBDB" d="M-606.491,449.962c0,0-11.941,13.455-15.951,27.802s3.653,18.75,6.148,18.75s4.188-9.037,12.208-10.819
		c8.02-1.782,18.361,7.842,18.361,7.842s-9.717-7.218-10.787-16.842c0,0,10.693,15.505,29.852,15.148
		c19.158-0.356,24.148-9.535,24.148-9.535s-0.713,4.545-3.386,8.198c-2.673,3.653,2.584-2.05,11.049,0.089
		c8.465,2.139,12.119,8.287,17.465,8.287s7.632-13.659,3.921-25.663s-11.093-19.842-11.093-19.842s18.043,16.366,19.469,36.059
		c1.426,19.693-20.228,26.822-27,28.515s-24.832,2.132-34.931,8.644s-29.428-5.913-35.733-7.752
		c-6.305-1.84-28.444-16.836-27.588-35.819s19.747-31.815,23.489-36.359c3.743-4.545,3.743-4.545,3.743-4.545L-606.491,449.962z"/>
	<path fill="#FFFFFF" d="M-500.363,369.763c0,0,15.089-9.882,27.089-12.798s30.594,5.342,37.842,9.501s8.139,7.307,8.139,7.307
		s-4.158,8.317-16.158,10.812s-20.079,0.416-26.97-1.545c-6.891-1.96-13.01-5.703-18.356-6.416
		c-5.347-0.713-10.619,0.104-12.416-1.693C-502.991,373.135-500.363,369.763-500.363,369.763z"/>
	<path fill="#FFFFFF" d="M-658.383,354.229c0,0,12.713-2.599,27.03,6.067c14.317,8.666,12.297,11.53,8.02,12.029
		s-14.911,2.815-25.247,5.726c-10.337,2.911-15.446,6.297-27.089,3.089c-11.644-3.208-17.049-7.842-17.049-11.703
		C-692.719,365.575-669.373,356.13-658.383,354.229z"/>
	<g>
		<defs>
			<path id="SVGID_5_" d="M-658.383,354.229c0,0,12.713-2.599,27.03,6.067c14.317,8.666,12.297,11.53,8.02,12.029
				s-14.911,2.815-25.247,5.726c-10.337,2.911-15.446,6.297-27.089,3.089c-11.644-3.208-17.049-7.842-17.049-11.703
				C-692.719,365.575-669.373,356.13-658.383,354.229z"/>
		</defs>
		<clipPath id="SVGID_6_">
			<use xlink:href="#SVGID_5_"  overflow="visible"/>
		</clipPath>
		<g clip-path="url(#SVGID_6_)">
			<circle fill="#1D1C4E" cx="-658.353" cy="366.288" r="17.911"/>
			<circle fill="#30306B" cx="-658.353" cy="366.288" r="16.509"/>
			<circle fill="#1D1C4E" cx="-658.353" cy="366.288" r="8.068"/>
			<circle fill="#FFFFFF" cx="-650.957" cy="364.424" r="3.119"/>
		</g>
	</g>
	<g>
		<defs>
			<path id="SVGID_7_" d="M-500.363,369.763c0,0,15.089-9.882,27.089-12.798s30.594,5.342,37.842,9.501s8.139,7.307,8.139,7.307
				s-4.158,8.317-16.158,10.812s-20.079,0.416-26.97-1.545c-6.891-1.96-13.01-5.703-18.356-6.416
				c-5.347-0.713-10.619,0.104-12.416-1.693C-502.991,373.135-500.363,369.763-500.363,369.763z"/>
		</defs>
		<clipPath id="SVGID_8_">
			<use xlink:href="#SVGID_7_"  overflow="visible"/>
		</clipPath>
		<g clip-path="url(#SVGID_8_)">
			<circle fill="#1D1C4E" cx="-462.491" cy="369.723" r="17.911"/>
			<circle fill="#30306B" cx="-462.491" cy="369.723" r="16.509"/>
			<circle fill="#1D1C4E" cx="-462.491" cy="369.723" r="8.068"/>
			<circle fill="#FFFFFF" cx="-455.095" cy="367.859" r="3.119"/>
		</g>
	</g>
	<path fill="#FFFFFF" d="M-597.312,505.771c0,0,4.474-0.849,6.172-0.849c1.697,0,5.786,2.237,6.403,2.507s0.733,0.154,0.617,0.27
		s-2.816-0.424-5.593,0.694c-2.777,1.119-8.062-0.077-9.335-0.309c-1.273-0.231-1.852-0.694-1.852-0.694L-597.312,505.771z"/>
	<path fill="#FFFFFF" d="M-549.417,508.818c0,0,3.965-1.604,8.287-1.114c4.322,0.49,4.322,0.49,4.322,0.49s-3.134,0.733-3.96,1.559
		C-541.595,510.58-548.348,509.887-549.417,508.818z"/>
	<path fill="#E4E3EA" d="M-628.83,588.797c0,0-12.147-6.509-15.83-4.727c-3.683,1.782-4.494,2.069-5.195,1.368
		c-0.701-0.701-0.152,9.206,5.67,10.513s17.699-2.691,20.196-3.781c2.497-1.09,3.21-1.565,3.21-1.565L-628.83,588.797z"/>
	<path fill="#E4E3EA" d="M-502.3,590.82c0,0,4.967-9.126,17.918-4.73s12.951,4.396,12.951,4.396s-8.733,4.099-10.337,5.703
		c-1.604,1.604-11.762-1.188-18.297-2.376c-6.535-1.188-10.568-1.242-10.568-1.242L-502.3,590.82z"/>
	<path fill="#CDCDCD" d="M-492.254,591.731c0,0-20.06,28.98-47.85,34.58c-19.61,3.95-36.88,1.84-48.35-1.67
		c-4.79-1.45-8.57-3.15-11.09-4.75c-8.55-5.43-34.93-29.91-34.93-29.91s34.49-19.1,42.78-21.5c7.07-2.06,18.63,2.51,21.86,3.89
		c0.55,0.24,0.86,0.38,0.86,0.38s6.4-7.22,16.79-7.22S-492.254,591.731-492.254,591.731z"/>
	<path fill="#ACACAC" d="M-495.424,592.161c0,0,0,0-0.7,0.7c-0.71,0.71-11.78,9.86-26.99,9.86c-15.21,0-37.6-3.26-39.33-1.54
		c-1.72,1.72-3.92,5.82-3.92,5.82s-2.26-6.18-7.36-6.18c-5.11,0-41.59-3.56-39.93-1.9c1.67,1.66,12.96,12.12,16.52,17.82
		c1.95,3.13,5.7,5.98,8.68,7.9c-4.79-1.45-8.57-3.15-11.09-4.75c-8.55-5.43-34.93-29.91-34.93-29.91s34.49-19.1,42.78-21.5
		c7.07-2.06,18.63,2.51,21.86,3.89c0.18,5.79,1.21,14.43,5.73,13.96c6.77-0.72,28.28-2.26,36.95,0.59
		C-518.484,589.771-495.424,592.161-495.424,592.161z"/>
</g>
<g id="Outline">
	<path fill="#1D1C4E" d="M491.301,168.585c0,0-36.951,30.713-90.594,55.842s-60.772,30.832-60.772,30.832
		s23.168-17.465,65.049-40.099c0,0-42.059,19.069-87.861,53.287s-56.673,56.97-63.921,71.584s-8.911,22.812-8.911,22.812
		s1.069-12.95,5.703-21.386c0,0-3.327,7.248-6.891,21.386s-3.802,34.218-3.802,34.218s-14.317-50.733-13.069-101.703
		s17.287-99.624,49.188-142.574s63.624-52.396,63.624-52.396s-33.861,9.624-61.129,44.911s-30.119,65.584-30.119,65.584
		s2.317-42.238,37.248-79.663s93.505-46.158,115.248-46.158c21.743,0,47.049,5.347,60.238,13.901c0,0-12.119-12.119-33.505-13.901
		c-21.386-1.782-32.911,7.604-32.911,7.604S407.776,76.15,437.36,82.09c29.584,5.941,37.069,16.515,37.069,16.515
		s18.178-4.396,43.01,6.059s38.02,27.921,38.02,27.921s-12.238-11.287-26.02-19.01c0,0,15.802,10.693,30.178,26.851
		s38.376,32.139,66.713,90.238c28.337,58.099,46.277,106.396,43.426,148.455s-21.861,77.525-32.733,95.703
		c-10.871,18.178-26.079,37.248-26.079,37.248s5.406-9.535,12-20.852c0,0-7.396,13.099-16.752,20.139s-12.297,10.604-12.297,10.604
		s11.406-50.168,15.148-73.693c3.743-23.525-2.317-47.317-3.921-71.465c-1.604-24.149-7.574-58.366-13.01-80.911
		c-5.436-22.545-13.01-49.01-25.723-73.01s-28.158-34.931-28.158-34.931s13.307,9.861,26.139,38.139
		c12.832,28.277,22.337,40.277,22.337,40.277s-9.386-10.337-22.099-32.079s-15.802-26.97-15.802-26.97s7.485,15.921,20.792,37.426
		c13.307,21.505,19.366,25.901,19.366,25.901l0.713,6.297c0,0-31.723-25.069-49.782-60.119S497.835,168.585,491.301,168.585z"/>
	<path fill="#1D1C4E" d="M487.499,274.684c0,0-6.059,2.97-14.614,17.941c0,0,9.861-15.802,24.951-17.941
		c0,0-9.98,2.614-18.059,13.901c0,0,11.168-14.851,30.535-11.881c19.366,2.97,75.361,26.51,81.624,37.426s5.822,25.901,5.822,25.901
		s-1.054-10.591-50.198-20.079c-18-3.475-41.881-4.099-41.881-4.099s7.752-1.337,22.188-0.356c0,0-17.792-1.129-30.208-1.129
		s-18.713,0.772-18.713,0.772s-1.485-10.337,7.604-19.426c0,0-8.673,5.168-9.267,19.663c0,0-1.901-8.317,3.327-15.98
		c0,0-6.238,6.713-4.693,16.396c0,0-5.813-4.542-4.099-14.412c0,0-2.257,7.877,1.842,14.59c0,0-4.812-4.277-4.812-9.861
		c0,0-0.475,5.941,2.198,9.446C466.363,316.489,455.264,285.569,487.499,274.684z"/>
	<path fill="#1D1C4E" d="M466.291,312.556c0,0-9.535-24.327,6.951-35.554C473.241,277.001,451.855,286.625,466.291,312.556z"/>
	<path fill="#1D1C4E" d="M460.647,286.209c0,0-2.614,10.515,2.317,21.921C462.964,308.13,455.063,298.744,460.647,286.209z"/>
	<path fill="#1D1C4E" d="M354.859,272.338c0,0,6.059,2.97,14.614,17.941c0,0-9.861-15.802-24.951-17.941
		c0,0,9.98,2.614,18.059,13.901c0,0-11.168-14.851-30.535-11.881c-19.366,2.97-75.361,26.51-81.624,37.426
		c-6.262,10.915-5.822,25.901-5.822,25.901s1.054-10.591,50.198-20.079c18-3.475,41.881-4.099,41.881-4.099
		s-7.752-1.337-22.188-0.356c0,0,17.792-1.129,30.208-1.129c12.416,0,18.713,0.772,18.713,0.772s1.485-10.337-7.604-19.426
		c0,0,8.673,5.168,9.267,19.663c0,0,1.901-8.317-3.327-15.98c0,0,6.238,6.713,4.693,16.396c0,0,5.813-4.542,4.099-14.412
		c0,0,2.257,7.877-1.842,14.59c0,0,4.812-4.277,4.812-9.861c0,0,0.475,5.941-2.198,9.446
		C375.995,314.142,387.094,283.223,354.859,272.338z"/>
	<path fill="#1D1C4E" d="M376.067,310.209c0,0,9.535-24.327-6.95-35.554C369.117,274.655,390.503,284.278,376.067,310.209z"/>
	<path fill="#1D1C4E" d="M381.711,283.863c0,0,2.614,10.515-2.317,21.921C379.394,305.783,387.295,296.397,381.711,283.863z"/>
	<path fill="#1D1C4E" d="M498.132,378.407c0,0-6.743-3-11.525-3.564c-4.782-0.564-4.604-3.356-3.832-4.129
		s16.663-12.505,31.396-12.089c14.733,0.416,29.614,7.277,38.792,16.455s14.851,3.624,14.851,3.624s-15.327-16.752-34.515-22.634
		c-19.188-5.881-35.941,1.129-43.782,6.178s-12.535,8.673-13.723,9.861s-1.188,2.733,3.089,3.446
		C483.162,376.268,498.132,378.407,498.132,378.407z"/>
	<path fill="#1D1C4E" d="M552.014,372.57c0,0-2.896,7.396-12.654,10.203c-9.757,2.807-15.238,2.852-15.238,2.852
		s13.5,1.337,21.921-1.782c8.421-3.119,9.891-9.178,9.891-9.178L552.014,372.57z"/>
	<path fill="#1D1C4E" d="M476.271,361.476c0,0,16.218-18.267,37.96-18.267c21.743,0,41.213,10.738,44.822,14.347
		c3.609,3.609,11.228,15.772,11.228,15.772s-6.505-14.257-12.564-20.317c-6.059-6.059-31.812-12.832-50.703-12.386
		C488.122,341.07,476.271,361.476,476.271,361.476z"/>
	<path fill="#1D1C4E" d="M486.578,366.318c0,0,1.337,3.98,1.485,5.228c0.148,1.248,1.099-4.752,1.099-5.673
		C489.162,364.952,486.578,366.318,486.578,366.318z"/>
	<path fill="#1D1C4E" d="M343.191,374.962c0,0,6.743-3,11.525-3.564c4.782-0.564,4.604-3.356,3.832-4.129
		s-16.663-12.505-31.396-12.089s-29.614,7.277-38.792,16.455s-14.851,3.624-14.851,3.624s15.327-16.752,34.515-22.634
		c19.188-5.881,35.941,1.129,43.782,6.178c7.842,5.049,12.535,8.673,13.723,9.861c1.188,1.188,1.188,2.733-3.089,3.446
		C358.162,372.823,343.191,374.962,343.191,374.962z"/>
	<path fill="#1D1C4E" d="M289.31,369.125c0,0,2.896,7.396,12.653,10.203c9.757,2.807,15.238,2.851,15.238,2.851
		s-13.5,1.337-21.921-1.782c-8.421-3.119-9.891-9.178-9.891-9.178L289.31,369.125z"/>
	<path fill="#1D1C4E" d="M365.053,358.031c0,0-16.218-18.267-37.96-18.267c-21.743,0-41.213,10.738-44.822,14.347
		s-11.228,15.772-11.228,15.772s6.505-14.257,12.564-20.317c6.059-6.059,31.812-12.832,50.703-12.386
		C353.201,337.625,365.053,358.031,365.053,358.031z"/>
	<path fill="#1D1C4E" d="M354.746,362.872c0,0-1.337,3.98-1.485,5.228c-0.149,1.248-1.099-4.752-1.099-5.673
		C352.162,361.506,354.746,362.872,354.746,362.872z"/>
	<path fill="#1D1C4E" d="M372.771,499.15c0,0,1.604-7.574,6.104-8.866s10.727,4.288,10.871,4.433s7.084,8.22,7.084,8.22
		s-5.257-3.119-9.134-2.094c-3.876,1.025-8.688,0.089-10.381-1.604C375.622,497.546,372.771,499.15,372.771,499.15z"/>
	<path fill="#1D1C4E" d="M428.726,502.937c0,0,8.099-10.648,12.495-10.648c4.396,0,6.951,2.39,8.02,4.225s2.317,10.686,2.317,10.686
		s-3.386-4.262-5.287-4.262s-2.099,1.292-6.129,1.054C436.113,503.754,433.934,501.645,428.726,502.937z"/>
	<path fill="#1D1C4E" d="M373.261,450.407c0,0-17.465,17.822-17.465,35.465c0,17.644,15.416,26.376,15.416,26.376
		s-16.842-6.059-18.713-26.376S373.261,450.407,373.261,450.407z"/>
	<path fill="#1D1C4E" d="M456.608,453.377c0,0,18.772,23.762,14.673,39.98c-4.099,16.218-16.396,20.228-16.396,20.228
		s20.049-4.099,20.049-24.059C474.934,469.565,456.608,453.377,456.608,453.377z"/>
	<path fill="#1D1C4E" d="M600.444,492.168c0,0-10.767,25.249-17.896,38.08s-12.594,17.703-12.594,17.703l5.465-9.743
		c0,0-6.772,8.079-18.416,17.109c-11.644,9.03-25.752,4.693-25.752,4.693s5.168,3.208,10.515,4.366c0,0-7.753,1.426-19.337-5.614
		c-11.584-7.04-16.129-9.267-16.129-9.267s11.094,9.668,12.832,11.406s1.738,1.738,1.738,1.738s-17.822-11.762-21.52-15.46
		c-3.698-3.698-4.099-3.564-4.099-3.564l5.346,7.663l-13.723-10.515l-15.327-7.218l5.881,11.317l-11.317-13.366
		c0,0-25.129-7.842-30.921-9.535c-5.792-1.693-15.059,2.317-15.059,2.317l-10.337,5.525l-10.248-6.327l6.416,6.327
		c0,0-10.693-7.752-13.099-8.376s-10.158,0.535-10.158,0.535l-23.792,17.287l11.762-11.049c0,0-25.574,11.228-30.208,13.723
		s-11.495,14.792-11.495,14.792l5.703-12.03c0,0-18.535,9-21.475,11.139c-2.941,2.139-12.921,19.069-14.614,24.95
		c-1.693,5.881-6.861-6.059-10.515-18.267c-3.654-12.208-3.832-12.832-3.832-12.832l1.65,12.851
		c-0.268-1.975-1.885-12.37-7.264-20.96c-5.97-9.535-7.753-13.277-7.753-13.277l3.832,13.545l-9.446-17.465l3.297,10.515
		c0,0-3.475-9.713-9.535-17.644c-6.059-7.931-14.703-27.089-18.98-47.495s-3.743-38.941-2.762-48.564
		c0.98-9.624,2.841-22.556,2.401-33.243c-0.44-10.687-0.53-13.004-0.53-13.004l-3.119,6.238c0,0-2.079,26.109-4.812,56.049
		c-2.733,29.941,2.257,82.455,14.139,120s21.208,66.832,29.465,83.049c8.257,16.218,14.257,20.614,14.257,20.614
		s-2.97-2.673-5.881-10.218c-2.684-6.956-2.893-7.497-2.909-7.54c0.02,0.054,2.94,7.757,11.879,18.827
		c8.97,11.109,10.931,38.079,24.119,58.634c13.188,20.554,30.654,26.614,30.654,26.614l-16.158-13.426
		c0,0,30.178,22.812,60.238,27.208c30.059,4.396,57.861-6.535,57.861-6.535l-11.881,5.703c0,0,34.218-4.634,52.634-16.634
		s27.683-30.297,27.683-30.297s-3.683,8.198-8.436,14.257c0,0,12.832-5.465,32.436-39.327s37.426-49.545,48.475-77.109
		c11.049-27.564,15.327-55.96,15.327-55.96s-0.238,9.03-2.495,21.98c0,0,5.493-11.197,7.129-38.376
		c1.635-27.179,11.525-52.634,11.525-52.634L600.444,492.168z M476.093,676.209c-19.782,11.584-33.416-7.04-25.267-14.079
		s8.426-15.861,8.426-15.861c0,4.901-2.317,9.713-2.317,9.713c7.485-10.426,8.109-32.465,8.109-32.465s-9.98,7.723-39.683,8.436
		c-29.703,0.713-54.683-4.842-54.683-4.842s-0.089,0.535,1.069,7.218c1.158,6.683,3.386,13.099,3.386,13.099l-0.98-7.663
		c0,0,1.337,6.416,3.921,16.931c2.584,10.515-2.852,21.297-15.119,14.703s-19.188-18.802-19.188-18.802l6.059,11.049
		c0,0,0,0-8.911-11.495s-24.683-37.248-24.683-43.842s7.901-16.04,13.842-21.98c5.941-5.941,23.168-11.168,23.168-11.168
		l11.406-15.683l-6.891,13.307c0,0,0,0,8.792-3.446c8.792-3.446,27.446-7.248,29.109-7.248c1.663,0,9.505,3.446,9.505,3.446
		l-5.703-4.277l10.218,5.109c0,0,12.832-8.554,16.209-8.079c3.378,0.475,52.345,20.554,52.345,20.554l-8.317-13.188l10.337,13.188
		c0,0,19.901,9.861,22.574,12.535s8.733,15.861,8.733,21.921S495.875,664.625,476.093,676.209z"/>
	<path fill="#1D1C4E" d="M349.736,588.615c0,0,10.604,0.891,23.881,1.337s20.049,0.267,33.327,1.871
		c13.277,1.604,18.98-0.535,28.515-0.535c9.535,0,32.614,1.906,36.356,1.131c3.743-0.775,14.97-3.804,18.446-3.804
		c3.475,0,0.891,4.812-3.475,6.327c-4.366,1.515-35.911-2.495-41.347-2.495s-27.713,3.624-36.802,2.837
		c-9.089-0.787-20.851-3.995-25.307-3.995c-4.455,0-33.327,1.523-36.891,0.717c-3.564-0.806-2.139-5.083-2.139-5.083
		L349.736,588.615z"/>
	<polyline fill="none" stroke="#1D1C4E" stroke-width="6" stroke-miterlimit="10" points="303.816,677.82 319.649,750.567 
		434.625,819.199 535.96,755.98 555.934,653.338 	"/>
	<path fill="#1D1C4E" d="M625.38,361.952c-0.356-7.129-3.624-14.911-3.861-15.148c-0.238-0.238-10.812-2.436-10.812-2.436
		s-0.713-6.119-8.673-9.802s-42.802-9.802-66.238-10.248c-23.436-0.445-54.446,2.941-72.356,9.178
		c-17.911,6.238-21.564,14.257-21.564,14.257s-11.139-2.455-28.337-2.455s-21.921,1.832-21.921,1.832s-3.208-10.782-26.198-15.416
		s-63.198-6.678-91.911-3.03c-28.713,3.649-40.906,11.183-43.445,13.723c-2.54,2.54-1.693,7.218-1.693,7.218
		s-6.832,0.98-7.247,2.406c0,0,0,15.267,0,17.049s7.485,5.852,7.485,5.852s-2.257,29.257,23.049,37.812
		c25.307,8.554,81.267,10.099,105.505,3.683c24.238-6.416,25.426-19.332,30.891-33.963c5.465-14.631,7.753-23.483,7.04-24.998
		c-0.713-1.515,2.062-3.246,2.762-3.946c0.7-0.7,28.782-1.451,36.713,0c7.931,1.451,7.173,5.951,6.594,6.53
		c-0.579,0.579-0.446,19.069,11.495,36.445c11.941,17.376,14.703,19.248,29.852,21.119s56.406,3.297,74.139,0.98
		c17.733-2.317,38.673-5.525,46.693-13.545c8.02-8.02,9.802-23.966,9.802-24.681c0-0.715,0.772,4.869,0.772,4.869l4.812-0.356
		C618.726,384.882,625.736,369.08,625.38,361.952z M385.38,365.813c0,0-3.03-1.426-5.287,0.832c-2.257,2.257-6,6.356-5.287,12.178
		c0.713,5.822,6.832,3.641,6.832,3.641s-2.049,23.299-22.099,29.893s-61.307,4.366-78.594,2.317
		c-17.287-2.049-37.465-5.959-43.663-19.693c-6.198-13.734-8.376-47.852,5.703-54.713c14.079-6.861,37.96-8.287,37.96-8.287
		s24.832-1.099,42.772-0.802c17.941,0.297,37.247,4.337,48.416,8.02s15.208,9.327,15.683,13.485
		C388.291,356.843,385.38,365.813,385.38,365.813z M600.667,399.971c-5.816,8.914-28.515,12.921-52.307,14.703
		s-67.277,0.624-77.525-4.455c-10.247-5.079-16.485-23.436-16.485-23.436s2.851,0.802,4.723,0c1.871-0.802,3.832-4.277,2.762-9.535
		c-1.069-5.257-7.752-10.693-10.426-9.624c-2.105,0.842-1.834,2.889-1.624,3.724c0.067,0.232,0.109,0.367,0.109,0.367
		s-0.052-0.142-0.109-0.367c-0.765-2.635-5.184-19.206,2.515-26.05c8.376-7.446,21.535-9.545,21.535-9.545
		c26.124-5.759,53.762-7.96,88.158-4.218c34.396,3.743,37.96,8.109,42.148,13.01c4.188,4.901,4.366,13.01,4.901,22.556
		S606.483,391.058,600.667,399.971z"/>
	<path fill="#2C2C66" d="M504.608,131.041c0,0-4.469,29.941-45.957,58.455s-98.993,47.762-98.993,47.762s32.139-12.653,56.02-29.762
		c23.881-17.109,23.881-17.109,23.881-17.109s-30.653,18.535-86.079,43.663s-68.792,33.861-68.792,33.861
		s46.127-26.554,94.707-52.752s57.045-43.752,56.243-42.951c-0.802,0.802-7.663,13.01-59.347,40.634
		c0,0,33.148-19.426,49.366-39.743c0,0-21.743,11.584-93.921,52.931s-79.307,69.683-79.307,69.683s7.485-26.733,50.257-61.307
		s69.327-49.01,69.327-49.01s-38.139,22.277-70.574,45.446s-35.465,26.376-35.465,26.376s18.535-23.703,57.743-50.079
		s65.941-49.723,65.941-49.723s-19.248,16.752-69.505,46.158s-68.436,62.911-72.891,80.287c0,0,3.921-27.891,27.624-59.792
		s62.376-47.406,62.376-47.406s-45.802,20.851-76.634,62.198s-22.277,71.347-22.277,71.347s-18.356-35.703,11.406-87.03
		s110.139-95.881,110.139-95.881s-49.723,26.198-74.317,48.832c-24.594,22.634-24.594,22.634-24.594,22.634
		s25.129-32.792,58.812-55.96s55.426-30.832,55.426-30.832s-22.99,6.772-48.119,22.99c-25.129,16.218-33.683,22.455-33.683,22.455
		s30.951-30.059,70.04-47.762s76.515-12.95,90.297-11.287c13.782,1.663,16.871,2.733,16.871,2.733s-14.614-2.733-30.535,0.356
		c-15.921,3.089-16.515,3.089-16.515,3.089s15.921-3.921,32.554-3.208c16.634,0.713,21.505,0.594,21.505,0.594
		s-12.713,8.911-34.218,19.485c-21.505,10.574-26.257,12.119-26.257,12.119s17.584-5.584,36.713-14.733
		c19.129-9.149,23.644-12.594,23.644-12.594s-10.455,9.98-28.396,19.604c0,0,23.525-10.337,34.455-22.337
		c0,0,3.208,14.376-14.139,35.881c-17.347,21.505-27.98,28.099-27.327,27.446c0.653-0.653,28.396-20.911,36.475-34.812
		c8.079-13.901,9.386-21.743,9.386-21.743s1.426-0.95-6.416,20.673c-7.842,21.624-23.644,31.129-23.644,31.129
		s16.04-11.525,26.02-28.752s10.218-25.545,10.218-25.545s4.871,11.881-2.376,33.386s-23.644,32.673-23.644,32.673
		S496.647,153.259,504.608,131.041z"/>
	<path fill="#2C2C66" d="M511.023,157.773c0,0,29.406,18.535,48.297,50.614c18.891,32.079,19.069,37.248,19.069,37.248
		s-4.455-22.874-15.683-42.269s-11.228-19.395-11.228-19.395s22.99,27.624,34.396,70.218s21.861,80.029,32.079,102.777
		c10.218,22.748,10.455,23.404,10.455,23.404s-4.634-14.081-9.267-37.487s-4.871-24.238-4.871-24.238s6.399,31.608,11.1,44.557
		c4.702,12.948,4.702,12.948,4.702,12.948s-2.852-9.624-9.861-43.248s-10.218-58.812-10.218-58.812s6.297,31.485,12.713,56.673
		s6.535,28.277,6.535,27.446c0-0.832-7.485-46.337-7.485-46.337s10.099,24,13.426,48.475c3.327,24.475,1.782,33.505,1.782,32.436
		s2.614-20.436-2.257-58.455s-9.98-51.327-9.98-51.327s9.743,32.554,13.545,60.119c3.802,27.564,2.02,38.02,2.02,38.02
		s-0.152-58.158-14.898-110.733s-47.716-98.911-71.776-119.406s-41.079-29.406-41.079-29.406l28.96,22.99
		c0,0-22.366-14.703-29.495-19.782c-7.129-5.079-7.396-5.436-7.396-5.436s21.297,20.139,36,38.762
		c14.703,18.624,15.148,18.98,15.148,18.98l-28.782-31.01l22.901,28.426c0,0-15.327-14.792-26.376-21.743
		c-11.049-6.95-11.049-6.95-11.049-6.95s16.04,12.921,22.723,19.604s6.683,6.683,6.683,6.683s-16.396-14.792-25.752-20.139
		c-9.356-5.347-13.01-7.04-13.01-7.04L511.023,157.773z"/>
	<path fill="#2C2C66" d="M597.763,210.169c0,0,31.36,64.634,48.231,116.911c16.871,52.277-15.921,111.921-15.921,111.921
		s23.287-27.327,26.139-75.327c0,0,2.736,24.475-15.504,62.97c-18.239,38.495-27.031,48.95-27.031,48.95
		s51.089-55.189,54.416-106.961c3.327-51.772-47.99-156.168-72.114-188.564c-24.124-32.396-52.401-45.465-52.401-45.465
		S578.997,160.981,597.763,210.169z"/>
	<path fill="#2C2C66" d="M411.934,98.427c0,0-34.574,0.178-76.99,19.604s-61.307,52.931-61.307,52.931s24.594-40.812,63.267-59.347
		c0,0-19.426,7.069-39.861,25.842c0,0,24.491-33.479,64.277-41.941s86.783,3.446,86.783,3.446L411.934,98.427z"/>
	<path fill="#3F3F82" d="M467.905,111.791c0,0-37.831,18.893-86.445,54.002s-54.713,37.573-54.713,37.573l63.98-36.504
		c0,0-40.455,24.951-63.98,41.703s-23.525,16.752-23.525,16.752s69.683-37.604,91.069-51.327
		c21.386-13.723,23.881-15.327,23.881-15.327s-37.604,29.762-56.139,41.347c-18.535,11.584-19.426,12.297-19.426,12.297
		s54.172-25.192,98.198-57.921s42.927-49.766,42.927-49.766s-13.461,13.64-38.887,27.099
		c-25.426,13.459-25.842,13.875-25.426,13.459C419.835,144.763,467.905,111.791,467.905,111.791z"/>
	<path fill="#3F3F82" d="M482.366,124.999c0,0-26.27,33.151-57.956,55.943s-38.031,26.391-38.031,26.391s27.159-13.56,44.625-26.748
		c17.465-13.188,17.465-13.188,17.465-13.188s-22.338,19.472-56.852,42.238s-46.515,26.02-46.515,26.02
		s72.925-27.776,104.792-51.683s39.091-60.281,39.091-60.281s-9.774,16.707-22.16,29.806s-13.01,13.277-13.01,13.277
		S473.401,146.759,482.366,124.999z"/>
	<path fill="#3F3F82" d="M462.014,109.298c0,0-28.337,11.049-62.733,32.614s-47.228,34.752-47.228,34.752
		s31.188-30.364,54.178-44.944c22.99-14.581,22.99-14.581,22.99-14.581s-16.218,6.594-37.426,19.782
		c-21.208,13.188-23.116,15.149-23.116,15.149s17.057-18.713,38.354-31.901s36.624-12.297,36.624-12.297s-16.396,0.356-38.97,10.218
		s-29.465,15.327-29.465,15.327s15.802-13.901,41.228-23.881c25.426-9.98,60.536-7.157,60.536-7.157L462.014,109.298z"/>
	<path fill="#3F3F82" d="M441.637,104.621c0,0-40.892-1.432-66.416,8.122s-44.198,23.525-44.198,23.525s20.419-21.039,48.594-29.347
		s47.168-5.941,47.168-5.941s-18.787-3.921-58.106,5.941s-49.656,18.772-49.656,18.772s15.683-13.069,45.505-20.436
		c29.822-7.366,43.96-7.248,43.96-7.248s-30.128,1.069-47.618,5.822c-17.491,4.752-17.491,4.752-17.491,4.752
		s24.95-10.337,54.297-13.782c29.347-3.446,64.205,4.645,64.205,4.645l-28.74,0.316l27.178,2.246L441.637,104.621z"/>
	<path fill="#3F3F82" d="M540.155,143.518c0,0,40.492,26.017,60.928,68.79c20.436,42.772,25.608,77.587,25.608,77.587
		s-9.449-32.439-19.667-50.973s-10.218-18.535-10.218-18.535s12.961,22.128,20.911,62.02c7.95,39.892,8.974,53.703,8.974,53.703
		s-21.317-54.653-28.928-76.04s-7.611-23.287-7.611-23.287s4.907,7.604,15.76,54.653c10.854,47.05,10.854,47.05,10.854,47.05
		s-21.624-74.614-43.723-118.099c-22.099-43.485-42.535-61.307-42.535-61.307s13.663,9.224,22.693,20.592s9.03,11.368,9.03,11.368
		s-15.06-23.852-23.807-35.629c-8.747-11.777-12.193-16.075-12.193-16.075s29.109,35.426,29.109,34.357
		s-28.033-38.505-28.033-38.505L540.155,143.518z"/>
	<path fill="#3F3F82" d="M597.763,185.457c0,0,39.914,66.535,59.162,129.505c19.247,62.97-6.654,100.498-6.654,100.498
		s16.634-36.577,8.079-75.428c0,0,5.417,20.151-5.371,47.323c0,0,7.747-32.234-16.966-93.779
		c-24.713-61.545-44.198-90.209-44.198-90.209L571.9,157.179L597.763,185.457z"/>
	<path fill="#1D1C4E" d="M-489.61,168.585c0,0-36.951,30.713-90.594,55.842s-60.772,30.832-60.772,30.832
		s23.168-17.465,65.049-40.099c0,0-42.059,19.069-87.861,53.287s-56.673,56.97-63.921,71.584
		c-7.248,14.614-8.911,22.812-8.911,22.812s1.069-12.95,5.703-21.386c0,0-3.327,7.248-6.891,21.386
		c-3.564,14.139-3.802,34.218-3.802,34.218s-14.317-50.733-13.069-101.703c1.247-50.97,17.287-99.624,49.188-142.574
		c31.901-42.95,63.624-52.396,63.624-52.396s-33.861,9.624-61.129,44.911c-27.267,35.287-30.119,65.584-30.119,65.584
		s2.317-42.238,37.247-79.663c34.931-37.426,93.505-46.158,115.248-46.158c21.743,0,47.049,5.347,60.238,13.901
		c0,0-12.119-12.119-33.505-13.901c-21.386-1.782-32.911,7.604-32.911,7.604s13.663-16.515,43.247-10.574
		c29.584,5.941,37.069,16.515,37.069,16.515s18.178-4.396,43.01,6.059c24.832,10.455,38.02,27.921,38.02,27.921
		s-12.238-11.287-26.02-19.01c0,0,15.802,10.693,30.178,26.851s38.376,32.139,66.713,90.238
		c28.337,58.099,46.277,106.396,43.426,148.455c-2.851,42.059-21.861,77.525-32.733,95.703
		c-10.871,18.178-26.079,37.248-26.079,37.248s5.406-9.535,12-20.852c0,0-7.396,13.099-16.752,20.139
		c-9.356,7.04-12.297,10.604-12.297,10.604s11.406-50.168,15.149-73.693c3.743-23.525-2.317-47.317-3.921-71.465
		c-1.604-24.149-7.574-58.366-13.01-80.911c-5.436-22.545-13.01-49.01-25.723-73.01s-28.158-34.931-28.158-34.931
		s13.307,9.861,26.139,38.139c12.832,28.277,22.337,40.277,22.337,40.277s-9.386-10.337-22.099-32.079
		c-12.713-21.743-15.802-26.97-15.802-26.97s7.485,15.921,20.792,37.426c13.307,21.505,19.366,25.901,19.366,25.901l0.713,6.297
		c0,0-31.723-25.069-49.782-60.119C-459.076,181.773-483.076,168.585-489.61,168.585z"/>
	<path fill="#1D1C4E" d="M-493.412,274.684c0,0-6.059,2.97-14.614,17.941c0,0,9.861-15.802,24.951-17.941
		c0,0-9.98,2.614-18.059,13.901c0,0,11.168-14.851,30.535-11.881c19.366,2.97,75.361,26.51,81.624,37.426s5.822,25.901,5.822,25.901
		s-1.054-10.591-50.198-20.079c-18-3.475-41.881-4.099-41.881-4.099s7.752-1.337,22.188-0.356c0,0-17.792-1.129-30.208-1.129
		c-12.416,0-18.713,0.772-18.713,0.772s-1.485-10.337,7.604-19.426c0,0-8.673,5.168-9.267,19.663c0,0-1.901-8.317,3.327-15.98
		c0,0-6.238,6.713-4.693,16.396c0,0-5.813-4.542-4.099-14.412c0,0-2.257,7.877,1.842,14.59c0,0-4.812-4.277-4.812-9.861
		c0,0-0.475,5.941,2.198,9.446C-514.547,316.489-525.647,285.569-493.412,274.684z"/>
	<path fill="#1D1C4E" d="M-514.62,312.556c0,0-9.535-24.327,6.95-35.554C-507.67,277.001-529.056,286.625-514.62,312.556z"/>
	<path fill="#1D1C4E" d="M-520.264,286.209c0,0-2.614,10.515,2.317,21.921C-517.947,308.13-525.848,298.744-520.264,286.209z"/>
	<path fill="#1D1C4E" d="M-626.052,272.338c0,0,6.059,2.97,14.614,17.941c0,0-9.861-15.802-24.951-17.941
		c0,0,9.98,2.614,18.059,13.901c0,0-11.168-14.851-30.535-11.881c-19.366,2.97-75.361,26.51-81.624,37.426
		s-5.822,25.901-5.822,25.901s1.054-10.591,50.198-20.079c18-3.475,41.881-4.099,41.881-4.099s-7.753-1.337-22.188-0.356
		c0,0,17.792-1.129,30.208-1.129s18.713,0.772,18.713,0.772s1.485-10.337-7.604-19.426c0,0,8.673,5.168,9.267,19.663
		c0,0,1.901-8.317-3.327-15.98c0,0,6.238,6.713,4.693,16.396c0,0,5.813-4.542,4.099-14.412c0,0,2.257,7.877-1.842,14.59
		c0,0,4.812-4.277,4.812-9.861c0,0,0.475,5.941-2.198,9.446C-604.916,314.142-593.816,283.223-626.052,272.338z"/>
	<path fill="#1D1C4E" d="M-604.844,310.209c0,0,9.535-24.327-6.951-35.554C-611.794,274.655-590.408,284.278-604.844,310.209z"/>
	<path fill="#1D1C4E" d="M-599.2,283.863c0,0,2.614,10.515-2.317,21.921C-601.517,305.783-593.616,296.397-599.2,283.863z"/>
	<path fill="#1D1C4E" d="M-482.779,378.407c0,0-6.743-3-11.525-3.564c-4.782-0.564-4.604-3.356-3.832-4.129
		s16.663-12.505,31.396-12.089c14.733,0.416,29.614,7.277,38.792,16.455s14.852,3.624,14.852,3.624s-15.327-16.752-34.515-22.634
		c-19.188-5.881-35.941,1.129-43.782,6.178s-12.535,8.673-13.723,9.861s-1.188,2.733,3.089,3.446
		C-497.749,376.268-482.779,378.407-482.779,378.407z"/>
	<path fill="#1D1C4E" d="M-428.897,372.57c0,0-2.896,7.396-12.653,10.203c-9.757,2.807-15.238,2.852-15.238,2.852
		s13.5,1.337,21.921-1.782c8.421-3.119,9.891-9.178,9.891-9.178L-428.897,372.57z"/>
	<path fill="#1D1C4E" d="M-504.64,361.476c0,0,16.218-18.267,37.96-18.267s41.213,10.738,44.822,14.347
		c3.609,3.609,11.228,15.772,11.228,15.772s-6.505-14.257-12.564-20.317c-6.059-6.059-31.812-12.832-50.703-12.386
		C-492.788,341.07-504.64,361.476-504.64,361.476z"/>
	<path fill="#1D1C4E" d="M-494.333,366.318c0,0,1.337,3.98,1.485,5.228c0.148,1.248,1.099-4.752,1.099-5.673
		C-491.749,364.952-494.333,366.318-494.333,366.318z"/>
	<path fill="#1D1C4E" d="M-637.719,374.962c0,0,6.743-3,11.525-3.564c4.782-0.564,4.604-3.356,3.832-4.129
		s-16.663-12.505-31.396-12.089s-29.614,7.277-38.792,16.455c-9.178,9.178-14.852,3.624-14.852,3.624s15.327-16.752,34.515-22.634
		s35.941,1.129,43.782,6.178c7.842,5.049,12.535,8.673,13.723,9.861c1.188,1.188,1.188,2.733-3.089,3.446
		S-637.719,374.962-637.719,374.962z"/>
	<path fill="#1D1C4E" d="M-691.601,369.125c0,0,2.896,7.396,12.654,10.203c9.757,2.807,15.238,2.851,15.238,2.851
		s-13.5,1.337-21.921-1.782s-9.891-9.178-9.891-9.178L-691.601,369.125z"/>
	<path fill="#1D1C4E" d="M-615.858,358.031c0,0-16.218-18.267-37.96-18.267c-21.743,0-41.213,10.738-44.822,14.347
		c-3.609,3.609-11.228,15.772-11.228,15.772s6.505-14.257,12.564-20.317c6.059-6.059,31.812-12.832,50.703-12.386
		C-627.71,337.625-615.858,358.031-615.858,358.031z"/>
	<path fill="#1D1C4E" d="M-626.165,362.872c0,0-1.337,3.98-1.485,5.228c-0.148,1.248-1.099-4.752-1.099-5.673
		C-628.749,361.506-626.165,362.872-626.165,362.872z"/>
	<path fill="#1D1C4E" d="M-608.14,499.15c0,0,1.604-7.574,6.104-8.866s10.726,4.288,10.871,4.433c0.145,0.145,7.084,8.22,7.084,8.22
		s-5.257-3.119-9.134-2.094c-3.876,1.025-8.688,0.089-10.381-1.604C-605.288,497.546-608.14,499.15-608.14,499.15z"/>
	<path fill="#1D1C4E" d="M-552.185,502.937c0,0,8.099-10.648,12.495-10.648c4.396,0,6.951,2.39,8.02,4.225
		c1.069,1.835,2.317,10.686,2.317,10.686s-3.386-4.262-5.287-4.262c-1.901,0-2.099,1.292-6.129,1.054
		C-544.798,503.754-546.977,501.645-552.185,502.937z"/>
	<path fill="#1D1C4E" d="M-607.65,450.407c0,0-17.465,17.822-17.465,35.465c0,17.644,15.416,26.376,15.416,26.376
		s-16.842-6.059-18.713-26.376C-630.284,465.556-607.65,450.407-607.65,450.407z"/>
	<path fill="#1D1C4E" d="M-524.303,453.377c0,0,18.772,23.762,14.673,39.98s-16.396,20.228-16.396,20.228
		s20.049-4.099,20.049-24.059C-505.977,469.565-524.303,453.377-524.303,453.377z"/>
	<path fill="#1D1C4E" d="M-380.467,492.168c0,0-10.767,25.249-17.896,38.08s-12.594,17.703-12.594,17.703l5.465-9.743
		c0,0-6.772,8.079-18.416,17.109c-11.644,9.03-25.752,4.693-25.752,4.693s5.168,3.208,10.515,4.366c0,0-7.753,1.426-19.337-5.614
		c-11.584-7.04-16.129-9.267-16.129-9.267s11.094,9.668,12.832,11.406s1.738,1.738,1.738,1.738s-17.822-11.762-21.52-15.46
		c-3.698-3.698-4.099-3.564-4.099-3.564l5.346,7.663l-13.723-10.515l-15.327-7.218l5.881,11.317l-11.317-13.366
		c0,0-25.129-7.842-30.921-9.535c-5.792-1.693-15.059,2.317-15.059,2.317l-10.337,5.525l-10.248-6.327l6.416,6.327
		c0,0-10.693-7.752-13.099-8.376s-10.158,0.535-10.158,0.535l-23.792,17.287l11.762-11.049c0,0-25.574,11.228-30.208,13.723
		s-11.495,14.792-11.495,14.792l5.703-12.03c0,0-18.535,9-21.475,11.139c-2.941,2.139-12.921,19.069-14.614,24.95
		c-1.693,5.881-6.861-6.059-10.515-18.267c-3.654-12.208-3.832-12.832-3.832-12.832l1.65,12.851
		c-0.268-1.975-1.885-12.37-7.264-20.96c-5.97-9.535-7.753-13.277-7.753-13.277l3.832,13.545l-9.446-17.465l3.297,10.515
		c0,0-3.475-9.713-9.535-17.644c-6.059-7.931-14.703-27.089-18.98-47.495s-3.743-38.941-2.762-48.564
		c0.98-9.624,2.841-22.556,2.401-33.243c-0.44-10.687-0.53-13.004-0.53-13.004l-3.119,6.238c0,0-2.079,26.109-4.812,56.049
		c-2.733,29.941,2.257,82.455,14.139,120s21.208,66.832,29.465,83.049c8.257,16.218,14.257,20.614,14.257,20.614
		s-2.97-2.673-5.881-10.218c-2.684-6.956-2.893-7.497-2.909-7.54c0.02,0.054,2.94,7.757,11.879,18.827
		c8.97,11.109,10.931,38.079,24.119,58.634c13.188,20.554,30.654,26.614,30.654,26.614l-16.158-13.426
		c0,0,30.178,22.812,60.238,27.208c30.059,4.396,57.861-6.535,57.861-6.535l-11.881,5.703c0,0,34.218-4.634,52.634-16.634
		s27.683-30.297,27.683-30.297s-3.683,8.198-8.436,14.257c0,0,12.832-5.465,32.436-39.327s37.426-49.545,48.475-77.109
		c11.049-27.564,15.327-55.96,15.327-55.96s-0.238,9.03-2.495,21.98c0,0,5.493-11.197,7.129-38.376
		c1.635-27.179,11.525-52.634,11.525-52.634L-380.467,492.168z M-504.818,676.209c-19.782,11.584-33.416-7.04-25.267-14.079
		s8.426-15.861,8.426-15.861c0,4.901-2.317,9.713-2.317,9.713c7.485-10.426,8.109-32.465,8.109-32.465s-9.98,7.723-39.683,8.436
		c-29.703,0.713-54.683-4.842-54.683-4.842s-0.089,0.535,1.069,7.218c1.158,6.683,3.386,13.099,3.386,13.099l-0.98-7.663
		c0,0,1.337,6.416,3.921,16.931c2.584,10.515-2.852,21.297-15.119,14.703s-19.188-18.802-19.188-18.802l6.059,11.049
		c0,0,0,0-8.911-11.495s-24.683-37.248-24.683-43.842s7.901-16.04,13.842-21.98c5.941-5.941,23.168-11.168,23.168-11.168
		l11.406-15.683l-6.891,13.307c0,0,0,0,8.792-3.446c8.792-3.446,27.446-7.248,29.109-7.248c1.663,0,9.505,3.446,9.505,3.446
		l-5.703-4.277l10.218,5.109c0,0,12.832-8.554,16.209-8.079c3.378,0.475,52.345,20.554,52.345,20.554l-8.317-13.188l10.337,13.188
		c0,0,19.901,9.861,22.574,12.535s8.733,15.861,8.733,21.921S-485.036,664.625-504.818,676.209z"/>
	<path fill="#1D1C4E" d="M-631.175,588.615c0,0,10.604,0.891,23.881,1.337s20.049,0.267,33.327,1.871
		c13.277,1.604,18.98-0.535,28.515-0.535c9.535,0,32.614,1.906,36.356,1.131c3.743-0.775,14.97-3.804,18.446-3.804
		s0.891,4.812-3.475,6.327c-4.366,1.515-35.911-2.495-41.347-2.495c-5.436,0-27.713,3.624-36.802,2.837
		c-9.089-0.787-20.851-3.995-25.307-3.995s-33.327,1.523-36.891,0.717c-3.564-0.806-2.139-5.083-2.139-5.083L-631.175,588.615z"/>
	<polyline fill="none" stroke="#1D1C4E" stroke-width="6" stroke-miterlimit="10" points="-677.095,677.82 -661.262,750.567 
		-546.286,819.199 -444.951,755.98 -424.977,653.338 	"/>
	<path fill="#1D1C4E" d="M-355.531,361.952c-0.356-7.129-3.624-14.911-3.861-15.148c-0.238-0.238-10.812-2.436-10.812-2.436
		s-0.713-6.119-8.673-9.802s-42.802-9.802-66.238-10.248c-23.436-0.445-54.446,2.941-72.356,9.178
		c-17.911,6.238-21.564,14.257-21.564,14.257s-11.139-2.455-28.337-2.455s-21.921,1.832-21.921,1.832s-3.208-10.782-26.198-15.416
		s-63.198-6.678-91.911-3.03c-28.713,3.649-40.906,11.183-43.445,13.723c-2.54,2.54-1.693,7.218-1.693,7.218
		s-6.832,0.98-7.247,2.406c0,0,0,15.267,0,17.049s7.485,5.852,7.485,5.852s-2.257,29.257,23.049,37.812
		c25.307,8.554,81.267,10.099,105.505,3.683c24.238-6.416,25.426-19.332,30.891-33.963c5.465-14.631,7.753-23.483,7.04-24.998
		c-0.713-1.515,2.062-3.246,2.762-3.946c0.7-0.7,28.782-1.451,36.713,0c7.931,1.451,7.173,5.951,6.594,6.53
		c-0.579,0.579-0.446,19.069,11.495,36.445c11.941,17.376,14.703,19.248,29.852,21.119c15.148,1.871,56.406,3.297,74.139,0.98
		c17.733-2.317,38.673-5.525,46.693-13.545c8.02-8.02,9.802-23.966,9.802-24.681c0-0.715,0.772,4.869,0.772,4.869l4.812-0.356
		C-362.184,384.882-355.175,369.08-355.531,361.952z M-595.531,365.813c0,0-3.03-1.426-5.287,0.832
		c-2.257,2.257-6,6.356-5.287,12.178c0.713,5.822,6.832,3.641,6.832,3.641s-2.049,23.299-22.099,29.893s-61.307,4.366-78.594,2.317
		c-17.287-2.049-37.465-5.959-43.663-19.693c-6.198-13.734-8.376-47.852,5.703-54.713c14.079-6.861,37.96-8.287,37.96-8.287
		s24.832-1.099,42.772-0.802c17.941,0.297,37.247,4.337,48.416,8.02s15.208,9.327,15.683,13.485
		C-592.62,356.843-595.531,365.813-595.531,365.813z M-380.244,399.971c-5.816,8.914-28.515,12.921-52.307,14.703
		s-67.277,0.624-77.525-4.455c-10.248-5.079-16.485-23.436-16.485-23.436s2.851,0.802,4.723,0c1.871-0.802,3.832-4.277,2.762-9.535
		c-1.069-5.257-7.752-10.693-10.426-9.624c-2.105,0.842-1.834,2.889-1.624,3.724c0.067,0.232,0.109,0.367,0.109,0.367
		s-0.052-0.142-0.109-0.367c-0.765-2.635-5.184-19.206,2.515-26.05c8.376-7.446,21.535-9.545,21.535-9.545
		c26.124-5.759,53.762-7.96,88.158-4.218c34.396,3.743,37.96,8.109,42.148,13.01c4.188,4.901,4.366,13.01,4.901,22.556
		S-374.428,391.058-380.244,399.971z"/>
	<path fill="#2C2C66" d="M-476.303,131.041c0,0-4.469,29.941-45.957,58.455s-98.993,47.762-98.993,47.762
		s32.139-12.653,56.02-29.762c23.881-17.109,23.881-17.109,23.881-17.109s-30.654,18.535-86.079,43.663
		s-68.792,33.861-68.792,33.861s46.127-26.554,94.707-52.752c48.58-26.198,57.045-43.752,56.243-42.951
		c-0.802,0.802-7.663,13.01-59.346,40.634c0,0,33.148-19.426,49.366-39.743c0,0-21.743,11.584-93.921,52.931
		s-79.307,69.683-79.307,69.683s7.485-26.733,50.257-61.307s69.327-49.01,69.327-49.01s-38.139,22.277-70.574,45.446
		c-32.436,23.168-35.465,26.376-35.465,26.376s18.535-23.703,57.743-50.079c39.208-26.376,65.941-49.723,65.941-49.723
		s-19.248,16.752-69.505,46.158c-50.257,29.406-68.436,62.911-72.891,80.287c0,0,3.921-27.891,27.624-59.792
		c23.703-31.901,62.376-47.406,62.376-47.406s-45.802,20.851-76.634,62.198c-30.832,41.347-22.277,71.347-22.277,71.347
		s-18.356-35.703,11.406-87.03s110.139-95.881,110.139-95.881s-49.723,26.198-74.317,48.832s-24.594,22.634-24.594,22.634
		s25.129-32.792,58.812-55.96s55.426-30.832,55.426-30.832s-22.99,6.772-48.119,22.99s-33.683,22.455-33.683,22.455
		s30.951-30.059,70.04-47.762c39.089-17.703,76.515-12.95,90.297-11.287c13.782,1.663,16.871,2.733,16.871,2.733
		s-14.614-2.733-30.535,0.356c-15.921,3.089-16.515,3.089-16.515,3.089s15.921-3.921,32.554-3.208
		c16.634,0.713,21.505,0.594,21.505,0.594s-12.713,8.911-34.218,19.485s-26.257,12.119-26.257,12.119s17.584-5.584,36.713-14.733
		c19.129-9.149,23.644-12.594,23.644-12.594s-10.455,9.98-28.396,19.604c0,0,23.525-10.337,34.455-22.337
		c0,0,3.208,14.376-14.139,35.881c-17.347,21.505-27.98,28.099-27.327,27.446c0.653-0.653,28.396-20.911,36.475-34.812
		c8.079-13.901,9.386-21.743,9.386-21.743s1.426-0.95-6.416,20.673s-23.644,31.129-23.644,31.129s16.04-11.525,26.02-28.752
		s10.218-25.545,10.218-25.545s4.871,11.881-2.376,33.386s-23.644,32.673-23.644,32.673S-484.264,153.259-476.303,131.041z"/>
	<path fill="#2C2C66" d="M-469.887,157.773c0,0,29.406,18.535,48.297,50.614s19.069,37.248,19.069,37.248
		s-4.455-22.874-15.683-42.269s-11.228-19.395-11.228-19.395s22.99,27.624,34.396,70.218s21.861,80.029,32.079,102.777
		c10.218,22.748,10.455,23.404,10.455,23.404s-4.634-14.081-9.267-37.487s-4.871-24.238-4.871-24.238s6.399,31.608,11.1,44.557
		c4.702,12.948,4.702,12.948,4.702,12.948s-2.851-9.624-9.861-43.248c-7.01-33.624-10.218-58.812-10.218-58.812
		s6.297,31.485,12.713,56.673s6.535,28.277,6.535,27.446c0-0.832-7.485-46.337-7.485-46.337s10.099,24,13.426,48.475
		c3.327,24.475,1.782,33.505,1.782,32.436s2.614-20.436-2.257-58.455s-9.98-51.327-9.98-51.327s9.743,32.554,13.545,60.119
		c3.802,27.564,2.02,38.02,2.02,38.02s-0.152-58.158-14.898-110.733c-14.746-52.574-47.716-98.911-71.776-119.406
		s-41.079-29.406-41.079-29.406l28.96,22.99c0,0-22.366-14.703-29.495-19.782s-7.396-5.436-7.396-5.436s21.297,20.139,36,38.762
		s15.148,18.98,15.148,18.98l-28.782-31.01l22.901,28.426c0,0-15.327-14.792-26.376-21.743c-11.049-6.95-11.049-6.95-11.049-6.95
		s16.04,12.921,22.723,19.604s6.683,6.683,6.683,6.683s-16.396-14.792-25.752-20.139c-9.356-5.347-13.01-7.04-13.01-7.04
		L-469.887,157.773z"/>
	<path fill="#2C2C66" d="M-383.148,210.169c0,0,31.36,64.634,48.231,116.911c16.871,52.277-15.921,111.921-15.921,111.921
		s23.287-27.327,26.139-75.327c0,0,2.736,24.475-15.504,62.97c-18.239,38.495-27.031,48.95-27.031,48.95
		s51.089-55.189,54.416-106.961s-47.99-156.168-72.114-188.564c-24.124-32.396-52.401-45.465-52.401-45.465
		S-401.914,160.981-383.148,210.169z"/>
	<path fill="#2C2C66" d="M-568.977,98.427c0,0-34.574,0.178-76.99,19.604s-61.307,52.931-61.307,52.931s24.594-40.812,63.267-59.347
		c0,0-19.426,7.069-39.861,25.842c0,0,24.491-33.479,64.277-41.941c39.786-8.462,86.783,3.446,86.783,3.446L-568.977,98.427z"/>
	<path fill="#3F3F82" d="M-513.006,111.791c0,0-37.831,18.893-86.445,54.002c-48.614,35.109-54.713,37.573-54.713,37.573
		l63.98-36.504c0,0-40.455,24.951-63.98,41.703c-23.525,16.752-23.525,16.752-23.525,16.752s69.683-37.604,91.069-51.327
		c21.386-13.723,23.881-15.327,23.881-15.327s-37.604,29.762-56.139,41.347c-18.535,11.584-19.426,12.297-19.426,12.297
		s54.172-25.192,98.198-57.921s42.927-49.766,42.927-49.766s-13.461,13.64-38.887,27.099
		c-25.426,13.459-25.842,13.875-25.426,13.459C-561.076,144.763-513.006,111.791-513.006,111.791z"/>
	<path fill="#3F3F82" d="M-498.545,124.999c0,0-26.27,33.151-57.956,55.943c-31.687,22.791-38.031,26.391-38.031,26.391
		s27.159-13.56,44.625-26.748c17.465-13.188,17.465-13.188,17.465-13.188s-22.338,19.472-56.852,42.238s-46.515,26.02-46.515,26.02
		s72.925-27.776,104.792-51.683s39.091-60.281,39.091-60.281s-9.774,16.707-22.16,29.806c-12.386,13.099-13.01,13.277-13.01,13.277
		S-507.509,146.759-498.545,124.999z"/>
	<path fill="#3F3F82" d="M-518.897,109.298c0,0-28.337,11.049-62.733,32.614c-34.396,21.564-47.228,34.752-47.228,34.752
		s31.188-30.364,54.178-44.944c22.99-14.581,22.99-14.581,22.99-14.581s-16.218,6.594-37.426,19.782
		c-21.208,13.188-23.116,15.149-23.116,15.149s17.057-18.713,38.354-31.901c21.297-13.188,36.624-12.297,36.624-12.297
		s-16.396,0.356-38.97,10.218c-22.574,9.861-29.465,15.327-29.465,15.327s15.802-13.901,41.228-23.881
		c25.426-9.98,60.536-7.157,60.536-7.157L-518.897,109.298z"/>
	<path fill="#3F3F82" d="M-539.274,104.621c0,0-40.892-1.432-66.416,8.122c-25.524,9.554-44.198,23.525-44.198,23.525
		s20.419-21.039,48.594-29.347s47.168-5.941,47.168-5.941s-18.787-3.921-58.106,5.941c-39.319,9.861-49.656,18.772-49.656,18.772
		s15.683-13.069,45.505-20.436c29.822-7.366,43.96-7.248,43.96-7.248s-30.128,1.069-47.618,5.822
		c-17.491,4.752-17.491,4.752-17.491,4.752s24.951-10.337,54.297-13.782c29.347-3.446,64.205,4.645,64.205,4.645l-28.74,0.316
		l27.178,2.246L-539.274,104.621z"/>
	<path fill="#3F3F82" d="M-440.756,143.518c0,0,40.492,26.017,60.928,68.79c20.436,42.772,25.608,77.587,25.608,77.587
		s-9.449-32.439-19.667-50.973c-10.218-18.535-10.218-18.535-10.218-18.535s12.961,22.128,20.911,62.02s8.974,53.703,8.974,53.703
		s-21.317-54.653-28.928-76.04s-7.611-23.287-7.611-23.287s4.907,7.604,15.76,54.653s10.854,47.05,10.854,47.05
		s-21.624-74.614-43.723-118.099c-22.099-43.485-42.535-61.307-42.535-61.307s13.663,9.224,22.693,20.592
		c9.03,11.368,9.03,11.368,9.03,11.368s-15.06-23.852-23.807-35.629c-8.747-11.777-12.193-16.075-12.193-16.075
		s29.109,35.426,29.109,34.357s-28.033-38.505-28.033-38.505L-440.756,143.518z"/>
	<path fill="#3F3F82" d="M-383.148,185.457c0,0,39.914,66.535,59.162,129.505c19.247,62.97-6.653,100.498-6.653,100.498
		s16.634-36.577,8.079-75.428c0,0,5.417,20.151-5.371,47.323c0,0,7.747-32.234-16.966-93.779
		c-24.713-61.545-44.198-90.209-44.198-90.209l-19.915-46.187L-383.148,185.457z"/>
</g>
</svg>
