<?xml version="1.0" encoding="utf-8"?>
<!-- Generator: Adobe Illustrator 28.0.0, SVG Export Plug-In . SVG Version: 6.00 Build 0)  -->
<svg version="1.1" id="Layer_1" xmlns="http://www.w3.org/2000/svg" xmlns:xlink="http://www.w3.org/1999/xlink" x="0px" y="0px"
	 viewBox="0 0 900 900" style="enable-background:new 0 0 900 900;" xml:space="preserve">
<style type="text/css">
	.st0{fill:#FFFFFF;}
	.st1{fill:#E4E3EA;}
	.st2{fill:#CBCBDB;}
	.st3{fill:#CDCDCD;}
	.st4{fill:#ACACAC;}
	.st5{clip-path:url(#SVGID_00000046319302549513728090000011631496866594498239_);}
	.st6{fill:#1D1C4E;}
	.st7{fill:#2E2E68;}
	.st8{clip-path:url(#SVGID_00000115488032658370360950000001621955806051937457_);}
	.st9{fill:#DDDDDD;}
	.st10{fill:none;stroke:#1D1C4E;stroke-width:6;stroke-miterlimit:10;}
	.st11{fill:#2B2B66;}
</style>
<g id="Layer_2_00000132803465654089301060000015716851811268110209_">
</g>
<path class="st0" d="M207.6,448.3c2,26.2,5.7,72.3,30.8,95.7c14.5,13,26.3,30.9,36,45c0,0-5.9,4.8,8.7,31.9
	c14.6,27.1,14.4,43.1,14.4,43.1c4.1,17.8,14.2,61.7,17.2,79.2l121.2,77.7l120.4-80.3c0,0,10-77.4,10-77.4s20.7-54,30.6-84.3
	c9.9-30.3,21.2-30.1,21.2-30.1c9.8,4.5,33.5-55.8,35.9-57.8c8-12.9,9.1-39,9.1-39s-133-217.9-194-256.6
	C296.8,76.3,212.6,382.3,207.6,448.3z"/>
<path class="st1" d="M408.5,199.3c27.8,39.8-15,131.8-24.8,164c-6.2,1.6,134.6-2.7,135.5-6.9c0,0,34.1,5.4,34.1,5.4
	c-2.6,2.4-72.7,7.9-54.3,33.7c-0.5,0,17.5-2.7,34.8,0.7c20,4,24.1,15.7,32.8,21.5c0,0-24.7,2.1-38.3,2.9
	c-13.6,0.7-31.3-2.2-31.3-2.2s13.2,4.1,24.8,6.1s18.8,1.8,18.8,1.8s-10.2,1.7-14.6,3.1c-10.3,0.9-39.6-13.4-49.7-6.2
	c-21.2,51.9,59.2,50.7,86.7,46.5c-42.9,14.9-39.3,14.6-83.6,4.4c-24-12.9-22.6-59.5-35.9-78.3c-8.4-8.4-19.4-5.7-21.6,0
	c-2.1,5.7-16,50.5-25,61.8c-11.2,21.8-79.3,15.9-91,9.1c0,0,16.4,1.1,22.6-2.6s31.1-3.6,45.4-10.3c14.3-6.8,15.4-31.5,15.4-33.4
	s-36.6,9.9-36.6,9.9s4.8-3.6,6.4-6.1c1.6-2.6,14-5.2,14.7-5.9s-16.3,2.3-33.7,2.3c-19.9-0.2-37.7-11.6-41.3-12.5
	c24.4-11.2,42.6-19.1,72.6-14.6c-2.4-23.1-34-32.4-51.7-31.6c-38.4,36.4-49.3,117.1-43.3,161.2c6,36.4,41.3,177.9,121.2,151.2
	c33.5-6.2,44.2-3.6,63.9,5.5c36.9,13.3,93.1-39.8,108.2-58.6c0,0-19.1,13.5-49.1,58.2c-75.8,104.2-166.7,31.4-223.3-7
	c-23.7-89.6-95.8-317-13.1-434.1C348.5,150.5,408.5,199.3,408.5,199.3z"/>
<path class="st1" d="M462.7,265.3c0,0,29.7,55.7,51.8,79.5c22.1,23.8,47.8,22.9,66.5,44.8c18.7,21.9,19.1,63.1,12.5,92.6
	s-20.5,69-23.5,103.4c-3,34.4-25,54-42.2,71.3c-17.3,17.3-22.4,22.5-21.5,22.5c92.9-76.1,68.6-68.7,98.8-175
	c0,0,40.2-119.4,12.2-172.8S468.7,250.4,462.7,265.3z"/>
<path class="st1" d="M478.9,579c13.3-13.5,26.3-4,38.8-4.8c0,0-12.1,13.1-13.8,14.8c-1.7,1.7-26.5-6.9-27.3-6.9S478.9,579,478.9,579
	z"/>
<path class="st1" d="M371.2,574.4c0,0-15.9-11.7-21.4-7.9c-5.5,3.8-6.5,3.5-6.5,3.5s4.8,12.1,7.1,14.5c4.3,2.3,24.9-9.5,28.9-10.2
	L371.2,574.4z"/>
<path class="st1" d="M418.7,593.9c0,0-24.8,5.3-29.3,14.7c-4.5,9.4-9.6,11.6-9.6,11.6s27.4-4.9,51.5-2.3c24.1,2.6,39.9,4.7,39.9,4.7
	C465.6,606.8,435.2,592.1,418.7,593.9z"/>
<path class="st1" d="M386.8,470.3c0,0-10.7,13.3-11.6,21.4s14.6-1.5,17.5-1.8c2.9-0.4,17.4,1,23.3,5.4c0,0-7.9-5-7.4-16.2
	c3.9,19.8,50.5,19.5,46.6-7c0,0,3.7,10.7,1.2,16c-2.5,5.3,10.8-0.4,18.4,4.5c7.7,4.8,9.6-5,8.2-9.2s-8.8-12.1-8.8-12.1
	c18.9,6.6,24.9,36.5,1.7,47.3c-5.9,3.1-27.2,1.5-34.4,5s-14.8-0.4-17.9-2.6s-24.6-5.1-34.5-5.1s-18.4-8-18.4-21.7
	C370.7,480.4,381.9,473.5,386.8,470.3z"/>
<path class="st1" d="M430.2,529.5c-1.3,3.2-5.5,16.1,5.3,12.7c0,0-0.5,4-5.6,3.3s-4.1-8.3-4.1-8.7S429.1,530.6,430.2,529.5z"/>
<path class="st2" d="M486.4,363.3c0,0-24.6,19-29,24.3c-4.5,5.3-0.3,43.9,6.6,61.8s21.4,23.4,21.4,23.4c8.7,2.3,41.6,6.9,53.9-0.7
	c-26.1-4.9-73.1,6.5-66.8-46.3c1.9-10.2,15.3-8.1,15.3-8.1c12.3,1.2,55.5,6.2,70.8-5.9c-10.5-14-49.8-17.1-62.4-14.5
	c-2.5,0-1-22.3,5.4-30.3L486.4,363.3z"/>
<path class="st2" d="M380.2,361.7c0.4,0.4,24.1,24,30.2,32.7c6.1,8.7,2.8,22.5,2.8,22.5c-12.9,51.7-29.3,57.4-82.3,51.5
	c10.6-2,49.2-6.6,56.5-25.3c7.3-15.8,2.9-26.1,2.9-27.1c-38.2,1.1-45.3,10.6-88.6-7.8c0,0,24.4-12.1,32.6-14
	c45.7-3.6,59.5,11.5,21.3-34.8L380.2,361.7z"/>
<path class="st2" d="M384.5,471.8c0,0-7.2,7.6-9.2,16.7s3.4,10.5,3.6,10.3s11.5-7.3,17.6-8c14.9-1.8,27.9,22.8,44.9,12.5
	c9.7-5.4,14.2-9.9,22.8-9.9s11.4,3.5,14,4.2s7.7-6.5,7.7-8.8s-10-15.7-10-15.7c18.2,5,21,38-1.7,45.1c-9.6,3.1-10.8-3.2-20.1-2.6
	c-9.4,0.6-11,3.6-19.4,3.9c-8.4,0.3-14.5-5.8-17.8-5.8s-22.8,3.7-33,0.8C362.4,506.9,370.7,477.2,384.5,471.8z"/>
<path class="st1" d="M223.6,468.8c-8.9-10.1-10.2,1.4-10.9,7.8c0,4.3,4.1,36.1,14.3,40.2c0,0-2.4-5.4-1.5-8.9
	c0.8-3.4-1.9-9.5-1.5-11.5s4.5,8.8,6.1,12.8c1.1,4.6,20.9,9.2,22.4,12.6c-1.2-9-12.2-10.5-7.4-21.8
	C245,499.6,223.6,468.8,223.6,468.8z"/>
<path class="st1" d="M654.9,465.9c1.4,9.4-8.9,37.5-18,44.6c0,0,2.2-3.8,1.8-5.7c-0.4-1.9,2.3-7.7,2.3-8.5s-5.9,7.1-5.9,7.1
	c5.1,14.7-13.1,23.2-23.1,21.3c9.4-3.1,14.9-16.3,12.2-25.1C623.8,502,650,455.9,654.9,465.9z"/>
<path class="st3" d="M495.5,578.2c-21.8,14.9-50.1,28.2-87.3,19.9c-13.7-0.1-42.4-21.1-45.7-23.4c14.5-11.5,42.3-39.4,69.1-22.1
	C458.8,537.4,478,564.7,495.5,578.2z"/>
<path class="st4" d="M492,579.1c-7,3.1-13.1,2.2-25.7-0.8c-9.5-1.9-20.7-1.2-28.8,0.5s-12,1-24.4-1.1c-12.4-2-34.2-0.5-29.8,2.5
	c8.2,4.8,14.2,14.6,24.9,17.8c-13.6-0.1-42.4-21.1-45.7-23.4c14.5-11.5,42.3-39.4,69.1-22.1c-0.7,6.1-1.6,14.5-1.1,15
	c0.8,0.8,33.8-0.9,36.9,1.4C470.6,571.3,492,579.1,492,579.1z"/>
<path class="st0" d="M489.6,412.2c0,0-2.3-4.4,15.6-10.5c18.7-5.7,41,2.7,37.5,9.4c-10.6,7.9-30,3-41.9,2.4
	C493.8,413.7,487.1,415.1,489.6,412.2z"/>
<path class="st0" d="M379.1,407.8c-8.3-10.1-48.2-15.8-56.2-2.2c3.8,4.3,8.3,7.7,21.1,7.7c11.2-0.3,14.1-3,22.1-2.5
	C376.7,410.9,377.3,412.7,379.1,407.8z"/>
<g>
	<g>
		<defs>
			<path id="SVGID_1_" d="M379.1,407.8c-8.3-10.1-48.2-15.8-56.2-2.2c3.8,4.3,8.3,7.7,21.1,7.7c11.2-0.3,14.1-3,22.1-2.5
				C376.7,410.9,377.3,412.7,379.1,407.8z"/>
		</defs>
		<clipPath id="SVGID_00000137111375738115375180000000368848034553542301_">
			<use xlink:href="#SVGID_1_"  style="overflow:visible;"/>
		</clipPath>
		<g style="clip-path:url(#SVGID_00000137111375738115375180000000368848034553542301_);">
			<path class="st6" d="M349.4,391.3c16.5,0.1,16.5,25.1,0,25.2C332.9,416.4,332.9,391.3,349.4,391.3z"/>
			<path class="st7" d="M349.4,393.1c14,0.1,14,21.4,0,21.5C335.4,414.6,335.4,393.2,349.4,393.1z"/>
			<path class="st6" d="M349.4,398.8c6.6-0.1,6.6,10.3,0,10.2C342.8,409.1,342.8,398.7,349.4,398.8z"/>
			<path class="st0" d="M345.3,399.7c3.4,0,3.4,5.3,0,5.3C341.8,405,341.8,399.6,345.3,399.7z"/>
		</g>
	</g>
</g>
<g>
	<g>
		<defs>
			<path id="SVGID_00000091016852199452885970000009207839642337084586_" d="M489.6,412.2c0,0-2.3-4.4,15.6-10.5
				c18.7-5.7,41,2.7,37.5,9.4c-10.6,7.9-30,3-41.9,2.4C493.8,413.7,487.1,415.1,489.6,412.2z"/>
		</defs>
		<clipPath id="SVGID_00000131342067476620122830000012677800296817125823_">
			<use xlink:href="#SVGID_00000091016852199452885970000009207839642337084586_"  style="overflow:visible;"/>
		</clipPath>
		<g style="clip-path:url(#SVGID_00000131342067476620122830000012677800296817125823_);">
			<path class="st6" d="M517.3,393.5c16.5,0.1,16.5,25.1,0,25.2C500.8,418.6,500.8,393.6,517.3,393.5z"/>
			<path class="st7" d="M517.3,395.4c14,0.1,14,21.4,0,21.5C503.3,416.8,503.3,395.4,517.3,395.4z"/>
			<path class="st6" d="M517.3,401c6.6-0.1,6.6,10.3,0,10.2C510.7,411.3,510.7,400.9,517.3,401z"/>
			<path class="st0" d="M513.1,401.9c3.4,0,3.4,5.3,0,5.3C509.7,407.2,509.7,401.9,513.1,401.9z"/>
		</g>
	</g>
</g>
<path class="st1" d="M409.2,229.5c2.2,30.3,16.3,119.9,70.3,132.4c0,0-23.1-13-34.5-32.9c-11.4-20-12.1-24.8-12.1-24.8
	c6.5,28.3,36.4,52.7,65.9,55.2l10.8-7.2c0,0-18.4-13.4-29.8-34.5c-11.4-21-13.9-25.4-13.9-25.4s8.2,17.7,21.9,31.4
	s18.4,17.8,18.4,17.8c-44.7-30.1-38.5-158.9-70.7-177.3C414.9,157.9,396.3,199.8,409.2,229.5z"/>
<path class="st2" d="M360.1,685.1c0,0,20,2.9,43.7-4.5c23.6-7.4,39.9-1.2,39.9-1.2c6.8,13.9,39,14.3,48.5,9.2
	c0,0-27.8,19.6-58.1,19.6S363.9,695.4,360.1,685.1z"/>
<path class="st9" d="M431.7,580.9c0,0,9.3-0.7,17.6-2c8.3-1.2,19.4,0,19.4,0s-5.9,2.6-6.4,3.2C458.8,583.5,435.8,584.3,431.7,580.9z
	"/>
<path class="st6" d="M378.3,100.1C337.6,89.5,217.7,207,226.2,247.5c3.7-31,58.1-99.8,87.6-113.9C257.4,169,170.5,316.2,195.1,407
	c12.1,59.7,12.8,71.7,14.2,86.1s12.2,26.1,12.2,26.1s-6.4-12.5-5.9-33.6s-2.8-28.8-2.8-28.8s6.7,10.1,13.5,28.4s16.7,17.8,16.7,17.8
	s-11-4.9-15-18.6c0,0,0.3,7.2,10.6,13.8c11.6,5.6,16.6,23.5,24.5,25.8c0,0,1.6-34.2-2.3-54.8c-5.8-20,20.7-138.4,17.2-154.3
	c4.2,15.1,0,70.3-16.8,82.1c14.9-12.9,28.7-55.5,20.7-77.6c0,0,6.4,18.5,6.4,38.3c0,19.7-3.3,25.9-3.3,25.9l10.9-17.3
	c0.2-0.1-10.4,21.6-12.1,24.1c12.1-5.9,20.5-22.9,23.3-36c0.4,0.1-6.8,27.2-9,30.3c0,0,14.4,0.4,19.1-1.6s9-27.4,9-27.4l-1,24.8
	l2.1-12.9l2.9,15.5c17-4.2,11.6-30.8,9.4-38.4c1.4,2.3,6,26.9,4.6,33.4c0,0,3.6-9.8-1.6-42.6c-6.8-41.4,1.4-97.7,9.6-124
	c0,0-7.7,34.6-8.9,69.7s2.1,46.3,2.1,46.3s-2.1-32.8,0.4-59.3s8.9-50.3,8.9-50.3s0.5,30.5-5.5,72s-8.4,51.1-8.4,51.1s3,9.9,3,13.6
	s0.7,11.3,0.7,11.3s13.4,1.4,14.8,1.4s16.7-30.4,16.7-30.4l-12.9,31.9c32.7,1.1,51-145.6,47.8-163.2c0,0,1.2,31.5-3.9,74.3
	c-5.2,42.8-15,59.9-15,59.9s10.2-12.3,17.5-57.2s5.3-53.1,5.3-53.1c0.5,15.9,13.3,100,36.9,114.1c0,0-17.6-24.1-23.5-50.8
	s-5.9-26.7-5.9-26.7c1.8,14.9,28.7,86.5,57.2,92c-23.7-10.1-41.8-54.6-47-75.4c-0.5,21.9,50.7,88.2,82.5,80.3
	c0,0-28.1-10.6-45.4-51.8S441.4,245,441.4,245s15.5,39.9,33.7,67s18.2,27.1,18.2,27.1s-13.7-23.3-27.4-51.9c0,0,9.4,16.4,19.4,28.5
	c10,12.1,10,12.1,10,12.1s-7.5-7.5-19.2-35.8c-11.8-28.3-15-37.8-15-37.8c-0.7,22.4,60.4,105.5,87.9,110.3c0,0-25.8-14.4-43.7-39.4
	c-17.8-25-21.2-31.4-21.2-31.4c10.2,24,58.9,70.4,88.9,77.8c0,0-22-10.8-37.3-24.7s-15.3-13.9-15.3-13.9c3.9,5.6,55.7,43.5,70,41.3
	c30.2,28.9,16.3,129.3,6.4,159.9c0,0,14.9-11,31.2-29.8s19.7-35.2,19.7-35.2c-1.6,11.3-15.2,39.5-31.4,42.1c17.7-3.3,38-32.5,43-46
	l-9.5,23.4c39.5-44.2,36-143.9,3.7-228.9C597.4,145.2,500.6,57,378.3,100.1z"/>
<path class="st6" d="M352.4,198.3c0,0,8.8,29.5-17.1,105c0,0,19.5-47,21.6-83.6S352.4,198.3,352.4,198.3z"/>
<path class="st10" d="M213.5,496.4c0.2,7.6,17.5,49.9,33.7,51.1c12.2,3.1,17.8-2.3,17.8-2.3c2.5,78.9,58.4,125.4,123.8,157.8
	c76.6,24.4,136.7-33.6,181.4-83.9c15.7-19.7,25.4-74.4,25.4-74.4c33.4,16,41.2-12.6,50.1-39c5-10.2,14.8-20.9,15.9-42.8"/>
<path class="st6" d="M236.6,540.2c-0.3-0.8,1.8,18.9,14.4,40.6c12.7,21.7,12.5,28.7,12.5,28.7s0-12-5.7-24.7
	c14.9,22.6-2.8,65.5,22.3,99.5c0,0-6.2-9.7-8-19.7c-1.8-10-1.8-10-1.8-10c1.5,10.5,11.9,39.4,32.2,28.2l-6.4-46.1
	c0,0-12.1-10.9-18.7-39.2c-6.5-28.3-14.6-50.8-14.6-50.8S243.8,559.4,236.6,540.2z"/>
<path class="st6" d="M625.4,546c0,0-10.7,23.4-15.4,48.2c-4.8,24.8-9.6,34.3-9.6,34.3s4.2-11.8,5.3-26.3s1.5-13.2,1.5-13.2
	c1,18.3-24.2,79.3-42.2,91.7l4.9-59.6c0,0,10.1-20.3,17.8-47.7s8.9-30.3,8.9-30.3S605.3,555.4,625.4,546z"/>
<g>
	<path class="st6" d="M221.7,463c7.3,7.4,11.7,17.7,11.9,28.2c-1.4,11.5,2.7,16.1,12,22.2c2.3,1.8,3.9,4.6,5.5,7
		c-2.4-1.4-4.5-3.4-7.1-4.5c-14.6-5.1-17.7-12.8-16.4-27.7C227.2,479.4,224.8,471.3,221.7,463z"/>
</g>
<g>
	<path class="st6" d="M228,474c-2.9-1.8-6-4.5-9.2-4.3c0.4,0.1,0.8-0.3,1-0.3c-0.5,10.5,1.4,21.2,3.6,31.5c-8.3-8.3-12-22.8-8-33.9
		C219.8,461.1,226.6,469.4,228,474z"/>
</g>
<g>
	<path class="st6" d="M640.6,482.2c-11.2,13.2,0.4,38.5-23.4,39.8c6.4-4,10.6-9.4,10.9-16.7C628,496.3,631.5,485.7,640.6,482.2z"/>
</g>
<g>
	<path class="st6" d="M635.1,490.7c6.3-27.9,34.8-16.6,8.4,8.8c1.2-6.8,4.6-13.2,5.1-19.6c0.1,0.2,0.4,0.5,0.7,0.6c0,0,0,0,0,0
		C643.3,481.2,639.5,486.3,635.1,490.7z"/>
</g>
<polyline class="st10" points="292.5,630.3 314.8,743.2 435.3,820.9 557.2,740.1 569.9,618 "/>
<path class="st6" d="M477,376.5c0,0-1.2-17.7,11.6-26.5c0,0-2.2,0.4-5.8,12.2c0,0,3.9-9.6,10-14.4s45.4-2.9,54.5-1.2
	c9.1,1.7,30.5,14.4,35.1,20.1s8.2,17.3,8.2,17.3C581.9,360.2,489.5,368.5,477,376.5z"/>
<path class="st6" d="M475.1,376.5c0,0-1.8-16.8,7.8-26.3C482.8,350.2,468.5,360.9,475.1,376.5z"/>
<path class="st6" d="M475.3,376.9c0,0-5.3-14.7,0.8-25.4C476.1,351.5,466.1,364.2,475.3,376.9z"/>
<path class="st6" d="M473.4,375.1c0,0-5.5-11.8-1.2-21.1C472.2,354.1,464.9,365.3,473.4,375.1z"/>
<path class="st6" d="M506.2,413.7c0,0-6.8-1.6-11-1.2c-7.4,0.6-1.8-2.8-1.6-3s10.7-6.4,19.1-7.5c29.3-2.4,29.5,18.5,42.7,8.8
	c-1-0.6-16.1-9.1-18.7-9c0,0,7.5,1.8,15.1,5.7c-12.9-10.9-54.9-13.3-68.9-3c0,0,4.6-2.7,12.2-3.9c7.6-1.2,10.6-1.2,10.6-1.2
	c-0.6,0.3-22.4,11.1-22.3,14.8C490.5,415.6,496,414.2,506.2,413.7z"/>
<path class="st6" d="M541.6,408.3c-3.1,5.5-19.3,8.4-23.7,7.3c3.7,1.9,24.9-1.1,28-4.7L541.6,408.3z"/>
<path class="st6" d="M493.5,408.5c0,0,1.2,1.1,1.6,2.1c0.4,1,0.3-2.2,0-2.7C494.8,407.4,493.5,408.5,493.5,408.5z"/>
<path class="st6" d="M389.5,373.7c0,0,1.2-17.7-11.6-26.5c0,0,2.2,0.4,5.8,12.2c0,0-3.9-9.6-10-14.4s-45.4-2.9-54.5-1.2
	c-9.1,1.7-30.5,14.4-35.1,20.1s-8.2,17.3-8.2,17.3C284.7,357.4,377,365.8,389.5,373.7z"/>
<path class="st6" d="M391.4,373.7c0,0,1.8-16.8-7.8-26.3C383.7,347.5,398,358.1,391.4,373.7z"/>
<path class="st6" d="M391.2,374.1c0,0,5.3-14.7-0.8-25.4C390.4,348.8,400.4,361.5,391.2,374.1z"/>
<path class="st6" d="M393.1,372.4c0,0,5.5-11.8,1.2-21.1C394.4,351.3,401.7,362.6,393.1,372.4z"/>
<path class="st6" d="M360.3,410.9c0,0,6.8-1.6,11-1.2c7.4,0.6,1.8-2.8,1.6-3s-10.7-6.4-19.1-7.5c-29.3-2.4-29.5,18.5-42.7,8.8
	c1-0.6,16.1-9.1,18.7-9c0,0-7.5,1.8-15.1,5.7c12.9-10.9,54.9-13.3,68.9-3c0,0-4.6-2.7-12.2-3.9s-10.6-1.2-10.6-1.2
	c0.6,0.3,22.4,11.1,22.3,14.8C376.1,412.9,370.5,411.5,360.3,410.9z"/>
<path class="st6" d="M325,405.6c3.1,5.5,19.3,8.4,23.7,7.3c-3.7,1.9-24.9-1.1-28-4.7L325,405.6z"/>
<path class="st6" d="M373,405.8c0,0-1.2,1.1-1.6,2.1c-0.4,1-0.3-2.2,0-2.7C371.7,404.7,373,405.8,373,405.8z"/>
<path class="st6" d="M415.4,499.6c-4.7-3.7-19.8-13-27.1-3.7c8.8-2,2.2-1.1,8.4,4.1C402.9,503,408.3,496.1,415.4,499.6z"/>
<path class="st6" d="M443.6,503.2c4-3.7,23.7-15.7,30.2-3.8c0,0-5.5-1.1-9.4,1C455.8,502.9,456.8,496.9,443.6,503.2z"/>
<path class="st6" d="M384.3,472.5c-16.4,10.2-12.2,43.7,11.7,41.8C366.8,517.9,367.9,483.2,384.3,472.5z"/>
<path class="st6" d="M477.3,474.1c12.7,10.2,13.7,33.9-3.1,42.1C492.8,511.3,493.9,481.7,477.3,474.1z"/>
<path class="st6" d="M367.5,573.2c6.8,3.7,35.1-2.3,44.8-1.2c9.8-0.2,18.6,3.1,27.6,1.3c21-3.3,34.7,5.8,55.3,3.3
	c7.8-1.1,0.4,5.5,0,5.5c-8.3-1.2-43.6-10.7-56.3-6.7c-24.1,1.8-27.6-5-53.5-0.7c-13.5,2-30.9,9.8-25.4-2.5L367.5,573.2z"/>
<path class="st11" d="M414.4,125.2c0.1,34.4,18.5,201.4,82.2,230.3c-12.6-8.2-39.1-39-44-61.4c3.5,11.3,23.5,43.4,37.1,50.8
	c0,0-16.9-26.9-28.9-54.8s-18.8-48.4-18.8-48.4s9.5,24.6,19.5,41.9s10,17.3,10,17.3l-13.8-35.4c-1.9-0.2,26.5,49.4,26.3,48.9
	c-2.3-1.9-35.9-82.3-34.1-89.5c1.1,10.8,39,91.2,53.9,103.9c-9.4-7.1-31.9-58.8-34.5-69.6c12.5,27.1,40.9,74,73.4,89.8
	c0,0-21-11.2-45.8-54.4s-29-60.2-29-60.2c17,41.4,62.7,107.3,111.2,123.9c0,0-26-13.4-47.6-37.1c-21.6-23.7-24.2-33.3-24.2-33.3
	c27.2,41.4,74.5,67.2,112.8,91.4c-19.7-11.1-97.5-97.2-101.8-129.9c2.1,23.6,57.1,80.9,75.6,88c-16.4-6.4-56.2-55.3-62.2-74.1
	c0,0,26.2,41.3,59,68.3c32.8,26.9,45.1,57.2,45.1,57.2s-15.3-31.9-29.6-52.4c-14.3-20.5-14.3-20.5-14.3-20.5
	c9.6,10.1,52.2,73,50.4,95.5c3.7-67.9-123.6-251.4-179.6-284.4l39.5,41c0,0-24.1-25.7-43.5-40.5s-31.4-23.9-31.4-23.9
	s24.2,33.7,41.2,56.5s16.9,22.8,16.9,22.8c1.2,1.9-52.1-65.4-55.2-69.5c-0.1,1.2,30.4,57,35.6,64.2L438.6,134
	c-0.9,2.1,26.3,69.7,32.1,77.9c0,0-12.3-20.5-25.3-49.4s-19.1-51.1-19.1-51.1s-0.2,20.3,7,54.4c7.1,34,13.5,51.7,13.5,51.7
	c-2.1-1.2-24.4-81.4-22.3-86.4c0,0,3.7,37.1,8.4,58.1s4.6,21,4.6,21S420,150.5,414.4,125.2z"/>
<path class="st11" d="M567.4,257.2c19,18.9,79.5,107.2,81.8,145.7c0-1.3-3.4-26-13.2-58.2s-10.3-33.7-10.3-33.7
	c2,1,22.3,60.2,22.6,69.6c1.6,1.4-11-101.8-17.5-109.2c0,0,10.3,28.2,13.7,52.9c3.4,24.8,3.4,27.8,3.4,27.8
	c10.6-103.3-45.9-150.4-118.7-210.5l38,37.2c0,0-23.2-23.5-45.1-38c-21.9-14.4-26-17.3-26-17.3s9.6,8.7,34,37.6s24.4,28.9,24.4,28.9
	c-0.8-1.7-43.4-45.1-48.3-50.4c0.3,0.9,29.1,37.5,34.9,41.5c1.4-0.5-62.8-57.6-71.5-58.8C475.4,123.5,567.7,243,567.4,257.2z"/>
<path class="st11" d="M622.1,237.4c1-2.5-64.3-80.5-72.5-82.6c0,0,21.6,15,35.4,28.8s14.4,14.1,14.4,14.1s-15.1-17.9-25.5-28.4
	s-11-11-11-11c52.2,22.2,98.8,107.8,107.4,164.1c0,0-3.8-15.1-10.7-30.8s-6.9-15.7-6.9-15.7s9.7,24.4,10.6,45.4
	c0.8,21,0.8,28,0.8,27s-9.7-42.4-17.9-64.4S622.1,237.4,622.1,237.4z"/>
<path class="st11" d="M399.4,135.6c14.7,38.9,12.9,169.8-18.5,211.8c7.4-9.3,33-98.9,21.4-123.2c0,0,5.7,36.1-9.5,81.5
	c-15.2,45.4-27.6,54.8-27.6,54.8s23-47,27.6-83.1c4.5-36.1,4.5-36.1,4.5-36.1c1.3,12.5-21.9,110.4-43,123.2c0,0,20.8-34.1,29.4-72.2
	s8.6-38,8.6-38s-8.8,48.9-23.8,74.4s-21.1,30.7-21.1,30.7s13.1-43.5,19.7-113.6c6.7-70.1-1-117.4-0.2-116.7s8.1,17.6,8.1,53.1
	c0,0,0.5-36.7-3.7-57.9c-4.3-21.2-4.3-21.2-4.3-21.2c20.7,20.6,32.8,78.5,28.7,106.8c2-7.8-3.9-84.5-12.1-96.5
	c0,0,9.9,22.6,12.7,39.4c2.9,16.9,2.9,15.6,2.9,14.9s-2.6-25.7-5.9-38c-3.3-12.4-3.4-13.2-3.4-13.2L399.4,135.6z"/>
<path class="st11" d="M398.6,138.1c-1.4,12.8,17.7,113,33,133.8c0,0-9-27-13.2-46.1s-4.3-19.1-4.3-19.1s6.3,24.1,10.5,34.9
	s4.2,10.8,4.2,10.8c-2.9,0.3-24.4-137.7-20-143.4c0,0-3.6,22.6-1.7,41.3c0,0-2.5-16.6-3.8-30.1C403.3,120.3,397.9,130.9,398.6,138.1
	z"/>
<path class="st11" d="M374.5,212.6c0,0-3.4-21.9-12.5-48.1s-9.1-26.2-9.1-26.2s4.1,24.2,7.7,43.8s3.6,19.6,3.6,19.6
	c0.7-0.3-13.5-51.3-18.2-57.2c10.4,24.2,9,159.6-1.8,187.1c0,0,9.1-29.8,13.2-63.8c0,0-0.9,27.3-6.1,46.2c0,0,15.5-21.9,17.8-54
	S374.5,212.6,374.5,212.6z"/>
<path class="st11" d="M352.8,174.8c0,0,0.7,20-17.6,81s-2.5,101-2.5,101c-7.1-9.6-15.1-70.7-8.3-85c0,0-4.4,25.4-2.5,54.4
	s1.9,29,1.9,29c-10.4-23.8-24.2-86.7-1.8-116.2c-15.3,15.1-20.2,93-9.3,109.6C298,309.9,295,234.3,323.1,195.2
	c0,0-14.8,26.7-25.1,57.1s-9.3,38.7-9.3,38.7c-1.7-14.9,11.7-67.6,23.6-82.3c-16.3,20.2-39,85.1-29.7,112.5
	c-15.2-41.2,0.3-118,38.9-147.3c-79.8,63.3-52.3,190.8-73,263.5c3.4,3.3,6-149.2,5.7-147.6c3.7,2-14.3,173.8-5.7,179.9
	c0,0-18.5-49-17.3-111.2s20-86.6,20-86.6c-20.4,27.6-31,139.3-16.4,173.3c0,0-10-26.5-10-77.4s14-87,14-87
	c-9.1,17.4-24.4,107.2-13.3,132.6c-18.1-35.8-2.8-143.5,22.1-172c-16.1,19.6-42.4,91.9-35.9,123.1c-20-85.3,59.2-190.7,120.5-236.9
	L304.4,162c-2.6,1.8,46.2-42.4,48.5-45.9c0,0-7.1,27.7-14.3,42.2c-7.1,14.5-8.3,16.5-8.3,16.5c0.1,0.3,16.6-26.3,15.6-30.3
	C345.9,144.5,352.8,168.6,352.8,174.8z"/>
<path class="st11" d="M587.1,594.7c-8.6,21.4-5,35-5,35s-1.5-18.7,5.8-32.8c0,0-6.2,12.7-4.8,30.4c1.4,17.7-1,28.5-1,28.5
	s14.4-19.6,21.1-50.7c6.8-31.1,5.6-38.7,5.6-38.7c0.2-1.6-2.1,41.2-3.5,43.4c1.4-9.3,16.4-48.9-2.9-59.8
	C602.6,550.1,595.7,573.3,587.1,594.7z"/>
<path class="st11" d="M265.6,564.8c0,0,3.2,29.7,15.3,54.2s9.9,45.3,9.9,45.3c1.1,1.7-8.8-40.7-11-43.8c1.2,1.3,10.9,52.2,8.3,56.1
	c0,0-5.2-23.8-11.6-46.5s-6.4-22.7-6.4-22.7s4,19.3,5.3,34.2c1.3,14.9,1.3,14.9,1.3,14.9c-0.4-24.1-14.6-85.2-32.9-107
	c0,0.8,8.7,8.1,14.3,19.3s5.6,11.2,5.6,11.2c-0.1-0.8-10.4-25.1-13.8-27.9C250,552,263.6,558.6,265.6,564.8z"/>
<path class="st6" d="M607.4,407.5c0,0-12.1,0-12.1-0.4s-0.3-9.4-7.8-12.8c-20.6-8.4-129.3-17.8-132.8,16.9
	c-0.9-0.8-39.1-4.5-40.4-2.6c-10.7-32-62.6-22.9-94.9-25c-25.4,1.4-43.5-2-47.6,15.6c0,0-12.2,0-13.3,0
	c-5.3,14.9,2.9,11.5,12.6,13.6c2.4,29.3,5.2,51.1,45.6,55.1c55.1,3.9,81.4,6.7,99.2-52.1c5.5-5.1,37.4-3,40.5,5.5
	c8.7,50.6,45.2,53.9,87.1,52.4c42.6,0.3,49.3-27.1,50.5-57.4c7.6-1.3,14.3,2.2,17.7,8.9C611.8,420.7,612.7,411.2,607.4,407.5z
	 M408,418c-3.2,11.3-2.2,8.4-8.6,7.6c-2.2,1.8-10,15.8,0,15.1c-3.9,22.1-39.1,26.7-64.7,24.2c-19.4-1.1-47.1-3.9-51.6-17.1
	c-4.5-13.2-8.9-52.8-2.1-56.6c33.9-8.7,64.4-3.9,97.5-2.1C402.2,392,411.5,400.7,408,418z M578.3,460.2c-19.3,15.2-68.8,11-92.4,3.3
	c-11.6-5.6-16.8-20.7-16.8-20.7c5.6,0.5,4.5-9.1,1.8-12.2c-2.2-2.2-6.5-4-6.5-4c-17.8-34.2,24.3-34.5,42.8-35.1c0,0,21.9-1.1,42.1,0
	c20.2,1.1,26.6,3.7,31.1,8.1C588.3,410.1,588.1,449.1,578.3,460.2z"/>
</svg>
