<?xml version="1.0" encoding="iso-8859-1"?>
<!-- Generator: Adobe Illustrator 25.3.1, SVG Export Plug-In . SVG Version: 6.00 Build 0)  -->
<svg version="1.1" xmlns="http://www.w3.org/2000/svg" xmlns:xlink="http://www.w3.org/1999/xlink" x="0px" y="0px" width="900px"
	 height="900px" viewBox="0 0 900 900" enable-background="new 0 0 900 900" xml:space="preserve">
<g id="Layer_2">
</g>
<g id="BG">
	<rect x="-1013.703" fill="#1D1C4E" width="900" height="900"/>
	<g>
		<path fill="#FFFFFF" d="M-710.565,751.152l-11.111-56.104c-5.973-0.274-11.414-2.528-15.869-6.574l-3.381,2.593
			c-1.225-1.327-4.662-5.852-10.104-19.154c-5.829-14.246-8.627-26.347-7.749-52.947c0.116-3.499,0.043-6.628-0.155-9.407
			l-1.217,0.013c0.001,0.059-0.008,0.217,0.024,0.486c-0.01-0.079-0.911-6.645-11.143-24.227
			c-7.703-13.237-11.72-25.689-13.7-33.534c-4.895-4.291-8.148-9.518-11.312-14.602c-1.191-1.915-2.423-3.894-3.818-5.976
			c-5.329-7.953-8.698-17.151-10.623-23.659c-1.949-4.704-3.165-9.396-3.617-13.957l-0.309-3.171
			c-1.224-12.698-2.612-27.091-13.739-81.905c-11.62-57.246,8.679-126.062,31.789-171.929c2.921-15.161,14.425-45.646,57.613-88.834
			c52.63-52.63,89.693-57.944,101.014-58.178c14.538-8.109,32.451-12.218,53.303-12.218c47.125,0,99.967,21.406,125.76,41.546
			c31.371,24.495,76.676,65.291,107.801,136.469c35.89,82.078,22.549,174.38,20.91,184.635c-1.814,11.346-5.057,21.911-9.646,31.432
			c-2.279,15.422-8.377,25.734-12.872,33.336c-1.326,2.241-2.577,4.356-3.492,6.218c-1.383,2.817-1.911,4.709-2.709,7.573
			c-1.521,5.454-3.413,12.233-11,25.691c-3.124,5.545-7.286,9.826-12.405,12.773c-3.233,8.169-8.673,23.206-11.612,38.564
			c-4.881,25.502-9.98,35.914-10.546,37.018l-2.637-1.136c-0.726,1.732-1.499,3.478-2.325,5.231
			c-1.358,2.885-2.567,5.461-3.653,7.774c-7.454,15.883-9.457,20.151-14.128,26.688c-2.994,4.192-7.169,8.808-10.356,12.146
			l-6.634,63.745l-134.099,88.877L-710.565,751.152z"/>
		<path fill="#FFFFFF" d="M-360.27,259.89c-28.99-66.297-70.099-105.505-104.792-132.594
			c-34.693-27.089-121.782-56.673-170.317-27.148c0,0-37.01-4.337-96.535,55.188c-43.242,43.242-52.999,72.308-55.103,84.977
			c-25.37,49.75-41.957,115.56-31.571,166.726c12.119,59.703,12.772,71.703,14.198,86.079c0.412,4.156,1.611,8.092,3.104,11.59
			c1.731,5.968,4.749,14.367,9.493,21.446c1.482,2.212,2.762,4.269,4,6.258c3.594,5.774,6.681,10.719,11.754,14.18
			c1.609,7.434,5.382,20.412,13.412,34.209c12.146,20.871,12.469,28.108,12.475,28.655c-0.006-0.741-0.184-12.421-5.703-24.699
			c0,0,7.901,9.352,7.069,34.54c-0.832,25.188,1.663,35.762,7.01,48.832c5.347,13.069,8.198,16.158,8.198,16.158
			s-6.178-9.743-7.96-19.723c-1.718-9.622-1.78-9.967-1.782-9.98c0.002,0.014,3.092,17.112,11.881,25.9
			c6.236,6.236,13.842,4.762,17.74,3.377l12.118,61.187l123.193,79.456l124.715-82.658l6.505-62.5
			c2.664-2.69,8.279-8.538,11.807-13.476c4.753-6.653,6.297-10.455,16.871-32.911c6.337-13.456,9.386-26.523,10.814-34.84
			c-0.11,1.226-0.229,2.607-0.359,4.186c-1.188,14.495-5.346,26.257-5.346,26.257s4.871-9.505,9.624-34.337
			c3.534-18.463,10.336-36.119,13.595-43.966c4.464-1.805,8.523-5.062,11.533-10.403c6.993-12.405,8.632-18.281,10.078-23.465
			c0.846-3.034,1.577-5.654,3.367-9.299c1.078-2.194,2.429-4.479,3.859-6.897c4.51-7.627,9.989-16.914,11.792-31.21
			c3.833-7.616,7.46-17.547,9.459-30.047C-334.488,404.009-331.28,326.187-360.27,259.89z M-748.191,176.484
			c28.871-32.079,48.238-42.891,48.238-42.891s-41.287,32.495-73.723,83.287c-2.345,3.672-4.643,7.511-6.895,11.467
			C-774.527,214.143-764.187,194.257-748.191,176.484z"/>
		<polygon fill="#FFFFFF" points="-760.151,609.455 -740.151,609.455 -760.151,609.494 		"/>
		<path fill="#FFFFFF" d="M-750.151,609.455c0,0.025,0,0.038,0,0.038S-750.151,609.478-750.151,609.455z"/>
	</g>
</g>
<g id="Color">
	<path fill="#FFFFFF" d="M207.592,448.296c0,0,2.673,27.594,5.881,48.148c3.208,20.554,20.368,42.936,24.963,47.531
		c4.595,4.595,15.671,16.063,15.671,16.063l20.317,28.96c0,0-5.857,4.808,8.733,31.901c14.59,27.092,14.436,43.129,14.436,43.129
		l11.725,51.406l5.502,27.782l121.248,77.703l120.43-80.329l9.985-77.442c0,0,20.712-53.98,30.624-84.308
		c9.912-30.329,21.238-30.149,21.238-30.149s6.099,2.169,18.04-20.643s9.802-24.309,17.822-37.194
		c8.02-12.885,9.089-39.043,9.089-39.043s-132.972-217.91-194.031-256.599s-102.643-37.263-166.682,17.866
		S207.592,448.296,207.592,448.296z"/>
	<path fill="#E4E3EA" d="M408.467,199.31c0,0,21.708,35.624-1.498,97.899c-23.206,62.275-23.279,66.121-23.279,66.121
		s41.684,0.407,80.714-1.467c39.03-1.874,54.757-5.439,54.757-5.439l34.114,5.439c0,0-38.02,7.274-50.614,14.611
		c-12.594,7.337-3.208,19.099-3.683,19.099s17.497-2.673,34.798,0.713s21.875,12.119,27.34,16.812
		c5.465,4.693,5.465,4.693,5.465,4.693s-24.653,2.139-38.257,2.851c-13.604,0.713-31.307-2.198-31.307-2.198
		s13.188,4.099,24.832,6.059s18.832,1.842,18.832,1.842s-10.158,1.723-14.614,3.089s-31.307-7.96-36.951-8.436
		c-5.644-0.475-12.713,2.198-12.713,2.198s-6.416,16.772-0.475,28.614s30.772,19.089,52.396,19.564
		c21.624,0.475,34.812-1.663,34.812-1.663s-25.545,7.723-33.149,11.406c-7.604,3.683-49.307-6.98-50.495-6.98
		c-1.188,0-11.042-9.059-16.808-19.99c-5.766-10.931-10.756-49.96-19.133-58.337c-8.376-8.376-19.426-5.703-21.564,0
		c-2.139,5.703-16.04,50.495-24.951,61.782s-25.782,16.515-51.802,15.564c-26.02-0.951-39.208-6.416-39.208-6.416
		s16.396,1.069,22.574-2.614c6.178-3.683,31.129-3.564,45.386-10.337c14.257-6.772,15.446-31.485,15.446-33.386
		c0-1.901-36.59,9.891-36.59,9.891s4.808-3.564,6.412-6.149c1.604-2.584,13.99-5.168,14.703-5.881
		c0.713-0.713-16.307,2.317-33.683,2.317c-17.376,0-38.451-11.005-39.119-11.673c-0.668-0.668-2.228-0.79-2.228-0.79
		s26.465-11.596,36.446-14.359c9.98-2.762,34.842-0.267,36.178-0.267c1.337,0-5.168-20.317-22.188-26.198
		s-29.495-5.433-29.495-5.433s-18.535,19.69-32.614,53.551c-14.079,33.861-11.941,96.594-10.693,107.644
		s17.611,78.259,40.871,114.416c23.26,36.157,46.812,43.01,80.317,36.832s44.198-3.564,63.921,5.465
		c19.723,9.03,56.827-12.345,70.473-22.212c13.646-9.867,37.765-36.362,37.765-36.362s-19.129,13.531-49.069,58.204
		c-29.941,44.673-85.01,62.627-118.99,52.172c-33.98-10.456-104.32-59.17-104.32-59.17s-8.539-32.932-9.294-33.687
		c-0.755-0.755-23.534-86.874-23.534-86.874l-9.764-74.051c0,0-34.616-151.779,29.465-239.525S408.467,199.31,408.467,199.31z"/>
	<path fill="#E4E3EA" d="M462.684,265.273c0,0,29.703,55.72,51.798,79.48c22.095,23.76,47.762,22.899,66.475,44.82
		c18.713,21.921,19.069,63.149,12.475,92.614s-20.495,68.973-23.525,103.397c-3.03,34.424-24.951,54.028-42.238,71.316
		c-17.287,17.287-22.42,22.501-21.547,22.501s58.259-50.66,67.527-62.779c9.267-12.119,19.663-69.683,19.663-69.683l11.644-42.535
		c0,0,40.234-119.428,12.238-172.753S468.688,250.39,462.684,265.273z"/>
	<path fill="#E4E3EA" d="M478.926,578.969c0,0,9.893-10.312,23.259-6.914c13.366,3.398,15.505,2.151,15.505,2.151
		s-12.074,13.055-13.812,14.792c-1.738,1.738-26.465-6.891-27.267-6.891S478.926,578.969,478.926,578.969z"/>
	<path fill="#E4E3EA" d="M371.153,574.399c0,0-15.937-11.658-21.403-7.856c-5.465,3.802-6.535,3.547-6.535,3.547
		s4.752,12.136,7.129,14.512c2.376,2.376,22.84-7.737,25.307-8.911c2.467-1.174,3.544-1.272,3.544-1.272L371.153,574.399z"/>
	<path fill="#E4E3EA" d="M418.661,593.87c0,0-24.832,5.347-29.347,14.733c-4.515,9.386-9.624,11.644-9.624,11.644
		s27.372-4.871,51.49-2.257c24.119,2.614,39.854,4.692,39.854,4.692s-7.701-16.81-26.948-23.583S418.661,593.87,418.661,593.87z"/>
	<path fill="#E4E3EA" d="M386.76,470.306c0,0-10.693,13.274-11.584,21.37s14.554-1.469,17.465-1.825
		c2.911-0.356,17.406,0.951,23.287,5.361c0,0-7.931-5.035-7.396-16.173c0,0,3.066,15.149,26.127,13.99
		c23.061-1.158,20.477-21.03,20.477-21.03s3.743,10.693,1.248,16.04c-2.495,5.347,10.782-0.356,18.446,4.455
		c7.663,4.812,9.61-4.967,8.198-9.178c-1.412-4.211-8.822-12.119-8.822-12.119s14.97,5.792,16.842,21.119
		c1.871,15.327-9.267,23.079-15.148,26.198c-5.881,3.119-27.178,1.515-34.396,4.99c-7.218,3.475-14.792-0.446-17.911-2.584
		s-24.594-5.079-34.485-5.079s-18.446-7.983-18.446-21.724C370.661,480.375,381.918,473.514,386.76,470.306z"/>
	<path fill="#E4E3EA" d="M430.186,529.474c0,0-2.495,6.059-1.871,10.337c0.624,4.277,7.129,2.317,7.129,2.317
		s-0.535,4.01-5.614,3.297c-5.079-0.713-4.099-8.287-4.099-8.733S429.072,530.588,430.186,529.474z"/>
	<path fill="#CBCBDB" d="M486.413,363.33c0,0-24.594,19.025-29.049,24.282c-4.455,5.257-0.267,43.931,6.594,61.752
		s21.386,23.436,21.386,23.436s22.545,4.366,33.683,3.832c11.139-0.535,20.228-4.545,20.228-4.545s-37.693-2.495-51.951-7.129
		c-14.257-4.634-16.752-29.049-14.881-39.208c1.871-10.158,15.267-8.079,15.267-8.079s26.911,2.332,41.644,2.332
		s29.168-8.273,29.168-8.273s-8.198-9.327-26.317-13.069c-18.119-3.743-33.564-1.426-36.059-1.426
		c-2.495,0-1.027-22.337,5.406-30.297L486.413,363.33z"/>
	<path fill="#CBCBDB" d="M380.166,361.668c0.438,0.438,24.089,23.984,30.238,32.717c6.148,8.733,2.762,22.455,2.762,22.455
		s-9,38.762-25.396,47.584c-16.396,8.822-39.564,5.079-45.98,4.455c-6.416-0.624-10.96-0.576-10.96-0.576s20.317-2.721,27.356-6.196
		c7.04-3.475,21.832-3.297,29.139-19.069c7.307-15.772,2.941-26.051,2.941-27.105s-25.389,1.619-37.422,3.58
		c-12.033,1.96-35.113-4.74-40.727-7.538c-5.614-2.798-10.426-3.856-10.426-3.856s24.43-12.111,32.576-14.037
		s35.859,0.391,42.988-0.679c7.129-1.069-21.653-34.129-21.653-34.129L380.166,361.668z"/>
	<path fill="#CBCBDB" d="M384.535,471.783c0,0-7.221,7.612-9.181,16.701c-1.96,9.089,3.416,10.485,3.624,10.277
		s11.465-7.307,17.584-8.02c6.119-0.713,14.673,4.455,21.921,9.327c7.248,4.871,13.188,8.525,22.931,3.163
		c9.743-5.361,14.198-9.876,22.812-9.876s11.406,3.55,13.96,4.24c2.554,0.69,7.723-6.513,7.723-8.763
		c0-2.25-9.992-15.732-9.992-15.732s14.091,5.106,14.626,19.304c0.535,14.198-6.713,22.634-16.337,25.782
		c-9.624,3.148-10.752-3.208-20.139-2.614c-9.386,0.594-11.013,3.624-19.408,3.921c-8.394,0.297-14.513-5.822-17.84-5.822
		c-3.327,0-22.752,3.734-33.03,0.828s-14.614-14.058-12.594-25.413S384.535,471.783,384.535,471.783z"/>
	<path fill="#E4E3EA" d="M223.631,468.82c0,0-3.505-4.099-6.653-4.099s-4.218,11.881-4.218,11.881s2.198,21.802,6.059,29.762
		s8.198,10.455,8.198,10.455s-2.376-5.406-1.545-8.852c0.832-3.446-1.901-9.505-1.545-11.525c0.356-2.02,4.455,8.792,6.059,12.832
		s8.139,5.228,13.782,7.545s8.614,5.049,8.614,5.049s-1.366-6.238-6.119-10.337c-4.752-4.099-1.248-10.99-1.248-11.465
		S223.631,468.82,223.631,468.82z"/>
	<path fill="#E4E3EA" d="M654.918,465.85c0,0.624-0.267,15.839-7.307,28.904s-10.693,15.65-10.693,15.65s2.228-3.832,1.782-5.703
		c-0.446-1.871,2.317-7.663,2.317-8.465s-5.881,7.129-5.881,7.129s3.297,6.951-3.297,14.792c-6.594,7.842-19.782,6.505-19.782,6.505
		s7.722-3.128,10.871-10.426c3.149-7.297,1.337-14.703,1.337-14.703s17.287-26.02,23.436-32.168
		C653.849,461.217,654.918,465.85,654.918,465.85z"/>
	<path fill="#CDCDCD" d="M495.501,578.221c0,0-31.31,20.51-49.07,21.79c-12.28,0.89-26.88,0.06-38.18-1.92
		c-5.03-0.88-9.41-1.99-12.64-3.27c-10.46-4.16-33.06-20.17-33.06-20.17s25.75-22.1,38.59-26.02c12.83-3.92,22.54,0.54,23.25,0.54
		c0.72,0,7.26,3.38,7.26,3.38s0,0,0.01,0c0.23-0.14,7.74-4.36,16.08-4.36c8.46,0,18.58,4.76,19.87,6.06
		C468.901,555.541,495.501,578.221,495.501,578.221z"/>
	<path fill="#ACACAC" d="M492.031,579.111c0,0-2.59,0.71-6.15,1.87c-3.57,1.16-9.98-0.8-19.52-2.67
		c-9.53-1.88-20.67-1.16-28.78,0.53c-8.11,1.69-12.03,0.98-24.42-1.07c-12.38-2.05-34.21-0.45-29.76,2.53
		c4.46,2.97,10.16,7.81,14.88,12.53c1.98,1.97,5.98,3.8,9.97,5.26c-5.03-0.88-9.41-1.99-12.64-3.27
		c-10.46-4.16-33.06-20.17-33.06-20.17s25.75-22.1,38.59-26.02c12.83-3.92,22.54,0.54,23.25,0.54c0.72,0,7.26,3.38,7.26,3.38
		s0,0,0.01,0c-0.71,6.06-1.59,14.49-1.11,14.97c0.76,0.76,33.76-0.89,36.88,1.43C470.551,571.271,492.031,579.111,492.031,579.111z"
		/>
	<path fill="#FFFFFF" d="M489.621,412.228c0,0-2.347-4.358,15.594-10.477c17.941-6.119,35.822,3.683,37.01,4.871
		c1.188,1.188,0.475,4.515,0.475,4.515s-5.376,3.653-14.852,4.604c-9.475,0.951-19.99-2.673-27.03-2.228
		c-7.04,0.446-10.604,0.535-11.525,0.238C488.374,413.454,489.621,412.228,489.621,412.228z"/>
	<path fill="#FFFFFF" d="M379.097,407.751c0,0-3.624-5.584-24-9.743c-20.376-4.158-32.198,6.361-32.198,7.589s5.584,4.47,5.584,4.47
		s4.396,3.505,15.564,3.208c11.168-0.297,14.079-2.97,22.099-2.495c8.02,0.475,10.931,0.416,11.525-0.178
		C378.265,410.009,379.097,407.751,379.097,407.751z"/>
	<g>
		<defs>
			<path id="SVGID_1_" d="M379.097,407.751c0,0-3.624-5.584-24-9.743c-20.376-4.158-32.198,6.361-32.198,7.589
				s5.584,4.47,5.584,4.47s4.396,3.505,15.564,3.208c11.168-0.297,14.079-2.97,22.099-2.495c8.02,0.475,10.931,0.416,11.525-0.178
				C378.265,410.009,379.097,407.751,379.097,407.751z"/>
		</defs>
		<clipPath id="SVGID_2_">
			<use xlink:href="#SVGID_1_"  overflow="visible"/>
		</clipPath>
		<g clip-path="url(#SVGID_2_)">
			<circle fill="#1D1C4E" cx="349.408" cy="403.875" r="12.609"/>
			<circle fill="#2E2E68" cx="349.408" cy="403.875" r="10.739"/>
			<circle fill="#1D1C4E" cx="349.408" cy="403.875" r="5.087"/>
			<circle fill="#FFFFFF" cx="345.257" cy="402.306" r="2.629"/>
		</g>
	</g>
	<g>
		<defs>
			<path id="SVGID_3_" d="M489.621,412.228c0,0-2.347-4.358,15.594-10.477c17.941-6.119,35.822,3.683,37.01,4.871
				c1.188,1.188,0.475,4.515,0.475,4.515s-5.376,3.653-14.852,4.604c-9.475,0.951-19.99-2.673-27.03-2.228
				c-7.04,0.446-10.604,0.535-11.525,0.238C488.374,413.454,489.621,412.228,489.621,412.228z"/>
		</defs>
		<clipPath id="SVGID_4_">
			<use xlink:href="#SVGID_3_"  overflow="visible"/>
		</clipPath>
		<g clip-path="url(#SVGID_4_)">
			<circle fill="#1D1C4E" cx="517.297" cy="406.112" r="12.609"/>
			<circle fill="#2E2E68" cx="517.297" cy="406.112" r="10.739"/>
			<circle fill="#1D1C4E" cx="517.297" cy="406.112" r="5.087"/>
			<circle fill="#FFFFFF" cx="513.146" cy="404.543" r="2.629"/>
		</g>
	</g>
	<path fill="#E4E3EA" d="M409.156,229.474c0,0,7.046,67.485,25.503,96.238c18.457,28.752,44.8,36.152,44.8,36.152
		s-23.135-12.983-34.541-32.944c-11.406-19.96-12.119-24.832-12.119-24.832s8.064,27.866,27.676,40.665
		c19.612,12.8,38.248,14.582,38.248,14.582l10.829-7.248c0,0-18.416-13.426-29.822-34.455
		c-11.406-21.03-13.901-25.426-13.901-25.426s8.198,17.703,21.861,31.366c13.663,13.663,18.416,17.822,18.416,17.822
		s-24.104-23.053-33.082-57.625c-8.977-34.573-16.997-113.464-37.581-119.642C414.859,157.949,396.324,199.771,409.156,229.474z"/>
	<path fill="#CBCBDB" d="M360.146,685.077c0,0,20.02,2.892,43.663-4.474c23.644-7.366,39.921-1.201,39.921-1.201
		s5.822,10.112,22.099,11.895c16.277,1.782,26.376-2.733,26.376-2.733s-27.802,19.606-58.099,19.606
		S363.889,695.373,360.146,685.077z"/>
	<path fill="#DDDDDD" d="M431.651,580.89c0,0,9.317-0.713,17.604-1.96c8.287-1.247,19.426,0,19.426,0s-5.866,2.629-6.416,3.178
		s-13.099,1.366-18.713,1.366S431.651,580.89,431.651,580.89z"/>
	<path fill="#FFFFFF" d="M-806.111,448.296c0,0,2.673,27.594,5.881,48.148c3.208,20.554,20.368,42.936,24.963,47.531
		c4.595,4.595,15.671,16.063,15.671,16.063l20.317,28.96c0,0-5.857,4.808,8.733,31.901c14.589,27.092,14.436,43.129,14.436,43.129
		l11.725,51.406l5.502,27.782l121.248,77.703l120.43-80.329l9.985-77.442c0,0,20.712-53.98,30.624-84.308
		c9.912-30.329,21.238-30.149,21.238-30.149s6.099,2.169,18.04-20.643s9.802-24.309,17.822-37.194
		c8.02-12.885,9.089-39.043,9.089-39.043s-132.972-217.91-194.031-256.599s-102.643-37.263-166.682,17.866
		S-806.111,448.296-806.111,448.296z"/>
	<path fill="#E4E3EA" d="M-605.236,199.31c0,0,21.708,35.624-1.498,97.899s-23.279,66.121-23.279,66.121s41.684,0.407,80.714-1.467
		c39.03-1.874,54.757-5.439,54.757-5.439l34.114,5.439c0,0-38.02,7.274-50.614,14.611c-12.594,7.337-3.208,19.099-3.683,19.099
		c-0.475,0,17.497-2.673,34.798,0.713s21.875,12.119,27.34,16.812c5.465,4.693,5.465,4.693,5.465,4.693s-24.653,2.139-38.257,2.851
		c-13.604,0.713-31.307-2.198-31.307-2.198s13.188,4.099,24.832,6.059c11.644,1.96,18.832,1.842,18.832,1.842
		s-10.158,1.723-14.614,3.089s-31.307-7.96-36.95-8.436c-5.644-0.475-12.713,2.198-12.713,2.198s-6.416,16.772-0.475,28.614
		c5.941,11.842,30.772,19.089,52.396,19.564c21.624,0.475,34.812-1.663,34.812-1.663s-25.545,7.723-33.148,11.406
		c-7.604,3.683-49.307-6.98-50.495-6.98s-11.042-9.059-16.808-19.99s-10.756-49.96-19.133-58.337
		c-8.376-8.376-19.426-5.703-21.564,0c-2.139,5.703-16.04,50.495-24.951,61.782s-25.782,16.515-51.802,15.564
		c-26.02-0.951-39.208-6.416-39.208-6.416s16.396,1.069,22.574-2.614s31.129-3.564,45.386-10.337
		c14.257-6.772,15.446-31.485,15.446-33.386c0-1.901-36.59,9.891-36.59,9.891s4.808-3.564,6.412-6.149
		c1.604-2.584,13.99-5.168,14.703-5.881c0.713-0.713-16.307,2.317-33.683,2.317s-38.451-11.005-39.119-11.673
		c-0.668-0.668-2.228-0.79-2.228-0.79s26.465-11.596,36.446-14.359c9.98-2.762,34.842-0.267,36.178-0.267
		c1.337,0-5.168-20.317-22.188-26.198c-17.02-5.881-29.495-5.433-29.495-5.433s-18.535,19.69-32.614,53.551
		c-14.079,33.861-11.941,96.594-10.693,107.644c1.248,11.049,17.611,78.259,40.871,114.416c23.26,36.157,46.812,43.01,80.317,36.832
		c33.505-6.178,44.198-3.564,63.921,5.465s56.827-12.345,70.473-22.212c13.646-9.867,37.765-36.362,37.765-36.362
		s-19.129,13.531-49.069,58.204s-85.01,62.627-118.99,52.172c-33.98-10.456-104.32-59.17-104.32-59.17s-8.539-32.932-9.294-33.687
		c-0.755-0.755-23.534-86.874-23.534-86.874l-9.764-74.051c0,0-34.616-151.779,29.465-239.525S-605.236,199.31-605.236,199.31z"/>
	<path fill="#E4E3EA" d="M-551.018,265.273c0,0,29.703,55.72,51.798,79.48c22.095,23.76,47.762,22.899,66.475,44.82
		c18.713,21.921,19.069,63.149,12.475,92.614s-20.495,68.973-23.525,103.397s-24.951,54.028-42.238,71.316
		c-17.287,17.287-22.42,22.501-21.547,22.501s58.259-50.66,67.527-62.779c9.267-12.119,19.663-69.683,19.663-69.683l11.644-42.535
		c0,0,40.234-119.428,12.238-172.753C-424.504,278.328-545.015,250.39-551.018,265.273z"/>
	<path fill="#E4E3EA" d="M-534.777,578.969c0,0,9.893-10.312,23.259-6.914c13.366,3.398,15.505,2.151,15.505,2.151
		s-12.074,13.055-13.812,14.792c-1.738,1.738-26.465-6.891-27.267-6.891C-537.894,582.108-534.777,578.969-534.777,578.969z"/>
	<path fill="#E4E3EA" d="M-642.55,574.399c0,0-15.937-11.658-21.403-7.856c-5.465,3.802-6.535,3.547-6.535,3.547
		s4.752,12.136,7.129,14.512c2.376,2.376,22.84-7.737,25.307-8.911c2.467-1.174,3.544-1.272,3.544-1.272L-642.55,574.399z"/>
	<path fill="#E4E3EA" d="M-595.042,593.87c0,0-24.832,5.347-29.347,14.733c-4.515,9.386-9.624,11.644-9.624,11.644
		s27.372-4.871,51.49-2.257c24.119,2.614,39.854,4.692,39.854,4.692s-7.701-16.81-26.948-23.583S-595.042,593.87-595.042,593.87z"/>
	<path fill="#E4E3EA" d="M-626.943,470.306c0,0-10.693,13.274-11.584,21.37s14.554-1.469,17.465-1.825
		c2.911-0.356,17.406,0.951,23.287,5.361c0,0-7.931-5.035-7.396-16.173c0,0,3.066,15.149,26.127,13.99s20.477-21.03,20.477-21.03
		s3.743,10.693,1.248,16.04c-2.495,5.347,10.782-0.356,18.445,4.455c7.663,4.812,9.61-4.967,8.198-9.178
		c-1.412-4.211-8.822-12.119-8.822-12.119s14.97,5.792,16.842,21.119c1.871,15.327-9.267,23.079-15.148,26.198
		c-5.881,3.119-27.178,1.515-34.396,4.99s-14.792-0.446-17.911-2.584s-24.594-5.079-34.485-5.079
		c-9.891,0-18.445-7.983-18.445-21.724C-643.042,480.375-631.785,473.514-626.943,470.306z"/>
	<path fill="#E4E3EA" d="M-583.517,529.474c0,0-2.495,6.059-1.871,10.337s7.129,2.317,7.129,2.317s-0.535,4.01-5.614,3.297
		c-5.079-0.713-4.099-8.287-4.099-8.733S-584.631,530.588-583.517,529.474z"/>
	<path fill="#CBCBDB" d="M-527.29,363.33c0,0-24.594,19.025-29.049,24.282c-4.455,5.257-0.267,43.931,6.594,61.752
		s21.386,23.436,21.386,23.436s22.545,4.366,33.683,3.832c11.139-0.535,20.228-4.545,20.228-4.545s-37.693-2.495-51.95-7.129
		c-14.257-4.634-16.753-29.049-14.881-39.208c1.871-10.158,15.267-8.079,15.267-8.079s26.911,2.332,41.644,2.332
		s29.168-8.273,29.168-8.273s-8.198-9.327-26.317-13.069c-18.119-3.743-33.564-1.426-36.059-1.426s-1.027-22.337,5.406-30.297
		L-527.29,363.33z"/>
	<path fill="#CBCBDB" d="M-633.537,361.668c0.438,0.438,24.089,23.984,30.238,32.717c6.148,8.733,2.762,22.455,2.762,22.455
		s-9,38.762-25.396,47.584c-16.396,8.822-39.564,5.079-45.98,4.455c-6.416-0.624-10.96-0.576-10.96-0.576s20.317-2.721,27.356-6.196
		c7.04-3.475,21.832-3.297,29.139-19.069c7.307-15.772,2.941-26.051,2.941-27.105s-25.389,1.619-37.422,3.58
		c-12.033,1.96-35.113-4.74-40.727-7.538c-5.614-2.798-10.426-3.856-10.426-3.856s24.43-12.111,32.576-14.037
		c8.146-1.926,35.859,0.391,42.988-0.679s-21.654-34.129-21.654-34.129L-633.537,361.668z"/>
	<path fill="#CBCBDB" d="M-629.168,471.783c0,0-7.221,7.612-9.181,16.701s3.416,10.485,3.624,10.277
		c0.208-0.208,11.465-7.307,17.584-8.02c6.119-0.713,14.673,4.455,21.921,9.327c7.247,4.871,13.188,8.525,22.931,3.163
		c9.743-5.361,14.198-9.876,22.812-9.876c8.614,0,11.406,3.55,13.96,4.24s7.723-6.513,7.723-8.763c0-2.25-9.992-15.732-9.992-15.732
		s14.091,5.106,14.626,19.304c0.535,14.198-6.713,22.634-16.337,25.782c-9.624,3.148-10.753-3.208-20.139-2.614
		c-9.386,0.594-11.013,3.624-19.408,3.921c-8.394,0.297-14.513-5.822-17.84-5.822s-22.752,3.734-33.03,0.828
		c-10.277-2.907-14.614-14.058-12.594-25.413C-640.488,477.731-629.168,471.783-629.168,471.783z"/>
	<path fill="#E4E3EA" d="M-790.072,468.82c0,0-3.505-4.099-6.653-4.099c-3.149,0-4.218,11.881-4.218,11.881
		s2.198,21.802,6.059,29.762s8.198,10.455,8.198,10.455s-2.376-5.406-1.545-8.852c0.832-3.446-1.901-9.505-1.545-11.525
		c0.356-2.02,4.456,8.792,6.059,12.832s8.139,5.228,13.782,7.545s8.614,5.049,8.614,5.049s-1.366-6.238-6.119-10.337
		c-4.753-4.099-1.248-10.99-1.248-11.465S-790.072,468.82-790.072,468.82z"/>
	<path fill="#E4E3EA" d="M-358.785,465.85c0,0.624-0.267,15.839-7.307,28.904s-10.693,15.65-10.693,15.65s2.228-3.832,1.782-5.703
		c-0.446-1.871,2.317-7.663,2.317-8.465s-5.881,7.129-5.881,7.129s3.297,6.951-3.297,14.792c-6.594,7.842-19.782,6.505-19.782,6.505
		s7.722-3.128,10.871-10.426c3.149-7.297,1.337-14.703,1.337-14.703s17.287-26.02,23.436-32.168
		C-359.854,461.217-358.785,465.85-358.785,465.85z"/>
	<path fill="#CDCDCD" d="M-518.202,578.221c0,0-31.31,20.51-49.07,21.79c-12.28,0.89-26.88,0.06-38.18-1.92
		c-5.03-0.88-9.41-1.99-12.64-3.27c-10.46-4.16-33.06-20.17-33.06-20.17s25.75-22.1,38.59-26.02c12.83-3.92,22.54,0.54,23.25,0.54
		c0.72,0,7.26,3.38,7.26,3.38s0,0,0.01,0c0.23-0.14,7.74-4.36,16.08-4.36c8.46,0,18.58,4.76,19.87,6.06
		C-544.802,555.541-518.202,578.221-518.202,578.221z"/>
	<path fill="#ACACAC" d="M-521.672,579.111c0,0-2.59,0.71-6.15,1.87c-3.57,1.16-9.98-0.8-19.52-2.67
		c-9.53-1.88-20.67-1.16-28.78,0.53c-8.11,1.69-12.03,0.98-24.42-1.07c-12.38-2.05-34.21-0.45-29.76,2.53
		c4.46,2.97,10.16,7.81,14.88,12.53c1.98,1.97,5.98,3.8,9.97,5.26c-5.03-0.88-9.41-1.99-12.64-3.27
		c-10.46-4.16-33.06-20.17-33.06-20.17s25.75-22.1,38.59-26.02c12.83-3.92,22.54,0.54,23.25,0.54c0.72,0,7.26,3.38,7.26,3.38
		s0,0,0.01,0c-0.71,6.06-1.59,14.49-1.11,14.97c0.76,0.76,33.76-0.89,36.88,1.43C-543.152,571.271-521.672,579.111-521.672,579.111z
		"/>
	<path fill="#FFFFFF" d="M-524.082,412.228c0,0-2.347-4.358,15.594-10.477c17.941-6.119,35.822,3.683,37.01,4.871
		s0.475,4.515,0.475,4.515s-5.376,3.653-14.851,4.604c-9.475,0.951-19.99-2.673-27.03-2.228c-7.04,0.446-10.604,0.535-11.525,0.238
		C-525.329,413.454-524.082,412.228-524.082,412.228z"/>
	<path fill="#FFFFFF" d="M-634.606,407.751c0,0-3.624-5.584-24-9.743s-32.198,6.361-32.198,7.589s5.584,4.47,5.584,4.47
		s4.396,3.505,15.564,3.208s14.079-2.97,22.099-2.495c8.02,0.475,10.931,0.416,11.525-0.178S-634.606,407.751-634.606,407.751z"/>
	<g>
		<defs>
			<path id="SVGID_5_" d="M-634.606,407.751c0,0-3.624-5.584-24-9.743s-32.198,6.361-32.198,7.589s5.584,4.47,5.584,4.47
				s4.396,3.505,15.564,3.208s14.079-2.97,22.099-2.495c8.02,0.475,10.931,0.416,11.525-0.178S-634.606,407.751-634.606,407.751z"/>
		</defs>
		<clipPath id="SVGID_6_">
			<use xlink:href="#SVGID_5_"  overflow="visible"/>
		</clipPath>
		<g clip-path="url(#SVGID_6_)">
			<circle fill="#1D1C4E" cx="-664.295" cy="403.875" r="12.609"/>
			<circle fill="#2E2E68" cx="-664.295" cy="403.875" r="10.739"/>
			<circle fill="#1D1C4E" cx="-664.295" cy="403.875" r="5.087"/>
			<circle fill="#FFFFFF" cx="-668.445" cy="402.306" r="2.629"/>
		</g>
	</g>
	<g>
		<defs>
			<path id="SVGID_7_" d="M-524.082,412.228c0,0-2.347-4.358,15.594-10.477c17.941-6.119,35.822,3.683,37.01,4.871
				s0.475,4.515,0.475,4.515s-5.376,3.653-14.851,4.604c-9.475,0.951-19.99-2.673-27.03-2.228
				c-7.04,0.446-10.604,0.535-11.525,0.238C-525.329,413.454-524.082,412.228-524.082,412.228z"/>
		</defs>
		<clipPath id="SVGID_8_">
			<use xlink:href="#SVGID_7_"  overflow="visible"/>
		</clipPath>
		<g clip-path="url(#SVGID_8_)">
			<circle fill="#1D1C4E" cx="-496.406" cy="406.112" r="12.609"/>
			<circle fill="#2E2E68" cx="-496.406" cy="406.112" r="10.739"/>
			<circle fill="#1D1C4E" cx="-496.406" cy="406.112" r="5.087"/>
			<circle fill="#FFFFFF" cx="-500.557" cy="404.543" r="2.629"/>
		</g>
	</g>
	<path fill="#E4E3EA" d="M-604.547,229.474c0,0,7.046,67.485,25.503,96.238s44.8,36.152,44.8,36.152s-23.135-12.983-34.541-32.944
		c-11.406-19.96-12.119-24.832-12.119-24.832s8.064,27.866,27.676,40.665c19.612,12.8,38.248,14.582,38.248,14.582l10.829-7.248
		c0,0-18.416-13.426-29.822-34.455c-11.406-21.03-13.901-25.426-13.901-25.426s8.198,17.703,21.861,31.366
		c13.663,13.663,18.416,17.822,18.416,17.822s-24.104-23.053-33.082-57.625s-16.997-113.464-37.581-119.642
		C-598.844,157.949-617.379,199.771-604.547,229.474z"/>
	<path fill="#CBCBDB" d="M-653.557,685.077c0,0,20.02,2.892,43.663-4.474s39.921-1.201,39.921-1.201s5.822,10.112,22.099,11.895
		c16.277,1.782,26.376-2.733,26.376-2.733s-27.802,19.606-58.099,19.606C-609.894,708.169-649.814,695.373-653.557,685.077z"/>
	<path fill="#DDDDDD" d="M-582.052,580.89c0,0,9.317-0.713,17.604-1.96c8.287-1.247,19.426,0,19.426,0s-5.866,2.629-6.416,3.178
		s-13.099,1.366-18.713,1.366C-575.765,583.474-582.052,580.89-582.052,580.89z"/>
</g>
<g id="Outline">
	<path fill="#1D1C4E" d="M378.324,100.147c0,0-37.01-4.337-96.535,55.188s-55.604,92.198-55.604,92.198s10.455-38.97,39.327-71.05
		s48.238-42.891,48.238-42.891s-41.287,32.495-73.723,83.287s-57.03,130.455-44.911,190.158
		c12.119,59.703,12.772,71.703,14.198,86.079c1.426,14.376,12.238,26.139,12.238,26.139s-6.386-12.505-5.851-33.624
		c0.535-21.119-2.762-28.782-2.762-28.782s6.683,10.069,13.455,28.426s16.663,17.822,16.663,17.822s-11.049-4.901-14.97-18.624
		c0,0,0.267,7.218,10.604,13.812c10.337,6.594,10.515,9.624,15.416,17.109c4.901,7.485,9.089,8.644,9.089,8.644
		s1.604-34.248-2.317-54.802c-3.921-20.554,4.752-56.317,10.693-92.554c5.941-36.238,6.535-61.782,6.535-61.782
		s2.97,14.495,0,41.941c-2.97,27.446-16.752,40.158-16.752,40.158s17.822-19.248,21.267-43.366
		c3.446-24.119-0.594-34.218-0.594-34.218s6.416,18.535,6.416,38.257c0,19.723-3.295,25.901-3.295,25.901l10.899-17.347
		c0,0-6.653,14.139-9.386,19.129c-2.733,4.99-2.733,4.99-2.733,4.99s12.951-7.366,17.703-19.604
		c4.752-12.238,5.584-16.396,5.584-16.396s-4.04,17.941-6.535,24.119s-2.495,6.178-2.495,6.178s14.376,0.386,19.099-1.574
		c4.723-1.96,9-27.446,9-27.446l-0.98,24.772l2.139-12.921l2.941,15.505c0,0,9.386-2.614,11.465-12.653
		c2.079-10.04-2.02-25.723-2.02-25.723s4.634,16.04,4.634,24.713c0,8.673,0,8.673,0,8.673s3.564-9.802-1.604-42.594
		c-5.168-32.792-1.248-72.891,2.673-93.921c3.921-21.03,6.951-30.119,6.951-30.119s-7.663,34.574-8.911,69.683
		s2.139,46.337,2.139,46.337s-2.139-32.792,0.356-59.347s8.911-50.257,8.911-50.257s0.535,30.475-5.525,72
		s-8.376,51.148-8.376,51.148s3.03,9.921,3.03,13.604s0.713,11.287,0.713,11.287s13.366,1.396,14.792,1.396
		s16.663-30.386,16.663-30.386l-12.921,31.901c0,0,7.574,1.337,13.545-9.089c5.97-10.426,22.277-39.208,28.515-86.436
		c6.238-47.228,5.703-67.723,5.703-67.723s1.248,31.545-3.921,74.317c-5.168,42.772-14.97,59.881-14.97,59.881
		s10.158-12.297,17.465-57.208c7.307-44.911,5.347-53.109,5.347-53.109s3.921,39.03,12.475,70.218
		c8.554,31.188,24.416,43.842,24.416,43.842s-17.644-24.059-23.525-50.792s-5.881-26.733-5.881-26.733s8.733,35.465,24.238,61.129
		c15.505,25.663,32.97,30.832,32.97,30.832s-22.634-12.475-33.327-38.317c-10.693-25.842-13.723-37.069-13.723-37.069
		s5.525,31.901,36,58.99s46.455,21.327,46.455,21.327s-28.099-10.634-45.386-51.802s-28.337-65.941-28.337-65.941
		s15.505,39.94,33.683,67.019s18.178,27.08,18.178,27.08s-13.723-23.347-27.446-51.861c0,0,9.446,16.396,19.426,28.515
		c9.98,12.119,9.98,12.119,9.98,12.119s-7.485-7.485-19.247-35.822c-11.762-28.337-14.97-37.782-14.97-37.782
		s5.525,29.406,36.535,67.01s51.327,43.307,51.327,43.307s-25.842-14.436-43.663-39.386c-17.822-24.951-21.208-31.366-21.208-31.366
		s18.713,32.97,44.376,52.396c25.663,19.426,44.495,25.426,44.495,25.426s-21.98-10.812-37.307-24.713s-15.327-13.901-15.327-13.901
		s22.099,19.842,42.059,30.772s27.921,10.574,27.921,10.574s10.693,8.554,16.574,41.703c5.881,33.149,0.891,55.96-2.139,78.059
		s-8.02,40.099-8.02,40.099s14.851-10.99,31.247-29.762c16.396-18.772,19.723-35.168,19.723-35.168s-3.208,14.733-11.644,27.089
		c-8.436,12.356-19.723,14.97-19.723,14.97s15.921-4.752,26.852-19.248c10.931-14.495,16.158-26.733,16.158-26.733l-9.505,23.406
		c0,0,18.297-14.97,23.881-49.901c5.584-34.931,8.792-112.752-20.198-179.049s-70.099-105.505-104.792-132.594
		C513.948,100.207,426.859,70.622,378.324,100.147z"/>
	<path fill="#1D1C4E" d="M352.364,198.345c0,0,8.792,29.465-17.109,105.03c0,0,19.485-47.049,21.624-83.644
		S352.364,198.345,352.364,198.345z"/>
	<path fill="none" stroke="#1D1C4E" stroke-width="6" stroke-miterlimit="10" d="M213.473,496.444c0,0,2.97,16.158,10.931,28.04
		c7.96,11.881,10.574,19.96,22.812,23.049s17.822-2.257,17.822-2.257s4.602,52.437,23.109,79.366
		c18.46,26.861,83.941,74.495,100.693,78.416c35.258,8.252,55.129,5.584,80.554-1.426c25.426-7.01,85.188-62.733,100.871-82.455
		s25.426-74.376,25.426-74.376s25.723,13.188,36.772-6.416c11.049-19.604,8.376-22.455,13.366-32.614
		c4.99-10.158,14.792-20.852,15.861-42.772"/>
	<path fill="#1D1C4E" d="M236.641,540.167c-0.309-0.836,1.782,18.891,14.436,40.634c12.653,21.743,12.475,28.693,12.475,28.693
		s0-12.05-5.703-24.738c0,0,7.901,9.352,7.069,34.54c-0.832,25.188,1.663,35.762,7.01,48.832
		c5.347,13.069,8.198,16.158,8.198,16.158s-6.178-9.743-7.96-19.723c-1.782-9.98-1.782-9.98-1.782-9.98s3.089,17.109,11.881,25.901
		c8.792,8.792,20.317,2.257,20.317,2.257l-6.416-46.099c0,0-12.119-10.931-18.653-39.208c-6.535-28.277-14.58-50.782-14.58-50.782
		S243.77,559.415,236.641,540.167z"/>
	<path fill="#1D1C4E" d="M625.372,546.006c0,0-10.672,23.389-15.424,48.221c-4.752,24.832-9.624,34.337-9.624,34.337
		s4.158-11.762,5.346-26.257s1.545-13.188,1.545-13.188s-1.426,21.386-12,43.842c-10.574,22.455-12.119,26.257-16.871,32.911
		c-4.752,6.653-13.307,14.97-13.307,14.97l4.871-59.644c0,0,10.103-20.312,17.822-47.703c7.719-27.391,8.911-30.297,8.911-30.297
		S605.271,555.409,625.372,546.006z"/>
	<g>
		<path fill="#1D1C4E" d="M221.671,462.999c1.072,1,2.024,2.115,2.931,3.266c0.914,1.148,1.737,2.363,2.527,3.606
			c1.563,2.495,2.871,5.165,3.913,7.964c1.032,2.799,1.843,5.723,2.218,8.751c0.053,0.377,0.12,0.753,0.16,1.132l0.072,1.146
			c0.037,0.766,0.116,1.529,0.115,2.299l-0.074,2.314l-0.03,1.064l-0.018,0.944c-0.084,2.51,0.202,4.928,1.097,7.055
			c0.874,2.142,2.382,4.014,4.329,5.727c1.929,1.737,4.318,3.19,6.702,5.051c0.588,0.508,1.189,0.97,1.734,1.618l0.404,0.458
			l0.32,0.436l0.63,0.883c0.837,1.18,1.665,2.368,2.437,3.612c-1.244-0.772-2.433-1.6-3.612-2.437l-0.883-0.63l-0.436-0.32
			l-0.409-0.237c-0.5-0.328-1.134-0.599-1.733-0.875c-2.501-1.071-5.299-2.074-7.949-3.76c-2.645-1.638-5.154-4.059-6.688-7.116
			c-0.373-0.757-0.652-1.558-0.969-2.344c-0.251-0.798-0.421-1.613-0.625-2.424c-0.186-0.814-0.196-1.623-0.294-2.438
			c-0.111-0.821-0.072-1.611-0.051-2.407l0.096-2.267l0.106-1.96c0.036-0.654-0.005-1.316-0.002-1.975l-0.009-0.991l-0.069-0.994
			c-0.12-2.657-0.559-5.328-1.084-8.007C225.448,473.774,223.732,468.433,221.671,462.999z"/>
	</g>
	<g>
		<path fill="#1D1C4E" d="M227.968,473.989c-1.719-1.144-3.358-2.25-5.009-3.123c-0.816-0.437-1.637-0.808-2.401-1.041
			c-0.385-0.113-0.744-0.195-1.069-0.222c-0.164-0.02-0.312-0.014-0.448-0.004c-0.065,0.013-0.134,0.004-0.191,0.02l-0.085,0.017
			l-0.042,0.007c-0.023,0.001-0.031,0.005,0.027,0.01c0.298,0.028,0.683-0.129,0.822-0.231c0.151-0.096,0.171-0.108,0.177-0.065
			c-0.015,0.112-0.088,0.418-0.123,0.765c-0.068,0.711-0.12,1.573-0.094,2.451c0.011,0.88,0.041,1.792,0.113,2.709
			c0.047,0.919,0.124,1.848,0.219,2.779c0.348,3.731,0.809,7.51,1.337,11.291c0.26,1.894,0.548,3.788,0.876,5.693
			c0.327,1.914,0.703,3.807,1.256,5.797c-1.643-1.281-2.907-2.994-3.997-4.746c-1.077-1.77-1.947-3.643-2.685-5.554
			c-1.45-3.835-2.371-7.829-2.761-11.932c-0.177-2.057-0.247-4.134-0.051-6.301c0.117-1.085,0.251-2.191,0.62-3.399
			c0.191-0.609,0.412-1.251,0.864-2.007c0.251-0.383,0.556-0.803,1.08-1.223c0.51-0.424,1.374-0.786,2.165-0.77
			c0.519,0.022,0.8,0.076,1.179,0.164c0.349,0.089,0.684,0.196,0.988,0.326c0.616,0.256,1.172,0.551,1.655,0.9
			c0.981,0.678,1.767,1.462,2.467,2.277c0.686,0.829,1.293,1.684,1.804,2.594C227.176,472.074,227.638,472.999,227.968,473.989z"/>
	</g>
	<g>
		<path fill="#1D1C4E" d="M640.602,482.187c-2.527,3.425-4.036,7.026-5.066,10.643c-0.468,1.831-0.825,3.659-1.034,5.518
			c-0.11,0.926-0.156,1.867-0.234,2.795l-0.028,1.412l-0.046,1.484c-0.098,2.3-0.367,4.654-1.25,6.88
			c-0.362,1.128-0.959,2.178-1.534,3.211c-0.674,0.981-1.333,1.97-2.185,2.787c-3.248,3.402-7.728,5.229-12.028,5.072
			c3.608-2.256,6.507-4.931,8.33-8.001c0.234-0.378,0.478-0.744,0.641-1.158c0.183-0.401,0.398-0.777,0.568-1.176
			c0.26-0.841,0.644-1.606,0.791-2.477c0.081-0.429,0.253-0.823,0.302-1.263l0.179-1.304c0.028-0.217,0.083-0.428,0.101-0.649
			l0.026-0.671l0.063-1.339l0.173-3.254c0.174-1.106,0.276-2.217,0.538-3.309c0.276-1.09,0.514-2.182,0.938-3.23
			c0.34-1.068,0.85-2.081,1.332-3.087c1.065-1.976,2.379-3.811,3.962-5.356C636.726,484.191,638.54,482.866,640.602,482.187z"/>
	</g>
	<g>
		<path fill="#1D1C4E" d="M635.136,490.741c0.436-3.973,2.002-7.785,4.72-11.051c1.374-1.615,3.115-3.084,5.269-4.067
			c1.087-0.52,2.214-0.792,3.509-1.02c0.413-0.029,0.775-0.066,1.235-0.031c0.246,0.028,0.492,0.065,0.737,0.11
			c0.237,0.038,0.484,0.094,0.776,0.222c0.278,0.112,0.551,0.24,0.813,0.381c0.26,0.153,0.514,0.372,0.754,0.582
			c0.516,0.428,0.779,0.924,1.086,1.439c0.195,0.451,0.375,0.967,0.448,1.377c0.056,0.386,0.145,0.852,0.131,1.176
			c0.026,0.73-0.038,1.352-0.122,1.957c-0.204,1.18-0.509,2.2-0.861,3.196c-0.729,1.955-1.612,3.741-2.629,5.43
			c-2.037,3.366-4.426,6.454-7.431,9.09c0.843-3.891,2.032-7.497,3.131-11.031c0.546-1.762,1.085-3.496,1.489-5.158
			c0.184-0.819,0.378-1.633,0.431-2.333c0.029-0.335,0.053-0.659,0.033-0.877c0.012-0.152-0.038-0.149-0.03-0.233
			c-0.008-0.055-0.022,0.02,0.017,0.028c0.028,0.137,0.124,0.158,0.234,0.317c0.056,0.063,0.149,0.099,0.206,0.135
			c0.046,0.044,0.103,0.076,0.165,0.09c0.083,0.01,0.098,0.018,0.098,0.029c0.011,0.007,0.023,0.006,0.035-0.004
			c-0.01-0.009-0.124,0.019-0.183-0.004c-0.241,0.015-0.639,0.102-0.958,0.137c-0.342,0.022-0.666,0.202-1.015,0.268
			c-1.364,0.43-2.756,1.207-4.124,2.194C640.348,485.091,637.807,487.825,635.136,490.741z"/>
	</g>
	<polyline fill="none" stroke="#1D1C4E" stroke-width="6" stroke-miterlimit="10" points="292.454,630.29 314.819,743.217 
		435.295,820.919 557.196,740.127 569.908,617.989 	"/>
	<path fill="#1D1C4E" d="M476.998,376.474c0,0-1.158-17.733,11.584-26.465c0,0-2.166,0.446-5.806,12.208
		c0,0,3.934-9.624,9.994-14.436s45.446-2.851,54.535-1.158c9.089,1.693,30.475,14.436,35.109,20.139s8.168,17.287,8.168,17.287
		s-8.436-15.594-40.96-15.594c-32.525,0-44.554,0.891-55.426,3.119C483.324,373.801,476.998,376.474,476.998,376.474z"/>
	<path fill="#1D1C4E" d="M475.097,376.474c0,0-1.782-16.752,7.752-26.287C482.849,350.187,468.502,360.88,475.097,376.474z"/>
	<path fill="#1D1C4E" d="M475.298,376.858c0,0-5.27-14.731,0.841-25.364C476.138,351.494,466.13,364.198,475.298,376.858z"/>
	<path fill="#1D1C4E" d="M473.422,375.138c0,0-5.494-11.805-1.243-21.084C472.179,354.054,464.856,365.348,473.422,375.138z"/>
	<path fill="#1D1C4E" d="M506.196,413.677c0,0-6.809-1.551-10.96-1.233c-7.351,0.564-1.812-2.792-1.574-3.03
		c0.238-0.238,10.663-6.431,19.084-7.5c8.421-1.069,20.985,2.495,23.569,4.233c2.584,1.738,7.485,5.837,10.649,7.084
		c3.163,1.248,8.465-2.54,8.465-2.54s-9.356-5.168-12.431-6.728c-3.074-1.559-6.282-2.246-6.282-2.246s7.485,1.8,15.104,5.721
		c0,0-7.619-4.99-16.886-7.351s-25.396-3.208-35.733-1.337s-16.307,5.703-16.307,5.703s4.589-2.673,12.208-3.876
		c7.619-1.203,10.648-1.248,10.648-1.248s-9.802,5.124-14.748,7.975c-4.946,2.852-7.552,6.082-7.552,6.795
		c0,0.713,7.597,0.602,8.087,0.602C492.027,414.702,501.339,414.167,506.196,413.677z"/>
	<path fill="#1D1C4E" d="M541.572,408.33c0,0-3.743,4.455-10.515,6.149c-6.772,1.693-13.233,1.114-13.233,1.114
		s6.549,1.337,15.193-0.223s12.832-4.5,12.832-4.5L541.572,408.33z"/>
	<path fill="#1D1C4E" d="M493.498,408.509c0,0,1.225,1.092,1.649,2.139c0.423,1.047,0.312-2.228,0-2.74
		C494.834,407.395,493.498,408.509,493.498,408.509z"/>
	<path fill="#1D1C4E" d="M389.541,373.741c0,0,1.158-17.733-11.584-26.465c0,0,2.166,0.446,5.806,12.208
		c0,0-3.935-9.624-9.994-14.436c-6.059-4.812-45.446-2.852-54.535-1.158c-9.089,1.693-30.475,14.436-35.109,20.139
		c-4.634,5.703-8.168,17.287-8.168,17.287s8.436-15.594,40.96-15.594s44.554,0.891,55.426,3.119S389.541,373.741,389.541,373.741z"
		/>
	<path fill="#1D1C4E" d="M391.442,373.741c0,0,1.782-16.752-7.752-26.287C383.69,347.454,398.036,358.147,391.442,373.741z"/>
	<path fill="#1D1C4E" d="M391.241,374.125c0,0,5.27-14.731-0.841-25.364C390.4,348.761,400.409,361.466,391.241,374.125z"/>
	<path fill="#1D1C4E" d="M393.117,372.405c0,0,5.494-11.805,1.243-21.084C394.359,351.321,401.682,362.615,393.117,372.405z"/>
	<path fill="#1D1C4E" d="M360.343,410.944c0,0,6.809-1.551,10.96-1.233c7.352,0.564,1.812-2.792,1.574-3.03
		c-0.238-0.238-10.663-6.431-19.084-7.5c-8.421-1.069-20.985,2.495-23.569,4.233s-7.485,5.837-10.649,7.084
		c-3.163,1.248-8.465-2.54-8.465-2.54s9.356-5.168,12.431-6.728s6.282-2.246,6.282-2.246s-7.485,1.8-15.104,5.721
		c0,0,7.619-4.99,16.886-7.352c9.267-2.361,25.396-3.208,35.733-1.337c10.337,1.871,16.307,5.703,16.307,5.703
		s-4.589-2.673-12.208-3.876s-10.648-1.248-10.648-1.248s9.802,5.124,14.748,7.975c4.946,2.851,7.552,6.082,7.552,6.795
		s-7.597,0.601-8.087,0.601S365.199,411.434,360.343,410.944z"/>
	<path fill="#1D1C4E" d="M324.967,405.598c0,0,3.743,4.455,10.515,6.149c6.772,1.693,13.233,1.114,13.233,1.114
		s-6.549,1.337-15.193-0.223c-8.644-1.559-12.832-4.5-12.832-4.5L324.967,405.598z"/>
	<path fill="#1D1C4E" d="M373.041,405.776c0,0-1.225,1.092-1.649,2.139c-0.423,1.047-0.312-2.228,0-2.74
		C371.704,404.662,373.041,405.776,373.041,405.776z"/>
	<path fill="#1D1C4E" d="M415.394,499.578c0,0-9.446-6.906-16.084-7.797s-11.005,4.144-11.005,4.144s4.277-0.98,4.99-0.98
		s-0.089,2.807,3.431,5.035s8.777-0.579,11.317-1.248S415.394,499.578,415.394,499.578z"/>
	<path fill="#1D1C4E" d="M443.552,503.231c0,0,9.356-7.485,17.955-8.911c8.599-1.426,12.253,5.079,12.253,5.079
		s-5.48-1.069-9.401,1.025c-3.921,2.094-7.663-0.713-10.559-0.356C450.903,500.424,445.646,502.296,443.552,503.231z"/>
	<path fill="#1D1C4E" d="M384.324,472.504c0,0-13.396,9.004-9.297,26.17c4.099,17.166,21.03,15.652,21.03,15.652
		s-20.05,2.852-22.99-14.525S384.324,472.504,384.324,472.504z"/>
	<path fill="#1D1C4E" d="M477.324,474.137c0,0,11.584,10.337,9.624,23.792s-12.743,18.356-12.743,18.356s14.079-3.895,14.97-20.036
		C490.067,480.108,477.324,474.137,477.324,474.137z"/>
	<path fill="#1D1C4E" d="M367.453,573.226c0,0,3.149,2.465,13.96,0.921c10.812-1.545,21.03-1.842,30.832-2.079
		c9.802-0.238,18.594,3.063,27.564,1.294c8.97-1.769,21.148-0.098,26.851,1.294c5.703,1.392,20.614,3.115,28.455,1.986
		s0.416,5.465,0,5.465s-14.584-2.554-26.079-5.406c-11.495-2.851-20.436-2.436-30.178-1.247s-19.545-0.535-24.178-1.129
		s-17.287-1.901-29.347,0.475c-12.059,2.376-21.683,5.168-24.951,3.921c-3.267-1.248-0.475-6.416-0.475-6.416L367.453,573.226z"/>
	<path fill="#2B2B66" d="M414.384,125.157c0,0,6.895,103.606,27.802,157.307c20.908,53.701,54.416,72.951,54.416,72.951
		s-25.663-20.436-34.693-39.564c-9.03-19.129-9.267-21.861-9.267-21.861s8.673,20.317,18.059,32.198s19.01,18.566,19.01,18.566
		s-16.857-26.899-28.864-54.84s-18.779-48.439-18.779-48.439s9.505,24.594,19.485,41.941s9.98,17.347,9.98,17.347l-13.782-35.406
		c0,0,4.277,11.168,13.426,26.495c9.148,15.327,12.832,22.401,12.832,22.401s-12.238-25.252-22.812-52.816
		c-10.574-27.564-11.287-36.713-11.287-36.713s16.079,45.783,31.069,70.218s22.781,33.649,22.781,33.649
		s-13.87-16.718-22.246-37.748c-8.376-21.03-12.249-31.901-12.249-31.901s18.308,35.822,32.031,54.356
		c13.723,18.535,41.347,35.465,41.347,35.465s-21.03-11.228-45.802-54.356s-29.049-60.238-29.049-60.238
		s19.069,40.634,43.307,72.535c24.238,31.901,67.901,51.327,67.901,51.327s-26.02-13.366-47.584-37.069
		c-21.564-23.703-24.238-33.327-24.238-33.327s33.505,44.554,63.446,60.95c29.941,16.396,49.366,30.475,49.366,30.475
		s-40.455-32.792-67.545-68.792s-34.218-61.129-34.218-61.129s5.881,23.168,30.475,49.901
		c24.594,26.733,45.089,38.139,45.089,38.139s-23.525-14.436-40.634-38.673s-21.564-35.465-21.564-35.465
		s26.198,41.347,58.99,68.257c32.792,26.911,45.089,57.208,45.089,57.208s-15.327-31.901-29.584-52.396
		c-14.257-20.495-14.257-20.495-14.257-20.495s24.059,31.188,36.178,53.465c12.119,22.277,14.257,42.059,14.257,42.059
		s-1.782-41.347-31.01-94.455S538.72,194.959,504.859,164.306s-42.174-37.604-42.174-37.604l39.501,40.99
		c0,0-24.059-25.663-43.485-40.455s-31.366-23.881-31.366-23.881s24.238,33.683,41.168,56.495s16.931,22.812,16.931,22.812
		s-19.782-24.416-36.713-45.98s-18.535-23.525-18.535-23.525s15.327,30.297,25.485,47.228s10.158,16.931,10.158,16.931
		l-27.267-43.307c0,0,11.049,34.396,21.564,56.139c10.515,21.743,10.515,21.743,10.515,21.743s-12.297-20.495-25.307-49.366
		c-13.01-28.871-19.069-51.149-19.069-51.149s-0.178,20.317,6.951,54.356c7.129,34.04,13.545,51.683,13.545,51.683
		s-8.297-22.812-15.109-49.723c-6.812-26.911-7.168-36.713-7.168-36.713s3.743,37.069,8.376,58.099s4.634,21.03,4.634,21.03
		S419.968,150.523,414.384,125.157z"/>
	<path fill="#2B2B66" d="M567.413,257.246c0,0,41.881,50.881,59.168,84.03c17.287,33.148,22.634,62.911,22.634,61.663
		s-3.386-26.016-13.188-58.186s-10.337-33.676-10.337-33.676s13.366,30.734,18,50.159s4.634,19.426,4.634,19.426
		s-3.921-50.792-9.267-76.812c-5.347-26.02-8.198-32.436-8.198-32.436s10.337,28.158,13.723,52.931
		c3.386,24.772,3.386,27.802,3.386,27.802s2.139-50.079-7.129-84.832s-67.723-89.287-87.861-105.861s-23.703-19.782-23.703-19.782
		l37.96,37.248c0,0-23.168-23.525-45.089-37.96c-21.921-14.436-26.02-17.287-26.02-17.287s9.624,8.733,34.04,37.604
		s24.416,28.871,24.416,28.871s-17.822-19.426-32.614-34.218c-14.792-14.792-15.683-16.218-15.683-16.218s21.03,27.624,27.98,34.574
		c6.951,6.95,6.951,6.95,6.951,6.95s-30.832-30.119-48.297-43.129c-17.465-13.01-23.168-15.683-23.168-15.683
		s37.426,40.99,62.911,76.99C558.146,235.415,567.413,257.246,567.413,257.246z"/>
	<path fill="#2B2B66" d="M622.126,237.375c0,0-23.941-33.446-42.356-53.287c-18.416-19.842-30.178-29.347-30.178-29.347
		s21.624,14.97,35.406,28.752c13.782,13.782,14.376,14.139,14.376,14.139s-15.089-17.941-25.545-28.396
		s-11.049-11.049-11.049-11.049s40.871,22.812,59.881,51.802s32.792,59.287,40.277,84c7.485,24.713,7.248,28.277,7.248,28.277
		s-3.802-15.089-10.693-30.772c-6.891-15.683-6.891-15.683-6.891-15.683s9.743,24.356,10.574,45.386
		c0.832,21.03,0.832,28.04,0.832,26.97s-9.743-42.416-17.941-64.396S622.126,237.375,622.126,237.375z"/>
	<path fill="#2B2B66" d="M399.413,135.613c0,0,14.792,61.106,8.152,120.089c-6.639,58.983-26.687,91.752-26.687,91.752
		s20.198-45.98,22.812-81.149s-1.426-42.059-1.426-42.059s5.692,36.119-9.511,81.505c-15.202,45.386-27.559,54.847-27.559,54.847
		s23.038-47.005,27.559-83.124c4.52-36.119,4.52-36.119,4.52-36.119s-4.594,39.755-16.634,75.089s-26.376,48.152-26.376,48.152
		s20.83-34.132,29.425-72.152c8.595-38.02,8.595-38.02,8.595-38.02s-8.792,48.95-23.762,74.376s-21.145,30.653-21.145,30.653
		s13.065-43.485,19.719-113.584c6.653-70.099-0.95-117.386-0.238-116.673s8.079,17.644,8.079,53.109c0,0,0.535-36.713-3.743-57.921
		c-4.277-21.208-4.277-21.208-4.277-21.208s22.277,27.446,26.376,60.416s2.317,48.119,2.317,46.337
		c0-1.782,0.356-40.099-3.683-62.911s-8.436-33.624-8.436-33.624s9.861,22.574,12.713,39.446
		c2.852,16.871,2.852,15.564,2.852,14.851c0-0.713-2.614-25.663-5.941-38.02c-3.327-12.356-3.446-13.188-3.446-13.188
		L399.413,135.613z"/>
	<path fill="#2B2B66" d="M398.641,138.108c0,0,6.238,62.97,17.287,94.218s15.723,39.564,15.723,39.564s-8.951-26.97-13.228-46.099
		s-4.277-19.129-4.277-19.129s6.297,24.119,10.455,34.931c4.158,10.812,4.158,10.812,4.158,10.812s-10.812-47.525-15.327-81.624
		s-4.634-61.782-4.634-61.782s-3.564,22.574-1.663,41.347c0,0-2.495-16.634-3.802-30.059
		C403.334,120.286,397.857,130.902,398.641,138.108z"/>
	<path fill="#2B2B66" d="M374.463,212.603c0,0-3.446-21.921-12.535-48.119s-9.089-26.198-9.089-26.198s4.099,24.238,7.663,43.842
		s3.564,19.604,3.564,19.604s-7.842-33.327-13.01-45.267c-5.168-11.941-5.168-11.941-5.168-11.941s10.704,53.956,7.936,104.77
		s-9.718,82.359-9.718,82.359s9.105-29.762,13.196-63.802c0,0-0.899,27.267-6.067,46.158c0,0,15.505-21.921,17.822-54
		S374.463,212.603,374.463,212.603z"/>
	<path fill="#2B2B66" d="M352.839,174.82c0,0,0.713,19.96-17.584,81.03s-2.492,100.99-2.492,100.99s-9.686-22.871-10.577-50.139
		c-0.891-27.267,2.317-34.812,2.317-34.812s-4.412,25.366-2.473,54.416s1.939,29.049,1.939,29.049s-13.545-36.535-14.614-65.406
		c-1.069-28.871,12.832-50.792,12.832-50.792s-13.188,18.178-15.148,55.96c-1.96,37.782,5.881,53.644,5.881,53.644
		s-13.723-43.307-11.941-81.802c1.782-38.495,22.099-71.747,22.099-71.747s-14.792,26.658-25.129,57.133s-9.267,38.673-9.267,38.673
		s0.951-28.515,8.911-50.376s14.733-31.96,14.733-31.96s-13.545,19.604-24.594,51.564s-5.14,60.915-5.14,60.915
		s-12.563-43.212-0.207-84.203s39.089-63.089,39.089-63.089s-22.574,16.871-40.871,55.604c-18.297,38.733-22.812,96-22.812,140.911
		s-9.267,67.01-9.267,67.01s4.752-32.317,4.752-78.891s0.951-68.673,0.951-68.673s0.951,46.812-5.703,100.752
		c-6.653,53.941,0,79.129,0,79.129s-18.535-48.951-17.347-111.208c1.188-62.257,19.96-86.614,19.96-86.614
		s-21.386,41.465-23.168,94.693s6.772,78.57,6.772,78.57s-9.98-26.531-9.98-77.382s14.02-86.97,14.02-86.97
		s-13.69,40.158-16.469,75.802c-2.779,35.644,3.162,56.791,3.162,56.791s-12.832-33.266-6.416-86.494
		c6.416-53.228,28.515-85.545,28.515-85.545s-22.128,34.455-30.311,67.485s-5.57,55.604-5.57,55.604s-11.168-41.283,13.545-101.743
		s55.158-85.474,77.347-107.662c22.188-22.188,29.584-27.446,29.584-27.446l-27.802,34.396c0,0,21.505-20.554,34.574-32.317
		s13.905-13.545,13.905-13.545s-7.132,27.683-14.261,42.178c-7.129,14.495-8.317,16.515-8.317,16.515s9.505-14.75,12.713-21.743
		s2.911-8.554,2.911-8.554S352.839,168.642,352.839,174.82z"/>
	<path fill="#2B2B66" d="M587.136,594.702c-8.555,21.386-4.99,35.049-4.99,35.049s-1.545-18.653,5.822-32.792
		c0,0-6.178,12.713-4.753,30.416c1.426,17.703-0.951,28.515-0.951,28.515s14.376-19.604,21.149-50.733
		c6.772-31.129,5.584-38.733,5.584-38.733s-0.861,18.475-1.752,29.614s-1.782,13.812-1.782,13.812s5.792-22.812,7.218-37.426
		c1.426-14.614-10.069-22.366-10.069-22.366S595.691,573.316,587.136,594.702z"/>
	<path fill="#2B2B66" d="M265.631,564.761c0,0,3.208,29.703,15.327,54.178c12.119,24.475,9.861,45.267,9.861,45.267
		s-3.653-21.03-7.307-32.436c-3.653-11.406-3.653-11.406-3.653-11.406s4.099,16.04,6.772,33.059
		c2.673,17.02,1.515,23.079,1.515,23.079s-5.168-23.792-11.584-46.515s-6.416-22.723-6.416-22.723s4.01,19.337,5.347,34.218
		c1.337,14.881,1.337,14.881,1.337,14.881s-4.129-40.812-11.198-62.287c-7.069-21.475-21.74-45.488-21.74-44.709
		c0,0.779,8.701,8.086,14.315,19.313s5.614,11.228,5.614,11.228s-7.752-19.158-10.782-23.525c-3.03-4.366-3.03-4.366-3.03-4.366
		S263.611,558.613,265.631,564.761z"/>
	<path fill="#1D1C4E" d="M607.423,407.484c0,0-12.119,0-12.119-0.446s-0.267-9.446-7.752-12.832
		c-7.485-3.386-22.277-6.238-44.198-6.951c-21.921-0.713-50.881-0.624-69.57,5.079c-18.689,5.703-19.005,18.802-19.005,18.802
		s-9-1.337-20.762-2.584c-11.762-1.247-19.634,0-19.634,0s-2.287-4.188-3.713-7.04c-1.426-2.851-8.644-11.851-21.743-14.614
		s-49.812-3.297-69.416-3.297s-33.446,1.634-39.683,4.129s-7.96,11.465-7.96,11.465s-12.178,0-13.307,0c0,0-3.161,8.423-0.624,10.96
		c2.538,2.538,12.832,1.604,13.188,2.673c0.356,1.069,1.337,22.99,7.218,36c5.881,13.01,27.624,17.733,38.406,19.069
		s59.792,4.901,74.495-7.307c14.703-12.208,22.723-41.792,24.683-44.822s16.574-3.327,23.049-1.96
		c6.475,1.366,16.782,2.673,17.495,7.485s4.901,22.01,17.287,37.604c12.386,15.594,60.772,15.683,69.772,14.792
		c9-0.891,31.188-1.337,40.545-15.861c9.356-14.525,9.951-41.584,9.951-41.584s5.762-0.713,9.921,0.95
		c4.158,1.663,7.752,7.931,7.752,7.931s0-5.347,0-9.446S607.423,407.484,607.423,407.484z M407.998,417.999
		c-1.337,5.569-2.718,8.688-3.876,8.688c-1.158,0-4.144-1.738-4.767-1.114c-0.624,0.624-5.346,6.951-5.035,11.317
		s5.035,3.743,5.035,3.743s-0.267,6.238-10.515,15.327c-10.247,9.089-34.752,9.98-54.137,8.911
		c-19.385-1.069-47.091-3.951-51.605-17.139c-4.515-13.188-8.911-52.752-2.088-56.614c6.823-3.861,32.029-4.396,32.029-4.396
		c16.289-1.017,48.238,0.475,65.465,2.257c17.228,1.782,23.554,7.04,27.416,12.624C409.78,407.187,409.334,412.429,407.998,417.999z
		 M578.285,460.207c-5.109,6.594-21.564,8.733-34.753,9.624c-13.188,0.891-45.98-0.653-57.624-6.297s-16.812-20.673-16.812-20.673
		s3.861-0.178,3.861-2.911s0.148-7.099-2.079-9.327s-6.475-3.98-6.475-3.98s-4.545-10.069-4.545-15.505
		c0-5.436,5.079-10.871,11.571-14.792s35.746-4.812,35.746-4.812s21.921-1.069,42.148,0c20.228,1.069,26.644,3.653,31.099,8.109
		s5.436,18.624,5.436,31.157C585.859,443.333,583.394,453.613,578.285,460.207z"/>
	<path fill="#1D1C4E" d="M-635.379,100.147c0,0-37.01-4.337-96.535,55.188c-59.525,59.525-55.604,92.198-55.604,92.198
		s10.455-38.97,39.327-71.05c28.871-32.079,48.238-42.891,48.238-42.891s-41.287,32.495-73.723,83.287
		c-32.436,50.792-57.03,130.455-44.911,190.158c12.119,59.703,12.772,71.703,14.198,86.079s12.238,26.139,12.238,26.139
		s-6.386-12.505-5.852-33.624c0.535-21.119-2.762-28.782-2.762-28.782s6.683,10.069,13.455,28.426s16.663,17.822,16.663,17.822
		s-11.049-4.901-14.97-18.624c0,0,0.267,7.218,10.604,13.812c10.337,6.594,10.515,9.624,15.416,17.109
		c4.901,7.485,9.089,8.644,9.089,8.644s1.604-34.248-2.317-54.802c-3.921-20.554,4.753-56.317,10.693-92.554
		c5.941-36.238,6.535-61.782,6.535-61.782s2.97,14.495,0,41.941c-2.97,27.446-16.752,40.158-16.752,40.158
		s17.822-19.248,21.267-43.366c3.446-24.119-0.594-34.218-0.594-34.218s6.416,18.535,6.416,38.257
		c0,19.723-3.295,25.901-3.295,25.901l10.899-17.347c0,0-6.653,14.139-9.386,19.129c-2.733,4.99-2.733,4.99-2.733,4.99
		s12.951-7.366,17.703-19.604c4.753-12.238,5.584-16.396,5.584-16.396s-4.04,17.941-6.535,24.119s-2.495,6.178-2.495,6.178
		s14.376,0.386,19.099-1.574s9-27.446,9-27.446l-0.98,24.772l2.139-12.921l2.941,15.505c0,0,9.386-2.614,11.465-12.653
		c2.079-10.04-2.02-25.723-2.02-25.723s4.634,16.04,4.634,24.713c0,8.673,0,8.673,0,8.673s3.564-9.802-1.604-42.594
		s-1.247-72.891,2.673-93.921s6.951-30.119,6.951-30.119s-7.663,34.574-8.911,69.683c-1.248,35.109,2.139,46.337,2.139,46.337
		s-2.139-32.792,0.356-59.347c2.495-26.554,8.911-50.257,8.911-50.257s0.535,30.475-5.525,72s-8.376,51.148-8.376,51.148
		s3.03,9.921,3.03,13.604s0.713,11.287,0.713,11.287s13.366,1.396,14.792,1.396c1.426,0,16.663-30.386,16.663-30.386l-12.921,31.901
		c0,0,7.574,1.337,13.545-9.089c5.97-10.426,22.277-39.208,28.515-86.436s5.703-67.723,5.703-67.723s1.247,31.545-3.921,74.317
		c-5.168,42.772-14.97,59.881-14.97,59.881s10.158-12.297,17.465-57.208c7.307-44.911,5.347-53.109,5.347-53.109
		s3.921,39.03,12.475,70.218c8.555,31.188,24.416,43.842,24.416,43.842s-17.644-24.059-23.525-50.792s-5.881-26.733-5.881-26.733
		s8.733,35.465,24.238,61.129c15.505,25.663,32.97,30.832,32.97,30.832s-22.634-12.475-33.327-38.317s-13.723-37.069-13.723-37.069
		s5.525,31.901,36,58.99c30.475,27.089,46.455,21.327,46.455,21.327s-28.099-10.634-45.386-51.802
		c-17.287-41.168-28.337-65.941-28.337-65.941s15.505,39.94,33.683,67.019s18.178,27.08,18.178,27.08s-13.723-23.347-27.446-51.861
		c0,0,9.446,16.396,19.426,28.515c9.98,12.119,9.98,12.119,9.98,12.119s-7.485-7.485-19.247-35.822
		c-11.762-28.337-14.97-37.782-14.97-37.782s5.525,29.406,36.535,67.01s51.327,43.307,51.327,43.307s-25.842-14.436-43.663-39.386
		s-21.208-31.366-21.208-31.366s18.713,32.97,44.376,52.396c25.663,19.426,44.495,25.426,44.495,25.426s-21.98-10.812-37.307-24.713
		c-15.327-13.901-15.327-13.901-15.327-13.901s22.099,19.842,42.059,30.772c19.96,10.931,27.921,10.574,27.921,10.574
		s10.693,8.554,16.574,41.703c5.881,33.149,0.891,55.96-2.139,78.059c-3.03,22.099-8.02,40.099-8.02,40.099
		s14.852-10.99,31.248-29.762c16.396-18.772,19.723-35.168,19.723-35.168s-3.208,14.733-11.644,27.089
		c-8.436,12.356-19.723,14.97-19.723,14.97s15.921-4.752,26.851-19.248s16.158-26.733,16.158-26.733l-9.505,23.406
		c0,0,18.297-14.97,23.881-49.901s8.792-112.752-20.198-179.049c-28.99-66.297-70.099-105.505-104.792-132.594
		S-586.844,70.622-635.379,100.147z"/>
	<path fill="#1D1C4E" d="M-661.339,198.345c0,0,8.792,29.465-17.109,105.03c0,0,19.485-47.049,21.624-83.644
		S-661.339,198.345-661.339,198.345z"/>
	<path fill="none" stroke="#1D1C4E" stroke-width="6" stroke-miterlimit="10" d="M-800.23,496.444c0,0,2.97,16.158,10.931,28.04
		c7.96,11.881,10.574,19.96,22.812,23.049s17.822-2.257,17.822-2.257s4.602,52.437,23.109,79.366
		c18.46,26.861,83.941,74.495,100.693,78.416c35.258,8.252,55.129,5.584,80.555-1.426c25.426-7.01,85.188-62.733,100.871-82.455
		s25.426-74.376,25.426-74.376s25.723,13.188,36.772-6.416c11.049-19.604,8.376-22.455,13.366-32.614
		c4.99-10.158,14.792-20.852,15.861-42.772"/>
	<path fill="#1D1C4E" d="M-777.062,540.167c-0.309-0.836,1.782,18.891,14.436,40.634c12.653,21.743,12.475,28.693,12.475,28.693
		s0-12.05-5.703-24.738c0,0,7.901,9.352,7.069,34.54c-0.832,25.188,1.663,35.762,7.01,48.832
		c5.347,13.069,8.198,16.158,8.198,16.158s-6.178-9.743-7.96-19.723c-1.782-9.98-1.782-9.98-1.782-9.98s3.089,17.109,11.881,25.901
		c8.792,8.792,20.317,2.257,20.317,2.257l-6.416-46.099c0,0-12.119-10.931-18.654-39.208c-6.535-28.277-14.58-50.782-14.58-50.782
		S-769.933,559.415-777.062,540.167z"/>
	<path fill="#1D1C4E" d="M-388.331,546.006c0,0-10.672,23.389-15.424,48.221s-9.624,34.337-9.624,34.337s4.158-11.762,5.347-26.257
		c1.188-14.495,1.545-13.188,1.545-13.188s-1.426,21.386-12,43.842c-10.574,22.455-12.119,26.257-16.871,32.911
		s-13.307,14.97-13.307,14.97l4.871-59.644c0,0,10.103-20.312,17.822-47.703c7.719-27.391,8.911-30.297,8.911-30.297
		S-408.432,555.409-388.331,546.006z"/>
	<g>
		<path fill="#1D1C4E" d="M-792.032,462.999c1.072,1,2.024,2.115,2.931,3.266c0.914,1.148,1.737,2.363,2.527,3.606
			c1.563,2.495,2.871,5.165,3.913,7.964c1.032,2.799,1.843,5.723,2.218,8.751c0.053,0.377,0.12,0.753,0.16,1.132l0.072,1.146
			c0.037,0.766,0.116,1.529,0.115,2.299l-0.074,2.314l-0.03,1.064l-0.018,0.944c-0.084,2.51,0.202,4.928,1.097,7.055
			c0.874,2.142,2.382,4.014,4.329,5.727c1.929,1.737,4.318,3.19,6.702,5.051c0.588,0.508,1.189,0.97,1.734,1.618l0.404,0.458
			l0.32,0.436l0.63,0.883c0.837,1.18,1.665,2.368,2.437,3.612c-1.244-0.772-2.433-1.6-3.612-2.437l-0.883-0.63l-0.436-0.32
			l-0.409-0.237c-0.5-0.328-1.134-0.599-1.733-0.875c-2.501-1.071-5.299-2.074-7.949-3.76c-2.645-1.638-5.154-4.059-6.688-7.116
			c-0.373-0.757-0.652-1.558-0.969-2.344c-0.251-0.798-0.421-1.613-0.625-2.424c-0.186-0.814-0.196-1.623-0.294-2.438
			c-0.111-0.821-0.072-1.611-0.051-2.407l0.096-2.267l0.106-1.96c0.036-0.654-0.005-1.316-0.002-1.975l-0.009-0.991l-0.069-0.994
			c-0.12-2.657-0.559-5.328-1.084-8.007C-788.255,473.774-789.971,468.433-792.032,462.999z"/>
	</g>
	<g>
		<path fill="#1D1C4E" d="M-785.735,473.989c-1.719-1.144-3.358-2.25-5.009-3.123c-0.815-0.437-1.637-0.808-2.401-1.041
			c-0.385-0.113-0.744-0.195-1.069-0.222c-0.164-0.02-0.312-0.014-0.448-0.004c-0.065,0.013-0.134,0.004-0.191,0.02l-0.085,0.017
			l-0.042,0.007c-0.023,0.001-0.031,0.005,0.027,0.01c0.298,0.028,0.683-0.129,0.822-0.231c0.151-0.096,0.171-0.108,0.177-0.065
			c-0.015,0.112-0.088,0.418-0.123,0.765c-0.068,0.711-0.12,1.573-0.094,2.451c0.011,0.88,0.041,1.792,0.113,2.709
			c0.047,0.919,0.124,1.848,0.219,2.779c0.348,3.731,0.809,7.51,1.337,11.291c0.26,1.894,0.548,3.788,0.876,5.693
			c0.327,1.914,0.703,3.807,1.256,5.797c-1.643-1.281-2.907-2.994-3.997-4.746c-1.077-1.77-1.947-3.643-2.685-5.554
			c-1.45-3.835-2.371-7.829-2.761-11.932c-0.177-2.057-0.247-4.134-0.051-6.301c0.117-1.085,0.251-2.191,0.62-3.399
			c0.191-0.609,0.412-1.251,0.864-2.007c0.251-0.383,0.556-0.803,1.08-1.223c0.51-0.424,1.374-0.786,2.165-0.77
			c0.519,0.022,0.8,0.076,1.179,0.164c0.349,0.089,0.684,0.196,0.988,0.326c0.616,0.256,1.172,0.551,1.655,0.9
			c0.981,0.678,1.767,1.462,2.467,2.277c0.686,0.829,1.293,1.684,1.804,2.594C-786.527,472.074-786.065,472.999-785.735,473.989z"/>
	</g>
	<g>
		<path fill="#1D1C4E" d="M-373.101,482.187c-2.527,3.425-4.036,7.026-5.066,10.643c-0.468,1.831-0.825,3.659-1.034,5.518
			c-0.11,0.926-0.156,1.867-0.234,2.795l-0.028,1.412l-0.046,1.484c-0.098,2.3-0.367,4.654-1.25,6.88
			c-0.362,1.128-0.959,2.178-1.534,3.211c-0.674,0.981-1.333,1.97-2.185,2.787c-3.248,3.402-7.728,5.229-12.028,5.072
			c3.608-2.256,6.507-4.931,8.33-8.001c0.234-0.378,0.478-0.744,0.641-1.158c0.183-0.401,0.398-0.777,0.568-1.176
			c0.26-0.841,0.644-1.606,0.791-2.477c0.081-0.429,0.253-0.823,0.302-1.263l0.179-1.304c0.028-0.217,0.083-0.428,0.101-0.649
			l0.026-0.671l0.063-1.339l0.173-3.254c0.174-1.106,0.276-2.217,0.538-3.309c0.276-1.09,0.514-2.182,0.938-3.23
			c0.34-1.068,0.85-2.081,1.332-3.087c1.065-1.976,2.379-3.811,3.962-5.356C-376.977,484.191-375.163,482.866-373.101,482.187z"/>
	</g>
	<g>
		<path fill="#1D1C4E" d="M-378.567,490.741c0.436-3.973,2.002-7.785,4.72-11.051c1.374-1.615,3.115-3.084,5.269-4.067
			c1.087-0.52,2.214-0.792,3.509-1.02c0.413-0.029,0.775-0.066,1.235-0.031c0.246,0.028,0.492,0.065,0.737,0.11
			c0.237,0.038,0.484,0.094,0.776,0.222c0.278,0.112,0.551,0.24,0.813,0.381c0.26,0.153,0.514,0.372,0.754,0.582
			c0.516,0.428,0.779,0.924,1.086,1.439c0.195,0.451,0.375,0.967,0.448,1.377c0.056,0.386,0.145,0.852,0.131,1.176
			c0.026,0.73-0.038,1.352-0.122,1.957c-0.204,1.18-0.509,2.2-0.861,3.196c-0.729,1.955-1.612,3.741-2.629,5.43
			c-2.037,3.366-4.426,6.454-7.431,9.09c0.843-3.891,2.032-7.497,3.131-11.031c0.546-1.762,1.085-3.496,1.489-5.158
			c0.184-0.819,0.378-1.633,0.431-2.333c0.029-0.335,0.053-0.659,0.033-0.877c0.012-0.152-0.038-0.149-0.03-0.233
			c-0.008-0.055-0.022,0.02,0.017,0.028c0.028,0.137,0.124,0.158,0.234,0.317c0.056,0.063,0.149,0.099,0.206,0.135
			c0.046,0.044,0.103,0.076,0.165,0.09c0.083,0.01,0.098,0.018,0.098,0.029c0.011,0.007,0.023,0.006,0.035-0.004
			c-0.01-0.009-0.124,0.019-0.183-0.004c-0.241,0.015-0.639,0.102-0.958,0.137c-0.342,0.022-0.666,0.202-1.015,0.268
			c-1.364,0.43-2.756,1.207-4.124,2.194C-373.355,485.091-375.896,487.825-378.567,490.741z"/>
	</g>
	<polyline fill="none" stroke="#1D1C4E" stroke-width="6" stroke-miterlimit="10" points="-721.249,630.29 -698.884,743.217 
		-578.408,820.919 -456.507,740.127 -443.795,617.989 	"/>
	<path fill="#1D1C4E" d="M-536.705,376.474c0,0-1.158-17.733,11.584-26.465c0,0-2.166,0.446-5.806,12.208
		c0,0,3.935-9.624,9.994-14.436s45.446-2.851,54.535-1.158c9.089,1.693,30.475,14.436,35.109,20.139s8.168,17.287,8.168,17.287
		s-8.436-15.594-40.96-15.594s-44.554,0.891-55.426,3.119C-530.379,373.801-536.705,376.474-536.705,376.474z"/>
	<path fill="#1D1C4E" d="M-538.606,376.474c0,0-1.782-16.752,7.753-26.287C-530.854,350.187-545.201,360.88-538.606,376.474z"/>
	<path fill="#1D1C4E" d="M-538.405,376.858c0,0-5.27-14.731,0.841-25.364C-537.565,351.494-547.573,364.198-538.405,376.858z"/>
	<path fill="#1D1C4E" d="M-540.281,375.138c0,0-5.494-11.805-1.243-21.084C-541.524,354.054-548.846,365.348-540.281,375.138z"/>
	<path fill="#1D1C4E" d="M-507.507,413.677c0,0-6.809-1.551-10.96-1.233c-7.351,0.564-1.812-2.792-1.574-3.03
		c0.238-0.238,10.663-6.431,19.084-7.5c8.421-1.069,20.985,2.495,23.569,4.233c2.584,1.738,7.485,5.837,10.649,7.084
		c3.163,1.248,8.465-2.54,8.465-2.54s-9.356-5.168-12.431-6.728c-3.074-1.559-6.282-2.246-6.282-2.246s7.485,1.8,15.104,5.721
		c0,0-7.619-4.99-16.886-7.351s-25.396-3.208-35.733-1.337c-10.337,1.871-16.307,5.703-16.307,5.703s4.589-2.673,12.208-3.876
		c7.619-1.203,10.649-1.248,10.649-1.248s-9.802,5.124-14.748,7.975c-4.946,2.852-7.552,6.082-7.552,6.795
		c0,0.713,7.597,0.602,8.087,0.602S-512.364,414.167-507.507,413.677z"/>
	<path fill="#1D1C4E" d="M-472.131,408.33c0,0-3.743,4.455-10.515,6.149c-6.772,1.693-13.233,1.114-13.233,1.114
		s6.55,1.337,15.193-0.223s12.832-4.5,12.832-4.5L-472.131,408.33z"/>
	<path fill="#1D1C4E" d="M-520.205,408.509c0,0,1.225,1.092,1.648,2.139s0.312-2.228,0-2.74
		C-518.869,407.395-520.205,408.509-520.205,408.509z"/>
	<path fill="#1D1C4E" d="M-624.162,373.741c0,0,1.158-17.733-11.584-26.465c0,0,2.166,0.446,5.806,12.208
		c0,0-3.935-9.624-9.994-14.436c-6.059-4.812-45.445-2.852-54.535-1.158c-9.089,1.693-30.475,14.436-35.109,20.139
		s-8.168,17.287-8.168,17.287s8.436-15.594,40.96-15.594c32.525,0,44.554,0.891,55.426,3.119S-624.162,373.741-624.162,373.741z"/>
	<path fill="#1D1C4E" d="M-622.261,373.741c0,0,1.782-16.752-7.752-26.287C-630.013,347.454-615.667,358.147-622.261,373.741z"/>
	<path fill="#1D1C4E" d="M-622.462,374.125c0,0,5.27-14.731-0.841-25.364C-623.303,348.761-613.294,361.466-622.462,374.125z"/>
	<path fill="#1D1C4E" d="M-620.586,372.405c0,0,5.494-11.805,1.243-21.084C-619.344,351.321-612.021,362.615-620.586,372.405z"/>
	<path fill="#1D1C4E" d="M-653.36,410.944c0,0,6.809-1.551,10.96-1.233c7.352,0.564,1.812-2.792,1.574-3.03
		c-0.238-0.238-10.663-6.431-19.084-7.5s-20.985,2.495-23.569,4.233c-2.584,1.738-7.485,5.837-10.648,7.084
		c-3.163,1.248-8.465-2.54-8.465-2.54s9.356-5.168,12.431-6.728c3.074-1.559,6.282-2.246,6.282-2.246s-7.485,1.8-15.104,5.721
		c0,0,7.619-4.99,16.886-7.352c9.267-2.361,25.396-3.208,35.733-1.337c10.337,1.871,16.307,5.703,16.307,5.703
		s-4.589-2.673-12.208-3.876c-7.619-1.203-10.648-1.248-10.648-1.248s9.802,5.124,14.747,7.975c4.946,2.851,7.552,6.082,7.552,6.795
		s-7.597,0.601-8.087,0.601C-639.192,411.969-648.503,411.434-653.36,410.944z"/>
	<path fill="#1D1C4E" d="M-688.736,405.598c0,0,3.743,4.455,10.515,6.149c6.772,1.693,13.233,1.114,13.233,1.114
		s-6.549,1.337-15.193-0.223c-8.644-1.559-12.832-4.5-12.832-4.5L-688.736,405.598z"/>
	<path fill="#1D1C4E" d="M-640.662,405.776c0,0-1.225,1.092-1.648,2.139s-0.312-2.228,0-2.74
		C-641.999,404.662-640.662,405.776-640.662,405.776z"/>
	<path fill="#1D1C4E" d="M-598.309,499.578c0,0-9.446-6.906-16.084-7.797s-11.005,4.144-11.005,4.144s4.277-0.98,4.99-0.98
		c0.713,0-0.089,2.807,3.431,5.035s8.777-0.579,11.317-1.248S-598.309,499.578-598.309,499.578z"/>
	<path fill="#1D1C4E" d="M-570.151,503.231c0,0,9.356-7.485,17.955-8.911s12.253,5.079,12.253,5.079s-5.48-1.069-9.401,1.025
		c-3.921,2.094-7.663-0.713-10.559-0.356C-562.799,500.424-568.057,502.296-570.151,503.231z"/>
	<path fill="#1D1C4E" d="M-629.379,472.504c0,0-13.396,9.004-9.297,26.17c4.099,17.166,21.03,15.652,21.03,15.652
		s-20.049,2.852-22.99-14.525C-643.577,482.424-629.379,472.504-629.379,472.504z"/>
	<path fill="#1D1C4E" d="M-536.379,474.137c0,0,11.584,10.337,9.624,23.792s-12.743,18.356-12.743,18.356s14.079-3.895,14.97-20.036
		C-523.636,480.108-536.379,474.137-536.379,474.137z"/>
	<path fill="#1D1C4E" d="M-646.25,573.226c0,0,3.148,2.465,13.96,0.921s21.03-1.842,30.832-2.079
		c9.802-0.238,18.594,3.063,27.564,1.294c8.97-1.769,21.148-0.098,26.852,1.294c5.703,1.392,20.614,3.115,28.455,1.986
		c7.842-1.129,0.416,5.465,0,5.465c-0.416,0-14.584-2.554-26.079-5.406c-11.495-2.851-20.436-2.436-30.178-1.247
		s-19.545-0.535-24.178-1.129s-17.287-1.901-29.347,0.475c-12.059,2.376-21.683,5.168-24.95,3.921
		c-3.267-1.248-0.475-6.416-0.475-6.416L-646.25,573.226z"/>
	<path fill="#2B2B66" d="M-599.319,125.157c0,0,6.894,103.606,27.802,157.307c20.908,53.701,54.416,72.951,54.416,72.951
		s-25.663-20.436-34.693-39.564c-9.03-19.129-9.267-21.861-9.267-21.861s8.673,20.317,18.059,32.198
		c9.386,11.881,19.01,18.566,19.01,18.566s-16.857-26.899-28.864-54.84s-18.779-48.439-18.779-48.439s9.505,24.594,19.485,41.941
		c9.98,17.347,9.98,17.347,9.98,17.347l-13.782-35.406c0,0,4.277,11.168,13.426,26.495c9.148,15.327,12.832,22.401,12.832,22.401
		s-12.238-25.252-22.812-52.816c-10.574-27.564-11.287-36.713-11.287-36.713s16.079,45.783,31.069,70.218
		c14.99,24.435,22.781,33.649,22.781,33.649s-13.87-16.718-22.246-37.748c-8.376-21.03-12.249-31.901-12.249-31.901
		s18.308,35.822,32.031,54.356c13.723,18.535,41.346,35.465,41.346,35.465s-21.03-11.228-45.802-54.356
		c-24.772-43.129-29.05-60.238-29.05-60.238s19.069,40.634,43.307,72.535c24.238,31.901,67.901,51.327,67.901,51.327
		s-26.02-13.366-47.584-37.069c-21.564-23.703-24.238-33.327-24.238-33.327s33.505,44.554,63.446,60.95
		c29.941,16.396,49.366,30.475,49.366,30.475s-40.455-32.792-67.545-68.792s-34.218-61.129-34.218-61.129
		s5.881,23.168,30.475,49.901c24.594,26.733,45.089,38.139,45.089,38.139s-23.525-14.436-40.634-38.673
		s-21.564-35.465-21.564-35.465s26.198,41.347,58.99,68.257s45.089,57.208,45.089,57.208s-15.327-31.901-29.584-52.396
		c-14.257-20.495-14.257-20.495-14.257-20.495s24.059,31.188,36.178,53.465c12.119,22.277,14.257,42.059,14.257,42.059
		s-1.782-41.347-31.01-94.455s-72.535-121.723-106.396-152.376s-42.174-37.604-42.174-37.604l39.501,40.99
		c0,0-24.059-25.663-43.485-40.455c-19.426-14.792-31.366-23.881-31.366-23.881s24.238,33.683,41.168,56.495
		c16.931,22.812,16.931,22.812,16.931,22.812s-19.782-24.416-36.713-45.98c-16.931-21.564-18.535-23.525-18.535-23.525
		s15.327,30.297,25.485,47.228c10.158,16.931,10.158,16.931,10.158,16.931l-27.267-43.307c0,0,11.05,34.396,21.564,56.139
		s10.515,21.743,10.515,21.743s-12.297-20.495-25.307-49.366c-13.01-28.871-19.069-51.149-19.069-51.149s-0.178,20.317,6.951,54.356
		s13.545,51.683,13.545,51.683s-8.297-22.812-15.109-49.723c-6.812-26.911-7.168-36.713-7.168-36.713s3.743,37.069,8.376,58.099
		s4.634,21.03,4.634,21.03S-593.735,150.523-599.319,125.157z"/>
	<path fill="#2B2B66" d="M-446.29,257.246c0,0,41.881,50.881,59.168,84.03c17.287,33.148,22.634,62.911,22.634,61.663
		s-3.386-26.016-13.188-58.186c-9.802-32.17-10.337-33.676-10.337-33.676s13.366,30.734,18,50.159
		c4.634,19.426,4.634,19.426,4.634,19.426s-3.921-50.792-9.267-76.812c-5.347-26.02-8.198-32.436-8.198-32.436
		s10.337,28.158,13.723,52.931s3.386,27.802,3.386,27.802s2.139-50.079-7.129-84.832s-67.723-89.287-87.861-105.861
		s-23.703-19.782-23.703-19.782l37.96,37.248c0,0-23.168-23.525-45.089-37.96c-21.921-14.436-26.02-17.287-26.02-17.287
		s9.624,8.733,34.04,37.604c24.416,28.871,24.416,28.871,24.416,28.871s-17.822-19.426-32.614-34.218
		c-14.792-14.792-15.683-16.218-15.683-16.218s21.03,27.624,27.98,34.574c6.951,6.95,6.951,6.95,6.951,6.95
		s-30.832-30.119-48.297-43.129c-17.465-13.01-23.168-15.683-23.168-15.683s37.426,40.99,62.911,76.99
		C-455.557,235.415-446.29,257.246-446.29,257.246z"/>
	<path fill="#2B2B66" d="M-391.577,237.375c0,0-23.941-33.446-42.356-53.287s-30.178-29.347-30.178-29.347
		s21.624,14.97,35.406,28.752s14.376,14.139,14.376,14.139s-15.089-17.941-25.545-28.396s-11.05-11.049-11.05-11.049
		s40.871,22.812,59.881,51.802c19.01,28.99,32.792,59.287,40.277,84c7.485,24.713,7.248,28.277,7.248,28.277
		s-3.802-15.089-10.693-30.772c-6.891-15.683-6.891-15.683-6.891-15.683s9.743,24.356,10.574,45.386
		c0.832,21.03,0.832,28.04,0.832,26.97s-9.743-42.416-17.941-64.396S-391.577,237.375-391.577,237.375z"/>
	<path fill="#2B2B66" d="M-614.29,135.613c0,0,14.792,61.106,8.152,120.089c-6.64,58.983-26.687,91.752-26.687,91.752
		s20.198-45.98,22.812-81.149c2.614-35.168-1.426-42.059-1.426-42.059s5.692,36.119-9.511,81.505s-27.559,54.847-27.559,54.847
		s23.038-47.005,27.559-83.124s4.52-36.119,4.52-36.119s-4.594,39.755-16.634,75.089c-12.04,35.334-26.376,48.152-26.376,48.152
		s20.83-34.132,29.425-72.152c8.595-38.02,8.595-38.02,8.595-38.02s-8.792,48.95-23.762,74.376
		c-14.97,25.426-21.145,30.653-21.145,30.653s13.065-43.485,19.719-113.584c6.654-70.099-0.951-117.386-0.238-116.673
		s8.079,17.644,8.079,53.109c0,0,0.535-36.713-3.743-57.921s-4.277-21.208-4.277-21.208s22.277,27.446,26.376,60.416
		c4.099,32.97,2.317,48.119,2.317,46.337c0-1.782,0.356-40.099-3.683-62.911c-4.04-22.812-8.436-33.624-8.436-33.624
		s9.861,22.574,12.713,39.446c2.851,16.871,2.851,15.564,2.851,14.851c0-0.713-2.614-25.663-5.941-38.02
		c-3.327-12.356-3.446-13.188-3.446-13.188L-614.29,135.613z"/>
	<path fill="#2B2B66" d="M-615.062,138.108c0,0,6.238,62.97,17.287,94.218c11.05,31.248,15.723,39.564,15.723,39.564
		s-8.951-26.97-13.228-46.099s-4.277-19.129-4.277-19.129s6.297,24.119,10.455,34.931c4.158,10.812,4.158,10.812,4.158,10.812
		s-10.812-47.525-15.327-81.624c-4.515-34.099-4.634-61.782-4.634-61.782s-3.564,22.574-1.663,41.347c0,0-2.495-16.634-3.802-30.059
		C-610.369,120.286-615.845,130.902-615.062,138.108z"/>
	<path fill="#2B2B66" d="M-639.24,212.603c0,0-3.446-21.921-12.535-48.119c-9.089-26.198-9.089-26.198-9.089-26.198
		s4.099,24.238,7.663,43.842c3.564,19.604,3.564,19.604,3.564,19.604s-7.842-33.327-13.01-45.267
		c-5.168-11.941-5.168-11.941-5.168-11.941s10.704,53.956,7.936,104.77c-2.768,50.814-9.718,82.359-9.718,82.359
		s9.105-29.762,13.196-63.802c0,0-0.899,27.267-6.067,46.158c0,0,15.505-21.921,17.822-54S-639.24,212.603-639.24,212.603z"/>
	<path fill="#2B2B66" d="M-660.864,174.82c0,0,0.713,19.96-17.584,81.03c-18.297,61.069-2.492,100.99-2.492,100.99
		s-9.686-22.871-10.577-50.139c-0.891-27.267,2.317-34.812,2.317-34.812s-4.412,25.366-2.473,54.416s1.939,29.049,1.939,29.049
		s-13.545-36.535-14.614-65.406c-1.069-28.871,12.832-50.792,12.832-50.792s-13.188,18.178-15.148,55.96s5.881,53.644,5.881,53.644
		s-13.723-43.307-11.941-81.802c1.782-38.495,22.099-71.747,22.099-71.747s-14.792,26.658-25.129,57.133s-9.267,38.673-9.267,38.673
		s0.951-28.515,8.911-50.376s14.733-31.96,14.733-31.96s-13.545,19.604-24.594,51.564s-5.14,60.915-5.14,60.915
		s-12.563-43.212-0.207-84.203c12.356-40.99,39.089-63.089,39.089-63.089s-22.574,16.871-40.871,55.604
		c-18.297,38.733-22.812,96-22.812,140.911s-9.267,67.01-9.267,67.01s4.752-32.317,4.752-78.891s0.951-68.673,0.951-68.673
		s0.951,46.812-5.703,100.752c-6.654,53.941,0,79.129,0,79.129s-18.535-48.951-17.347-111.208s19.96-86.614,19.96-86.614
		s-21.386,41.465-23.168,94.693c-1.782,53.228,6.772,78.57,6.772,78.57s-9.98-26.531-9.98-77.382s14.02-86.97,14.02-86.97
		s-13.69,40.158-16.469,75.802s3.162,56.791,3.162,56.791s-12.832-33.266-6.416-86.494s28.515-85.545,28.515-85.545
		s-22.128,34.455-30.311,67.485c-8.184,33.03-5.57,55.604-5.57,55.604s-11.168-41.283,13.545-101.743
		c24.713-60.46,55.158-85.474,77.347-107.662s29.584-27.446,29.584-27.446l-27.802,34.396c0,0,21.505-20.554,34.574-32.317
		c13.069-11.762,13.905-13.545,13.905-13.545s-7.132,27.683-14.261,42.178c-7.129,14.495-8.317,16.515-8.317,16.515
		s9.505-14.75,12.713-21.743c3.208-6.992,2.911-8.554,2.911-8.554S-660.864,168.642-660.864,174.82z"/>
	<path fill="#2B2B66" d="M-426.567,594.702c-8.554,21.386-4.99,35.049-4.99,35.049s-1.545-18.653,5.822-32.792
		c0,0-6.178,12.713-4.752,30.416c1.426,17.703-0.951,28.515-0.951,28.515s14.376-19.604,21.148-50.733
		c6.772-31.129,5.584-38.733,5.584-38.733s-0.861,18.475-1.752,29.614s-1.782,13.812-1.782,13.812s5.792-22.812,7.218-37.426
		c1.426-14.614-10.069-22.366-10.069-22.366S-418.012,573.316-426.567,594.702z"/>
	<path fill="#2B2B66" d="M-748.072,564.761c0,0,3.208,29.703,15.327,54.178c12.119,24.475,9.861,45.267,9.861,45.267
		s-3.653-21.03-7.307-32.436c-3.653-11.406-3.653-11.406-3.653-11.406s4.099,16.04,6.772,33.059
		c2.673,17.02,1.515,23.079,1.515,23.079s-5.168-23.792-11.584-46.515c-6.416-22.723-6.416-22.723-6.416-22.723
		s4.01,19.337,5.347,34.218c1.337,14.881,1.337,14.881,1.337,14.881s-4.129-40.812-11.198-62.287
		c-7.069-21.475-21.74-45.488-21.74-44.709c0,0.779,8.701,8.086,14.315,19.313c5.614,11.228,5.614,11.228,5.614,11.228
		s-7.752-19.158-10.782-23.525s-3.03-4.366-3.03-4.366S-750.092,558.613-748.072,564.761z"/>
	<path fill="#1D1C4E" d="M-406.28,407.484c0,0-12.119,0-12.119-0.446s-0.267-9.446-7.752-12.832
		c-7.485-3.386-22.277-6.238-44.198-6.951c-21.921-0.713-50.881-0.624-69.57,5.079c-18.689,5.703-19.005,18.802-19.005,18.802
		s-9-1.337-20.762-2.584c-11.762-1.247-19.634,0-19.634,0s-2.287-4.188-3.713-7.04c-1.426-2.851-8.644-11.851-21.743-14.614
		s-49.812-3.297-69.416-3.297s-33.446,1.634-39.683,4.129s-7.96,11.465-7.96,11.465s-12.178,0-13.307,0c0,0-3.161,8.423-0.624,10.96
		c2.538,2.538,12.832,1.604,13.188,2.673c0.356,1.069,1.337,22.99,7.218,36c5.881,13.01,27.624,17.733,38.406,19.069
		s59.792,4.901,74.495-7.307c14.703-12.208,22.723-41.792,24.683-44.822s16.574-3.327,23.049-1.96
		c6.475,1.366,16.782,2.673,17.495,7.485s4.901,22.01,17.287,37.604c12.386,15.594,60.772,15.683,69.772,14.792
		c9-0.891,31.188-1.337,40.545-15.861c9.356-14.525,9.951-41.584,9.951-41.584s5.762-0.713,9.921,0.95
		c4.158,1.663,7.752,7.931,7.752,7.931s0-5.347,0-9.446S-406.28,407.484-406.28,407.484z M-605.705,417.999
		c-1.337,5.569-2.718,8.688-3.876,8.688c-1.158,0-4.144-1.738-4.767-1.114c-0.624,0.624-5.346,6.951-5.035,11.317
		s5.035,3.743,5.035,3.743s-0.267,6.238-10.515,15.327c-10.247,9.089-34.752,9.98-54.137,8.911
		c-19.385-1.069-47.091-3.951-51.605-17.139c-4.515-13.188-8.911-52.752-2.088-56.614c6.823-3.861,32.029-4.396,32.029-4.396
		c16.289-1.017,48.238,0.475,65.465,2.257c17.228,1.782,23.554,7.04,27.416,12.624
		C-603.923,407.187-604.369,412.429-605.705,417.999z M-435.418,460.207c-5.109,6.594-21.564,8.733-34.753,9.624
		c-13.188,0.891-45.98-0.653-57.624-6.297s-16.812-20.673-16.812-20.673s3.861-0.178,3.861-2.911s0.148-7.099-2.079-9.327
		s-6.475-3.98-6.475-3.98s-4.545-10.069-4.545-15.505c0-5.436,5.079-10.871,11.571-14.792s35.746-4.812,35.746-4.812
		s21.921-1.069,42.148,0c20.228,1.069,26.644,3.653,31.099,8.109s5.436,18.624,5.436,31.157
		C-427.844,443.333-430.309,453.613-435.418,460.207z"/>
</g>
</svg>
