<svg xmlns="http://www.w3.org/2000/svg" viewBox="0 0 48 96" stroke-linecap="round" stroke-linejoin="round" stroke-width="2">

    <path d="M0 0H48V96H0Z" fill="#fff" />

    <g transform="translate(3 3)">
        <g transform="translate(0 0) scale(0.75)">
            <path d="m21 12a9 9 0 11-18 0a9 9 0 0118 0z" stroke="#374151" fill="none" />
            <path d="m12 8v4l3 3" stroke="#B91C1C" fill="none" />
        </g>
        <g transform="translate(24 0) scale(0.75)">
            <path d="M7 8v-5h2-4M17 8v-3h2-4" stroke="#B91C1C" fill="none" />
            <path d="M1 20h22v-12h-22zM10 14a3 3 90 11-6 0 3 3 90 016 0M20 14a3 3 90 11-6 0 3 3 90 016 0" stroke="#374151" fill="none" />
        </g>
        <g transform="translate(0 24) scale(0.75)">
            <path d="M12 9v4l3 3" stroke="#B91C1C" fill="none" />
            <path d="M21 13a9 9 0 11-18 0M13.5 4v-2c-1-.75-2-.75-3.5 0v2c-3-1-5.5 1.5-5.5 1.5.5-.5 3.5.5 3.5.5-1.5 0-2.5 1.5-3 3 1.5-1 5-.5 7-2 2 1.5 5.5 1 7 2-.5-1.5-1.5-3-3-3 0 0 3-1 3.5-.5 0 0-2.5-2.5-6-1.5" stroke="#374151" fill="none" />
        </g>
        <g transform="translate(24 24) scale(0.75)">
            <path d="M12 9.75v3h2.25" stroke="#B91C1C" fill="none" />
            <path d="M21 7.5l-9-5.5-9 5.5v9l9 5.25 9-5.25v-9l-4.5 2.625M3 7.5l4.5 2.625M12 21.75v-5.25" stroke="#374151" fill="none" />
        </g>
        <g transform="translate(0 48) scale(0.75)">
            <path d="M13 10v4" stroke="#B91C1C" fill="none" />
            <path d="M22 14a9 9 0 11-18 0 9 9 0 0118 0M13 5v-4h4-8" stroke="#374151" fill="none" />
        </g>
        <g transform="translate(24 48) scale(0.75)">
            <path d="M12 8v4l3 3" stroke="#B91C1C" fill="none" />
            <path d="M12 1v2M4.929 4.929l-1.414-1.414M19.778 4.222l-1.414 1.414M19 12a7 7 0 10-14 0" stroke="#374151" fill="none" />
        </g>
        <g transform="translate(0 72) scale(0.75)">
            <path d="M12 8v4l3 3" stroke="#B91C1C" fill="none" />
            <path d="M21 12a9 9 0 11-18 0 9 9 0 0118 0M2 4l3-3M19 1l3 3" stroke="#374151" fill="none" />
        </g>
        <g transform="translate(24 72) scale(0.75)">
            <path d="M12.5 6.75v3l2.25 2.25" stroke="#B91C1C" fill="none" />
            <path d="M19.25 9.75a6.75 6.75 90 11-13.5 0 6.75 6.75 90 0113.5 0M20.75 18l-1.5-1.5a.75.75 90 01-13.5-13.5l-1.5-1.5M12.5 19.5v3h2.25-5.25" stroke="#374151" fill="none" />
        </g>
    </g>
</svg>