
<svg xmlns="http://www.w3.org/2000/svg" viewBox="0 0 550.7 568">
<style>.st0{fill:#eee;}.st1{fill:#111;}.st2{fill:#f99;}.st3{fill:#456;}.st4{fill:#396;}
</style>
<path class="st0" d="M399.2,563.9H399c-4.4-0.2-7.8-3.9-7.7-8.3c0-12.8-9.1-20.3-18.2-22s-20.3,1.9-25,13.8l-4.3,10.7c-7.7,7.7-20.1,7.7-27.8,0l-0.3-0.3l0.2-0.3l75.3-154.1v-3.8c-0.1-1.2-0.1-2.3,0-3.5V7.9c0-4.4,3.6-7.9,7.9-7.9h0.2c4.4,0.2,7.8,3.9,7.7,8.3v387.9c0.1,1.2,0.1,2.3,0,3.5v3.7l75.5,154.5l-0.3,0.3c-7.7,7.7-20.1,7.7-27.8,0l-0.1-0.2l-4.2-10.5c-4.7-11.9-15.9-15.5-25-13.8s-18.2,9.2-18.2,22v0.3C407.2,560.3,403.6,563.9,399.2,563.9z"/>
<path class="st1" d="M537.1,281H261.3c-6.7,0-12.1-5.4-12.1-12.1V76.1c0-6.7,5.4-12.1,12.1-12.1h275.8c6.7,0,12.1,5.4,12.1,12.1v192.8C549.2,275.6,543.8,281,537.1,281z"/>
<path class="st0" d="M537.1,282.5H261.3c-7.5,0-13.6-6.1-13.6-13.6V76.1c0-7.5,6.1-13.6,13.6-13.6h275.8c7.5,0,13.6,6.1,13.6,13.6v192.8C550.7,276.4,544.6,282.5,537.1,282.5z M261.3,65.5c-5.8,0-10.6,4.7-10.6,10.6v192.8c0,5.8,4.7,10.6,10.6,10.6h275.8c5.8,0,10.6-4.7,10.6-10.6V76.1c0-5.8-4.7-10.6-10.6-10.6H261.3z"/>
<path class="st0" d="M440,76h-81.6c-10.8,0-19.5-8.7-19.5-19.5v-0.4h120.6v0.4C459.5,67.3,450.8,76,440,76z M440.3,293h-81.6c-10.8,0-19.5-8.7-19.5-19.5v-0.4h120.6v0.4C459.8,284.3,451.1,293,440.3,293z"/>
<path class="st2" d="M184.3,537.2h14.4l6.9-55.6h-21.3L184.3,537.2z"/>
<path class="st2" d="M112.2,535.3h14.4l6.9-55.6h-21.3L112.2,535.3z"/>
<path class="st3" d="M179.4,530.1l22.8-1.4v9.8l21.7,15c2.8,1.9,3.5,5.7,1.6,8.5c-1.1,1.6-3,2.6-5,2.6h-27.1l-4.7-9.7l-1.8,9.7h-10.2L179.4,530.1L179.4,530.1z"/>
<path class="st3" d="M103,327.7c-2.2-53.3,29.7-79.9,29.7-79.9l49.6-1.2c26.7,16,28.6,163,28.6,163l-2,82.2l-26.9-0.3l-24.6-176.1l-24.7,176l-21.9-2.2L103,327.7z M106.5,530.1l22.8-1.4v9.8l21.7,15c2.8,1.9,3.5,5.7,1.6,8.5c-1.1,1.6-3,2.6-5,2.6h-27.1l-4.7-9.7l-1.8,9.7h-10.2L106.5,530.1L106.5,530.1z"/>
<circle class="st2" cx="171.7" cy="98.1" r="25.7"/>
<path class="st3" d="M191,88.1c-2.1,4.2-5.2,10.3-1.2,17.3c-3.2,3.5-3.8,8.7-1.5,12.8c1.1,1.9,2.5,4.9,3.1,7.3s-3.6,3.2-4.1,2.9C173.8,119,136,130,136,130c-0.9,0.3-1.9-0.2-2.2-1.1c-0.1-0.3,0.4-3.8,0.2-5.2c-0.5-2.9-2-5.5-3-8.3s-1.6-5.9-0.4-8.6c2-4.1,7.5-5.4,9.9-9.2c2.7-4.3,0.6-10,1-15.1c0.6-7.2,6.5-13.1,13.2-15.9c11.6-4.9,26-0.9,34.7,8.2c2.5-1.7,10.6-2.3,13.9,4.4S199.2,98.1,191,88.1z"/>
<path class="st0" d="M190.8,390.5l-60.4-60.4c-1.5-1.5-1.5-3.8,0-5.3l42.2-42.2c1.5-1.5,3.8-1.5,5.3,0l60.4,60.4c1.5,1.4,1.5,3.8,0.1,5.3h-0.1l-42.2,42.2C194.7,392,192.3,392,190.8,390.5L190.8,390.5z"/>
<path class="st2" d="M168.1,288.3c-3.8-4.9-3-11.9,1.9-15.8c0.5-0.4,1.1-0.8,1.7-1.1l0.9-60l17.4,1.2l-2.7,64.1c2.5,5.7,0,12.4-5.7,14.9C176.9,293.8,171.3,292.4,168.1,288.3L168.1,288.3z"/>
<path class="st4" d="M196.1,213l1.5-20.8c0,0,5.2-9.6,4.3-20.4s-20.6-39.2-26.8-41s-13.5-0.9-18.5-0.8s-36.6,6.8-37.7,28c-2.6,16.8-3.6,107.9-3.6,107.9s30.2-14.7,36-15.3c5.8-0.6,33.2-1.5,51.1-11.4L196.1,213z"/>
</svg>