<svg xmlns="http://www.w3.org/2000/svg" viewBox="0 0 550.7 568"><style>.st0{fill:#f99}.st1{fill:#396}.st2{fill:#eee}.st3{fill:#fff}.st5{fill:#234}</style><path d="M139.8 150.1s-18.3-8.9-20.9 7.9-13 60.4-13 60.4l31.6-2.2 2.3-66.1z" class="st0"/><path d="M140.3 293.3c3.8-4.9 3-11.9-1.9-15.8-.5-.4-1.1-.8-1.7-1.1l-.9-100.8-18.8 8.6 4.1 97.5c-2.5 5.7 0 12.4 5.7 14.9 4.7 2.2 10.3.8 13.5-3.3z" class="st0"/><path d="M139.8 150.1s-18.3-8.9-20.9 7.9-13 60.4-13 60.4l31.6-2.2 2.3-66.1z" class="st1"/><path d="M399.2 563.9h-.2c-4.4-.2-7.8-3.9-7.7-8.3 0-12.8-9.1-20.3-18.2-22-9.1-1.7-20.3 1.9-25 13.8l-4.3 10.7c-7.7 7.7-20.1 7.7-27.8 0l-.3-.3.2-.3 75.3-154.1v-3.8c-.1-1.2-.1-2.3 0-3.5V7.9c0-4.4 3.6-7.9 7.9-7.9h.2c4.4.2 7.8 3.9 7.7 8.3v387.9c.1 1.2.1 2.3 0 3.5v3.7l75.5 154.5-.3.3c-7.7 7.7-20.1 7.7-27.8 0l-.1-.2-4.2-10.5c-4.7-11.9-15.9-15.5-25-13.8-9.1 1.7-18.2 9.2-18.2 22v.3c.3 4.3-3.3 7.9-7.7 7.9z" class="st2"/><path d="M537.1 281H261.3c-6.7 0-12.1-5.4-12.1-12.1V76.1c0-6.7 5.4-12.1 12.1-12.1h275.8c6.7 0 12.1 5.4 12.1 12.1v192.8c0 6.7-5.4 12.1-12.1 12.1z" class="st3"/><path d="M537.1 282.5H261.3c-7.5 0-13.6-6.1-13.6-13.6V76.1c0-7.5 6.1-13.6 13.6-13.6h275.8c7.5 0 13.6 6.1 13.6 13.6v192.8c0 7.5-6.1 13.6-13.6 13.6zm-275.8-217c-5.8 0-10.6 4.7-10.6 10.6v192.8c0 5.8 4.7 10.6 10.6 10.6h275.8c5.8 0 10.6-4.7 10.6-10.6V76.1c0-5.8-4.7-10.6-10.6-10.6H261.3z" class="st2"/><path d="M440 76h-81.6c-10.8 0-19.5-8.7-19.5-19.5v-.4h120.6v.4c0 10.8-8.7 19.5-19.5 19.5zM440.3 293h-81.6c-10.8 0-19.5-8.7-19.5-19.5v-.4h120.6v.4c0 10.8-8.7 19.5-19.5 19.5z" class="st2"/><path d="M184.3 537.2h14.4l6.9-55.6h-21.3z" class="st0"/><path d="m179.4 530.1 22.8-1.4v9.8l21.7 15c2.8 1.9 3.5 5.7 1.6 8.5-1.1 1.6-3 2.6-5 2.6h-27.1l-4.7-9.7-1.8 9.7h-10.2l2.7-34.5z" class="st5"/><path d="m135.3 227.9-1.4 6.7-1.2 24.8 48.2-6.5 3.7-28.7-5.1-8.4zM111.3 537.2h14.5l6.8-55.6h-21.3z" class="st0"/><path d="M103.5 438.9v-.1l5.4-25.2 3.3-12.5-9.2-73.4c-2.2-53.3 28.8-79 29-79.2l.7-.7 49.6-1.2c26.7 16 23.7 103.5 28.6 163 .3 4.2 4.7 10.5 3.7 14.5-8.5 32-6 66.7-12.6 67.7l-20-.3-10.3-46.8 9.5-35.7c-4.2-.8-7.1-21.4-7.1-21.4-1.8-2.2-8.2-20.8-8.2-20.8l-8.5-51.4-13.6 88.4 3.3 20.7-2.7 7.1-11.6 58.9-.1.9-21.9-2.2-7.3-50.3zM106.5 530.1l22.8-1.4v9.8l21.7 15c2.8 1.9 3.5 5.7 1.6 8.5-1.1 1.6-3 2.6-5 2.6h-27.1l-4.7-9.7-1.8 9.7h-10.2l2.7-34.5z" class="st5"/><path d="m175.1 130.8 12.2 13.5 14.6 27.5-7.2 34 3.1 15.9 4.6 17.5c-17.9 9.9-39.1-3.8-58.6-9.8l-19.2 8.5 1-23.3.5-58.8c.1-9.1 7.5-16.4 16.6-16.3h1.1l12.8-9.5 18.5.8z" class="st1"/><circle cx="171.7" cy="98.1" r="25.7" class="st0"/><path d="M201.9 88.8c-.5 2.5-11.3 3.7-10.9-.7-2.1 4.2-5.2 10.3-1.2 17.3-3.2 3.5-3.8 8.7-1.5 12.8 1.1 1.9 2.1 3.8 2.8 5.8.2.5.3 1 .3 1.5.2 1.6-.9 3-2.5 3.2-.5.1-1.1 0-1.6-.3-10.9-5.3-29.9-4.4-41.8-1.2.1-2.3 0-4.6-.1-6.9-.4 2.9-1.6 5.6-3.4 7.9l-6 1.8c-.9.3-1.9-.2-2.2-1.1-.1-.3-.1-.7 0-1 .4-1.4.4-2.8.2-4.2-.5-2.9-2-5.5-3-8.3s-1.6-5.9-.4-8.6c2-4.1 7.5-5.4 9.9-9.2 2.7-4.3.6-10 1-15.1.6-7.2 6.5-13.1 13.2-15.9 11.6-4.9 26-.9 34.7 8.2 2.5-1.7 5.7-1.8 8.3-.4 2.6 1.4 4.4 2.1 5.6 4.8 1.2 2.4-1 7.1-1.4 9.6z" class="st5"/><path d="m190.8 390.5-60.4-60.4c-1.5-1.5-1.5-3.8 0-5.3l42.2-42.2c1.5-1.5 3.8-1.5 5.3 0l60.4 60.4c1.5 1.4 1.5 3.8.1 5.3h-.1l-42.2 42.2c-1.4 1.5-3.8 1.5-5.3 0z" class="st2"/><path d="M168.1 288.3c-3.8-4.9-3-11.9 1.9-15.8.5-.4 1.1-.8 1.7-1.1l.9-100.8 18.8 8.6-4.1 97.5c2.5 5.7 0 12.4-5.7 14.9-4.7 2.2-10.3.8-13.5-3.3z" class="st0"/><path d="M168.6 145.1s18.3-8.9 20.9 7.9 13 60.4 13 60.4l-31.6-2.2-2.3-66.1z" class="st0"/><path d="M168.6 145.1s18.3-8.9 20.9 7.9 13 60.4 13 60.4l-31.6-2.2-2.3-66.1z" class="st1"/></svg>