<svg xmlns="http://www.w3.org/2000/svg" viewBox="0 0 455 592.4">
<style>.st0{fill:#f99;}.st1{fill:#345;}.st2{fill:#396;}.st3{fill:#eee;}
</style>
<path class="st0" d="M22.1,417.5c5.5-3.7,6.3-11.7,1.6-16.4l4.2-93l-21.2,2.4l1.2,91C-0.7,410.6,12.1,424.9,22.1,417.5L22.1,417.5z"/>
<path class="st0" d="M60.8,575 72.9,577.1 84.8,531.5 69,528.4 "/>
<path class="st1" d="M94.2,592.4l-37.9-6.7l0,0l2.6-14.7l0,0C71.3,574.1,97.3,572.6,94.2,592.4L94.2,592.4L94.2,592.4z"/>
<path class="st0" d="M27.7,581 39.9,581 45.7,533.7 27.7,533.7 "/>
<path class="st1" d="M63.6,592.4l-38.5,0l0,0l0-14.9l0,0C37.8,578.3,63.2,572.4,63.6,592.4L63.6,592.4L63.6,592.4z"/>
<path class="st1" d="M79.8,568.1c-0.2,0-0.4,0-0.6,0l-14.4-1.2c-2.8-0.3-4.7-2.9-4.2-5.7c0,0,13.3-74.7,13.3-74.7l-9-47.5c-6.6-11.8-12.6,128.6-14.5,126.8c-0.3,2.6-2.6,4.6-5.2,4.4c-4.1-1-18.2,2.1-18.1-5.1c0,0-0.9-151.8-0.9-151.8l70.5-8.8c0,0,5,76.1,4.9,76.1C99.3,482.7,87.4,572.6,79.8,568.1z"/>
<path class="st0" d="M49.4,198.7c32.3,0.6,32.3,48.6,0,49.1C17.1,247.3,17.1,199.2,49.4,198.7z"/>
<path class="st2" d="M72.5,424.4c-3.8,0-7.6-1.1-10.9-3.1c-11.9-7.4-25.4-4.5-32.4-2.1c-1.4,0.5-3,0.3-4.2-0.5c-1.2-0.8-2.1-2.1-2.2-3.6L10.1,301.6c-2.1-19,9.3-36.9,27.3-42.6c23.5-8.4,50.5,9.7,52.2,34.5c0,0,10.7,114.4,10.7,114.4C99.7,414.7,84.1,423.9,72.5,424.4z"/>
<path class="st2" d="M33.8,326l-28.7-3.2c-3.1-0.3-5.4-3.2-5.1-6.3c0-0.9,7.3-27.8,7.5-28.7c1-8.7,8.9-15,17.6-13.9c8.7,1,14.9,8.8,14,17.5l1.1,28.7C40.3,323.5,37.2,326.4,33.8,326L33.8,326z"/>
<path class="st0" d="M100.2,413.5c5-4.3,4.8-12.4-0.4-16.5l-7.1-92.8l-20.8,4.7l12.2,90.4C76.7,409.4,91.1,422,100.2,413.5z"/>
<path class="st2" d="M63.9,320.1c-3.9-1.7-0.1-29.8-0.7-33.1c-2.2-20.6,29.1-24.1,31.6-3.6c0,0,7.3,27.8,7.3,27.8c0.9,3.3-1.5,6.8-4.9,7.1C93.8,318.1,66,323.9,63.9,320.1z"/>
<path class="st1" d="M47.9,248.7c-26.1-3.5-34.9-21.9-25.9-33.9c-4.7-11.2,6.4-20.4,12.8-21.3c6.1-4.5,13.3-1.5,14.6-0.9c11.7-4.3,16.2-0.7,17,0.1c14.8,2,9.5,14.7,4.8,19.3c-5.5,0.4-16.5-0.9-15.4,7.8l0,0c1,5,6.4,15.8-0.4,14.7c-1.5-0.4-2.5-0.3-3,0.2C50.7,238.8,58,247.3,47.9,248.7z"/>
<path class="st3" d="M382,281H216c-17-0.1-17-25.9,0-26l166,0C398.9,255.1,399,280.9,382,281z"/>
<path class="st3" d="M382,73H216c-17-0.1-17-25.9,0-26l166,0C398.9,47,399,72.9,382,73z"/>
<path class="st3" d="M382,329H216c-17-0.1-17-25.9,0-26l166,0C398.9,303.1,399,328.9,382,329z"/>
<path class="st3" d="M382,377H216c-17-0.1-17-25.9,0-26l166,0C398.9,351.1,399,376.9,382,377z"/>
<path class="st2" d="M379,223.8H219c-9.1,0-16.5-7.4-16.5-16.5v-89.6c0-9.1,7.4-16.5,16.5-16.5h160c9.1,0,16.5,7.4,16.5,16.5v89.6C395.5,216.4,388.1,223.8,379,223.8z"/>
<path class="st3" d="M420,424H178c-19.3,0-35-15.7-35-35V35c0-19.3,15.7-35,35-35h242c19.3,0,35,15.7,35,35v354C455,408.3,439.3,424,420,424z M178,6c-16,0-29,13-29,29v354c0,16,13,29,29,29h242c16,0,29-13,29-29V35c0-16-13-29-29-29H178z"/>
</svg>