<svg xmlns="http://www.w3.org/2000/svg" viewBox="0 0 1058.6 572.6">
<style>.st0{fill:#396;}.st1{fill:#f99;}.st2{fill:none;stroke:#eee;stroke-width:4;}.st3{fill:#456;}.st4{fill:#345;}.st5{fill:#eee;}
</style>
<ellipse class="st0" cx="576.2" cy="518.7" rx="14.9" ry="3.7"/>
<path class="st0" d="M447.9,305.4l-10.1-6.6c0,0-16.2-40.4-16.3-40.4c-8.9-4.2-11-10.5-17.6-7.8l0,1.2c4.8,1.3,24.5,65.7,24.5,65.7l23.4,8.9L447.9,305.4z"/>
<path class="st1" d="M480.2,322.6c-4.7,1.7-14.3,1.6-18.9,1.6l-2.6-5.2l2.6-4.4c3.7-1.1,16-3.4,19.5-0.8C485.8,317,485.3,320.8,480.2,322.6z"/>
<path class="st2" d="M810.8,451.1c156.4,0.1,156.4,47.9,0,48C654.4,498.9,654.4,451.2,810.8,451.1z"/>
<path class="st3" d="M407,502.3c-16.1,1.6-13-8.8-15.7-15.9l0,0c0.9-3,2.8-4.9,1.8-8.1l13.4-3.4c2,5.1,2.9,10.9,4.2,16C414.3,498.6,417.2,501.6,407,502.3z"/>
<path class="st4" d="M437.1,352.9l-1,124.9l-17.7-3.8l0.4-25.6l6.6-31.9c0,0-13.5-29.2-15.2-35.3c0,0-4.7,47.2-7.1,56c-1,4.4,0.5,21.9-0.2,25.9c5.2,3.5,5.5,7.8,4.4,13.1c-4.6,2.3-21.5,10-17.9-5.4c-2.7-3-7.4-42.1-7.4-42.1l4-28.5l-9-47.1c0,0,41.3-16.5,48-19.1C427.1,336.8,435.7,349.8,437.1,352.9"/>
<path class="st3" d="M456.8,492.2c-3,5.8-24.6,0.1-27.7-1.1c-0.2-0.5-18.1-0.1-13-6.3c0-1.2,0.7-11.7,0.7-11.7s25,6.5,25.4,8.4C445.7,487.2,458.9,483.4,456.8,492.2z"/>
<path class="st2" d="M554.3,497.6c66,0,119.5,10.8,119.5,24c5,30.8-244,30.8-239,0"/>
<rect x="447.1" y="55.5" transform="matrix(0.17 -1 1 0.17 362 557)" class="st3" width="127.1" height="17.1"/>
<path class="st5" d="M549.6,505.8 553.4,532.5 556.6,504.7 "/>
<path class="st4" d="M429.5,490.8v16.6l3.7,14.4h2.7c2.3-8.3,4.4-25.5,4.8-34.2L429.5,490.8z"/>
<path class="st5" d="M475.4,124.5c0,0-63.5,335.3-49.1,369.5h18.2L499,161.9L475.4,124.5z"/>
<path class="st5" d="M540.4,104.4C552.1,217.5,580.6,374,558.7,509h-15.5l-27.7-368.1L540.4,104.4z"/>
<path class="st3" d="M473,65.2c2.7-9.1,11.2-15.3,20.7-15c15.8,0.4,40.2,3.3,53,16.3c23.3,41.1-35.9,173.4-72.6,73.1C474.1,139.8,462.4,100.9,473,65.2z"/>
<path class="st1" d="M576.5,407.8c3.6,1.1,6.9-0.5,10-2.1c4.8,0.2,5.8,6.9,4.2,10.6c-2.4,5.7-8,9.3-13,12.5c-2.4-6.4-10.4-6.7-13.1-13c-3.7-3.2,0.9-6.1,3-8.7c0.9-0.9,1.6-1.9,2.2-3c0.7-1.3,0.5-2.1,1.6-1.1C572.6,405,574,407.3,576.5,407.8z"/>
<path class="st1" d="M585.1,388.3c3.1-10.4-38.8-23.5-34.2-30.3s42.1,18.7,44,27.9c1.7,5.6,4.2,21.3-5.9,17.2C579.9,400.6,582.4,395,585.1,388.3z"/>
<path class="st1" d="M565.6,450.8c-2.3-5.5-13.9-15.3-17.2-6.3c4.6,9.1,15.8,16.1,26,17.3c5.2-0.6,6.7-12.5,6.7-12.5l-9.2-1.5c0,0-1.2,2.5-2.2,3.4C568.4,452.2,566.6,452,565.6,450.8z"/>
<path class="st1" d="M624.2,482.2c-0.3,4.6-35.7-10.6-35.7-10.6s32.4-7.2,32.6-5.2C621.7,471.7,624.2,476.8,624.2,482.2z"/>
<path class="st0" d="M597.9,518.4c2.7,5.2-0.1,7.8-2.9,10.7c-0.4,5.2,7.7,3.8,11,3.6c2.9-0.1,4.9-2.7,4.8-5.5c0-1.8,1.5-25.5,1.5-25.5l-13.9,0.1C598.4,501.7,597,516.8,597.9,518.4z"/>
<path class="st4" d="M597.5,473.7c-2.6-14.3-28.7-12.6-38.8-15.9c-23.5-4.6-16.4,14.7-5.4,25.5c-4.9,1.5-9.5,3.6-13,6.8c-4.6,17.6,11.7,14.5,22.2,20.5c9.6,4.6,19.2,9.1,28.6,14.1c8.8-0.5,10.7-14.8,10.8-21.9c4.9-0.3,9.6,0.4,14.4-0.7c5.6-3.9,8.4-13,8.7-19.6C606.7,474.1,602.8,472.6,597.5,473.7z"/>
<path class="st1" d="M561.6,392c17.2,0.1,17.2,26.2,0,26.3C544.4,418.2,544.5,392.1,561.6,392z"/>
<path class="st0" d="M592.8,399.4c-2.8-1.7-6.7-3.2-10-2.4c-2.3,2.4-4.5,7-2,9.9c2.2,1.5,4.6,3.3,3.9,6.3c-2.6,9.3-11.3,15.4-15.2,23.9c-3.9,7.9,3,19.5,12.3,16.2c-0.7,0.7-1.2,1.7-1.1,2.7c0.9,0.5,6,2.8,6.5,3.5c-0.9,7-1.6,16.5,8.8,13.5c9.9-2.7,32,2.3,25.6-15.2c-5.6-17-11.5-34.4-23.2-48.2C592.9,406,597.6,402.9,592.8,399.4z"/>
<path class="st4" d="M543.2,407c6.2,6.9,24.3,1.3,22.6,14.5c0.4,7.6,20,5.7,21,30.1c3.3-1.9,5.6-5.3,6.2-9.1c0,3.5,3,7,1.3,10.1c10.5-6.7,8.6-21-0.5-27.9c-6.6-6.7-4.9-15.8-4.7-24.2c-6.1-13.5-30.7-20.7-40.7-7.8C544.3,398,536.8,399.1,543.2,407z"/>
<path class="st1" d="M408.3,260.6c-0.4-0.2-28.9-11.9-25-14.3c2.9-1.2,8.4-14.5,9.5-17.7C427.8,224.9,392.6,246.4,408.3,260.6z"/>
<path class="st1" d="M421.6,229c-0.2,20.8-31.9,20.8-32,0C389.8,208.2,421.5,208.2,421.6,229z"/>
<path class="st2" d="M254.3,451.6c156.4,0.1,156.4,47.9,0,48C97.9,499.4,97.9,451.7,254.3,451.6z"/>
<path class="st2" d="M939.3,522.6c156.4,0.1,156.4,47.9,0,48C782.9,570.4,782.9,522.7,939.3,522.6z"/>
<path class="st2" d="M119.3,522.6c156.4,0.1,156.4,47.9,0,48C-37.1,570.4-37.1,522.7,119.3,522.6z"/>
<path class="st0" d="M254.3,464.7c53.5,0,53.5,15.7,0,15.7S200.8,464.7,254.3,464.7z"/>
<path class="st4" d="M253.6,475.6c-2.6,0-4.8-2.1-4.8-4.8v-32.9c0-2.6,2.1-4.8,4.8-4.8c2.6,0,4.8,2.1,4.8,4.8v32.9C258.4,473.4,256.2,475.6,253.6,475.6z"/>
<path class="st0" d="M276.9,357.1c-0.5,30.6-46.1,30.6-46.6,0C230.9,326.5,276.4,326.5,276.9,357.1z"/>
<path class="st0" d="M276.9,385.4c-0.5,30.6-46.1,30.6-46.6,0C230.9,354.8,276.4,354.8,276.9,385.4z"/>
<path class="st0" d="M276.8,413.2c-0.5,30.6-46.1,30.6-46.6,0C230.7,382.6,276.3,382.6,276.8,413.2z"/>
<path class="st0" d="M939.3,538.3c53.5,0,53.5,15.7,0,15.7S885.8,538.4,939.3,538.3z"/>
<path class="st4" d="M938.6,549.2c-2.6,0-4.8-2.1-4.8-4.8v-32.9c0-2.6,2.1-4.8,4.8-4.8c2.6,0,4.8,2.1,4.8,4.8v32.9C943.4,547.1,941.2,549.2,938.6,549.2z"/>
<path class="st0" d="M961.9,430.7c-0.5,30.6-46.1,30.6-46.6,0C915.9,400.1,961.4,400.1,961.9,430.7z"/>
<path class="st0" d="M961.9,459.1c-0.5,30.6-46.1,30.6-46.6,0C915.9,428.4,961.4,428.4,961.9,459.1z"/>
<path class="st0" d="M961.8,486.8c-0.5,30.6-46.1,30.6-46.6,0C915.7,456.2,961.3,456.2,961.8,486.8z"/>
<path class="st4" d="M394.3,229.9c1.6-3,5.9-4.2,7.1-0.4c0.8,1.2-0.5,4.2,1,4.4c5.6,1.8,9.5-13.1,14.3-10.4c1.5,1,11.9,0.7,12.8-5.6c0.7-5-21.3-13.5-31.5-13.5c-10.2,0-10.6,2.5-11.9,9s1.1,19.7,2.4,22.7C389.5,239,393.2,231.5,394.3,229.9z"/>
<path class="st3" d="M438.2,352.1c-3.6,4.8-69.3,19.7-61.7-7.5c0,0,2.7-97.7,6.2-97.9c2.6-1.8,0.4-8.7,5.2-6.6l-1.5,2.6c0.2,0.1,15.9,9.6,16.1,9.8c5.5-3.3,8.9-1.2,10.5,4.6l5.9,9.9l13.9,62.4C432.8,329.5,441.7,347.3,438.2,352.1z"/>
<path class="st1" d="M428.2,305.2c0,0,10.4-6.8,15.4-3.5c24.1,13.3-11.1,14.9-14.1,14.4L428.2,305.2z"/>
<path class="st0" d="M428.1,304.2c-1.2,2.8-21.9,2.3-23.7,2.1c-3.7-20.5-14.4-43.2-22-58.7c0,0-14.7,8.3-18.9,16.2c-0.5,3.2-3.7,16.8-2,21.3c0.2,0.6,6.7,23.2,12,32.5c-0.2,5.4,2.6,29.4,1.8,29.9s11.6,5.9,16.5,3.1c4.3-2.4,11.5-20.2,13.4-28.3c7.3-1.5,24.2-6.2,24.2-6.2S435.2,307.7,428.1,304.2z"/>
</svg>