<svg xmlns="http://www.w3.org/2000/svg" viewBox="0 0 576.5 493.5"><style>.st0{fill:#123}.st1{fill:#396}.st2{fill:#fff}.st3{fill:#eee;}</style><path d="M148.8 489V311.5h52V489c0 2.5-2 4.5-4.5 4.5h-43c-2.5 0-4.5-2-4.5-4.5z" class="st0"/><path d="M13.3 308V163.7c.1-47.8 38.8-86.6 86.7-86.7h220.3v236h-302c-2.8 0-5-2.2-5-5zm305-229H99.9c-46.7.1-84.6 37.9-84.7 84.7V308c0 1.7 1.3 3 3 3h300V79z" class="st0"/><path d="M203.3 207c-9.9 0-18-8.1-18-18V60c0-1.7-1.3-3-3-3h-70c-2.8 0-5-2.2-5-5V5c0-2.8 2.2-5 5-5h104c2.8 0 5 2.2 5 5v184c0 9.9-8.1 18-18 18z" class="st1"/><path d="M328.3 75c31.4-.1 56.9 25.3 57 56.8v164.3h112c9.4 0 17 7.6 17 16.9h-243V131.8c0-31.5 25.6-56.9 57-56.8z" class="st0"/><path d="m314.6 168.6 11.8 48.8 230.9-55.9-11.8-48.8c-.3-1.2-1.2-2.2-2.4-2.6-.4-.2-.9-.2-1.3-.2L408.3 40.8c-1.6-.8-3.6-.4-4.7 1.1l-64.3 89.7-24.2 33.8c-.1.1-.1.3-.1.4-.5.9-.6 1.8-.4 2.8z" class="st2"/><path d="M315 165.8c0 .1.1.2.2.3.1.1.3.1.4.1.1 0 .2-.1.3-.2l.1-.1 1.3-1.8 22.9-32 64.3-89.7c.8-1.1 2.2-1.4 3.3-.8l132.4 68.6 1.2.6s.1 0 .1.1h.3c.1 0 .2-.1.3-.2.1-.3 0-.6-.2-.7l-.2-.1-133.4-69.1c-1.6-.8-3.6-.4-4.7 1.1l-64.3 89.7-24.2 33.8c-.1.1-.1.3-.1.4z" class="st0"/><path d="m384.4 170.8 5.1.6 38.1 4.2 25.3 2.8 1.5.2L486 154l1.2-.9 7.5-5.8 26.5-20.7.2-1.5 9.4-85.1c.3-2.4-1.5-4.6-3.9-4.9L400.9 21c-2.4-.3-4.6 1.5-4.9 3.9l-6.7 60-3.7 33.3-3.3 29.8-1.5 13.8-.4 4c-.2 2.5 1.5 4.7 4 5z" class="st3"/><path d="m418.9 96.2 54.5 6 19.3 2.1c3.6.4 6.8-2.2 7.2-5.8s-2.2-6.8-5.8-7.2l-24-2.7-49.8-5.5c-3.6-.4-6.8 2.2-7.2 5.8-.3 3.7 2.3 6.9 5.8 7.3zM415.8 120.3c.1 0 .3.1.4.1l63.3 7 10.6 1.2c3.6.4 6.8-2.2 7.2-5.8.4-3.6-2.2-6.8-5.8-7.2l-15.3-1.7-50.1-5.6-8.4-.9c-3.6-.4-6.8 2.2-7.2 5.8-.4 3.4 1.9 6.5 5.3 7.1zM408.7 141.7c1.1 1.7 2.9 2.9 4.9 3.1l25.9 2.9 46.2 5.1 1.5.2 7.5-5.8v-1.3c-.3-3.1-2.7-5.5-5.8-5.8l-6.4-.7-25.5-2.8-18.3-2L415 132c-3.6-.4-6.8 2.2-7.2 5.8-.2 1.2.1 2.7.9 3.9zM445.1 66.7l13.6 1.5 6 .7 9.1 1c3.6.4 6.8-2.2 7.2-5.8.4-3.6-2.2-6.8-5.8-7.2l-28.6-3.2c-3.6-.4-6.8 2.2-7.2 5.8-.5 3.6 2.1 6.8 5.7 7.2z" class="st2"/><path d="m334.2 102.9 16.5 68.3 27.6 5.2 25.5 4.9 27.4 5.2 8.8 1.7c1 .2 2.1-.1 2.9-.7l7-5.5 4.4-3.5 31.6-24.6-20-82.9c-.2-.8-.6-1.6-1.2-2.2-1.1-1.1-2.6-1.5-4.1-1.1L337.5 97.6c-2.4.5-3.9 2.9-3.3 5.3z" class="st1"/><path d="M372.1 157.3c.9 3.5 4.4 5.7 7.9 4.8l72.2-17.5c3.5-.9 5.7-4.4 4.8-7.9 0-.1 0-.2-.1-.2-1-3.4-4.4-5.4-7.8-4.6l-72.2 17.5c-3.5.8-5.6 4.4-4.8 7.9zM378.3 176.5l25.5 4.9 54.1-13.1c3.5-.8 5.7-4.4 4.8-7.9-.8-3.5-4.4-5.7-7.9-4.8L382.7 173c-1.5.4-2.8 1.3-3.7 2.5-.3.3-.5.7-.7 1zM431.3 186.6l8.8 1.7c1 .2 2.1-.1 2.9-.7l7-5.5-18.7 4.5zM386.7 120.6c.9 3.5 4.4 5.7 7.9 4.8l28-6.8c3.5-.9 5.7-4.4 4.8-7.9-.2-.9-.6-1.8-1.2-2.5-1.6-2-4.2-2.9-6.7-2.3l-28 6.8c-3.5.9-5.7 4.4-4.8 7.9z" class="st2"/><path d="m403.9 181.4 27.4 5.2 8.8 1.7c1 .2 2.1-.1 2.9-.7l7-5.5-2.5.6-5.2 4.1c-.6.5-1.4.6-2.1.5l-6.5-1.2-27.4-5.2-2.4.5zm81.8-28.6.3 1.1 1.2-.9-1.5-.2zm-81.8 28.6 27.4 5.2 8.8 1.7c1 .2 2.1-.1 2.9-.7l7-5.5-2.5.6-5.2 4.1c-.6.5-1.4.6-2.1.5l-6.5-1.2-27.4-5.2-2.4.5zm0 0 27.4 5.2 8.8 1.7c1 .2 2.1-.1 2.9-.7l7-5.5-2.5.6-5.2 4.1c-.6.5-1.4.6-2.1.5l-6.5-1.2-27.4-5.2-2.4.5zm-89.3-12.8 30.9 127.7c.5 2 2.5 3.2 4.4 2.7l223.8-54.2c2-.5 3.2-2.5 2.7-4.4l-30.9-127.7c-.3-1.2-1.2-2.2-2.4-2.6-.4-.2-.9-.2-1.3-.2-.5 0-1 .2-1.5.4-.2.1-.4.2-.6.4L521.3 125l-26.7 20.8-8.9 7-32.8 25.6-5.4 4.2-5.2 4.1c-.6.5-1.4.6-2.1.5l-6.5-1.2-27.4-5.2-27.4-5.2-60.1-11.4c-.5-.1-1-.1-1.5 0-.7.2-1.3.5-1.8 1-.2.2-.4.4-.5.7-.5.8-.6 1.7-.4 2.7zm89.3 12.8 27.4 5.2 8.8 1.7c1 .2 2.1-.1 2.9-.7l7-5.5-2.5.6-5.2 4.1c-.6.5-1.4.6-2.1.5l-6.5-1.2-27.4-5.2-2.4.5zm0 0 27.4 5.2 8.8 1.7c1 .2 2.1-.1 2.9-.7l7-5.5-2.5.6-5.2 4.1c-.6.5-1.4.6-2.1.5l-6.5-1.2-27.4-5.2-2.4.5zm0 0 27.4 5.2 8.8 1.7c1 .2 2.1-.1 2.9-.7l7-5.5-2.5.6-5.2 4.1c-.6.5-1.4.6-2.1.5l-6.5-1.2-27.4-5.2-2.4.5z" class="st2"/><path d="m403.9 181.4 27.4 5.2 8.8 1.7c1 .2 2.1-.1 2.9-.7l7-5.5-2.5.6-5.2 4.1c-.6.5-1.4.6-2.1.5l-6.5-1.2-27.4-5.2-2.4.5zm81.8-28.6.3 1.1 1.2-.9-1.5-.2zm-81.8 28.6 27.4 5.2 8.8 1.7c1 .2 2.1-.1 2.9-.7l7-5.5-2.5.6-5.2 4.1c-.6.5-1.4.6-2.1.5l-6.5-1.2-27.4-5.2-2.4.5zm0 0 27.4 5.2 8.8 1.7c1 .2 2.1-.1 2.9-.7l7-5.5-2.5.6-5.2 4.1c-.6.5-1.4.6-2.1.5l-6.5-1.2-27.4-5.2-2.4.5zM316 165.9l.1.1.1-.1c.6-.6 1.5-.9 2.4-.8l59.7 11.4 25.5 4.9 27.4 5.2 8.8 1.7c1 .2 2.1-.1 2.9-.7l7-5.5-2.5.6-5.2 4.1c-.6.5-1.4.6-2.1.5l-6.5-1.2-27.4-5.2-27.4-5.2-60.1-11.4c-.5-.1-1-.1-1.5 0l-1.2 1.6zm-1.4 2.7 30.9 127.7c.5 2 2.5 3.2 4.4 2.7l223.8-54.2c2-.5 3.2-2.5 2.7-4.4l-30.9-127.7c-.3-1.2-1.2-2.2-2.4-2.6-.4-.2-.9-.2-1.3-.2-.5 0-1 .2-1.5.4-.2.1-.4.2-.6.4L521.3 125l-26.7 20.8-8.9 7-32.8 25.6-5.4 4.2-5.2 4.1c-.6.5-1.4.6-2.1.5l-6.5-1.2-27.4-5.2-27.4-5.2-60.1-11.4c-.5-.1-1-.1-1.5 0-.7.2-1.3.5-1.8 1-.2.2-.4.4-.5.7-.5.8-.6 1.7-.4 2.7zm1-.3c-.2-.8 0-1.6.5-2.2l.1-.1.1-.1c.6-.6 1.5-.9 2.4-.8l59.7 11.4 25.5 4.9 27.4 5.2 8.8 1.7c1 .2 2.1-.1 2.9-.7l7-5.5 4.4-3.5 31.5-24.6 1.2-.9 7.4-5.8 26.5-20.7 19.2-15c.3-.2.6-.4 1-.5.1 0 .2 0 .3-.1h.3c.3 0 .6 0 .9.1.8.3 1.5 1 1.7 1.9l30.9 127.7c.3 1.4-.5 2.8-1.9 3.2L349.7 298c-1.4.3-2.8-.5-3.2-1.9l-30.9-127.8zm88.3 13.1 27.4 5.2 8.8 1.7c1 .2 2.1-.1 2.9-.7l7-5.5-2.5.6-5.2 4.1c-.6.5-1.4.6-2.1.5l-6.5-1.2-27.4-5.2-2.4.5zm0 0 27.4 5.2 8.8 1.7c1 .2 2.1-.1 2.9-.7l7-5.5-2.5.6-5.2 4.1c-.6.5-1.4.6-2.1.5l-6.5-1.2-27.4-5.2-2.4.5zm0 0 27.4 5.2 8.8 1.7c1 .2 2.1-.1 2.9-.7l7-5.5-2.5.6-5.2 4.1c-.6.5-1.4.6-2.1.5l-6.5-1.2-27.4-5.2-2.4.5z" class="st0"/><path d="M515.4 219.7c-1-4.4 1.6-8.7 6-9.8l28.2-6.8c4.4-1 8.7 1.7 9.8 6 1 4.3-1.6 8.7-6 9.8l-28.2 6.8c-4.4 1-8.8-1.6-9.8-6z" class="st1"/><circle cx="203.3" cy="189" r="7" class="st2"/></svg>