<svg xmlns="http://www.w3.org/2000/svg" viewBox="0 0 757 473.4">
<style>.st0{fill:#f99;}.st1{fill:#345;}.st2{fill:#396;}.st3{fill:#eee;}
</style>
<path class="st0" d="M654.2,315.9c-2.9-4.7-1.4-10.9,3.3-13.8c0.5-0.3,1-0.6,1.6-0.8l-1.4-35.7l15.9,9.6l-1.1,32.4c1.7,5.3-1.3,11-6.6,12.7C661.5,321.7,656.6,319.9,654.2,315.9L654.2,315.9z"/>
<path class="st0" d="M626.7,459.9h-12.2l-5.9-47.3h18.1L626.7,459.9z"/>
<path class="st1" d="M605.7,456.4h23.6v14.9h-38.5C590.8,463,597.5,456.4,605.7,456.4z"/>
<path class="st0" d="M678.5,438.9l-9.2,8.1l-34.2-33.6l11.9-9.9L678.5,438.9z"/>
<path class="st1" d="M660.4,450.2l17.7-15.7l9.9,11.1l-28.8,25.6C653.7,465.1,654.3,455.7,660.4,450.2L660.4,450.2z"/>
<circle class="st0" cx="610.5" cy="130.6" r="24.6"/>
<path class="st1" d="M671.6,419l-39.3-40.8l12.9-80.8l-47.4-1.7l-7.4,69.4c-0.2,1.3,0.2,2.6,1.1,3.5l13.4,15l2.1,61.7c0,2.3,1.8,4.1,4.1,4.3l17.6,1.4c2.4-0.1,4.4-2.1,4.4-4.6l-0.4-32l17.4,19.4h0c1.4,1.5,3.8,1.9,5.8,1c0,0,15.3-9.2,15.6-9.4C673.3,423.6,673.3,420.8,671.6,419z"/>
<path class="st1" d="M621.1,150.6c2.2-5.2,4.1-12.1-0.2-15.8c-2.5-2.1-6.1-2.1-9.4-2.4c-9.2-0.7-18.7-5-23.2-13.1s-3.1-19.8,6.5-23.7s45.3,6.2,51.1,13.2s5.7,17.2,0.8,24.6s-12.2,15.1-20.6,17.9L621.1,150.6L621.1,150.6z"/>
<path class="st1" d="M494,0H7C3.1,0,0,3.1,0,7v360c0,3.9,3.1,7,7,7h487c3.9,0,7-3.1,7-7V7C501,3.1,497.9,0,494,0zM499,367c0,2.8-2.2,5-5,5H7c-2.8,0-5-2.2-5-5V7c0-2.8,2.2-5,5-5h487c2.8,0,5,2.2,5,5V367z"/>
<path class="st0" d="M503.5,189.5c5.4-1.3,10.8,2.1,12.1,7.5c0.1,0.6,0.2,1.2,0.2,1.8l34.3,9.9l-14.1,12l-30.4-11.3c-5.6-0.1-10-4.7-10-10.2C495.7,194.5,499,190.5,503.5,189.5z"/>
<path class="st2" d="M673.3,237.6l-24.6-38.5c-4.9-24.8-20.6-34.7-20.6-34.7c-7-7-22,6-22,6c-4,7.2-7.1,17.4-9.3,29l-25.8,8.3l-44.6-8.6h-0.1c-2.5-0.4-4.8,1.2-5.2,3.7l-2.3,14.1c-0.4,2,0.7,4,2.6,4.8l0.9,0.3l49.6,10.2l21.2-5.3c-3.1,34.4-1.4,69.9,1,73.5c4,6,54.5-1.5,59.5-3.5c4.7-1.9-5.4-48.9-6.8-55.3l3.3,4.6l6,45v0.1c0.4,2.4,2.7,4.1,5.2,3.7l14.1-2.3c2.1-0.3,3.6-1.9,3.9-3.9L673.3,237.6z"/>
<path class="st1" d="M1,28h499v2H1V28z"/>
<circle class="st1" cx="18" cy="15" r="6"/>
<circle class="st1" cx="35.2" cy="15" r="6"/>
<circle class="st1" cx="52.5" cy="15" r="6"/>
<path class="st1" d="M301.8,311.3c-0.6,0-1-0.4-1-1v-41c0-0.6,0.4-1,1-1s1,0.4,1,1v41C302.8,310.9,302.4,311.3,301.8,311.3zM300.5,253.3c-0.2,0-0.3,0-0.5-0.1l-56.8-33.1c-0.5-0.3-0.6-0.9-0.4-1.4c0.3-0.5,0.9-0.6,1.4-0.4l56.8,33.1c0.5,0.3,0.6,0.9,0.4,1.4C301.1,253.1,300.8,253.3,300.5,253.3L300.5,253.3z"/>
<path class="st1" d="M186.8,253.3c-0.6,0-1-0.4-1-1c0-0.4,0.2-0.7,0.5-0.9l56.8-33.1c0.5-0.3,1.1-0.1,1.4,0.4c0.3,0.5,0.1,1.1-0.4,1.4l-56.8,33.1C187.2,253.3,187,253.3,186.8,253.3L186.8,253.3zM359.5,303.3c-0.2,0-0.3,0-0.5-0.1l-56.8-33.1c-0.5-0.3-0.6-0.9-0.4-1.4c0.3-0.5,0.9-0.6,1.4-0.4l56.8,33.1c0.5,0.3,0.6,0.9,0.4,1.4C360.1,303.1,359.8,303.3,359.5,303.3z"/>
<path class="st1" d="M245.8,303.3c-0.6,0-1-0.4-1-1c0-0.4,0.2-0.7,0.5-0.9l56.8-33.1c0.5-0.3,1.1-0.1,1.4,0.4s0.1,1.1-0.4,1.4l-56.8,33.1C246.2,303.3,246,303.3,245.8,303.3zM243.8,202.3c-0.6,0-1-0.4-1-1l-0.1-36.4c0-0.6,0.4-1,1-1s1,0.4,1,1l0.1,36.4C244.8,201.9,244.4,202.3,243.8,202.3L243.8,202.3z"/>
<path class="st3" d="M256.8,221.2h-26.1c-2.5,0-4.5-2-4.5-4.5v-13.4c0-2.5,2-4.5,4.5-4.5h26.1c2.5,0,4.5,2,4.5,4.5v13.4C261.3,219.2,259.2,221.2,256.8,221.2z"/>
<path class="st1" d="M213.6,153.2h-55.4c-0.6,0-1-0.4-1-1s0.4-1,1-1h55.4c0.6,0,1,0.4,1,1S214.2,153.2,213.6,153.2zM243.7,138.9c-0.6,0-1-0.4-1-1v-34.6c0-0.6,0.4-1,1-1s1,0.4,1,1v34.6C244.7,138.5,244.3,138.9,243.7,138.9zM136.6,153.2c-0.2,0-0.4,0-0.5-0.1l-53.8-31.9c-0.5-0.3-0.6-0.9-0.3-1.4c0.3-0.5,0.9-0.6,1.4-0.3l53.8,31.9c0.5,0.3,0.6,0.9,0.4,1.4C137.3,153,137,153.2,136.6,153.2L136.6,153.2z"/>
<path class="st1" d="M82.8,185.1c-0.6,0-1-0.4-1-1c0-0.4,0.2-0.7,0.5-0.9l53.8-31.9c0.5-0.3,1.1-0.1,1.4,0.4s0.1,1.1-0.4,1.4L83.3,185C83.2,185,83,185.1,82.8,185.1z"/>
<path class="st3" d="M154.2,169.3h-13.4c-2.5,0-4.5-2-4.5-4.5v-26.1c0-2.5,2-4.5,4.5-4.5h13.4c2.5,0,4.5,2,4.5,4.5v26.1C158.7,167.3,156.7,169.3,154.2,169.3zM256.8,106h-26.1c-2.5,0-4.5-2-4.5-4.5V88.1c0-2.5,2-4.5,4.5-4.5h26.1c2.5,0,4.5,2,4.5,4.5v13.4C261.3,104,259.2,106,256.8,106zM79.2,138.3H65.8c-2.5,0-4.5-2-4.5-4.5v-26.1c0-2.5,2-4.5,4.5-4.5h13.4c2.5,0,4.5,2,4.5,4.5v26.1C83.7,136.3,81.7,138.3,79.2,138.3zM79.2,201.3H65.8c-2.5,0-4.5-2-4.5-4.5v-26.1c0-2.5,2-4.5,4.5-4.5h13.4c2.5,0,4.5,2,4.5,4.5v26.1C83.7,199.3,81.7,201.3,79.2,201.3z"/>
<path class="st1" d="M329.3,153.2h-55.4c-0.6,0-1-0.4-1-1s0.4-1,1-1h55.4c0.6,0,1,0.4,1,1S329.8,153.2,329.3,153.2zM350.8,153.2c-0.6,0-1-0.4-1-1c0-0.4,0.2-0.7,0.5-0.9l53.8-31.9c0.5-0.3,1.1-0.1,1.4,0.4s0.1,1.1-0.4,1.4l-53.8,31.9C351.2,153.2,351,153.2,350.8,153.2L350.8,153.2z"/>
<path class="st1" d="M404.6,185.1c-0.2,0-0.4,0-0.5-0.1l-53.8-31.9c-0.5-0.3-0.6-0.9-0.4-1.4s0.9-0.6,1.4-0.4l53.8,31.9c0.5,0.3,0.6,0.9,0.4,1.4C405.3,184.9,405,185.1,404.6,185.1z"/>
<path class="st3" d="M346.6,169.3h-13.4c-2.5,0-4.5-2-4.5-4.5v-26.1c0-2.5,2-4.5,4.5-4.5h13.4c2.5,0,4.5,2,4.5,4.5v26.1C351.1,167.3,349.1,169.3,346.6,169.3zM421.6,138.3h-13.4c-2.5,0-4.5-2-4.5-4.5v-26.1c0-2.5,2-4.5,4.5-4.5h13.4c2.5,0,4.5,2,4.5,4.5v26.1C426.1,136.3,424.1,138.3,421.6,138.3zM421.6,201.3h-13.4c-2.5,0-4.5-2-4.5-4.5v-26.1c0-2.5,2-4.5,4.5-4.5h13.4c2.5,0,4.5,2,4.5,4.5v26.1C426.1,199.3,424.1,201.3,421.6,201.3zM198.8,272.2h-26.1c-2.5,0-4.5-2-4.5-4.5v-13.4c0-2.5,2-4.5,4.5-4.5h26.1c2.5,0,4.5,2,4.5,4.5v13.4C203.3,270.2,201.2,272.2,198.8,272.2zM314.6,272.2h-26.1c-2.5,0-4.5-2-4.5-4.5v-13.4c0-2.5,2-4.5,4.5-4.5h26.1c2.5,0,4.5,2,4.5,4.5v13.4C319.1,270.2,317.1,272.2,314.6,272.2zM261.6,321.2h-26.1c-2.5,0-4.5-2-4.5-4.5v-13.4c0-2.5,2-4.5,4.5-4.5h26.1c2.5,0,4.5,2,4.5,4.5v13.4C266.1,319.2,264.1,321.2,261.6,321.2zM372.6,321.2h-26.1c-2.5,0-4.5-2-4.5-4.5v-13.4c0-2.5,2-4.5,4.5-4.5h26.1c2.5,0,4.5,2,4.5,4.5v13.4C377.1,319.2,375.1,321.2,372.6,321.2zM314.6,321.2h-26.1c-2.5,0-4.5-2-4.5-4.5v-13.4c0-2.5,2-4.5,4.5-4.5h26.1c2.5,0,4.5,2,4.5,4.5v13.4C319.1,319.2,317.1,321.2,314.6,321.2z"/>
<path class="st2" d="M275.4,169.6h-63.3c-2.5,0-4.5-2-4.5-4.5v-25.8c0-2.5,2-4.5,4.5-4.5h63.3c2.5,0,4.5,2,4.5,4.5v25.8C279.9,167.6,277.9,169.6,275.4,169.6z"/>
</svg>