<svg xmlns="http://www.w3.org/2000/svg" viewBox="0 0 757 473.4"><style>.st0{fill:#f99}.st1{fill:#396}.st2{fill:#456}.st3{fill:#456}.st4{fill:#ccc}</style><path d="M654.2 315.9c-2.9-4.7-1.4-10.9 3.3-13.8.5-.3 1-.6 1.6-.8l-1.4-35.7 15.9 9.6-1.1 32.4c1.7 5.3-1.3 11-6.6 12.7-4.4 1.4-9.3-.4-11.7-4.4z" class="st0"/><path d="m675.4 292.7-14.1 2.3c-2.5.4-4.8-1.3-5.2-3.7v-.1l-6-45-29.5-40.4c-4.4-6.1-3.1-14.6 3-19 .2-.2.5-.3.7-.5 6.3-4 14.7-2.2 18.8 4.1l30.2 47.2 6 50.2v1c-.3 2-1.8 3.6-3.9 3.9z" class="st1"/><path d="M626.7 459.9h-12.2l-5.9-47.3h18.1z" class="st0"/><path d="M605.7 456.4h23.6v14.9h-38.5c0-8.3 6.7-14.9 14.9-14.9z" class="st2"/><path d="m678.5 438.9-9.2 8.1-34.2-33.6 11.9-9.9z" class="st0"/><path d="m660.4 450.2 17.7-15.7 9.9 11.1-28.8 25.6c-5.5-6.1-4.9-15.5 1.2-21z" class="st2"/><circle cx="610.5" cy="130.6" r="24.6" class="st0"/><path d="m628.2 451-17.1-1.4c-2.3-.2-4.1-2-4.1-4.3l-4.8-143.8c-.1-2.3 1.6-4.3 3.9-4.6l34-4.7c2.5-.3 4.7 1.4 5.1 3.8.1.5.1.9 0 1.4l-13 76.2c0 .2-.1.4 0 .6l.9 72.2c0 2.5-2 4.5-4.4 4.6h-.5z" class="st2"/><path d="m650.1 433.8-58.6-65.2c-.9-.9-1.3-2.2-1.1-3.5l7.4-69.4c.3-2.4 2.4-4.2 4.8-4l36 2.4c2.5.2 4.4 2.3 4.2 4.8 0 .4-.1.8-.2 1.1L621 363.8c-.4 1.2-.1 2.6.8 3.6l49.8 51.6c1.7 1.8 1.7 4.6-.1 6.4-.3.2-.5.5-.8.6l-14.8 8.8c-2 .9-4.4.5-5.8-1z" class="st2"/><path d="M606.1 170.4s15-13 22-6c0 0 32.5 20.5 18.5 76.5 0 0 12 54 7 56s-55.5 9.5-59.5 3.5-6-98 12-130z" class="st1"/><path d="M621.1 150.6c2.2-5.2 4.1-12.1-.2-15.8-2.5-2.1-6.1-2.1-9.4-2.4-9.2-.7-18.7-5-23.2-13.1s-2-20.1 6.5-23.7c5.7-2.5 12.3-.8 18.3.9l18 5.1c5.4 1.5 11 3.2 14.8 7.2 6.1 6.4 5.7 17.2.8 24.6s-12.2 15.1-20.6 17.9l-5-.7z" class="st2"/><path d="M494 0H7C3.1 0 0 3.1 0 7v360c0 3.9 3.1 7 7 7h487c3.9 0 7-3.1 7-7V7c0-3.9-3.1-7-7-7zm5 367c0 2.8-2.2 5-5 5H7c-2.8 0-5-2.2-5-5V7c0-2.8 2.2-5 5-5h487c2.8 0 5 2.2 5 5v360z" class="st3"/><path d="M503.5 189.5c5.4-1.3 10.8 2.1 12.1 7.5.1.6.2 1.2.2 1.8l34.3 9.9-14.1 12-30.4-11.3c-5.6-.1-10-4.7-10-10.2.1-4.7 3.4-8.7 7.9-9.7z" class="st0"/><path d="m518.8 216.9 2.3-14.1c.4-2.5 2.7-4.1 5.2-3.7h.1l44.6 8.6 47.7-15.3c7.1-2.3 14.8 1.7 17.1 8.8.1.3.2.5.2.8 1.8 7.3-2.6 14.7-9.8 16.5l-54.3 13.7-49.6-10.2-.9-.3c-1.9-.8-3-2.8-2.6-4.8z" class="st1"/><path d="M1 28h499v2H1z" class="st3"/><circle cx="18" cy="15" r="6" class="st3"/><circle cx="35.2" cy="15" r="6" class="st3"/><circle cx="52.5" cy="15" r="6" class="st3"/><path d="M301.8 311.3c-.6 0-1-.4-1-1v-41c0-.6.4-1 1-1s1 .4 1 1v41c0 .6-.4 1-1 1zM300.5 253.3c-.2 0-.3 0-.5-.1l-56.8-33.1c-.5-.3-.6-.9-.4-1.4.3-.5.9-.6 1.4-.4l56.8 33.1c.5.3.6.9.4 1.4-.3.3-.6.5-.9.5z" class="st3"/><path d="M186.8 253.3c-.6 0-1-.4-1-1 0-.4.2-.7.5-.9l56.8-33.1c.5-.3 1.1-.1 1.4.4.3.5.1 1.1-.4 1.4l-56.8 33.1c-.1.1-.3.1-.5.1zM359.5 303.3c-.2 0-.3 0-.5-.1l-56.8-33.1c-.5-.3-.6-.9-.4-1.4.3-.5.9-.6 1.4-.4l56.8 33.1c.5.3.6.9.4 1.4-.3.3-.6.5-.9.5z" class="st3"/><path d="M245.8 303.3c-.6 0-1-.4-1-1 0-.4.2-.7.5-.9l56.8-33.1c.5-.3 1.1-.1 1.4.4.3.5.1 1.1-.4 1.4l-56.8 33.1c-.1.1-.3.1-.5.1zM243.8 202.3c-.6 0-1-.4-1-1l-.1-36.4c0-.6.4-1 1-1s1 .4 1 1l.1 36.4c0 .6-.4 1-1 1z" class="st3"/><path d="M256.8 221.2h-26.1c-2.5 0-4.5-2-4.5-4.5v-13.4c0-2.5 2-4.5 4.5-4.5h26.1c2.5 0 4.5 2 4.5 4.5v13.4c0 2.5-2.1 4.5-4.5 4.5z" class="st4"/><path d="M213.6 153.2h-55.4c-.6 0-1-.4-1-1s.4-1 1-1h55.4c.6 0 1 .4 1 1s-.4 1-1 1zM243.7 138.9c-.6 0-1-.4-1-1v-34.6c0-.6.4-1 1-1s1 .4 1 1v34.6c0 .6-.4 1-1 1zM136.6 153.2c-.2 0-.4 0-.5-.1l-53.8-31.9c-.5-.3-.6-.9-.3-1.4.3-.5.9-.6 1.4-.3l53.8 31.9c.5.3.6.9.4 1.4-.3.2-.6.4-1 .4z" class="st3"/><path d="M82.8 185.1c-.6 0-1-.4-1-1 0-.4.2-.7.5-.9l53.8-31.9c.5-.3 1.1-.1 1.4.4s.1 1.1-.4 1.4L83.3 185c-.1 0-.3.1-.5.1z" class="st3"/><path d="M154.2 169.3h-13.4c-2.5 0-4.5-2-4.5-4.5v-26.1c0-2.5 2-4.5 4.5-4.5h13.4c2.5 0 4.5 2 4.5 4.5v26.1c0 2.5-2 4.5-4.5 4.5zM256.8 106h-26.1c-2.5 0-4.5-2-4.5-4.5V88.1c0-2.5 2-4.5 4.5-4.5h26.1c2.5 0 4.5 2 4.5 4.5v13.4c0 2.5-2.1 4.5-4.5 4.5zM79.2 138.3H65.8c-2.5 0-4.5-2-4.5-4.5v-26.1c0-2.5 2-4.5 4.5-4.5h13.4c2.5 0 4.5 2 4.5 4.5v26.1c0 2.5-2 4.5-4.5 4.5zM79.2 201.3H65.8c-2.5 0-4.5-2-4.5-4.5v-26.1c0-2.5 2-4.5 4.5-4.5h13.4c2.5 0 4.5 2 4.5 4.5v26.1c0 2.5-2 4.5-4.5 4.5z" class="st4"/><path d="M329.3 153.2h-55.4c-.6 0-1-.4-1-1s.4-1 1-1h55.4c.6 0 1 .4 1 1s-.5 1-1 1zM350.8 153.2c-.6 0-1-.4-1-1 0-.4.2-.7.5-.9l53.8-31.9c.5-.3 1.1-.1 1.4.4s.1 1.1-.4 1.4l-53.8 31.9c-.1.1-.3.1-.5.1z" class="st3"/><path d="M404.6 185.1c-.2 0-.4 0-.5-.1l-53.8-31.9c-.5-.3-.6-.9-.4-1.4s.9-.6 1.4-.4l53.8 31.9c.5.3.6.9.4 1.4-.2.3-.5.5-.9.5z" class="st3"/><path d="M346.6 169.3h-13.4c-2.5 0-4.5-2-4.5-4.5v-26.1c0-2.5 2-4.5 4.5-4.5h13.4c2.5 0 4.5 2 4.5 4.5v26.1c0 2.5-2 4.5-4.5 4.5zM421.6 138.3h-13.4c-2.5 0-4.5-2-4.5-4.5v-26.1c0-2.5 2-4.5 4.5-4.5h13.4c2.5 0 4.5 2 4.5 4.5v26.1c0 2.5-2 4.5-4.5 4.5zM421.6 201.3h-13.4c-2.5 0-4.5-2-4.5-4.5v-26.1c0-2.5 2-4.5 4.5-4.5h13.4c2.5 0 4.5 2 4.5 4.5v26.1c0 2.5-2 4.5-4.5 4.5zM198.8 272.2h-26.1c-2.5 0-4.5-2-4.5-4.5v-13.4c0-2.5 2-4.5 4.5-4.5h26.1c2.5 0 4.5 2 4.5 4.5v13.4c0 2.5-2.1 4.5-4.5 4.5zM314.6 272.2h-26.1c-2.5 0-4.5-2-4.5-4.5v-13.4c0-2.5 2-4.5 4.5-4.5h26.1c2.5 0 4.5 2 4.5 4.5v13.4c0 2.5-2 4.5-4.5 4.5zM261.6 321.2h-26.1c-2.5 0-4.5-2-4.5-4.5v-13.4c0-2.5 2-4.5 4.5-4.5h26.1c2.5 0 4.5 2 4.5 4.5v13.4c0 2.5-2 4.5-4.5 4.5zM372.6 321.2h-26.1c-2.5 0-4.5-2-4.5-4.5v-13.4c0-2.5 2-4.5 4.5-4.5h26.1c2.5 0 4.5 2 4.5 4.5v13.4c0 2.5-2 4.5-4.5 4.5zM314.6 321.2h-26.1c-2.5 0-4.5-2-4.5-4.5v-13.4c0-2.5 2-4.5 4.5-4.5h26.1c2.5 0 4.5 2 4.5 4.5v13.4c0 2.5-2 4.5-4.5 4.5z" class="st4"/><path d="M275.4 169.6h-63.3c-2.5 0-4.5-2-4.5-4.5v-25.8c0-2.5 2-4.5 4.5-4.5h63.3c2.5 0 4.5 2 4.5 4.5v25.8c0 2.5-2 4.5-4.5 4.5z" class="st1"/></svg>