<svg xmlns="http://www.w3.org/2000/svg" viewBox="0 0 933.3 528"><style>.st0{fill:#eee}.st1{fill:#fff}.st2{fill:#ccc}.st3{fill:#345}.st4{fill:#396}.st5{fill:#f99}.st6{fill:#456}</style><path d="M809.4 259h-603c-18.2 0-33-14.8-33-33V33c0-18.2 14.8-33 33-33h603c18.2 0 33 14.8 33 33v193c0 18.2-14.8 33-33 33z" class="st0"/><path d="M207.4 13c-11 0-20 9-20 20v193c0 11 9 20 20 20h603c11 0 20-9 20-20V33c0-11-9-20-20-20h-603z" class="st1"/><path d="M283.1 93.7c-12.1 0-21.9-9.8-21.9-21.9 0-12.1 9.8-21.9 21.9-21.9 12.1 0 21.9 9.8 21.9 21.9 0 12.1-9.8 21.9-21.9 21.9zm0-40.9c-10.5 0-19 8.5-19 19s8.5 19 19 19 19-8.5 19-19c-.1-10.4-8.6-18.9-19-19z" class="st2"/><path d="m282.6 66.9-2.4 1.2-.3-1.4 2.9-1.6h1.5v13.3h-1.7V66.9z" class="st2"/><path d="M253.2 129.1c1.4 0 2.6-1.1 2.7-2.5s-1.1-2.6-2.5-2.7-2.6 1.1-2.7 2.5v.2c0 1.4 1.1 2.5 2.5 2.5zM253.2 145.2c1.4 0 2.6-1.1 2.7-2.5s-1.1-2.6-2.5-2.7-2.6 1.1-2.7 2.5v.2c0 1.3 1.1 2.4 2.5 2.5zM314 128h-46.7c-.8 0-1.5-.7-1.5-1.5s.7-1.5 1.5-1.5H314c.8 0 1.5.7 1.5 1.5s-.7 1.5-1.5 1.5zM314 144.1h-46.7c-.8 0-1.5-.7-1.5-1.5s.7-1.5 1.5-1.5H314c.8 0 1.5.7 1.5 1.5s-.7 1.5-1.5 1.5z" class="st0"/><path d="M418.8 90.7c-12.1 0-21.9-9.8-21.9-21.9 0-12.1 9.8-21.9 21.9-21.9s21.9 9.8 21.9 21.9-9.8 21.9-21.9 21.9zm0-40.9c-10.5 0-19 8.5-19 19s8.5 19 19 19 19-8.5 19-19c-.1-10.4-8.6-18.9-19-19z" class="st2"/><path d="M414.9 75.6v-1.1l1.4-1.4c3.4-3.2 4.9-5 5-7 .1-1.3-.8-2.5-2.1-2.6h-.5c-1 0-2 .4-2.8 1.1l-.6-1.3c1.1-.9 2.4-1.4 3.8-1.4 2.1-.2 3.9 1.3 4.1 3.4v.5c0 2.5-1.8 4.4-4.6 7.1l-1.1 1h6v1.5h-8.6z" class="st2"/><path d="M476.8 208h-116c-5 0-9-4-9-9v-69c0-5 4-9 9-9h116c5 0 9 4 9 9v69c0 4.9-4.1 9-9 9z" class="st1"/><path d="M458.2 139.6h-78.9c-.8 0-1.5-.7-1.5-1.5s.7-1.5 1.5-1.5h78.9c.8 0 1.5.7 1.5 1.5s-.7 1.5-1.5 1.5zM458.2 152.8h-78.9c-.8 0-1.5-.7-1.5-1.5s.7-1.5 1.5-1.5h78.9c.8 0 1.5.7 1.5 1.5-.1.8-.7 1.5-1.5 1.5zM458.2 165.9h-78.9c-.8 0-1.5-.7-1.5-1.5s.7-1.5 1.5-1.5h78.9c.8 0 1.5.7 1.5 1.5s-.7 1.5-1.5 1.5zM458.2 179.1h-78.9c-.8 0-1.5-.7-1.5-1.5s.7-1.5 1.5-1.5h78.9c.8 0 1.5.7 1.5 1.5-.1.8-.7 1.5-1.5 1.5zM458.2 192.2h-78.9c-.8 0-1.5-.7-1.5-1.5s.7-1.5 1.5-1.5h78.9c.8 0 1.5.7 1.5 1.5 0 .9-.7 1.5-1.5 1.5z" class="st0"/><path d="M476.8 208h-116c-5 0-9-4-9-9v-69c0-5 4-9 9-9h116c5 0 9 4 9 9v69c0 4.9-4.1 9-9 9zm-116-85c-3.9 0-7 3.1-7 7v69c0 3.9 3.1 7 7 7h116c3.9 0 7-3.1 7-7v-69c0-3.9-3.1-7-7-7h-116z" class="st0"/><path d="M565.5 90.7c-12.1 0-21.9-9.8-21.9-21.9 0-12.1 9.8-21.9 21.9-21.9s21.9 9.8 21.9 21.9c0 12.1-9.8 21.9-21.9 21.9zm0-40.9c-10.5 0-19 8.5-19 19s8.5 19 19 19 19-8.5 19-19c0-10.4-8.5-18.9-19-19z" class="st2"/><path d="M561.9 73.4c.9.5 1.9.8 2.9.8 2.3 0 3-1.5 3-2.6 0-1.9-1.7-2.7-3.4-2.7h-1v-1.4h1c1.3 0 3-.7 3-2.3 0-1.1-.7-2-2.3-2-1 0-1.9.3-2.7.9l-.5-1.3c1-.7 2.2-1 3.5-1 2.6 0 3.8 1.6 3.8 3.2 0 1.5-1 2.8-2.5 3.1 1.7.2 3 1.7 3 3.4 0 2.1-1.7 4-4.8 4-1.2 0-2.4-.3-3.5-.9l.5-1.2z" class="st2"/><path d="M606.5 168h-82c-3.9 0-7-3.1-7-7v-33c0-3.9 3.1-7 7-7h82c3.9 0 7 3.1 7 7v33c0 3.8-3.1 7-7 7zm-82-45c-2.8 0-5 2.2-5 5v33c0 2.8 2.2 5 5 5h82c2.8 0 5-2.2 5-5v-33c0-2.8-2.2-5-5-5h-82z" class="st0"/><path d="m519.691 164.105 90.988-41.008.822 1.823-90.988 41.008z" class="st0"/><path d="m520.021 124.432.834-1.818 90.436 41.492-.834 1.818z" class="st0"/><path d="M673.9 145.8c-.1-.1-.1-.2-.2-.3l-11-11c-.6-.6-1.5-.6-2.1 0-.6.6-.6 1.5 0 2.1l8.5 8.5h-37.4c-.8 0-1.5.7-1.5 1.5s.7 1.5 1.5 1.5h37.4l-7.7 7.7c-.6.6-.6 1.5 0 2.1.6.6 1.5.6 2.1 0l10.2-10.2c.4-.6.5-1.3.2-1.9z" class="st2"/><path d="M767.2 117.1h-.7V98.4c0-6-4.9-10.9-10.9-10.9h-39.7c-6 0-10.9 4.9-10.9 10.9v102.9c0 6 4.9 10.9 10.9 10.9h39.7c6 0 10.9-4.9 10.9-10.9v-70.8h.7v-13.4z" class="st3"/><path d="M764.2 98.4v102.7c0 4.5-3.6 8.1-8.1 8.1h-39.9c-4.5 0-8.1-3.6-8.1-8.1V98.4c0-4.5 3.6-8.1 8.1-8.1h4.8c-.8 2 .1 4.2 2.1 5 .5.2 1 .3 1.4.3h22.8c2.1 0 3.9-1.7 3.8-3.9 0-.5-.1-1-.3-1.4h5.2c4.5 0 8.2 3.7 8.2 8.1z" class="st1"/><path d="M241 217.1c-.8-1.1-1.1-2.5-.8-3.8 3.8-15.9 3.8-32.4 0-48.3-.3-1.3 0-2.7.8-3.8.8-1 2.1-1.7 3.4-1.7H285c2.1 0 4 1.6 4.3 3.7 2.6 17.2 2.6 34.6 0 51.8-.3 2.1-2.2 3.7-4.3 3.7h-40.5c-1.4.1-2.6-.6-3.5-1.6z" class="st4"/><path d="M277.1 181.4h-21.3c-1.7 0-3-1.3-3-3v-1.3c0-1.7 1.3-3 3-3h21.3c1.7 0 3 1.3 3 3v1.3c0 1.7-1.3 3-3 3zM277.1 194h-21.3c-1.7 0-3-1.3-3-3v-1.3c0-1.7 1.3-3 3-3h21.3c1.7 0 3 1.3 3 3v1.3c0 1.6-1.3 3-3 3z" class="st1"/><path d="M615.9 254c-2.6-16.9-2.6-34.1 0-51 .3-2.1 2.1-3.6 4.2-3.6H660c1.3 0 2.5.6 3.4 1.6.8 1 1.1 2.4.8 3.7-3.7 15.6-3.7 31.9 0 47.5.3 1.3 0 2.7-.8 3.7s-2 1.6-3.4 1.6h-39.9c-2.1.1-3.9-1.4-4.2-3.5z" class="st4"/><path d="M648.4 225.4h-20.9c-1.7 0-3-1.3-3-3v-1.2c0-1.7 1.3-3 3-3h20.9c1.7 0 3 1.3 3 3v1.2c0 1.6-1.3 3-3 3z" class="st1"/><path d="M896.6 331.4c2.5-5 .7-11-4.1-13.9-.5-.3-1-.5-1.5-.7l-.8-36.3-14.5 10.7 3 32.8c-1.1 4.5.9 9.2 4.9 11.6 4.5 2.5 10.1.9 12.6-3.6.1-.1.3-.4.4-.6z" class="st5"/><path d="m890.5 315.3-10.4.6c-2.3.1-4.3-1.7-4.5-3.9l-8.6-64.9-14-39.6c-1.2-3.3-1-6.9.4-10.1 1.3-3.1 3.9-5.6 7.1-6.7 6.4-2.3 13.3 1.3 15.5 8.1l14.2 45.4 4.4 66.3c.1 1.2-.3 2.4-1 3.3-.5.6-1.1 1-1.8 1.3-.6.1-1 .2-1.3.2z" class="st3"/><path d="M829.8 514.9h-12.2l-5.8-47.3h18.1z" class="st5"/><path d="M833 526.8h-39.5v-.5c0-8.5 6.9-15.4 15.4-15.4H833v15.9z" class="st6"/><path d="M865.8 514.9h-12.2l-5.8-47.3h18.1z" class="st5"/><path d="M869 526.8h-39.5v-.5c0-8.5 6.9-15.4 15.4-15.4H869v15.9zM874.1 323.8l-2.9 173.7c0 2.2-1.9 4-4.1 3.9h-.3l-14.3-1.3c-1.9-.2-3.5-1.7-3.6-3.7l-8.4-108.3c0-.6-.5-1-1.1-.9-.5 0-.9.5-.9 1L834.3 499c-.1 2.1-1.8 3.8-4 3.8h-15.4c-2.1 0-3.9-1.6-4-3.8l-10.8-176.2 64-16 10 17z" class="st6"/><circle cx="827.7" cy="136.1" r="24.6" class="st5"/><path d="M797.9 329c-.9-.8-1.4-2-1.4-3.2l-1.7-118.4c-.2-12.4 7.6-23.4 19.3-27.4 2.3-10.4 14.5-11.7 21.7-11.6 3.6.1 7 1.9 9 4.9l5.1 7.7 11.3 6.6c10.7 6.3 16.2 18.7 13.5 30.8l-1.7 7.9c-6.1 28-5.5 57 1.7 84.7l3.5 13.3c.6 2.4-.8 4.9-3.2 5.5-.5.1-1 .2-1.5.1l-4.1-.3c-2.2-.2-3.9-1.9-4.1-4l-.7-6.7c0-.3-.3-.5-.5-.4-.2 0-.4.2-.4.4l-.7 6.5c-.2 2.3-2.1 4-4.4 4.1l-57.4.9h-.1c-1.3-.2-2.4-.6-3.2-1.4z" class="st3"/><path d="M829.6 150.3c.1 3.5 2.5 5.5 5.5 7.3s6.4 2.6 9.8 3.4c1.5.8 3.3.2 4.1-1.2.2-.4.3-.9.4-1.4l3.1-11.8c1.1-3.8 1.9-7.6 2.4-11.5.7-7.5-1-15.6-6.3-21s-14.3-7.4-20.6-3.2c-7.5-9.5-41.5 11.5-33.1 18.1 1.5 1.2 3.8-.3 5.7-.5s4 .2 5.2 1.7c1.6 1.9.9 4.8 1.5 7.2 1.1 3.5 4.9 5.5 8.4 4.4h.1c1.6-.8 3-1.7 4.4-2.8 1.5-1 3.3-1.7 4.9-1.1 2.2.8 2.9 3.5 3.1 5.7.3 2.2.8 4.5 1.4 6.7z" class="st6"/><path d="m823.8 216.1-4 49-21 51 31-50z" style="opacity:.2;enable-background:new"/><path d="M793.9 335.1c4.3-3.5 5-9.8 1.5-14.1-.4-.5-.8-.9-1.2-1.3l13.4-33.1-18.2 3.7-9.9 30.9c-3.4 4.4-2.5 10.8 1.9 14.2 3.7 2.7 8.9 2.7 12.5-.3z" class="st5"/><path d="m793.5 320.5-10.3-3.7c-2.2-.8-3.4-3.2-2.8-5.4l17-62.2L800 193c.3-7.1 6.3-12.5 13.4-12.2 7.1.3 12.5 6.3 12.2 13.4v.4L821 256l-21.7 61.7c-.7 1.9-2.5 3.1-4.6 3-.4 0-.8-.1-1.2-.2z" class="st3"/><path d="m51.4 500.7 11 5.4 26-39.9-16.2-8z" class="st5"/><path d="M50.3 495.7 72 506.4c7.6 3.7 10.8 13 7 20.6l-.2.4L43.3 510l7-14.3z" class="st6"/><path d="M160.5 519.5h12.2l5.8-47.3h-18.1z" class="st5"/><path d="M157.3 511.5h24.1c8.5 0 15.4 6.9 15.4 15.4v.5h-39.5v-15.9z" class="st6"/><circle cx="134.1" cy="168.6" r="24.6" class="st5"/><path d="M158.6 503.9c-2.4 0-4.4-1.9-4.5-4.3l-9.5-126.4c0-.8-.7-1.5-1.5-1.4-.5 0-1 .3-1.3.8L81 488.5c-1.1 2.2-3.8 3-6 1.9L58.1 482c-2.2-1.1-3.1-3.8-2-6l36.2-73.4 24-55c9.3-18.2 19.1-27.7 30.1-28.8 11.3-1.1 23.3 6.6 36.8 23.7l.1.1v.2l-2 154.4c0 2.3-1.8 4.3-4.1 4.5L159 504c-.1-.1-.3-.1-.4-.1z" class="st6"/><path d="M108.2 356.4c5-3.1 6.6-9.7 3.5-14.8-.3-.5-.7-1-1.1-1.5l3.7-97.9-18 2.2-1.5 95.2c-4.2 4.3-4.1 11.1.2 15.3 3.5 3.6 9 4.2 13.2 1.5z" class="st5"/><path d="m119.6 259.6-24.2-2.7c-2.6-.3-4.5-2.7-4.2-5.3 0-.2.1-.5.1-.7l6.2-23.4c.9-7.3 7.5-12.6 14.9-11.7 7.3.9 12.5 7.5 11.7 14.8l.8 24.2c.1 2.7-2 4.9-4.7 5-.1-.2-.4-.2-.6-.2z" class="st6"/><path d="M223.7 198c-.1.5-.2 1.1-.2 1.6l-43 24.8-10.4-6-11.2 14.6 17.5 12.4c2.9 2.1 6.8 2 9.6-.2l44.3-34.9c5.4 2 11.5-.8 13.5-6.2s-.8-11.5-6.2-13.5-11.5.8-13.5 6.2c-.2.3-.3.8-.4 1.2z" class="st5"/><path d="m179.1 225.6-13.9 18c-1.5 2-4.3 2.3-6.3.8-.2-.1-.3-.3-.5-.4l-15.7-16.3c-5.4-4.2-6.4-12.1-2.2-17.5s12-6.4 17.5-2.2l19.7 11c2.2 1.2 2.9 4 1.7 6.1-.1.1-.2.3-.3.5z" class="st6"/><path d="m190.4 350.1-26.7-129.8c-2.6-12.8-14.9-21.3-27.9-19.1l-8.9 1.5c-6.2 1-11.8 4.5-15.5 9.7-5.9 8.2-7.7 18.6-5 28.3l14.7 52.7-10.9 56.4c-.4 2.2 1 4.3 3.2 4.7.4.1.9.1 1.3 0 5.5-.8 14.5-1.9 24.8-2.5l5.6-21.6 2.3 21.3c12.7-.4 26.5.3 37.9 3.2 2.1.6 4.3-.7 4.9-2.8.3-.7.3-1.4.2-2z" class="st4"/><path d="M162.4 147.9c-1.5-8.5-8.3-15.6-16.5-18.5s-17.3-2-25.3 1.4c-8.5 3.5-15.6 9.8-20 17.9-1-.5-2-1-3-1.6-4.7-3.1-8.6-7.6-13.7-10.1-9-4.4-19.9-1.5-28.7 3.4-8.8 4.8-16.6 11.5-25.8 15.3-9.3 3.8-21.1 4-28.1-3.2-4.6 13.4 2.5 28.1 15.9 32.7 7.2 2.5 15.2 1.6 21.8-2.3 10.2-6.2 15.8-19.2 27.2-22.6 6.3-1.9 13.1-.4 19.4 1.3 3.8 1.1 7.6 1.9 11.5 2.4 0 7 2.7 13.7 7.4 18.9 7.9 8.3 20.2 10.5 31.6 10.4l.2-.2c-3.5-5.2-6.3-12.5-2.4-17.5 3.8-4.9 11.3-4.2 17.1-6.4 8.2-3.3 12.9-12.8 11.4-21.3z" class="st6"/></svg>