<svg xmlns="http://www.w3.org/2000/svg" viewBox="0 0 933.3 528">
<style>.st0{fill:#eee;}.st1{fill:#111;}.st2{fill:#CCC;}.st3{fill:#345;}.st4{fill:#396;}.st5{fill:#f99;}.st6{fill:#456;}
</style>
<path class="st0" d="M809.4,259h-603c-18.2,0-33-14.8-33-33V33c0-18.2,14.8-33,33-33h603c18.2,0,33,14.8,33,33v193C842.4,244.2,827.6,259,809.4,259z"/>
<path class="st1" d="M207.4,13c-11,0-20,9-20,20v193c0,11,9,20,20,20h603c11,0,20-9,20-20V33c0-11-9-20-20-20H207.4L207.4,13z"/>
<path class="st2" d="M283.1,93.7c-12.1,0-21.9-9.8-21.9-21.9s9.8-21.9,21.9-21.9S305,59.7,305,71.8S295.2,93.7,283.1,93.7zM283.1,52.8c-10.5,0-19,8.5-19,19s8.5,19,19,19s19-8.5,19-19C302,61.4,293.5,52.9,283.1,52.8z"/>
<path class="st2" d="M282.6,66.9l-2.4,1.2l-0.3-1.4l2.9-1.6h1.5v13.3h-1.7V66.9z"/>
<path class="st0" d="M253.2,129.1c1.4,0,2.6-1.1,2.7-2.5s-1.1-2.6-2.5-2.7s-2.6,1.1-2.7,2.5v0.2C250.7,128,251.8,129.1,253.2,129.1zM253.2,145.2c1.4,0,2.6-1.1,2.7-2.5s-1.1-2.6-2.5-2.7s-2.6,1.1-2.7,2.5v0.2C250.7,144,251.8,145.1,253.2,145.2zM314,128h-46.7c-0.8,0-1.5-0.7-1.5-1.5s0.7-1.5,1.5-1.5H314c0.8,0,1.5,0.7,1.5,1.5S314.8,128,314,128zM314,144.1h-46.7c-0.8,0-1.5-0.7-1.5-1.5s0.7-1.5,1.5-1.5H314c0.8,0,1.5,0.7,1.5,1.5S314.8,144.1,314,144.1z"/>
<path class="st2" d="M418.8,90.7c-12.1,0-21.9-9.8-21.9-21.9s9.8-21.9,21.9-21.9s21.9,9.8,21.9,21.9S430.9,90.7,418.8,90.7zM418.8,49.8c-10.5,0-19,8.5-19,19s8.5,19,19,19s19-8.5,19-19C437.7,58.4,429.2,49.9,418.8,49.8z"/>
<path class="st2" d="M414.9,75.6v-1.1l1.4-1.4c3.4-3.2,4.9-5,5-7c0.1-1.3-0.8-2.5-2.1-2.6h-0.5c-1,0-2,0.4-2.8,1.1l-0.6-1.3c1.1-0.9,2.4-1.4,3.8-1.4c2.1-0.2,3.9,1.3,4.1,3.4v0.5c0,2.5-1.8,4.4-4.6,7.1l-1.1,1h6v1.5h-8.6L414.9,75.6z"/>
<path class="st1" d="M476.8,208h-116c-5,0-9-4-9-9v-69c0-5,4-9,9-9h116c5,0,9,4,9,9v69C485.8,203.9,481.7,208,476.8,208z"/>
<path class="st0" d="M458.2,139.6h-78.9c-0.8,0-1.5-0.7-1.5-1.5s0.7-1.5,1.5-1.5h78.9c0.8,0,1.5,0.7,1.5,1.5S459,139.6,458.2,139.6zM458.2,152.8h-78.9c-0.8,0-1.5-0.7-1.5-1.5s0.7-1.5,1.5-1.5h78.9c0.8,0,1.5,0.7,1.5,1.5C459.6,152.1,459,152.8,458.2,152.8zM458.2,165.9h-78.9c-0.8,0-1.5-0.7-1.5-1.5s0.7-1.5,1.5-1.5h78.9c0.8,0,1.5,0.7,1.5,1.5S459,165.9,458.2,165.9zM458.2,179.1h-78.9c-0.8,0-1.5-0.7-1.5-1.5s0.7-1.5,1.5-1.5h78.9c0.8,0,1.5,0.7,1.5,1.5C459.6,178.4,459,179.1,458.2,179.1zM458.2,192.2h-78.9c-0.8,0-1.5-0.7-1.5-1.5s0.7-1.5,1.5-1.5h78.9c0.8,0,1.5,0.7,1.5,1.5C459.7,191.6,459,192.2,458.2,192.2z"/>
<path class="st0" d="M476.8,208h-116c-5,0-9-4-9-9v-69c0-5,4-9,9-9h116c5,0,9,4,9,9v69C485.8,203.9,481.7,208,476.8,208zM360.8,123c-3.9,0-7,3.1-7,7v69c0,3.9,3.1,7,7,7h116c3.9,0,7-3.1,7-7v-69c0-3.9-3.1-7-7-7H360.8z"/>
<path class="st2" d="M565.5,90.7c-12.1,0-21.9-9.8-21.9-21.9s9.8-21.9,21.9-21.9s21.9,9.8,21.9,21.9S577.6,90.7,565.5,90.7zM565.5,49.8c-10.5,0-19,8.5-19,19s8.5,19,19,19s19-8.5,19-19C584.5,58.4,576,49.9,565.5,49.8z"/>
<path class="st2" d="M561.9,73.4c0.9,0.5,1.9,0.8,2.9,0.8c2.3,0,3-1.5,3-2.6c0-1.9-1.7-2.7-3.4-2.7h-1v-1.4h1c1.3,0,3-0.7,3-2.3c0-1.1-0.7-2-2.3-2c-1,0-1.9,0.3-2.7,0.9l-0.5-1.3c1-0.7,2.2-1,3.5-1c2.6,0,3.8,1.6,3.8,3.2c0,1.5-1,2.8-2.5,3.1c1.7,0.2,3,1.7,3,3.4c0,2.1-1.7,4-4.8,4c-1.2,0-2.4-0.3-3.5-0.9C561.4,74.6,561.9,73.4,561.9,73.4z"/>
<path class="st0" d="M606.5,168h-82c-3.9,0-7-3.1-7-7v-33c0-3.9,3.1-7,7-7h82c3.9,0,7,3.1,7,7v33C613.5,164.8,610.4,168,606.5,168zM524.5,123c-2.8,0-5,2.2-5,5v33c0,2.8,2.2,5,5,5h82c2.8,0,5-2.2,5-5v-33c0-2.8-2.2-5-5-5H524.5z"/>
<path class="st0" d="M519.7,164.1l91-41l0.8,1.8l-91,41L519.7,164.1z"/>
<path class="st0" d="M520,124.4l0.8-1.8l90.4,41.5l-0.8,1.8L520,124.4z"/>
<path class="st2" d="M673.9,145.8c-0.1-0.1-0.1-0.2-0.2-0.3l-11-11c-0.6-0.6-1.5-0.6-2.1,0s-0.6,1.5,0,2.1l8.5,8.5h-37.4c-0.8,0-1.5,0.7-1.5,1.5s0.7,1.5,1.5,1.5h37.4l-7.7,7.7c-0.6,0.6-0.6,1.5,0,2.1s1.5,0.6,2.1,0l10.2-10.2C674.1,147.1,674.2,146.4,673.9,145.8L673.9,145.8z"/>
<path class="st3" d="M767.2,117.1h-0.7V98.4c0-6-4.9-10.9-10.9-10.9h-39.7c-6,0-10.9,4.9-10.9,10.9v102.9c0,6,4.9,10.9,10.9,10.9h39.7c6,0,10.9-4.9,10.9-10.9v-70.8h0.7V117.1z"/>
<path class="st1" d="M764.2,98.4v102.7c0,4.5-3.6,8.1-8.1,8.1h-39.9c-4.5,0-8.1-3.6-8.1-8.1V98.4c0-4.5,3.6-8.1,8.1-8.1h4.8c-0.8,2,0.1,4.2,2.1,5c0.5,0.2,1,0.3,1.4,0.3h22.8c2.1,0,3.9-1.7,3.8-3.9c0-0.5-0.1-1-0.3-1.4h5.2C760.5,90.3,764.2,94,764.2,98.4z"/>
<path class="st4" d="M241,217.1c-0.8-1.1-1.1-2.5-0.8-3.8c3.8-15.9,3.8-32.4,0-48.3c-0.3-1.3,0-2.7,0.8-3.8c0.8-1,2.1-1.7,3.4-1.7H285c2.1,0,4,1.6,4.3,3.7c2.6,17.2,2.6,34.6,0,51.8c-0.3,2.1-2.2,3.7-4.3,3.7h-40.5C243.1,218.8,241.9,218.1,241,217.1L241,217.1z"/>
<path class="st1" d="M277.1,181.4h-21.3c-1.7,0-3-1.3-3-3v-1.3c0-1.7,1.3-3,3-3h21.3c1.7,0,3,1.3,3,3v1.3C280.1,180.1,278.8,181.4,277.1,181.4zM277.1,194h-21.3c-1.7,0-3-1.3-3-3v-1.3c0-1.7,1.3-3,3-3h21.3c1.7,0,3,1.3,3,3v1.3C280.1,192.6,278.8,194,277.1,194z"/>
<path class="st4" d="M615.9,254c-2.6-16.9-2.6-34.1,0-51c0.3-2.1,2.1-3.6,4.2-3.6H660c1.3,0,2.5,0.6,3.4,1.6c0.8,1,1.1,2.4,0.8,3.7c-3.7,15.6-3.7,31.9,0,47.5c0.3,1.3,0,2.7-0.8,3.7s-2,1.6-3.4,1.6h-39.9C618,257.6,616.2,256.1,615.9,254L615.9,254z"/>
<path class="st1" d="M648.4,225.4h-20.9c-1.7,0-3-1.3-3-3v-1.2c0-1.7,1.3-3,3-3h20.9c1.7,0,3,1.3,3,3v1.2C651.4,224,650.1,225.4,648.4,225.4z"/>
<path class="st5" d="M896.6,331.4c2.5-5,0.7-11-4.1-13.9c-0.5-0.3-1-0.5-1.5-0.7l-0.8-36.3l-14.5,10.7l3,32.8c-1.1,4.5,0.9,9.2,4.9,11.6c4.5,2.5,10.1,0.9,12.6-3.6C896.3,331.9,896.5,331.6,896.6,331.4L896.6,331.4z"/>
<path class="st5" d="M829.8,514.9h-12.2l-5.8-47.3h18.1L829.8,514.9z"/>
<path class="st6" d="M833,526.8h-39.5v-0.5c0-8.5,6.9-15.4,15.4-15.4H833V526.8z"/>
<path class="st5" d="M865.8,514.9h-12.2l-5.8-47.3h18.1L865.8,514.9z"/>
<path class="st6" d="M869,526.8h-39.5v-0.5c0-8.5,6.9-15.4,15.4-15.4H869V526.8zM874.1,323.8l-2.9,173.7c0,2.2-1.9,4-4.1,3.9h-0.3l-14.3-1.3c-1.9-0.2-3.5-1.7-3.6-3.7l-8.4-108.3c0-0.6-0.5-1-1.1-0.9c-0.5,0-0.9,0.5-0.9,1L834.3,499c-0.1,2.1-1.8,3.8-4,3.8h-15.4c-2.1,0-3.9-1.6-4-3.8l-10.8-176.2l64-16L874.1,323.8z"/>
<circle class="st5" cx="827.7" cy="136.1" r="24.6"/>
<path class="st6" d="M829.6,150.3c0.6,7,14.1,13.3,19.4,9.5c3.6-14.4,11.6-33.2-0.4-45.7c-10.5-12.5-59.9-2.5-53.7,14.9c20.4-4.2,5,14.2,20.8,12.8C826.1,133.5,828.2,140,829.6,150.3L829.6,150.3z"/>
<path class="st5" d="M793.9,335.1c4.3-3.5,5-9.8,1.5-14.1c-0.4-0.5-0.8-0.9-1.2-1.3l13.4-33.1l-18.2,3.7l-9.9,30.9c-3.4,4.4-2.5,10.8,1.9,14.2C785.1,338.1,790.3,338.1,793.9,335.1L793.9,335.1z"/>
<path class="st3" d="M890.2,244.2L876,198.8c-1.7-5.3-6.3-8.7-11.3-8.8l-14.8-9c0,0-3.7-12.6-14.1-12.6s-19.4,1.2-21.7,11.6c0,0-19.3,2.7-19.3,27.4l0.7,48.8l-15.1,55.2c-0.6,2.2,0.6,4.6,2.8,5.4c0,0,10.9,3.8,11.5,3.9s1.5,2.3,1.8,5.1s3.3,4.4,4.6,4.6h0.1c0,0,73.3-0.5,73.8-0.6c2.4-0.6,3.8-3.1,3.2-5.5l-3.5-13.3c-4.2-16.3-6.2-33-5.8-49.7l6.7,50.7c1.2,8.1,17.5,2.4,18,1.8c0.7-0.9,1.1-2.1,1-3.3L890.2,244.2z"/>
<path class="st5" d="M51.4,500.7l11,5.4l26-39.9l-16.2-8L51.4,500.7z"/>
<path class="st6" d="M50.3,495.7L72,506.4c7.6,3.7,10.8,13,7,20.6l-0.2,0.4L43.3,510L50.3,495.7z"/>
<path class="st5" d="M160.5,519.5h12.2l5.8-47.3h-18.1L160.5,519.5z"/>
<path class="st6" d="M157.3,511.5h24.1c8.5,0,15.4,6.9,15.4,15.4v0.5h-39.5V511.5L157.3,511.5z"/>
<circle class="st5" cx="134.1" cy="168.6" r="24.6"/>
<path class="st6" d="M158.6,503.9c-2.4,0-4.4-1.9-4.5-4.3l-11-127.8L81,488.5c-1.1,2.2-3.8,3-6,1.9L58.1,482c-2.2-1.1-3.1-3.8-2-6L129,323.8l54.3,18.8v0.2l-2,154.4c0,2.3-1.8,4.3-4.1,4.5L159,504C158.9,503.9,158.7,503.9,158.6,503.9z"/>
<path class="st5" d="M108.2,356.4c5-3.1,6.6-9.7,3.5-14.8c-0.3-0.5-0.7-1-1.1-1.5l3.7-97.9l-18,2.2l-1.5,95.2c-4.2,4.3-4.1,11.1,0.2,15.3C98.5,358.5,104,359.1,108.2,356.4z"/>
<path class="st6" d="M119.6,259.6l-24.2-2.7c-2.6-0.3-4.5-2.7-4.2-5.3c0-0.2,0.1-0.5,0.1-0.7l6.2-23.4c0.9-7.3,7.5-12.6,14.9-11.7c7.3,0.9,12.5,7.5,11.7,14.8l0.8,24.2c0.1,2.7-2,4.9-4.7,5C120.1,259.6,119.8,259.6,119.6,259.6L119.6,259.6z"/>
<path class="st5" d="M223.5,199.6l-43,24.8l-10.4-6L158.9,233l17.5,12.4c2.9,2.1,6.8,2,9.6-0.2l44.3-34.9c5.4,2,11.5-0.8,13.5-6.2s-0.8-11.5-6.2-13.5S222.4,189.8,223.5,199.6z"/>
<path class="st6" d="M165.2,243.6c-1.5,2-4.3,2.3-6.3,0.8c-0.2-0.1-0.3-0.3-0.5-0.4l-15.7-16.3c-5.4-4.2-6.4-12.1-2.2-17.5s12-6.4,17.5-2.2l19.7,11c2.2,1.2,2.9,4,1.7,6.1C179.3,225.2,165.2,243.6,165.2,243.6z"/>
<path class="st4" d="M190.4,350.1l-26.7-129.8c-2.6-12.8-14.9-21.3-27.9-19.1l-8.9,1.5c-6.2,1-11.8,4.5-15.5,9.7c-5.9,8.2-7.7,18.6-5,28.3l14.7,52.7l-10.9,56.4c-0.4,2.2,1,4.3,3.2,4.7c0.4,0.1,60.5-2.5,71.9,0.4c2.1,0.6,4.3-0.7,4.9-2.8C190.5,351.4,190.5,350.7,190.4,350.1L190.4,350.1z"/>
<path class="st6" d="M162.4,147.9c-7.1-30.1-50.7-23.1-61.8,0.8c-36.4-41.9-64.9,28.5-99.3,3.8c-8.3,22,18,43,37.7,30.4c23-22.3,26-27.6,58.1-18.9c-0.4,20.3,21,31,39.2,29.1c-3.5-5.2-6.3-12.5-2.4-17.5C145.2,168.6,166.5,167.6,162.4,147.9L162.4,147.9z"/>
</svg>