<svg xmlns="http://www.w3.org/2000/svg" viewBox="0 0 731.7 436.4"><style>.st0{fill:#eee}.st1{fill:#ccc}.st2{fill:#222}.st3{fill:#396}</style><path d="M635.3 342.4H495.6c-1.1 0-1.8 0-2.5-13.3-.4-8-.6-18.5-.6-29.8V52c0-9.7.2-19.1.5-26.5.2-4.5.4-8 .6-10.6.5-5.1.9-5.9 2-5.9h139.6c1.1 0 1.5.9 2 5.9.2 2.6.4 6.2.6 10.6.3 7.4.5 16.8.5 26.5v247.3c0 11.2-.2 21.8-.6 29.8-.6 13.3-1.4 13.3-2.4 13.3zm-139.1-2h138.5c.7-2.7 1.6-17.6 1.6-41V52c0-9.7-.2-19.1-.5-26.4-.2-4.4-.4-7.9-.6-10.5-.1-1.4-.3-2.7-.6-4.1H496.2c-.3 1.3-.5 2.7-.6 4.1-.2 2.6-.4 6.1-.6 10.5-.3 7.4-.5 16.8-.5 26.4v247.3c0 23.5 1 38.3 1.7 41.1z" class="st0"/><path d="M635.3 10H495.6c-1.1 0-2.1.9-2.1 2.1v12.2c0 .5.2.9.5 1.3.4.5 1 .8 1.6.8h139.6c.6 0 1.2-.3 1.6-.8.3-.4.5-.8.5-1.3V12.1c0-1.2-.9-2.1-2-2.1z" class="st1"/><circle cx="505.6" cy="17.6" r="2.9" class="st2"/><circle cx="516.7" cy="17.6" r="2.9" class="st2"/><circle cx="527.9" cy="17.6" r="2.9" class="st2"/><path d="M624.3 13.6h-12.8c-.5 0-.9.4-1 .9 0 .1 0 .3.1.4.2.3.5.5.8.5h12.8c.4 0 .7-.2.9-.5.1-.1.1-.3.1-.4.1-.4-.3-.9-.9-.9zm0 3.6h-12.8c-.5 0-.9.4-.9 1 0 .5.4.9.9.9h12.8c.5 0 1-.4 1-.9 0-.6-.4-1-1-1zm0 3.6h-12.8c-.5 0-.9.4-.9 1 0 .5.4.9.9.9h12.8c.5 0 1-.4 1-.9 0-.6-.4-1-1-1z" class="st2"/><path d="M579.3 53h-26.4c-2.8 0-5 2.2-5 5v22.9c0 2.8 2.2 5 5 5h26.4c2.8 0 5-2.2 5-5V58c0-2.7-2.2-5-5-5z" class="st3"/><path d="M612.2 100.9H520c-1.3 0-2.3 1-2.3 2.3 0 1.3 1 2.3 2.3 2.3h92.2c1.3 0 2.3-1 2.3-2.3 0-1.3-1.1-2.3-2.3-2.3zM555 111.5h-35c-1.3 0-2.3 1-2.3 2.3 0 1.3 1 2.3 2.3 2.3h35c1.3 0 2.3-1 2.3-2.3 0-1.3-1-2.3-2.3-2.3z" class="st0"/><path d="M579.3 152h-26.4c-2.8 0-5 2.2-5 5v22.9c0 2.8 2.2 5 5 5h26.4c2.8 0 5-2.2 5-5V157c0-2.7-2.2-5-5-5z" class="st3"/><path d="M612.2 199.9H520c-1.3 0-2.3 1-2.3 2.3 0 1.3 1 2.3 2.3 2.3h92.2c1.3 0 2.3-1 2.3-2.3 0-1.3-1.1-2.3-2.3-2.3zM555 210.5h-35c-1.3 0-2.3 1-2.3 2.3 0 1.3 1 2.3 2.3 2.3h35c1.3 0 2.3-1 2.3-2.3 0-1.3-1-2.3-2.3-2.3z" class="st0"/><path d="M579.3 251h-26.4c-2.8 0-5 2.2-5 5v22.9c0 2.8 2.2 5 5 5h26.4c2.8 0 5-2.2 5-5V256c0-2.7-2.2-5-5-5z" class="st3"/><path d="M612.2 298.9H520c-1.3 0-2.3 1-2.3 2.3 0 1.3 1 2.3 2.3 2.3h92.2c1.3 0 2.3-1 2.3-2.3 0-1.3-1.1-2.3-2.3-2.3zM555 309.5h-35c-1.3 0-2.3 1-2.3 2.3 0 1.3 1 2.3 2.3 2.3h35c1.3 0 2.3-1 2.3-2.3 0-1.3-1-2.3-2.3-2.3z" class="st0"/><path d="M454.3 3.1c0-1.1-.9-2.1-2.1-2.1H82.6c-1.1 0-2.1.9-2.1 2.1v12.2c0 .5.2 1 .5 1.4-.3 8.3-.5 19.2-.5 31.1v274.9c0 25.8.9 46.7 2.1 46.7h369.7c1.1 0 2.1-21 2.1-46.7v-275c0-11.9-.2-22.8-.5-31.1.3-.4.5-.9.5-1.4l-.1-12.1z" class="st2"/><path d="M452.3 370.4H82.6c-1.1 0-1.8 0-2.5-14.7-.4-8.9-.6-20.6-.6-33.1V47.7c0-11.5.2-22.6.5-31.1C80.7 0 81.5 0 82.6 0h369.7c1.1 0 1.9 0 2.5 16.6.3 8.6.5 19.6.5 31.1v274.9c0 12.5-.2 24.2-.6 33.1-.6 14.7-1.3 14.7-2.4 14.7zm-369.1-2h368.5c.8-3.1 1.7-20.7 1.7-45.7v-275c0-11.5-.2-22.5-.5-31.1-.5-10.4-1-13.6-1.2-14.6H83.2c-.2 1-.7 4.2-1.1 14.7-.3 8.6-.5 19.6-.5 31.1v274.9c-.1 24.9.8 42.5 1.6 45.7z" class="st0"/><path d="M452.3 1H82.6c-1.1 0-2.1.9-2.1 2.1v12.2c0 .5.2 1 .5 1.4.4.4.9.7 1.5.7h369.7c.6 0 1.2-.3 1.5-.7.3-.4.5-.9.5-1.4V3.1c.1-1.2-.8-2.1-1.9-2.1z" class="st1"/><circle cx="92.6" cy="8.6" r="2.9" class="st2"/><circle cx="103.7" cy="8.6" r="2.9" class="st2"/><circle cx="114.9" cy="8.6" r="2.9" class="st2"/><path d="M441.3 4.6h-12.9c-.5 0-1 .4-1 .9s.4 1 1 1h12.9c.5 0 1-.4 1-1s-.4-.9-1-.9zm0 3.6h-12.9c-.5 0-.9.4-.9 1 0 .5.4.9.9.9h12.9c.5 0 1-.4 1-.9 0-.6-.4-1-1-1zm0 3.6h-12.9c-.5 0-.9.4-.9 1 0 .5.4.9.9.9h12.9c.5 0 1-.4 1-.9 0-.6-.4-1-1-1z" class="st2"/><path d="M202.1 62h-43.3c-4.5 0-8.2 3.7-8.2 8.2v37.5c0 4.5 3.7 8.2 8.2 8.2h43.3c4.5 0 8.2-3.7 8.2-8.2V70.2c0-4.5-3.7-8.2-8.2-8.2z" class="st3"/><path d="M380.5 76.5H229.7c-2.1 0-3.7 1.7-3.7 3.7 0 2.1 1.7 3.7 3.7 3.7h150.8c2.1 0 3.7-1.7 3.7-3.7s-1.6-3.7-3.7-3.7zM287 93.9h-57.3c-2.1 0-3.7 1.7-3.7 3.7 0 2.1 1.7 3.7 3.7 3.7H287c2.1 0 3.7-1.7 3.7-3.7s-1.6-3.7-3.7-3.7z" class="st0"/><path d="M202.1 162h-43.3c-4.5 0-8.2 3.7-8.2 8.2v37.5c0 4.5 3.7 8.2 8.2 8.2h43.3c4.5 0 8.2-3.7 8.2-8.2v-37.5c0-4.5-3.7-8.2-8.2-8.2z" class="st3"/><path d="M380.5 176.5H229.7c-2.1 0-3.7 1.7-3.7 3.7s1.7 3.7 3.7 3.7h150.8c2.1 0 3.7-1.7 3.7-3.7s-1.6-3.7-3.7-3.7zM287 193.9h-57.3c-2.1 0-3.7 1.7-3.7 3.7s1.7 3.7 3.7 3.7H287c2.1 0 3.7-1.7 3.7-3.7s-1.6-3.7-3.7-3.7z" class="st0"/><path d="M202.1 262h-43.3c-4.5 0-8.2 3.7-8.2 8.2v37.5c0 4.5 3.7 8.2 8.2 8.2h43.3c4.5 0 8.2-3.7 8.2-8.2v-37.5c0-4.5-3.7-8.2-8.2-8.2z" class="st3"/><path d="M380.5 276.5H229.7c-2.1 0-3.7 1.7-3.7 3.7s1.7 3.7 3.7 3.7h150.8c2.1 0 3.7-1.7 3.7-3.7s-1.6-3.7-3.7-3.7zM287 293.9h-57.3c-2.1 0-3.7 1.7-3.7 3.7s1.7 3.7 3.7 3.7H287c2.1 0 3.7-1.7 3.7-3.7s-1.6-3.7-3.7-3.7z" class="st0"/><path d="M518.3 435.4H270.6c-1.1 0-2.1-17.5-2.1-39.1V166.1c0-21.6.9-39.1 2.1-39.1h247.6c1.1 0 2.1 17.5 2.1 39.1v230.1c0 21.6-.9 39.2-2 39.2z" class="st2"/><path d="M518.3 436.4H270.6c-1 0-1.8 0-2.5-12.4-.4-7.4-.6-17.3-.6-27.7V166.1c0-10.5.2-20.3.6-27.7.7-12.4 1.4-12.4 2.5-12.4h247.6c1 0 1.8 0 2.5 12.4.4 7.4.6 17.3.6 27.7v230.1c0 10.5-.2 20.3-.6 27.7-.6 12.5-1.4 12.5-2.4 12.5zm-247.1-2h246.5c.7-2.6 1.6-16.4 1.6-38.1V166.1c0-21.7-.9-35.5-1.6-38.1H271.2c-.7 2.6-1.6 16.4-1.6 38.1v230.1c-.1 21.8.8 35.6 1.6 38.2z" class="st0"/><path d="M518.3 143.3H270.6c-1.1 0-2.1-.9-2.1-2.1V129c0-1.1.9-2.1 2.1-2.1h247.6c1.1 0 2.1.9 2.1 2.1v12.2c0 1.2-.9 2.1-2 2.1z" class="st1"/><circle cx="280.6" cy="134.6" r="2.9" class="st2"/><circle cx="291.7" cy="134.6" r="2.9" class="st2"/><circle cx="302.9" cy="134.6" r="2.9" class="st2"/><path d="M507.3 132.5h-12.8c-.5 0-.9-.5-.9-1s.4-.9.9-.9h12.8c.5 0 .9.5.9 1s-.4.9-.9.9zm0 3.6h-12.8c-.5 0-.9-.5-.9-1s.4-.9.9-.9h12.8c.5 0 1 .4 1 .9 0 .6-.4 1-1 1 .1 0 0 0 0 0zm0 3.6h-12.8c-.5 0-.9-.5-.9-1s.4-.9.9-.9h12.8c.5 0 .9.5.9 1s-.4.9-.9.9z" class="st2"/><path d="M346.7 218.9h-31.6c-3.3 0-6-2.7-6-6v-27.4c0-3.3 2.7-6 6-6h31.6c3.3 0 6 2.7 6 6v27.4c0 3.3-2.7 6-6 6z" class="st3"/><path d="M477 195.6H366.9c-1.5 0-2.7-1.2-2.7-2.7 0-1.5 1.2-2.7 2.7-2.7H477c1.5 0 2.7 1.2 2.7 2.7 0 1.5-1.2 2.7-2.7 2.7zm-68.3 12.7h-41.8c-1.5 0-2.7-1.2-2.7-2.7 0-1.5 1.2-2.7 2.7-2.7h41.8c1.5 0 2.7 1.2 2.7 2.7 0 1.5-1.2 2.7-2.7 2.7z" class="st0"/><path d="M346.7 299.9h-31.6c-3.3 0-6-2.7-6-6v-27.4c0-3.3 2.7-6 6-6h31.6c3.3 0 6 2.7 6 6v27.4c0 3.3-2.7 6-6 6z" class="st3"/><path d="M477 276.6H366.9c-1.5 0-2.7-1.2-2.7-2.7s1.2-2.7 2.7-2.7H477c1.5 0 2.7 1.2 2.7 2.7s-1.2 2.7-2.7 2.7zm-68.3 12.7h-41.8c-1.5 0-2.7-1.2-2.7-2.7s1.2-2.7 2.7-2.7h41.8c1.5 0 2.7 1.2 2.7 2.7s-1.2 2.7-2.7 2.7z" class="st0"/><path d="M346.7 380.9h-31.6c-3.3 0-6-2.7-6-6v-27.4c0-3.3 2.7-6 6-6h31.6c3.3 0 6 2.7 6 6v27.4c0 3.3-2.7 6-6 6z" class="st3"/><path d="M477 357.6H366.9c-1.5 0-2.7-1.2-2.7-2.7s1.2-2.7 2.7-2.7H477c1.5 0 2.7 1.2 2.7 2.7s-1.2 2.7-2.7 2.7zm-68.3 12.7h-41.8c-1.5 0-2.7-1.2-2.7-2.7s1.2-2.7 2.7-2.7h41.8c1.5 0 2.7 1.2 2.7 2.7s-1.2 2.7-2.7 2.7z" class="st0"/></svg>